<svg version="1.1" xmlns="http://www.w3.org/2000/svg" viewBox="0 0 167.04412454877047 129.26827014459695" width="167.04412454877047" height="129.26827014459695" class="excalidraw-svg"><!-- svg-source:excalidraw --><metadata></metadata><defs><style class="style-fonts">
      </style></defs><g stroke-linecap="round"><g transform="translate(20.26585496830012 57.934408635320324) rotate(0 63.2380627674504 8.183749299317014)" fill-rule="evenodd"><path d="M0 0 C0.74 -1.54, 1.76 -7.22, 4.46 -9.26 C7.16 -11.3, 11.88 -10.72, 16.2 -12.23 C20.53 -13.75, 25.76 -17.33, 30.42 -18.35 C35.08 -19.37, 41.33 -16.84, 44.14 -18.35 C46.95 -19.87, 44.61 -23.53, 47.28 -27.44 C49.96 -31.36, 52.88 -39.05, 60.18 -41.83 C67.48 -44.61, 81.51 -46.15, 91.1 -44.14 C100.68 -42.13, 111.24 -35.38, 117.71 -29.76 C124.19 -24.14, 127.05 -17.88, 129.95 -10.42 C132.84 -2.95, 134.6 8.07, 135.07 15.04 C135.54 22.02, 134.44 25.52, 132.76 31.41 C131.08 37.31, 129.53 45.82, 124.99 50.43 C120.44 55.03, 112.62 57.34, 105.48 59.02 C98.34 60.7, 90.43 62.38, 82.17 60.51 C73.9 58.64, 61.06 50.65, 55.88 47.78 C50.7 44.91, 52.82 42.43, 51.09 43.32 C49.35 44.2, 48.99 52.19, 45.47 53.07 C41.94 53.95, 33.56 48.85, 29.92 48.61 C26.29 48.36, 28.33 51.09, 23.64 51.58 C18.96 52.08, 6.97 53.15, 1.82 51.58 C-3.33 50.01, -6.75 45.3, -7.27 42.16 C-7.8 39.02, -1.1 35.38, -1.32 32.73 C-1.54 30.09, -7.44 29.57, -8.6 26.29 C-9.75 23.01, -9.42 16.51, -8.27 13.06 C-7.11 9.62, -3.03 7.8, -1.65 5.62 C-0.28 3.44, -0.28 0.94, 0 0" stroke="none" stroke-width="0" fill="#f3d3c4" fill-rule="evenodd"></path><path d="M0 0 C0.74 -1.54, 1.76 -7.22, 4.46 -9.26 C7.16 -11.3, 11.88 -10.72, 16.2 -12.23 C20.53 -13.75, 25.76 -17.33, 30.42 -18.35 C35.08 -19.37, 41.33 -16.84, 44.14 -18.35 C46.95 -19.87, 44.61 -23.53, 47.28 -27.44 C49.96 -31.36, 52.88 -39.05, 60.18 -41.83 C67.48 -44.61, 81.51 -46.15, 91.1 -44.14 C100.68 -42.13, 111.24 -35.38, 117.71 -29.76 C124.19 -24.14, 127.05 -17.88, 129.95 -10.42 C132.84 -2.95, 134.6 8.07, 135.07 15.04 C135.54 22.02, 134.44 25.52, 132.76 31.41 C131.08 37.31, 129.53 45.82, 124.99 50.43 C120.44 55.03, 112.62 57.34, 105.48 59.02 C98.34 60.7, 90.43 62.38, 82.17 60.51 C73.9 58.64, 61.06 50.65, 55.88 47.78 C50.7 44.91, 52.82 42.43, 51.09 43.32 C49.35 44.2, 48.99 52.19, 45.47 53.07 C41.94 53.95, 33.56 48.85, 29.92 48.61 C26.29 48.36, 28.33 51.09, 23.64 51.58 C18.96 52.08, 6.97 53.15, 1.82 51.58 C-3.33 50.01, -6.75 45.3, -7.27 42.16 C-7.8 39.02, -1.1 35.38, -1.32 32.73 C-1.54 30.09, -7.44 29.57, -8.6 26.29 C-9.75 23.01, -9.42 16.51, -8.27 13.06 C-7.11 9.62, -3.03 7.8, -1.65 5.62 C-0.28 3.44, -0.28 0.94, 0 0 M0 0 C0.74 -1.54, 1.76 -7.22, 4.46 -9.26 C7.16 -11.3, 11.88 -10.72, 16.2 -12.23 C20.53 -13.75, 25.76 -17.33, 30.42 -18.35 C35.08 -19.37, 41.33 -16.84, 44.14 -18.35 C46.95 -19.87, 44.61 -23.53, 47.28 -27.44 C49.96 -31.36, 52.88 -39.05, 60.18 -41.83 C67.48 -44.61, 81.51 -46.15, 91.1 -44.14 C100.68 -42.13, 111.24 -35.38, 117.71 -29.76 C124.19 -24.14, 127.05 -17.88, 129.95 -10.42 C132.84 -2.95, 134.6 8.07, 135.07 15.04 C135.54 22.02, 134.44 25.52, 132.76 31.41 C131.08 37.31, 129.53 45.82, 124.99 50.43 C120.44 55.03, 112.62 57.34, 105.48 59.02 C98.34 60.7, 90.43 62.38, 82.17 60.51 C73.9 58.64, 61.06 50.65, 55.88 47.78 C50.7 44.91, 52.82 42.43, 51.09 43.32 C49.35 44.2, 48.99 52.19, 45.47 53.07 C41.94 53.95, 33.56 48.85, 29.92 48.61 C26.29 48.36, 28.33 51.09, 23.64 51.58 C18.96 52.08, 6.97 53.15, 1.82 51.58 C-3.33 50.01, -6.75 45.3, -7.27 42.16 C-7.8 39.02, -1.1 35.38, -1.32 32.73 C-1.54 30.09, -7.44 29.57, -8.6 26.29 C-9.75 23.01, -9.42 16.51, -8.27 13.06 C-7.11 9.62, -3.03 7.8, -1.65 5.62 C-0.28 3.44, -0.28 0.94, 0 0" stroke="#f3d3c4" stroke-width="1" fill="none"></path></g></g><mask></mask><g stroke-linecap="round"><g transform="translate(15.80507574220428 97.67006875695688) rotate(0 70.07743219782105 -8.144592604105128)" fill-rule="evenodd"><path d="M0 0 C5.09 0.06, 24.04 -0.11, 30.54 0.34 C37.05 0.79, 35.86 2.21, 39.03 2.71 C42.19 3.22, 47.91 6.05, 49.55 3.39 C51.19 0.74, 47.79 -9.5, 48.87 -13.23 C49.94 -16.97, 53.96 -19.23, 55.99 -19 C58.03 -18.78, 58.94 -14.2, 61.08 -11.88 C63.23 -9.56, 63.86 -6.96, 68.89 -5.09 C73.92 -3.22, 84.05 -0.96, 91.29 -0.68 C98.53 -0.4, 106.22 -1.02, 112.33 -3.39 C118.44 -5.77, 124.09 -9.9, 127.94 -14.93 C131.78 -19.97, 133.2 -29.98, 135.4 -33.6 C137.61 -37.22, 140.78 -41.57, 141.17 -36.65 C141.57 -31.73, 140.15 -12.33, 137.78 -4.07 C135.4 4.19, 132.8 8.82, 126.92 12.9 C121.04 16.97, 110.63 19.46, 102.49 20.36 C94.34 21.27, 84.95 20.25, 78.05 18.33 C71.15 16.4, 64.82 11.43, 61.08 8.82 C57.35 6.22, 57.13 2.38, 55.65 2.71 C54.18 3.05, 55.49 9.56, 52.26 10.86 C49.04 12.16, 39.76 11.2, 36.31 10.52 C32.86 9.84, 33.14 6.9, 31.56 6.79 C29.98 6.67, 30.32 9.11, 26.81 9.84 C23.3 10.58, 15.16 11.76, 10.52 11.2 C5.88 10.63, 0.74 8.31, -1.02 6.45 C-2.77 4.58, -0.17 1.07, 0 0" stroke="none" stroke-width="0" fill="#98768f" fill-rule="evenodd"></path><path d="M0 0 C5.09 0.06, 24.04 -0.11, 30.54 0.34 C37.05 0.79, 35.86 2.21, 39.03 2.71 C42.19 3.22, 47.91 6.05, 49.55 3.39 C51.19 0.74, 47.79 -9.5, 48.87 -13.23 C49.94 -16.97, 53.96 -19.23, 55.99 -19 C58.03 -18.78, 58.94 -14.2, 61.08 -11.88 C63.23 -9.56, 63.86 -6.96, 68.89 -5.09 C73.92 -3.22, 84.05 -0.96, 91.29 -0.68 C98.53 -0.4, 106.22 -1.02, 112.33 -3.39 C118.44 -5.77, 124.09 -9.9, 127.94 -14.93 C131.78 -19.97, 133.2 -29.98, 135.4 -33.6 C137.61 -37.22, 140.78 -41.57, 141.17 -36.65 C141.57 -31.73, 140.15 -12.33, 137.78 -4.07 C135.4 4.19, 132.8 8.82, 126.92 12.9 C121.04 16.97, 110.63 19.46, 102.49 20.36 C94.34 21.27, 84.95 20.25, 78.05 18.33 C71.15 16.4, 64.82 11.43, 61.08 8.82 C57.35 6.22, 57.13 2.38, 55.65 2.71 C54.18 3.05, 55.49 9.56, 52.26 10.86 C49.04 12.16, 39.76 11.2, 36.31 10.52 C32.86 9.84, 33.14 6.9, 31.56 6.79 C29.98 6.67, 30.32 9.11, 26.81 9.84 C23.3 10.58, 15.16 11.76, 10.52 11.2 C5.88 10.63, 0.74 8.31, -1.02 6.45 C-2.77 4.58, -0.17 1.07, 0 0 M0 0 C5.09 0.06, 24.04 -0.11, 30.54 0.34 C37.05 0.79, 35.86 2.21, 39.03 2.71 C42.19 3.22, 47.91 6.05, 49.55 3.39 C51.19 0.74, 47.79 -9.5, 48.87 -13.23 C49.94 -16.97, 53.96 -19.23, 55.99 -19 C58.03 -18.78, 58.94 -14.2, 61.08 -11.88 C63.23 -9.56, 63.86 -6.96, 68.89 -5.09 C73.92 -3.22, 84.05 -0.96, 91.29 -0.68 C98.53 -0.4, 106.22 -1.02, 112.33 -3.39 C118.44 -5.77, 124.09 -9.9, 127.94 -14.93 C131.78 -19.97, 133.2 -29.98, 135.4 -33.6 C137.61 -37.22, 140.78 -41.57, 141.17 -36.65 C141.57 -31.73, 140.15 -12.33, 137.78 -4.07 C135.4 4.19, 132.8 8.82, 126.92 12.9 C121.04 16.97, 110.63 19.46, 102.49 20.36 C94.34 21.27, 84.95 20.25, 78.05 18.33 C71.15 16.4, 64.82 11.43, 61.08 8.82 C57.35 6.22, 57.13 2.38, 55.65 2.71 C54.18 3.05, 55.49 9.56, 52.26 10.86 C49.04 12.16, 39.76 11.2, 36.31 10.52 C32.86 9.84, 33.14 6.9, 31.56 6.79 C29.98 6.67, 30.32 9.11, 26.81 9.84 C23.3 10.58, 15.16 11.76, 10.52 11.2 C5.88 10.63, 0.74 8.31, -1.02 6.45 C-2.77 4.58, -0.17 1.07, 0 0" stroke="#98768f" stroke-width="1" fill="none"></path></g></g><mask></mask><g stroke-linecap="round"><g transform="translate(14.257994263987712 76.97696809190302) rotate(0 23.969004864798535 -2.1025442863858643)" fill-rule="evenodd"><path d="M0 0 C2.29 0.51, 9.44 3.04, 13.74 3.08 C18.04 3.13, 22.24 0.79, 25.79 0.28 C29.34 -0.23, 31.82 0.79, 35.04 0 C38.27 -0.79, 42.61 -1.82, 45.13 -4.49 C47.66 -7.15, 49.01 -16.26, 50.18 -15.98 C51.35 -15.7, 52.84 -6.45, 52.14 -2.8 C51.44 0.84, 49.48 4.06, 45.98 5.89 C42.47 7.71, 35.23 7.29, 31.12 8.13 C27.01 8.97, 25.93 10.33, 21.31 10.93 C16.68 11.54, 7.62 13.32, 3.36 11.77 C-0.89 10.23, -3.64 3.64, -4.21 1.68 C-4.77 -0.28, -0.7 0.28, 0 0" stroke="none" stroke-width="0" fill="#98768f" fill-rule="evenodd"></path><path d="M0 0 C2.29 0.51, 9.44 3.04, 13.74 3.08 C18.04 3.13, 22.24 0.79, 25.79 0.28 C29.34 -0.23, 31.82 0.79, 35.04 0 C38.27 -0.79, 42.61 -1.82, 45.13 -4.49 C47.66 -7.15, 49.01 -16.26, 50.18 -15.98 C51.35 -15.7, 52.84 -6.45, 52.14 -2.8 C51.44 0.84, 49.48 4.06, 45.98 5.89 C42.47 7.71, 35.23 7.29, 31.12 8.13 C27.01 8.97, 25.93 10.33, 21.31 10.93 C16.68 11.54, 7.62 13.32, 3.36 11.77 C-0.89 10.23, -3.64 3.64, -4.21 1.68 C-4.77 -0.28, -0.7 0.28, 0 0 M0 0 C2.29 0.51, 9.44 3.04, 13.74 3.08 C18.04 3.13, 22.24 0.79, 25.79 0.28 C29.34 -0.23, 31.82 0.79, 35.04 0 C38.27 -0.79, 42.61 -1.82, 45.13 -4.49 C47.66 -7.15, 49.01 -16.26, 50.18 -15.98 C51.35 -15.7, 52.84 -6.45, 52.14 -2.8 C51.44 0.84, 49.48 4.06, 45.98 5.89 C42.47 7.71, 35.23 7.29, 31.12 8.13 C27.01 8.97, 25.93 10.33, 21.31 10.93 C16.68 11.54, 7.62 13.32, 3.36 11.77 C-0.89 10.23, -3.64 3.64, -4.21 1.68 C-4.77 -0.28, -0.7 0.28, 0 0" stroke="#98768f" stroke-width="1" fill="none"></path></g></g><mask></mask><g transform="translate(73.84951570292651 144) rotate(0 36.812227223836544 -79.83845918270094)" stroke="none"><path fill="#222" d="M -1.30,-47.90 Q -1.30,-47.90 -0.87,-47.04 -0.45,-46.18 0.89,-44.87 2.25,-43.55 3.53,-42.29 4.82,-41.03 6.03,-39.62 7.24,-38.20 8.27,-37.34 9.30,-36.48 10.84,-35.59 12.38,-34.71 13.53,-33.93 14.69,-33.16 15.93,-32.84 17.17,-32.53 18.85,-32.15 20.54,-31.77 22.03,-31.43 23.53,-31.10 24.60,-30.78 25.67,-30.46 26.78,-30.13 27.88,-29.80 29.09,-29.48 30.29,-29.17 31.96,-28.89 33.62,-28.62 34.96,-28.53 36.30,-28.45 37.51,-28.16 38.71,-27.87 40.34,-28.13 41.97,-28.39 43.16,-28.41 44.35,-28.43 45.66,-28.43 46.97,-28.44 48.20,-29.36 49.43,-30.28 51.23,-31.05 53.04,-31.82 55.17,-32.33 57.31,-32.83 58.38,-33.07 59.46,-33.30 61.10,-33.73 62.75,-34.15 63.92,-34.73 65.09,-35.32 66.21,-36.00 67.34,-36.67 68.31,-37.32 69.29,-37.97 70.32,-39.64 71.36,-41.32 72.06,-42.36 72.77,-43.40 73.36,-44.65 73.95,-45.89 74.50,-46.93 75.04,-47.96 75.78,-49.22 76.52,-50.48 76.72,-51.69 76.91,-52.90 77.26,-53.97 77.61,-55.05 77.89,-56.23 78.18,-57.40 78.22,-58.92 78.27,-60.43 78.27,-61.62 78.27,-62.80 78.27,-64.08 78.27,-65.35 78.53,-67.15 78.79,-68.95 78.84,-70.23 78.90,-71.51 78.65,-73.11 78.41,-74.70 78.35,-76.12 78.29,-77.54 78.28,-78.85 78.27,-80.16 78.28,-81.75 78.28,-83.34 78.55,-84.56 78.82,-85.79 78.51,-87.00 78.20,-88.21 77.62,-89.76 77.04,-91.32 76.55,-92.31 76.06,-93.29 75.02,-95.29 73.99,-97.29 73.30,-98.74 72.61,-100.18 71.90,-101.79 71.20,-103.41 70.44,-105.11 69.68,-106.81 68.56,-108.34 67.43,-109.86 66.40,-111.53 65.36,-113.19 63.91,-114.99 62.46,-116.79 61.33,-117.99 60.20,-119.18 59.17,-120.02 58.14,-120.87 56.96,-121.73 55.77,-122.59 54.19,-123.62 52.61,-124.64 51.18,-125.22 49.75,-125.80 48.73,-126.11 47.70,-126.41 46.51,-126.72 45.33,-127.04 44.21,-127.38 43.10,-127.71 42.07,-128.04 41.03,-128.37 38.94,-129.00 36.84,-129.63 34.59,-130.00 32.33,-130.36 30.44,-130.71 28.55,-131.06 27.20,-131.15 25.84,-131.24 23.92,-131.27 22.00,-131.30 20.32,-130.90 18.65,-130.50 17.48,-130.35 16.32,-130.20 14.36,-129.87 12.40,-129.54 10.97,-129.10 9.54,-128.66 7.97,-127.82 6.40,-126.97 5.41,-126.06 4.42,-125.16 3.45,-124.30 2.47,-123.44 1.72,-122.37 0.96,-121.29 0.06,-119.76 -0.84,-118.23 -1.59,-117.39 -2.34,-116.55 -2.73,-115.21 -3.12,-113.88 -3.50,-112.60 -3.88,-111.31 -4.22,-110.03 -4.55,-108.76 -4.59,-107.45 -4.63,-106.15 -4.64,-105.03 -4.65,-103.92 -5.67,-103.50 -6.69,-103.08 -6.48,-103.02 -6.28,-102.96 -6.11,-102.84 -5.93,-102.71 -5.81,-102.54 -5.68,-102.37 -5.62,-102.17 -5.55,-101.97 -5.55,-101.75 -5.56,-101.54 -5.63,-101.34 -5.70,-101.14 -5.83,-100.97 -5.96,-100.81 -6.14,-100.69 -6.32,-100.57 -6.52,-100.52 -6.73,-100.47 -6.94,-100.48 -7.15,-100.50 -7.35,-100.58 -7.54,-100.66 -7.70,-100.80 -7.86,-100.94 -7.97,-101.12 -8.08,-101.31 -8.12,-101.51 -8.16,-101.72 -8.14,-101.93 -8.11,-102.14 -8.02,-102.34 -7.93,-102.53 -7.78,-102.68 -7.63,-102.83 -7.44,-102.93 -7.25,-103.02 -7.04,-103.06 -6.83,-103.09 -6.62,-103.05 -6.41,-103.01 -6.23,-102.91 -6.04,-102.81 -5.90,-102.65 -5.75,-102.49 -5.67,-102.30 -5.58,-102.11 -5.56,-101.89 -5.54,-101.68 -5.59,-101.48 -5.64,-101.27 -5.75,-101.09 -5.86,-100.91 -6.03,-100.77 -6.19,-100.64 -6.39,-100.56 -6.59,-100.49 -6.80,-100.48 -7.01,-100.47 -7.01,-100.47 -7.01,-100.47 -8.52,-102.82 -10.03,-105.17 -10.00,-106.61 -9.96,-108.05 -9.75,-109.71 -9.53,-111.37 -9.15,-112.75 -8.78,-114.13 -8.31,-115.49 -7.85,-116.84 -7.05,-118.53 -6.26,-120.22 -5.50,-121.08 -4.75,-121.93 -3.93,-123.30 -3.10,-124.67 -2.38,-125.76 -1.65,-126.85 -0.43,-127.97 0.79,-129.09 2.29,-130.37 3.79,-131.65 4.97,-132.34 6.15,-133.04 7.86,-133.70 9.57,-134.36 11.51,-134.69 13.44,-135.02 15.36,-135.35 17.28,-135.69 18.38,-135.98 19.48,-136.26 20.75,-136.47 22.02,-136.67 23.16,-136.66 24.29,-136.66 26.04,-136.59 27.79,-136.53 29.48,-136.21 31.17,-135.88 33.28,-135.53 35.39,-135.18 36.83,-135.00 38.27,-134.82 39.49,-134.48 40.72,-134.14 42.69,-133.50 44.66,-132.87 45.69,-132.55 46.73,-132.24 47.99,-131.90 49.24,-131.56 50.48,-131.18 51.72,-130.80 52.73,-130.40 53.74,-130.00 54.82,-129.44 55.89,-128.89 57.11,-128.10 58.32,-127.32 59.43,-126.67 60.54,-126.02 61.70,-124.93 62.85,-123.84 63.95,-122.72 65.05,-121.60 65.91,-120.81 66.76,-120.02 67.42,-119.14 68.07,-118.26 68.98,-117.18 69.88,-116.11 70.47,-115.20 71.05,-114.29 72.04,-112.78 73.03,-111.27 73.73,-110.33 74.43,-109.38 75.02,-108.25 75.61,-107.11 76.20,-105.50 76.79,-103.89 77.48,-102.50 78.16,-101.11 78.90,-99.47 79.64,-97.83 80.27,-96.77 80.90,-95.71 81.67,-94.17 82.44,-92.63 82.83,-91.42 83.22,-90.20 83.74,-88.38 84.27,-86.55 83.97,-84.89 83.67,-83.22 83.68,-81.70 83.68,-80.18 83.69,-78.92 83.70,-77.65 83.74,-76.51 83.77,-75.36 84.04,-73.96 84.31,-72.56 84.29,-71.47 84.27,-70.38 83.97,-68.67 83.67,-66.95 83.67,-65.51 83.68,-64.06 83.67,-62.81 83.67,-61.55 83.66,-60.44 83.65,-59.33 83.58,-57.98 83.51,-56.63 83.14,-54.98 82.77,-53.32 82.08,-51.39 81.39,-49.45 80.84,-48.22 80.30,-46.98 79.90,-45.93 79.50,-44.89 78.65,-43.72 77.79,-42.56 77.19,-41.41 76.58,-40.26 75.88,-39.22 75.18,-38.18 74.51,-37.29 73.85,-36.40 72.94,-35.36 72.04,-34.33 70.99,-33.66 69.93,-32.98 68.61,-32.19 67.28,-31.39 65.39,-30.56 63.49,-29.73 61.94,-29.33 60.39,-28.93 59.16,-28.68 57.93,-28.43 56.16,-28.01 54.40,-27.60 52.70,-26.91 51.01,-26.22 50.17,-25.52 49.33,-24.83 47.50,-24.52 45.68,-24.20 44.33,-24.19 42.99,-24.18 41.65,-24.10 40.31,-24.02 39.19,-23.86 38.08,-23.71 36.47,-23.99 34.87,-24.27 33.60,-24.43 32.34,-24.60 31.26,-24.81 30.19,-25.01 28.60,-25.35 27.00,-25.70 25.98,-26.01 24.96,-26.33 23.92,-26.66 22.88,-26.99 21.43,-27.34 19.99,-27.68 18.87,-27.84 17.76,-28.01 16.09,-28.53 14.43,-29.05 12.81,-29.74 11.20,-30.42 9.85,-31.28 8.49,-32.14 7.45,-32.72 6.41,-33.30 5.09,-34.49 3.77,-35.68 2.78,-36.83 1.79,-37.98 0.54,-39.23 -0.71,-40.48 -2.04,-41.80 -3.38,-43.11 -3.93,-44.21 -4.48,-45.30 -4.43,-46.29 -4.38,-47.29 -4.39,-47.48 -4.41,-47.66 -4.37,-47.85 -4.34,-48.04 -4.27,-48.21 -4.19,-48.39 -4.08,-48.54 -3.97,-48.69 -3.82,-48.81 -3.67,-48.93 -3.50,-49.01 -3.33,-49.09 -3.14,-49.12 -2.96,-49.16 -2.77,-49.15 -2.58,-49.14 -2.40,-49.09 -2.22,-49.04 -2.05,-48.94 -1.89,-48.85 -1.75,-48.71 -1.62,-48.58 -1.52,-48.42 -1.41,-48.26 -1.36,-48.08 -1.30,-47.90 -1.30,-47.90 L -1.30,-47.90 Z"></path></g><g transform="translate(78.93360151200795 39.229565850455856) rotate(0 -26.525274052200302 22.1792592934371)" stroke="none"><path fill="#222" d="M -15.11,0.63 Q -15.11,0.63 -16.48,0.95 -17.85,1.27 -19.21,1.00 -20.57,0.73 -22.92,0.79 -25.26,0.84 -26.99,1.08 -28.71,1.31 -30.14,1.59 -31.57,1.87 -33.21,2.77 -34.84,3.67 -35.94,4.97 -37.03,6.27 -37.64,7.35 -38.24,8.44 -38.76,10.13 -39.27,11.82 -39.36,13.32 -39.44,14.83 -39.45,16.68 -39.47,18.52 -39.47,20.18 -39.46,21.83 -39.30,23.48 -39.13,25.12 -38.87,26.22 -38.62,27.32 -38.17,29.27 -37.73,31.22 -37.51,32.43 -37.29,33.65 -37.10,35.45 -36.92,37.25 -36.65,38.54 -36.37,39.83 -35.41,40.85 -34.45,41.87 -33.53,42.42 -32.61,42.96 -31.50,43.33 -30.39,43.69 -29.17,43.71 -27.94,43.73 -26.56,43.48 -25.18,43.22 -23.75,42.86 -22.32,42.50 -21.19,41.91 -20.06,41.32 -19.19,40.51 -18.33,39.69 -17.44,38.29 -16.55,36.89 -15.90,35.86 -15.25,34.82 -14.95,33.70 -14.65,32.58 -14.34,31.10 -14.03,29.62 -13.99,28.44 -13.96,27.26 -13.96,25.99 -13.96,24.73 -14.21,23.29 -14.45,21.85 -15.05,20.72 -15.66,19.58 -16.13,18.49 -16.60,17.40 -16.65,15.69 -16.70,13.98 -16.75,13.83 -16.80,13.68 -16.80,13.52 -16.81,13.36 -16.79,13.21 -16.76,13.05 -16.69,12.91 -16.63,12.76 -16.53,12.64 -16.43,12.51 -16.31,12.42 -16.18,12.32 -16.04,12.25 -15.90,12.19 -15.74,12.16 -15.58,12.13 -15.43,12.14 -15.27,12.15 -15.12,12.20 -14.97,12.24 -14.83,12.32 -14.69,12.41 -14.58,12.52 -14.47,12.63 -14.39,12.77 -14.31,12.90 -14.81,13.82 -15.30,14.74 -15.52,14.74 -15.73,14.73 -15.93,14.66 -16.13,14.60 -16.30,14.46 -16.47,14.33 -16.58,14.16 -16.70,13.98 -16.76,13.78 -16.81,13.57 -16.80,13.36 -16.78,13.15 -16.70,12.95 -16.62,12.75 -16.48,12.59 -16.34,12.43 -16.16,12.32 -15.98,12.22 -15.77,12.17 -15.56,12.13 -15.35,12.15 -15.14,12.18 -14.95,12.27 -14.76,12.36 -14.60,12.51 -14.45,12.66 -14.35,12.85 -14.25,13.03 -14.22,13.24 -14.19,13.45 -14.23,13.66 -14.26,13.87 -14.36,14.06 -14.47,14.25 -14.62,14.39 -14.78,14.54 -14.97,14.62 -15.17,14.71 -15.38,14.73 -15.59,14.75 -15.80,14.70 -16.00,14.66 -16.18,14.54 -16.36,14.43 -16.50,14.27 -16.64,14.11 -16.71,13.91 -16.79,13.71 -16.80,13.50 -16.81,13.29 -16.75,13.08 -16.69,12.88 -16.57,12.70 -16.45,12.53 -16.28,12.40 -16.11,12.27 -16.40,13.13 -16.70,13.98 -16.75,13.83 -16.80,13.68 -16.80,13.52 -16.81,13.36 -16.79,13.21 -16.76,13.05 -16.69,12.91 -16.63,12.76 -16.53,12.64 -16.43,12.51 -16.31,12.42 -16.18,12.32 -16.04,12.25 -15.90,12.19 -15.74,12.16 -15.58,12.13 -15.43,12.14 -15.27,12.15 -15.12,12.20 -14.97,12.24 -14.83,12.32 -14.69,12.41 -14.58,12.52 -14.47,12.63 -14.39,12.77 -14.31,12.90 -12.54,14.60 -10.76,16.30 -10.08,17.76 -9.40,19.22 -9.05,20.34 -8.70,21.46 -8.42,23.11 -8.14,24.76 -8.16,26.09 -8.19,27.41 -8.27,28.90 -8.35,30.39 -8.69,31.97 -9.04,33.54 -9.44,34.90 -9.85,36.25 -10.53,37.61 -11.21,38.98 -11.80,39.92 -12.39,40.85 -13.12,41.87 -13.84,42.89 -15.06,44.09 -16.27,45.30 -17.36,45.83 -18.45,46.36 -20.04,47.05 -21.64,47.75 -23.00,48.08 -24.35,48.42 -25.53,48.69 -26.70,48.96 -27.95,48.94 -29.19,48.93 -30.42,48.81 -31.64,48.70 -32.72,48.30 -33.81,47.91 -35.20,47.24 -36.58,46.56 -37.90,45.43 -39.22,44.29 -39.99,43.26 -40.77,42.23 -41.15,40.87 -41.53,39.51 -41.80,37.78 -42.07,36.05 -42.38,34.65 -42.68,33.25 -42.81,31.96 -42.95,30.68 -43.26,29.57 -43.57,28.47 -43.85,27.28 -44.12,26.09 -44.32,23.96 -44.52,21.83 -44.51,20.16 -44.50,18.49 -44.47,16.56 -44.44,14.63 -44.29,12.74 -44.13,10.86 -43.85,9.61 -43.56,8.35 -43.03,7.19 -42.50,6.02 -41.78,4.77 -41.06,3.52 -40.15,2.28 -39.24,1.03 -38.38,0.33 -37.52,-0.36 -36.44,-1.05 -35.36,-1.74 -33.93,-2.30 -32.51,-2.86 -30.94,-3.16 -29.37,-3.45 -27.52,-3.71 -25.68,-3.96 -23.88,-4.09 -22.07,-4.22 -20.84,-4.09 -19.62,-3.95 -18.40,-3.69 -17.17,-3.43 -15.95,-2.74 -14.72,-2.05 -14.57,-2.00 -14.41,-1.96 -14.26,-1.88 -14.12,-1.80 -14.00,-1.69 -13.88,-1.58 -13.79,-1.45 -13.70,-1.31 -13.65,-1.16 -13.59,-1.00 -13.58,-0.84 -13.56,-0.68 -13.58,-0.52 -13.61,-0.35 -13.67,-0.20 -13.73,-0.05 -13.82,0.07 -13.92,0.20 -14.04,0.31 -14.17,0.42 -14.31,0.49 -14.46,0.56 -14.62,0.60 -14.78,0.63 -14.94,0.63 -15.11,0.63 -15.11,0.63 L -15.11,0.63 Z"></path></g><g stroke-linecap="round"><g transform="translate(100.60724282720184 86.7668325769364) rotate(0 -4.784444514282086 12.918975968486166)" fill-rule="evenodd"><path d="M0 0 C-0.68 0.68, -3.42 2.44, -4.1 4.1 C-4.79 5.76, -3.18 9.38, -4.1 9.96 C-5.03 10.55, -8.21 7.33, -9.67 7.62 C-11.14 7.91, -13.04 10.45, -12.9 11.72 C-12.75 12.99, -10.31 14.41, -8.79 15.24 C-7.28 16.07, -4.49 15.39, -3.81 16.71 C-3.13 18.02, -5.18 21.6, -4.7 23.12 C-4.21 24.64, -1.42 26.55, -0.91 25.84 C-0.4 25.12, -1.89 20.25, -1.65 18.84 C-1.4 17.43, 0.1 16.69, 0.56 17.36 C1.02 18.04, 0.72 22.77, 1.12 22.89 C1.52 23.01, 2.59 19.48, 2.96 18.1 C3.33 16.72, 3.85 15.46, 3.33 14.6 C2.8 13.74, 0.44 14.97, -0.17 12.94 C-0.79 10.92, -0.39 4.6, -0.36 2.44 C-0.33 0.28, -0.06 0.41, 0 0" stroke="none" stroke-width="0" fill="#80c4ff" fill-rule="evenodd"></path><path d="M0 0 C-0.68 0.68, -3.42 2.44, -4.1 4.1 C-4.79 5.76, -3.18 9.38, -4.1 9.96 C-5.03 10.55, -8.21 7.33, -9.67 7.62 C-11.14 7.91, -13.04 10.45, -12.9 11.72 C-12.75 12.99, -10.31 14.41, -8.79 15.24 C-7.28 16.07, -4.49 15.39, -3.81 16.71 C-3.13 18.02, -5.18 21.6, -4.7 23.12 C-4.21 24.64, -1.42 26.55, -0.91 25.84 C-0.4 25.12, -1.89 20.25, -1.65 18.84 C-1.4 17.43, 0.1 16.69, 0.56 17.36 C1.02 18.04, 0.72 22.77, 1.12 22.89 C1.52 23.01, 2.59 19.48, 2.96 18.1 C3.33 16.72, 3.85 15.46, 3.33 14.6 C2.8 13.74, 0.44 14.97, -0.17 12.94 C-0.79 10.92, -0.39 4.6, -0.36 2.44 C-0.33 0.28, -0.06 0.41, 0 0 M0 0 C-0.68 0.68, -3.42 2.44, -4.1 4.1 C-4.79 5.76, -3.18 9.38, -4.1 9.96 C-5.03 10.55, -8.21 7.33, -9.67 7.62 C-11.14 7.91, -13.04 10.45, -12.9 11.72 C-12.75 12.99, -10.31 14.41, -8.79 15.24 C-7.28 16.07, -4.49 15.39, -3.81 16.71 C-3.13 18.02, -5.18 21.6, -4.7 23.12 C-4.21 24.64, -1.42 26.55, -0.91 25.84 C-0.4 25.12, -1.89 20.25, -1.65 18.84 C-1.4 17.43, 0.1 16.69, 0.56 17.36 C1.02 18.04, 0.72 22.77, 1.12 22.89 C1.52 23.01, 2.59 19.48, 2.96 18.1 C3.33 16.72, 3.85 15.46, 3.33 14.6 C2.8 13.74, 0.44 14.97, -0.17 12.94 C-0.79 10.92, -0.39 4.6, -0.36 2.44 C-0.33 0.28, -0.06 0.41, 0 0" stroke="#1864ab" stroke-width="1" fill="none"></path></g></g><mask></mask><g transform="translate(47.67096448590564 96.29852394167938) rotate(0 10.217995080412265 0.8956049564997102)" stroke="none"><path fill="#222" d="M 0.03,-3.43 Q 0.03,-3.43 -0.15,-2.47 -0.34,-1.50 -0.40,-0.16 -0.45,1.18 0.32,2.61 1.10,4.04 2.01,4.95 2.92,5.86 4.31,6.76 5.69,7.65 7.03,8.26 8.36,8.87 9.81,9.64 11.26,10.41 12.45,10.41 13.65,10.41 15.00,10.74 16.36,11.08 17.33,10.20 18.29,9.32 18.75,7.97 19.21,6.61 19.55,5.57 19.89,4.54 20.22,3.30 20.55,2.06 20.34,0.76 20.14,-0.52 19.62,-1.54 19.09,-2.57 18.44,-3.82 17.78,-5.08 17.11,-6.09 16.44,-7.10 15.86,-8.95 15.27,-10.79 15.21,-10.94 15.15,-11.08 15.12,-11.24 15.10,-11.40 15.11,-11.55 15.12,-11.71 15.18,-11.86 15.23,-12.01 15.31,-12.15 15.39,-12.28 15.51,-12.39 15.62,-12.50 15.76,-12.58 15.90,-12.66 16.05,-12.70 16.20,-12.75 16.36,-12.75 16.52,-12.76 16.67,-12.73 16.83,-12.69 16.97,-12.63 17.11,-12.56 17.24,-12.46 17.36,-12.36 17.45,-12.23 17.55,-12.11 17.36,-11.24 17.16,-10.37 16.97,-10.28 16.78,-10.19 16.57,-10.16 16.36,-10.14 16.15,-10.18 15.94,-10.22 15.76,-10.33 15.57,-10.44 15.43,-10.60 15.29,-10.76 15.21,-10.95 15.13,-11.15 15.12,-11.36 15.10,-11.58 15.16,-11.78 15.21,-11.99 15.33,-12.16 15.45,-12.34 15.61,-12.47 15.78,-12.60 15.98,-12.67 16.18,-12.74 16.40,-12.75 16.61,-12.75 16.81,-12.68 17.01,-12.62 17.18,-12.49 17.35,-12.36 17.48,-12.19 17.60,-12.01 17.66,-11.81 17.72,-11.61 17.71,-11.39 17.70,-11.18 17.62,-10.98 17.55,-10.79 17.41,-10.62 17.27,-10.46 17.09,-10.35 16.91,-10.24 16.71,-10.19 16.50,-10.14 16.29,-10.16 16.08,-10.18 15.88,-10.27 15.69,-10.35 15.53,-10.50 15.38,-10.64 15.27,-10.83 15.17,-11.01 15.14,-11.22 15.10,-11.43 15.13,-11.64 15.16,-11.85 15.26,-12.04 15.36,-12.23 15.32,-11.51 15.27,-10.79 15.21,-10.94 15.15,-11.08 15.12,-11.24 15.10,-11.40 15.11,-11.55 15.12,-11.71 15.18,-11.86 15.23,-12.01 15.31,-12.15 15.39,-12.28 15.51,-12.39 15.62,-12.50 15.76,-12.58 15.90,-12.66 16.05,-12.70 16.20,-12.75 16.36,-12.75 16.52,-12.76 16.67,-12.73 16.83,-12.69 16.97,-12.63 17.11,-12.56 17.24,-12.46 17.36,-12.36 17.45,-12.23 17.55,-12.11 19.07,-11.71 20.60,-11.32 21.23,-10.30 21.87,-9.28 22.51,-7.81 23.15,-6.34 23.87,-5.08 24.58,-3.83 25.16,-2.30 25.74,-0.78 25.88,1.06 26.02,2.91 25.67,4.25 25.32,5.59 24.84,7.10 24.36,8.62 23.88,10.02 23.41,11.43 22.72,12.41 22.04,13.40 20.96,14.52 19.89,15.65 17.84,16.00 15.80,16.36 14.67,16.10 13.54,15.84 12.46,15.79 11.38,15.74 9.86,15.32 8.35,14.90 7.35,14.36 6.35,13.82 5.37,13.40 4.39,12.99 2.86,12.08 1.33,11.18 0.44,10.51 -0.44,9.84 -1.25,9.08 -2.07,8.33 -2.76,7.33 -3.45,6.34 -4.03,5.11 -4.60,3.88 -4.78,1.35 -4.96,-1.18 -4.48,-2.61 -4.01,-4.05 -3.08,-4.57 -2.16,-5.08 -2.05,-5.20 -1.93,-5.32 -1.79,-5.41 -1.65,-5.50 -1.49,-5.55 -1.34,-5.61 -1.17,-5.62 -1.01,-5.63 -0.84,-5.61 -0.68,-5.58 -0.53,-5.52 -0.37,-5.45 -0.24,-5.35 -0.11,-5.25 -0.00,-5.12 0.09,-4.99 0.16,-4.84 0.23,-4.69 0.27,-4.53 0.30,-4.37 0.29,-4.20 0.29,-4.04 0.24,-3.88 0.20,-3.72 0.11,-3.58 0.03,-3.43 0.03,-3.43 L 0.03,-3.43 Z"></path></g><g transform="translate(56.07673234248068 87.52242518080493) rotate(0 -25.26854318481287 10.961264213024833)" stroke="none"><path fill="#222" d="M -15.27,1.47 Q -15.27,1.47 -16.38,1.94 -17.49,2.41 -19.25,2.46 -21.01,2.51 -22.14,2.53 -23.27,2.55 -25.67,2.84 -28.07,3.12 -29.42,3.35 -30.77,3.57 -31.84,3.83 -32.91,4.09 -34.87,4.70 -36.83,5.31 -37.62,6.31 -38.41,7.31 -38.98,8.66 -39.55,10.00 -40.18,11.24 -40.81,12.48 -39.96,13.21 -39.12,13.94 -37.87,14.79 -36.62,15.65 -35.63,16.36 -34.64,17.06 -33.46,17.34 -32.27,17.62 -31.19,17.89 -30.12,18.16 -28.47,18.49 -26.82,18.82 -25.32,18.91 -23.81,18.99 -21.91,18.84 -20.01,18.69 -18.25,18.56 -16.49,18.44 -15.11,18.42 -13.72,18.40 -10.83,18.23 -7.94,18.07 -7.73,18.07 -7.51,18.08 -7.31,18.15 -7.11,18.22 -6.95,18.35 -6.78,18.48 -6.66,18.66 -6.55,18.84 -6.49,19.04 -6.44,19.25 -6.45,19.46 -6.47,19.67 -6.55,19.87 -6.63,20.07 -6.77,20.22 -6.91,20.38 -7.10,20.49 -7.28,20.60 -7.49,20.64 -7.70,20.68 -7.91,20.66 -8.12,20.63 -8.31,20.54 -8.50,20.44 -8.65,20.30 -8.80,20.15 -8.90,19.96 -9.00,19.77 -9.03,19.56 -9.06,19.35 -9.02,19.14 -8.98,18.93 -8.88,18.74 -8.78,18.56 -8.62,18.41 -8.47,18.27 -8.27,18.19 -8.08,18.10 -7.87,18.08 -7.65,18.06 -7.45,18.11 -7.24,18.16 -7.06,18.27 -6.88,18.38 -6.75,18.55 -6.61,18.71 -6.53,18.91 -6.46,19.11 -6.45,19.32 -6.44,19.53 -6.50,19.74 -6.56,19.94 -6.69,20.11 -6.81,20.29 -6.98,20.41 -7.15,20.54 -7.35,20.60 -7.56,20.67 -7.56,20.67 -7.55,20.67 -9.24,22.14 -10.93,23.61 -12.27,23.89 -13.62,24.17 -14.93,24.18 -16.24,24.20 -17.69,24.29 -19.14,24.38 -21.59,24.55 -24.04,24.72 -25.23,24.66 -26.41,24.61 -28.05,24.27 -29.69,23.93 -31.43,23.57 -33.16,23.21 -34.37,22.97 -35.58,22.73 -36.59,22.29 -37.59,21.84 -38.75,21.02 -39.91,20.19 -41.10,19.23 -42.29,18.26 -43.08,17.47 -43.88,16.68 -44.53,15.47 -45.19,14.25 -45.41,13.21 -45.63,12.17 -45.13,10.85 -44.64,9.54 -44.39,8.32 -44.14,7.11 -43.39,5.60 -42.65,4.09 -42.07,3.08 -41.49,2.06 -39.97,1.13 -38.45,0.20 -37.41,-0.11 -36.36,-0.42 -35.24,-0.73 -34.12,-1.04 -32.84,-1.34 -31.55,-1.64 -29.98,-1.85 -28.40,-2.07 -27.25,-2.12 -26.10,-2.18 -24.69,-2.37 -23.27,-2.55 -22.14,-2.53 -21.01,-2.51 -19.25,-2.46 -17.49,-2.41 -16.38,-1.94 -15.27,-1.47 -15.09,-1.45 -14.92,-1.43 -14.75,-1.37 -14.58,-1.31 -14.44,-1.20 -14.29,-1.10 -14.17,-0.97 -14.05,-0.84 -13.97,-0.68 -13.89,-0.52 -13.84,-0.35 -13.80,-0.17 -13.80,0.00 -13.80,0.17 -13.84,0.35 -13.89,0.52 -13.97,0.68 -14.05,0.84 -14.17,0.97 -14.29,1.10 -14.44,1.20 -14.58,1.31 -14.75,1.37 -14.92,1.43 -15.09,1.45 -15.27,1.47 -15.27,1.47 L -15.27,1.47 Z"></path></g><g transform="translate(23.49761135118206 102.50731402868132) rotate(0 -1.0715654152377283 -29.814834547850296)" stroke="none"><path fill="#222" d="M -5.33,-14.43 Q -5.33,-14.43 -6.56,-14.48 -7.78,-14.54 -9.17,-15.35 -10.55,-16.16 -11.62,-16.85 -12.70,-17.55 -13.76,-19.04 -14.82,-20.53 -15.11,-21.58 -15.39,-22.64 -15.26,-24.00 -15.12,-25.37 -14.59,-27.24 -14.05,-29.12 -13.71,-30.45 -13.38,-31.78 -13.09,-33.32 -12.80,-34.85 -12.46,-35.98 -12.12,-37.12 -11.31,-38.31 -10.50,-39.49 -9.37,-40.45 -8.23,-41.40 -7.24,-42.09 -6.25,-42.77 -5.27,-43.19 -4.29,-43.61 -2.99,-44.23 -1.68,-44.84 -0.26,-45.28 1.15,-45.71 3.04,-45.95 4.94,-46.19 5.99,-46.46 7.04,-46.73 8.84,-46.02 10.63,-45.31 10.84,-45.27 11.05,-45.24 11.24,-45.14 11.43,-45.05 11.58,-44.89 11.73,-44.74 11.82,-44.55 11.91,-44.36 11.93,-44.14 11.96,-43.93 11.91,-43.73 11.87,-43.52 11.76,-43.33 11.65,-43.15 11.49,-43.01 11.33,-42.87 11.14,-42.79 10.94,-42.71 10.73,-42.70 10.51,-42.69 10.31,-42.74 10.10,-42.80 9.93,-42.91 9.75,-43.03 9.62,-43.20 9.49,-43.37 9.42,-43.57 9.35,-43.77 9.35,-43.98 9.35,-44.19 9.41,-44.40 9.48,-44.60 9.61,-44.77 9.73,-44.94 9.91,-45.06 10.08,-45.18 10.29,-45.24 10.49,-45.30 10.71,-45.29 10.92,-45.28 11.12,-45.20 11.31,-45.12 11.48,-44.99 11.64,-44.85 11.75,-44.67 11.86,-44.49 11.91,-44.28 11.96,-44.08 11.94,-43.86 11.91,-43.65 11.83,-43.46 11.74,-43.27 11.59,-43.11 11.45,-42.95 11.26,-42.85 11.08,-42.75 10.87,-42.72 10.66,-42.68 10.66,-42.68 10.66,-42.68 9.00,-41.79 7.35,-40.89 5.63,-40.61 3.91,-40.33 2.68,-40.00 1.45,-39.67 0.43,-39.31 -0.58,-38.95 -2.31,-38.18 -4.03,-37.41 -5.26,-36.37 -6.49,-35.34 -6.92,-34.24 -7.36,-33.14 -7.60,-31.98 -7.83,-30.82 -8.36,-28.97 -8.88,-27.12 -9.31,-25.99 -9.73,-24.85 -9.58,-23.30 -9.42,-21.75 -8.45,-21.11 -7.48,-20.46 -6.32,-19.69 -5.15,-18.93 -4.52,-17.88 -3.89,-16.82 -3.76,-16.72 -3.63,-16.62 -3.52,-16.48 -3.42,-16.35 -3.35,-16.20 -3.28,-16.05 -3.25,-15.88 -3.22,-15.71 -3.23,-15.55 -3.24,-15.38 -3.29,-15.22 -3.34,-15.05 -3.42,-14.91 -3.51,-14.77 -3.63,-14.65 -3.75,-14.53 -3.89,-14.44 -4.03,-14.35 -4.20,-14.30 -4.36,-14.25 -4.52,-14.24 -4.69,-14.23 -4.86,-14.26 -5.02,-14.29 -5.18,-14.36 -5.33,-14.43 -5.33,-14.43 L -5.33,-14.43 Z"></path></g><g stroke-linecap="round"><g transform="translate(102.66366875725544 25.705379726993215) rotate(0 -12.194756861037831 14.297301147423696)" fill-rule="evenodd"><path d="M0 0 C-0.79 -0.7, -2.94 -3.78, -4.77 -4.21 C-6.59 -4.63, -9.39 -3.5, -10.93 -2.52 C-12.48 -1.54, -12.33 0.98, -14.02 1.68 C-15.7 2.38, -19.06 0.89, -21.03 1.68 C-22.99 2.48, -25.42 4.81, -25.79 6.45 C-26.16 8.08, -24.25 11.35, -23.27 11.49 C-22.29 11.63, -21.21 8.5, -19.9 7.29 C-18.6 6.07, -17.33 4.35, -15.42 4.21 C-13.5 4.06, -10.09 5.28, -8.41 6.45 C-6.73 7.62, -6.26 9.58, -5.33 11.21 C-4.39 12.85, -3.27 13.5, -2.8 16.26 C-2.34 19.02, -2.85 25, -2.52 27.75 C-2.2 30.51, -1.5 32.57, -0.84 32.8 C-0.19 33.03, 1.26 31.07, 1.4 29.16 C1.54 27.24, 0.56 25.09, 0 21.31 C-0.56 17.52, -1.87 9.95, -1.96 6.45 C-2.06 2.94, -0.79 1.31, -0.56 0.28" stroke="none" stroke-width="0" fill="#80c4ff" fill-rule="evenodd"></path><path d="M0 0 C-0.79 -0.7, -2.94 -3.78, -4.77 -4.21 C-6.59 -4.63, -9.39 -3.5, -10.93 -2.52 C-12.48 -1.54, -12.33 0.98, -14.02 1.68 C-15.7 2.38, -19.06 0.89, -21.03 1.68 C-22.99 2.48, -25.42 4.81, -25.79 6.45 C-26.16 8.08, -24.25 11.35, -23.27 11.49 C-22.29 11.63, -21.21 8.5, -19.9 7.29 C-18.6 6.07, -17.33 4.35, -15.42 4.21 C-13.5 4.06, -10.09 5.28, -8.41 6.45 C-6.73 7.62, -6.26 9.58, -5.33 11.21 C-4.39 12.85, -3.27 13.5, -2.8 16.26 C-2.34 19.02, -2.85 25, -2.52 27.75 C-2.2 30.51, -1.5 32.57, -0.84 32.8 C-0.19 33.03, 1.26 31.07, 1.4 29.16 C1.54 27.24, 0.56 25.09, 0 21.31 C-0.56 17.52, -1.87 9.95, -1.96 6.45 C-2.06 2.94, -0.79 1.31, -0.56 0.28 M0 0 C-0.79 -0.7, -2.94 -3.78, -4.77 -4.21 C-6.59 -4.63, -9.39 -3.5, -10.93 -2.52 C-12.48 -1.54, -12.33 0.98, -14.02 1.68 C-15.7 2.38, -19.06 0.89, -21.03 1.68 C-22.99 2.48, -25.42 4.81, -25.79 6.45 C-26.16 8.08, -24.25 11.35, -23.27 11.49 C-22.29 11.63, -21.21 8.5, -19.9 7.29 C-18.6 6.07, -17.33 4.35, -15.42 4.21 C-13.5 4.06, -10.09 5.28, -8.41 6.45 C-6.73 7.62, -6.26 9.58, -5.33 11.21 C-4.39 12.85, -3.27 13.5, -2.8 16.26 C-2.34 19.02, -2.85 25, -2.52 27.75 C-2.2 30.51, -1.5 32.57, -0.84 32.8 C-0.19 33.03, 1.26 31.07, 1.4 29.16 C1.54 27.24, 0.56 25.09, 0 21.31 C-0.56 17.52, -1.87 9.95, -1.96 6.45 C-2.06 2.94, -0.79 1.31, -0.56 0.28" stroke="#1864ab" stroke-width="1" fill="none"></path></g></g><mask></mask><g transform="translate(24.814095316382918 67.67736832870514) rotate(0 4.382143221724846 -16.262637026100265)" stroke="none"><path fill="#222" d="M -2.21,-7.47 Q -2.21,-7.47 -3.33,-7.54 -4.45,-7.62 -5.36,-8.96 -6.28,-10.30 -6.45,-11.61 -6.63,-12.91 -6.09,-14.45 -5.55,-16.00 -4.77,-17.08 -3.98,-18.16 -3.39,-19.06 -2.79,-19.95 -1.80,-21.03 -0.82,-22.11 0.29,-23.02 1.41,-23.94 2.42,-24.64 3.43,-25.34 4.50,-25.75 5.57,-26.16 6.79,-26.47 8.02,-26.78 10.29,-26.05 12.56,-25.31 12.77,-25.27 12.98,-25.24 13.16,-25.14 13.35,-25.04 13.50,-24.89 13.64,-24.73 13.73,-24.54 13.82,-24.35 13.84,-24.14 13.87,-23.92 13.82,-23.72 13.78,-23.51 13.67,-23.33 13.56,-23.15 13.40,-23.01 13.23,-22.87 13.04,-22.79 12.84,-22.71 12.63,-22.70 12.42,-22.69 12.21,-22.75 12.01,-22.80 11.83,-22.92 11.65,-23.04 11.53,-23.21 11.40,-23.38 11.33,-23.58 11.26,-23.78 11.26,-23.99 11.26,-24.21 11.33,-24.41 11.40,-24.61 11.52,-24.78 11.65,-24.95 11.83,-25.07 12.00,-25.19 12.21,-25.24 12.41,-25.30 12.63,-25.29 12.84,-25.28 13.04,-25.20 13.23,-25.12 13.40,-24.98 13.56,-24.85 13.67,-24.66 13.78,-24.48 13.82,-24.27 13.87,-24.07 13.85,-23.86 13.82,-23.64 13.73,-23.45 13.64,-23.26 13.50,-23.10 13.35,-22.95 13.16,-22.85 12.98,-22.75 12.77,-22.72 12.56,-22.68 12.56,-22.68 12.56,-22.68 10.44,-21.89 8.33,-21.11 6.95,-20.55 5.57,-20.00 4.40,-19.10 3.24,-18.20 2.18,-17.09 1.13,-15.98 0.43,-15.01 -0.26,-14.05 -0.80,-12.85 -1.35,-11.65 -0.99,-10.61 -0.63,-9.57 -0.51,-9.46 -0.40,-9.35 -0.31,-9.22 -0.23,-9.09 -0.18,-8.94 -0.13,-8.78 -0.11,-8.63 -0.10,-8.47 -0.13,-8.31 -0.15,-8.15 -0.21,-8.01 -0.27,-7.86 -0.37,-7.74 -0.47,-7.61 -0.59,-7.51 -0.71,-7.41 -0.85,-7.34 -1.00,-7.27 -1.15,-7.24 -1.31,-7.21 -1.47,-7.21 -1.63,-7.22 -1.78,-7.26 -1.93,-7.31 -2.07,-7.39 -2.21,-7.47 -2.21,-7.47 L -2.21,-7.47 Z"></path></g><g stroke-linecap="round"><g transform="translate(76.26253956787059 44.74121279520932) rotate(0 11.572978807115305 22.670638841795153)" fill-rule="evenodd"><path d="M0 0 C0.11 5.37, 0.23 24.68, 0.66 32.24 C1.09 39.8, 0.03 44.06, 2.56 45.34 C5.1 46.62, 12.44 42.52, 15.87 39.93 C19.3 37.33, 22.04 34.18, 23.15 29.76 C24.25 25.34, 24.25 17.99, 22.48 13.39 C20.72 8.79, 16.31 4.38, 12.56 2.15 C8.82 -0.08, 2.09 0.36, 0 0" stroke="none" stroke-width="0" fill="#222" fill-rule="evenodd"></path><path d="M0 0 C0.11 5.37, 0.23 24.68, 0.66 32.24 C1.09 39.8, 0.03 44.06, 2.56 45.34 C5.1 46.62, 12.44 42.52, 15.87 39.93 C19.3 37.33, 22.04 34.18, 23.15 29.76 C24.25 25.34, 24.25 17.99, 22.48 13.39 C20.72 8.79, 16.31 4.38, 12.56 2.15 C8.82 -0.08, 2.09 0.36, 0 0 M0 0 C0.11 5.37, 0.23 24.68, 0.66 32.24 C1.09 39.8, 0.03 44.06, 2.56 45.34 C5.1 46.62, 12.44 42.52, 15.87 39.93 C19.3 37.33, 22.04 34.18, 23.15 29.76 C24.25 25.34, 24.25 17.99, 22.48 13.39 C20.72 8.79, 16.31 4.38, 12.56 2.15 C8.82 -0.08, 2.09 0.36, 0 0" stroke="#222" stroke-width="1" fill="none"></path></g></g><mask></mask><g transform="translate(104.8405908877794 26.22444670382538) rotate(0 -1.216222854516218 8.183749299317242)" stroke="none"><path fill="#222" d="M 1.27,0.23 Q 1.27,0.23 1.29,1.39 1.31,2.56 1.33,3.63 1.36,4.70 1.31,5.92 1.26,7.13 1.14,8.58 1.02,10.03 0.89,11.41 0.76,12.80 0.15,14.27 -0.45,15.74 -0.49,15.95 -0.54,16.16 -0.64,16.34 -0.75,16.52 -0.91,16.66 -1.07,16.80 -1.27,16.88 -1.46,16.97 -1.67,16.98 -1.89,17.00 -2.09,16.94 -2.30,16.89 -2.47,16.77 -2.65,16.65 -2.78,16.49 -2.91,16.32 -2.99,16.12 -3.06,15.92 -3.06,15.71 -3.06,15.49 -3.00,15.29 -2.93,15.09 -2.81,14.92 -2.68,14.75 -2.51,14.63 -2.33,14.50 -2.13,14.44 -1.92,14.38 -1.71,14.39 -1.50,14.40 -1.30,14.48 -1.10,14.55 -0.94,14.69 -0.77,14.82 -0.66,15.00 -0.55,15.18 -0.50,15.39 -0.45,15.60 -0.47,15.81 -0.49,16.02 -0.58,16.22 -0.67,16.41 -0.81,16.57 -0.95,16.72 -1.14,16.82 -1.33,16.93 -1.54,16.96 -1.74,17.00 -1.95,16.97 -2.16,16.94 -2.35,16.84 -2.54,16.74 -2.69,16.59 -2.84,16.44 -2.93,16.25 -3.02,16.06 -3.05,15.85 -3.08,15.63 -3.08,15.63 -3.08,15.64 -3.56,14.04 -4.05,12.45 -3.98,11.02 -3.90,9.59 -3.77,8.21 -3.64,6.83 -3.54,5.64 -3.45,4.45 -3.30,3.22 -3.15,2.00 -2.85,0.88 -2.55,-0.23 -2.49,-0.46 -2.44,-0.69 -2.33,-0.89 -2.22,-1.10 -2.06,-1.27 -1.91,-1.44 -1.72,-1.58 -1.52,-1.71 -1.31,-1.79 -1.09,-1.87 -0.86,-1.90 -0.63,-1.93 -0.39,-1.90 -0.16,-1.87 0.04,-1.78 0.26,-1.70 0.45,-1.57 0.64,-1.44 0.80,-1.26 0.95,-1.09 1.06,-0.88 1.17,-0.67 1.22,-0.45 1.27,-0.22 1.27,0.00 1.27,0.23 1.27,0.23 L 1.27,0.23 Z"></path></g><g transform="translate(102.05374948086865 107.33849553872733) rotate(0 0.41332067168264075 -14.0734358879713)" stroke="none"><path fill="#222" d="M -1.96,-7.50 Q -1.96,-7.50 -2.10,-8.95 -2.23,-10.39 -2.11,-12.06 -1.98,-13.73 -1.91,-15.14 -1.84,-16.55 -1.24,-18.44 -0.64,-20.33 -0.61,-20.54 -0.58,-20.75 -0.48,-20.94 -0.39,-21.13 -0.24,-21.28 -0.09,-21.43 0.09,-21.53 0.28,-21.62 0.49,-21.65 0.70,-21.68 0.91,-21.64 1.12,-21.60 1.31,-21.49 1.49,-21.39 1.63,-21.23 1.77,-21.07 1.86,-20.88 1.94,-20.68 1.96,-20.47 1.98,-20.26 1.92,-20.05 1.87,-19.84 1.76,-19.67 1.64,-19.49 1.48,-19.35 1.31,-19.22 1.11,-19.15 0.91,-19.07 0.70,-19.07 0.49,-19.06 0.29,-19.13 0.08,-19.19 -0.08,-19.31 -0.25,-19.44 -0.38,-19.61 -0.50,-19.78 -0.56,-19.99 -0.62,-20.19 -0.62,-20.40 -0.61,-20.61 -0.54,-20.81 -0.47,-21.01 -0.33,-21.18 -0.20,-21.34 -0.02,-21.46 0.15,-21.57 0.36,-21.62 0.56,-21.67 0.77,-21.66 0.98,-21.64 1.18,-21.55 1.38,-21.47 1.53,-21.33 1.69,-21.19 1.80,-21.00 1.90,-20.82 1.94,-20.61 1.98,-20.40 1.98,-20.40 1.98,-20.40 2.48,-18.38 2.99,-16.36 2.95,-14.84 2.90,-13.33 2.76,-11.70 2.61,-10.06 2.29,-8.65 1.96,-7.24 1.92,-7.01 1.87,-6.78 1.77,-6.56 1.67,-6.34 1.53,-6.16 1.38,-5.97 1.19,-5.83 1.00,-5.68 0.79,-5.59 0.57,-5.49 0.34,-5.45 0.10,-5.41 -0.13,-5.42 -0.36,-5.44 -0.59,-5.51 -0.81,-5.58 -1.02,-5.71 -1.22,-5.83 -1.39,-6.00 -1.55,-6.17 -1.67,-6.37 -1.80,-6.58 -1.86,-6.80 -1.93,-7.03 -1.95,-7.27 -1.96,-7.50 -1.96,-7.50 L -1.96,-7.50 Z"></path></g><g transform="translate(103.74070358120207 114.29306093111882) rotate(0 2.776909153839597 -7.388419114833368)" stroke="none"><path fill="#222" d="M -1.83,-4.89 Q -1.83,-4.89 -1.56,-6.16 -1.30,-7.42 -0.65,-8.32 -0.00,-9.21 2.68,-10.49 5.36,-11.76 5.55,-11.86 5.74,-11.95 5.95,-11.98 6.16,-12.01 6.37,-11.97 6.58,-11.94 6.76,-11.83 6.95,-11.73 7.09,-11.57 7.24,-11.42 7.32,-11.22 7.41,-11.03 7.43,-10.81 7.44,-10.60 7.39,-10.40 7.35,-10.19 7.23,-10.01 7.12,-9.83 6.95,-9.70 6.79,-9.56 6.59,-9.49 6.39,-9.41 6.18,-9.40 5.97,-9.40 5.76,-9.46 5.56,-9.52 5.39,-9.64 5.21,-9.76 5.09,-9.94 4.96,-10.11 4.90,-10.31 4.84,-10.51 4.84,-10.73 4.84,-10.94 4.92,-11.14 4.99,-11.34 5.12,-11.50 5.25,-11.67 5.43,-11.79 5.61,-11.90 5.81,-11.96 6.02,-12.01 6.23,-11.99 6.44,-11.98 6.64,-11.89 6.83,-11.81 6.99,-11.67 7.15,-11.53 7.26,-11.35 7.36,-11.16 7.41,-10.95 7.45,-10.74 7.42,-10.53 7.39,-10.32 7.30,-10.13 7.21,-9.94 7.06,-9.79 6.91,-9.64 6.91,-9.64 6.91,-9.64 5.07,-7.02 3.23,-4.39 2.17,-3.66 1.10,-2.93 0.96,-2.77 0.82,-2.61 0.65,-2.49 0.48,-2.36 0.28,-2.28 0.08,-2.20 -0.12,-2.18 -0.33,-2.15 -0.54,-2.17 -0.75,-2.19 -0.95,-2.26 -1.15,-2.34 -1.33,-2.45 -1.51,-2.57 -1.65,-2.73 -1.80,-2.89 -1.90,-3.07 -2.00,-3.26 -2.05,-3.46 -2.11,-3.67 -2.11,-3.88 -2.11,-4.10 -2.07,-4.30 -2.02,-4.51 -1.92,-4.70 -1.83,-4.89 -1.83,-4.89 L -1.83,-4.89 Z"></path></g><g transform="translate(106.35228446636938 19.611315956902217) rotate(0 5.869153537894135 6.282474209576776)" stroke="none"><path fill="#222" d="M 1.52,-0.93 Q 1.52,-0.93 2.53,0.13 3.55,1.21 4.61,2.37 5.67,3.53 6.70,4.46 7.74,5.38 8.86,6.32 9.99,7.26 11.21,9.31 12.42,11.36 12.54,11.54 12.65,11.72 12.70,11.93 12.76,12.13 12.74,12.34 12.73,12.56 12.64,12.75 12.56,12.95 12.42,13.11 12.28,13.26 12.09,13.37 11.91,13.48 11.70,13.52 11.49,13.56 11.28,13.53 11.07,13.50 10.88,13.41 10.69,13.32 10.54,13.17 10.39,13.02 10.29,12.83 10.20,12.64 10.17,12.43 10.14,12.22 10.17,12.01 10.21,11.80 10.32,11.62 10.42,11.43 10.58,11.29 10.73,11.14 10.93,11.06 11.12,10.97 11.34,10.96 11.55,10.94 11.75,10.99 11.96,11.04 12.14,11.15 12.32,11.26 12.45,11.43 12.59,11.59 12.66,11.79 12.74,11.99 12.74,12.20 12.75,12.42 12.69,12.62 12.63,12.82 12.51,13.00 12.38,13.17 12.21,13.29 12.04,13.42 11.84,13.48 11.63,13.55 11.42,13.54 11.21,13.54 11.01,13.47 10.81,13.39 10.64,13.26 10.48,13.13 10.48,13.13 10.48,13.13 8.71,12.08 6.95,11.04 5.68,10.04 4.40,9.05 3.15,7.89 1.89,6.74 0.69,5.23 -0.51,3.72 -1.01,2.33 -1.52,0.93 -1.61,0.74 -1.70,0.54 -1.74,0.33 -1.78,0.12 -1.77,-0.09 -1.76,-0.30 -1.70,-0.51 -1.64,-0.72 -1.53,-0.90 -1.42,-1.09 -1.26,-1.24 -1.11,-1.40 -0.93,-1.51 -0.74,-1.62 -0.54,-1.69 -0.33,-1.76 -0.12,-1.77 0.09,-1.79 0.30,-1.75 0.52,-1.71 0.71,-1.62 0.91,-1.54 1.08,-1.41 1.25,-1.27 1.39,-1.10 1.52,-0.93 1.52,-0.93 L 1.52,-0.93 Z"></path></g><g stroke-linecap="round"><g transform="translate(78.11363314950177 48.66919390815201) rotate(0 3.3390405690936404 19.055559109827755)" fill-rule="evenodd"><path d="M0 0 C0.08 4.87, 0.35 22.89, 0.46 29.25 C0.58 35.6, -0.04 37.61, 0.69 38.11 C1.42 38.61, 3.84 37.86, 4.84 32.24 C5.83 26.62, 7.48 9.75, 6.68 4.38 C5.87 -1, 1.11 0.73, 0 0" stroke="none" stroke-width="0" fill="#fff" fill-rule="evenodd"></path><path d="M0 0 C0.08 4.87, 0.35 22.89, 0.46 29.25 C0.58 35.6, -0.04 37.61, 0.69 38.11 C1.42 38.61, 3.84 37.86, 4.84 32.24 C5.83 26.62, 7.48 9.75, 6.68 4.38 C5.87 -1, 1.11 0.73, 0 0 M0 0 C0.08 4.87, 0.35 22.89, 0.46 29.25 C0.58 35.6, -0.04 37.61, 0.69 38.11 C1.42 38.61, 3.84 37.86, 4.84 32.24 C5.83 26.62, 7.48 9.75, 6.68 4.38 C5.87 -1, 1.11 0.73, 0 0" stroke="#fff" stroke-width="1" fill="none"></path></g></g><mask></mask></svg>