<svg version="1.1" xmlns="http://www.w3.org/2000/svg" viewBox="0 0 144.42146157377192 225.45965797814551" width="144.42146157377192" height="225.45965797814551" class="excalidraw-svg"><!-- svg-source:excalidraw --><metadata></metadata><defs><style class="style-fonts">
      </style></defs><g stroke-opacity="0.8" fill-opacity="0.8" stroke-linecap="round" transform="translate(35.182918204095586 10) rotate(0 37.5 35.416666666666515)"><path d="M1.73 18.73 C1.73 18.73, 1.73 18.73, 1.73 18.73 M1.73 18.73 C1.73 18.73, 1.73 18.73, 1.73 18.73 M0.15 32.71 C6.47 24.84, 10.83 15.44, 21.43 3.95 M2.94 30.22 C8.37 23.1, 16.96 10.78, 25.2 5.44 M3.76 43.08 C9.92 28.28, 22.29 16.27, 37.91 5.65 M2.17 41.82 C14.97 29.37, 26.76 16.33, 35.65 1.61 M2.88 47.66 C20.6 37, 26.6 21.14, 47.03 4.54 M7.86 49.33 C21.57 32.5, 37.53 16.27, 46.43 3.41 M10.4 54.16 C21.22 48.53, 32 39.43, 56.54 5.84 M11.24 59.05 C27.15 37.51, 43.42 19.45, 57.11 5.33 M17.92 65.67 C33.06 43.8, 50.26 25.8, 60.87 11.47 M15.92 62.17 C31.15 45.7, 45.97 28.36, 62.78 8.8 M21.73 64.2 C38.7 46.72, 51.61 32.43, 68.94 16.23 M25.06 65.02 C31.65 54.84, 44.74 46.92, 67.23 17.13 M35.33 70.23 C48.86 51.17, 58.84 38.19, 73.97 21.36 M31.19 71.39 C46.61 51.39, 61.49 34.21, 73.85 23.82 M38.46 72.35 C57.64 55.21, 66.01 38.49, 74.71 30.28 M42.42 70.95 C53.9 55.83, 63.91 43.22, 76.24 31.02 M52.41 65.34 C56.97 63.83, 67.38 50.93, 68.67 47.87 M55.06 68.03 C58.89 62.65, 67.82 52.2, 72.63 47.6" stroke="#ffffff" stroke-width="1" fill="none"></path><path d="M61.64 7.41 C67.17 11.61, 74.56 21.42, 76.21 28.51 C77.87 35.6, 74.92 43.47, 71.56 49.92 C68.2 56.37, 62.17 63.76, 56.05 67.21 C49.93 70.66, 42.04 71.45, 34.85 70.61 C27.66 69.77, 18.56 66.75, 12.91 62.15 C7.25 57.55, 2.83 50.21, 0.92 43.03 C-0.99 35.84, -1.82 25.45, 1.46 19.04 C4.73 12.63, 13.91 7.39, 20.58 4.57 C27.24 1.75, 32.82 -0.7, 41.44 2.14 C50.06 4.98, 67.11 16.44, 72.32 21.61 C77.52 26.77, 73.57 32.95, 72.68 33.14 M48.72 4.76 C55.28 6.09, 65.36 10.32, 69.95 15.32 C74.53 20.33, 76.63 28.12, 76.22 34.8 C75.82 41.48, 72.25 49.98, 67.51 55.41 C62.77 60.84, 54.36 64.98, 47.79 67.38 C41.22 69.78, 35.41 71.64, 28.08 69.8 C20.75 67.96, 8.9 62.14, 3.8 56.35 C-1.3 50.57, -2.92 41.75, -2.52 35.09 C-2.12 28.44, 0.99 22.29, 6.21 16.41 C11.43 10.53, 22.01 2.07, 28.81 -0.19 C35.62 -2.45, 43.54 2.72, 47.05 2.83 C50.55 2.94, 49.7 -0.26, 49.85 0.46" stroke="#000000" stroke-width="2" fill="none"></path></g><g stroke-linecap="round"><g stroke-opacity="0.8" fill-opacity="0.8" transform="translate(58.09958487076301 80.83333333333303) rotate(0 15.651478251322487 28.428002989955985)" fill-rule="evenodd"><path d="M0 0 C0 0, 0 0, 0 0 M0 0 C0 0, 0 0, 0 0 M-6.99 16.82 C-3.6 12.62, 1.08 11.53, 13.44 -2.28 M-4.61 15.34 C0.81 12.59, 1.29 9.37, 11.46 -0.75 M-5.09 28.96 C5.28 22.89, 11.27 10.46, 18.98 -3.45 M-8.03 29.8 C2.02 21.58, 10.07 12.98, 21.97 -1.35 M-8.74 41.65 C5.29 26.35, 23.83 14.46, 35.84 -0.42 M-5.18 40.45 C5.23 31.99, 14.57 19.58, 36.18 -2.67 M-5.73 52.29 C9.66 43.01, 22.84 22.76, 35.33 7.57 M-4.95 55.25 C3.56 42.07, 12.98 33.19, 38.7 4.31 M-1.86 58.14 C8.17 52.07, 19.43 38.54, 39.69 22.28 M0.4 62.53 C9.03 50.16, 16.64 39.49, 35.03 18.83 M11.81 65.41 C15.54 56.27, 23.09 51.09, 36.42 32.2 M9.19 62.78 C20.5 51.2, 29.87 39.13, 39.01 30.85 M22.09 62.25 C24.46 56.94, 34.99 50.59, 38.78 40.01 M18.79 64.44 C24.26 56.58, 30.38 52.34, 38.62 39.29 M28.22 63.75 C34.21 59.56, 33.01 56.4, 39.21 52.37 M32.08 63.67 C33.05 60.31, 36.27 57.27, 41.82 52.47" stroke="#ffffff" stroke-width="1" fill="none"></path><path d="M2.07 2.45 C0.63 8.01, -6.35 22.19, -7.13 32.31 C-7.91 42.43, -10.15 58.74, -2.61 63.18 C4.93 67.62, 31.62 65.51, 38.13 58.96 C44.63 52.41, 36.32 33.93, 36.43 23.87 C36.53 13.81, 42.07 2.43, 38.76 -1.4 C35.44 -5.24, 22.86 0.58, 16.53 0.85 C10.21 1.13, 3.46 0.8, 0.83 0.22 M-0.25 1.31 C-2.25 7.3, -10.2 25.42, -9.69 35.06 C-9.18 44.7, -5.29 54.75, 2.81 59.15 C10.9 63.56, 33.85 67.23, 38.86 61.5 C43.87 55.78, 33.63 35.52, 32.85 24.83 C32.08 14.13, 36.67 1.75, 34.2 -2.69 C31.74 -7.12, 23.94 -2.16, 18.05 -1.79 C12.16 -1.42, 2.34 -0.98, -1.15 -0.47" stroke="#000000" stroke-width="2" fill="none"></path></g></g><mask></mask><g stroke-linecap="round"><g stroke-opacity="0.8" fill-opacity="0.8" transform="translate(54.7024490483177 79.84950764858968) rotate(0 -21.04322332593756 25.48897473282568)"><path d="M-0.59 -1.62 C-8.39 2.19, -44.15 19.31, -44.7 25.29 C-45.24 31.27, -8.62 29.98, -3.86 34.27 C0.89 38.56, -14.4 47.89, -16.19 51.04 M4.28 3.68 C-2.87 8, -38.08 16.18, -39.71 21.78 C-41.34 27.39, -9.52 32, -5.52 37.32 C-1.52 42.63, -13.75 50.69, -15.72 53.67" stroke="#000000" stroke-width="2" fill="none"></path></g></g><mask></mask><g stroke-linecap="round"><g stroke-opacity="0.8" fill-opacity="0.8" transform="translate(99.15996311719937 79.25674079433793) rotate(0 17.48662220042661 25.192591305699807)"><path d="M-2.61 2.77 C3.37 6.77, 34.85 16.54, 35.26 22.41 C35.66 28.28, 2.79 32.97, -0.19 37.99 C-3.17 43.02, 14.69 50.31, 17.39 52.54 M1.17 1.8 C6.85 6.42, 33.72 19.42, 33.17 25.98 C32.63 32.54, 0.31 37.52, -2.1 41.14 C-4.51 44.75, 16.29 45.73, 18.73 47.68" stroke="#000000" stroke-width="2" fill="none"></path></g></g><mask></mask><g stroke-linecap="round"><g stroke-opacity="0.8" fill-opacity="0.8" transform="translate(56.48074961107295 137.3478925110103) rotate(0 3.2602176983843947 38.233462099238295)"><path d="M-0.16 -0.27 C4.48 15.93, 10.55 27.92, 16.23 68.75 M-1.73 1.59 C4.86 20.83, 11.38 42.92, 16.39 66.09 M16.16 71.32 C10.99 69, 4.4 75.42, -8.18 78.11 M14.48 66.27 C10.94 70.24, 1.2 72.36, -9.99 76.77" stroke="#000000" stroke-width="2" fill="none"></path></g></g><mask></mask><g stroke-linecap="round"><g stroke-opacity="0.8" fill-opacity="0.8" transform="translate(97.38166255444412 138.53342621951379) rotate(0 16.004705064797236 36.45516153648305)"><path d="M0.08 1.98 C4.13 22.25, 3.56 45.68, 3.87 72.73 M-0.05 -0.26 C1.41 15.7, 1.78 27.89, 3.63 70.79 M6.83 70.18 C17.47 73.79, 24.08 73.69, 30.14 73.13 M5.53 72.36 C8.79 72.9, 16.19 73, 31.05 74.53" stroke="#000000" stroke-width="2" fill="none"></path></g></g><mask></mask></svg>