<svg version="1.1" xmlns="http://www.w3.org/2000/svg" viewBox="0 0 40.030460572425 31.77949982882751" width="40.030460572425" height="31.77949982882751" class="excalidraw-svg"><!-- svg-source:excalidraw --><metadata></metadata><defs><style class="style-fonts">
      </style></defs><g stroke-linecap="round"><g transform="translate(10 10) rotate(0 5.889749914413642 5.889749914413642)" fill-rule="evenodd"><path d="M0.23 -0.61 L0.4 11.53 L12.31 6.22 L-0.15 -0.51" stroke="none" stroke-width="0" fill="#fff" fill-rule="evenodd"></path><path d="M0 0 C0.44 3.02, 0.26 6.53, 1.22 11.78 M0 0 C0.62 3.47, 0.83 6.98, 1.22 11.78 M1.22 11.78 C5.54 9.15, 9.58 7.75, 11.78 6.13 M1.22 11.78 C3.42 10.54, 5.99 9.45, 11.78 6.13 M11.78 6.13 C8.39 4.11, 4.9 3.03, 0 0 M11.78 6.13 C7.51 3.79, 2.99 1.55, 0 0 M0 0 C0 0, 0 0, 0 0 M0 0 C0 0, 0 0, 0 0" stroke="#000000" stroke-width="1" fill="none"></path></g></g><mask></mask><g stroke-linecap="round"><g transform="translate(18.250960743597716 10.000000000000227) rotate(0 5.889749914413642 5.889749914413642)" fill-rule="evenodd"><path d="M-0.82 -0.25 L1.75 11.87 L11.63 5.62 L-0.47 0.44" stroke="none" stroke-width="0" fill="#fff" fill-rule="evenodd"></path><path d="M0 0 C0.03 4.29, 0.8 8.67, 1.22 11.78 M0 0 C0.41 2.67, 0.84 5.03, 1.22 11.78 M1.22 11.78 C4.96 10.28, 8.3 7.63, 11.78 6.13 M1.22 11.78 C4.45 10.27, 7.43 8.22, 11.78 6.13 M11.78 6.13 C8.04 4.64, 5.05 1.86, 0 0 M11.78 6.13 C7.24 3.72, 2.8 1.43, 0 0 M0 0 C0 0, 0 0, 0 0 M0 0 C0 0, 0 0, 0 0" stroke="#000000" stroke-width="1" fill="none"></path></g></g><mask></mask></svg>