<svg version="1.1" xmlns="http://www.w3.org/2000/svg" viewBox="0 0 40.34337623469082 32.19118802836215" width="40.34337623469082" height="32.19118802836215" class="excalidraw-svg"><!-- svg-source:excalidraw --><metadata></metadata><defs><style class="style-fonts">
      </style></defs><g stroke-linecap="round"><g transform="translate(18.58539034251828 9.9829291226431) rotate(180.20890825291485 5.889749914413642 5.889749914413642)" fill-rule="evenodd"><path d="M0.53 0.09 L1.07 11.27 L11.31 6.56 L-0.61 0.18" stroke="none" stroke-width="0" fill="#fff" fill-rule="evenodd"></path><path d="M0 0 C0.2 3.37, 0.05 6.77, 1.22 11.78 M0 0 C0.72 4.12, 1.01 7.94, 1.22 11.78 M1.22 11.78 C3.3 10.23, 6.31 8.73, 11.78 6.13 M1.22 11.78 C4.37 9.82, 7.63 8.31, 11.78 6.13 M11.78 6.13 C9.2 4.08, 6.19 3.21, 0 0 M11.78 6.13 C8.66 4.48, 5.25 3.02, 0 0 M0 0 C0 0, 0 0, 0 0 M0 0 C0 0, 0 0, 0 0" stroke="#000000" stroke-width="1" fill="none"></path></g></g><mask></mask><g stroke-linecap="round"><g transform="translate(9.999101858487052 10.390252562977594) rotate(180.20890825291485 5.889749914413642 5.889749914413642)" fill-rule="evenodd"><path d="M-0.15 -0.51 L0.75 12.22 L11.17 6.3 L-0.75 0.12" stroke="none" stroke-width="0" fill="#fff" fill-rule="evenodd"></path><path d="M0 0 C-0.19 4.18, 0.96 7.57, 1.22 11.78 M0 0 C0.7 4.57, 0.82 8.99, 1.22 11.78 M1.22 11.78 C5.26 9.36, 9.35 7.66, 11.78 6.13 M1.22 11.78 C4.99 9.8, 8.61 7.75, 11.78 6.13 M11.78 6.13 C8.05 4.11, 3.03 1.67, 0 0 M11.78 6.13 C8.28 4.61, 5 2.36, 0 0 M0 0 C0 0, 0 0, 0 0 M0 0 C0 0, 0 0, 0 0" stroke="#000000" stroke-width="1" fill="none"></path></g></g><mask></mask></svg>