<svg version="1.1" xmlns="http://www.w3.org/2000/svg" viewBox="0 0 121.41749404683242 121.48875904683223" width="121.41749404683242" height="121.48875904683223" class="excalidraw-svg"><!-- svg-source:excalidraw --><metadata></metadata><defs><style class="style-fonts">
      </style></defs><g stroke-linecap="round"><g transform="translate(38.86992170738495 39.864096125354195) rotate(180.20890825291485 21.108642074130557 20.78743780496245)"><path d="M-1.79 -1.5 C2.89 13.02, 1.11 24.14, 2.82 43.42 M0.96 0.32 C1.58 13.8, 1.91 28.44, 4.51 42.23 M2.5 40.32 C12.7 36.72, 19.65 33.84, 41.59 23.26 M5.29 42.26 C14.04 36.89, 24.07 30.87, 41.93 22.11 M42.42 21.58 C28.94 13.2, 14.01 7.13, -1.23 -1.73 M42.47 22.2 C33.18 16.98, 21.3 11.18, 0.08 0.45" stroke="#868e96" stroke-width="4" fill="none"></path></g></g><mask></mask><g stroke-linecap="round" transform="translate(10 10.07126500000004) rotate(0 50.70874702341621 50.708747023416095)"><path d="M25.35 0 C40.64 -3.22, 52.35 -2.96, 76.06 0 M25.35 0 C43.37 -0.31, 63.41 -1, 76.06 0 M76.06 0 C96.36 -2.72, 102.5 4.75, 101.42 25.35 M76.06 0 C92.35 1.5, 97.1 8.73, 101.42 25.35 M101.42 25.35 C104.95 41.94, 101.48 51.8, 101.42 76.06 M101.42 25.35 C103.05 43.5, 101.67 63.03, 101.42 76.06 M101.42 76.06 C103.21 95.66, 92.3 99.7, 76.06 101.42 M101.42 76.06 C103.99 93.05, 90.19 104.17, 76.06 101.42 M76.06 101.42 C60.76 98.18, 38.76 100.1, 25.35 101.42 M76.06 101.42 C62.14 100.48, 48.78 101.71, 25.35 101.42 M25.35 101.42 C9.49 100.66, -0.86 95.63, 0 76.06 M25.35 101.42 C10.44 105.2, 3.16 93.35, 0 76.06 M0 76.06 C-0.41 60.75, 3.39 44.69, 0 25.35 M0 76.06 C-1.33 56.44, 0.55 36.51, 0 25.35 M0 25.35 C-0.69 5.53, 4.61 3.85, 25.35 0 M0 25.35 C-0.49 5.15, 12.89 4.04, 25.35 0" stroke="#868e96" stroke-width="4" fill="none"></path></g><g stroke-linecap="round" transform="translate(10 10) rotate(0 50.70874702341621 50.708747023416095)"><path d="M10.03 3.42 C10.03 3.42, 10.03 3.42, 10.03 3.42 M10.03 3.42 C10.03 3.42, 10.03 3.42, 10.03 3.42 M1.9 18.87 C4.37 16.36, 5.84 6.91, 16.33 2.27 M1.9 18.87 C6.61 14.68, 10.86 8.16, 16.33 2.27 M1.64 25.27 C11.98 15.87, 16.97 7.62, 23.29 0.37 M1.64 25.27 C10.07 14.98, 19.2 7.22, 23.29 0.37 M1.37 31.67 C4.05 24.92, 15.71 15.24, 28.27 0.73 M1.37 31.67 C9.47 20.69, 19.28 10.82, 28.27 0.73 M1.11 38.07 C11.85 28.39, 10.65 21.24, 33.92 0.33 M1.11 38.07 C12.12 27.94, 19.98 18.39, 33.92 0.33 M0.85 44.47 C11.59 23.95, 24.65 9.33, 38.9 0.69 M0.85 44.47 C13.84 27.54, 31.5 10.88, 38.9 0.69 M0.59 50.86 C13.55 35.1, 31.16 10.66, 44.55 0.3 M0.59 50.86 C12.6 39.51, 20.2 27.64, 44.55 0.3 M0.98 56.51 C20.16 33.26, 34.05 12.21, 49.53 0.66 M0.98 56.51 C14.59 41.3, 27.85 25.29, 49.53 0.66 M0.72 62.9 C17.26 41.32, 40.61 16.23, 54.52 1.02 M0.72 62.9 C14.59 49.89, 28.5 32.41, 54.52 1.02 M0.46 69.3 C19.49 44.42, 45.47 21.27, 60.16 0.62 M0.46 69.3 C15.1 50.71, 33.21 34.55, 60.16 0.62 M0.2 75.7 C10.41 58.13, 22.6 47.09, 65.15 0.98 M0.2 75.7 C26.81 45.59, 52.36 18.47, 65.15 0.98 M1.25 80.59 C16.8 63.03, 37.32 41.9, 70.79 0.59 M1.25 80.59 C23.07 56.92, 44.64 29.61, 70.79 0.59 M2.96 84.72 C32.88 50.96, 61.85 21.12, 75.78 0.95 M2.96 84.72 C29.86 54.39, 54.67 24.99, 75.78 0.95 M4.01 89.61 C32.72 54.17, 65.44 18.09, 81.42 0.55 M4.01 89.61 C23.57 72.18, 36.33 50.53, 81.42 0.55 M5.71 93.74 C23.68 70.98, 50.16 45.48, 85.75 1.67 M5.71 93.74 C22.93 72.88, 40.17 54.42, 85.75 1.67 M8.73 96.37 C38.27 56.07, 72.94 22.46, 89.43 3.54 M8.73 96.37 C32.98 72.49, 51.44 46.47, 89.43 3.54 M11.75 98.99 C39.82 66.18, 73.91 26.75, 93.1 5.41 M11.75 98.99 C40.08 63.91, 71.09 31.03, 93.1 5.41 M16.08 100.11 C41.84 75.66, 62.52 53.53, 96.12 8.03 M16.08 100.11 C37.28 77.25, 55.49 55.08, 96.12 8.03 M19.76 101.98 C47.97 77.5, 73.57 46.9, 98.48 11.41 M19.76 101.98 C49.85 67.77, 79.97 31.54, 98.48 11.41 M25.4 101.58 C46.55 76.9, 67.37 52.07, 99.54 16.3 M25.4 101.58 C49.23 70.94, 76.32 38.21, 99.54 16.3 M30.39 101.94 C55.67 79.6, 79.63 49.02, 100.59 21.19 M30.39 101.94 C48.03 80.19, 67.62 57.54, 100.59 21.19 M36.03 101.55 C55.47 75.75, 83.2 52.8, 101.64 26.08 M36.03 101.55 C56.69 81.78, 73.3 58.99, 101.64 26.08 M41.02 101.91 C55.51 84.8, 66 67.39, 102.03 31.72 M41.02 101.91 C63.63 78.53, 81.52 55.56, 102.03 31.72 M46.66 101.51 C65.59 76.71, 87.34 58.65, 101.77 38.12 M46.66 101.51 C57.5 90.89, 72.35 75.36, 101.77 38.12 M51.65 101.87 C67.23 82.11, 82.93 67.92, 101.51 44.51 M51.65 101.87 C63.08 88.24, 78.78 70.03, 101.51 44.51 M56.64 102.23 C66.51 86.16, 79.31 76.03, 101.9 50.16 M56.64 102.23 C71.54 85.39, 87.14 65.93, 101.9 50.16 M62.28 101.84 C74.72 85.58, 87.42 72.06, 101.64 56.56 M62.28 101.84 C75.91 87.21, 85.71 75.14, 101.64 56.56 M67.27 102.2 C77.69 86.51, 96.09 69.46, 101.38 62.95 M67.27 102.2 C74.34 94.65, 82.74 85.21, 101.38 62.95 M72.91 101.8 C86.36 87.37, 92.57 76.19, 101.77 68.6 M72.91 101.8 C84.71 92.49, 94.09 78.8, 101.77 68.6 M78.55 101.41 C84.35 95.09, 86.28 90.21, 101.51 74.99 M78.55 101.41 C85.16 91.59, 95.4 84.7, 101.51 74.99 M84.85 100.26 C89.28 98.15, 92.93 94.48, 101.25 81.39 M84.85 100.26 C90.65 94.34, 96.05 87.51, 101.25 81.39 M91.81 98.36 C91.57 96.85, 94.36 92.63, 99.02 90.05 M91.81 98.36 C93.81 95.88, 95.7 95.48, 99.02 90.05" stroke="#868e96" stroke-width="0.5" fill="none"></path><path d="M25.35 0 C42.46 2.94, 61.67 3.48, 76.06 0 M25.35 0 C37.78 -1.39, 47.64 1.78, 76.06 0 M76.06 0 C96.35 -0.47, 100.41 9.04, 101.42 25.35 M76.06 0 C90.07 -1.34, 99.58 8.99, 101.42 25.35 M101.42 25.35 C99.13 38.62, 99.18 55.11, 101.42 76.06 M101.42 25.35 C99.46 37.78, 100.98 48.77, 101.42 76.06 M101.42 76.06 C99.6 90.04, 92.46 101.5, 76.06 101.42 M101.42 76.06 C101.14 88.9, 94.05 99.38, 76.06 101.42 M76.06 101.42 C63.78 100.86, 49.95 104.11, 25.35 101.42 M76.06 101.42 C58.19 102.32, 41.13 100.27, 25.35 101.42 M25.35 101.42 C6.1 102.23, -1.46 89.28, 0 76.06 M25.35 101.42 C5.32 98.31, -3.8 91.99, 0 76.06 M0 76.06 C-1.07 57.02, 0.99 36.45, 0 25.35 M0 76.06 C-0.3 62.49, -1.75 47.08, 0 25.35 M0 25.35 C0.82 7.99, 7.9 -3.95, 25.35 0 M0 25.35 C-3.35 11.46, 13.02 -0.61, 25.35 0" stroke="#868e96" stroke-width="1" fill="none"></path></g></svg>