<svg version="1.1" xmlns="http://www.w3.org/2000/svg" viewBox="0 0 933.4310748710777 516.8825599887066" width="933.4310748710777" height="516.8825599887066" class="excalidraw-svg"><!-- svg-source:excalidraw --><metadata></metadata><defs><style class="style-fonts">
      </style></defs><g stroke-linecap="round"><g transform="translate(86.11240249006096 405.78143285332317) rotate(0 370.69366455078125 -137.333475748698)"><path d="M-1.38 -1.36 C-2.78 7.84, -14.63 46.74, -6.31 52.93 C2.02 59.11, 21.86 33.33, 48.58 35.75 C75.31 38.17, 89.31 56.82, 154.05 67.44 C218.79 78.07, 339.91 106, 437.02 99.49 C534.13 92.98, 673.07 68.55, 736.71 28.39 C800.36 -11.76, 810.76 -81.9, 818.89 -141.43 C827.02 -200.95, 861.34 -290.89, 785.52 -328.74 C709.71 -366.59, 495.21 -360.56, 364.01 -368.51 C232.8 -376.46, 71.62 -420.58, -1.73 -376.44 C-75.07 -332.31, -76.57 -166.13, -76.06 -103.71 C-75.54 -41.28, -11.43 -18.97, 1.39 -1.9 M3.07 4.07 C1.34 12.63, -14.43 44.04, -7.14 48.56 C0.16 53.09, 19.95 27.54, 46.84 31.21 C73.73 34.88, 89.72 59.15, 154.21 70.58 C218.71 82.02, 337.5 107.03, 433.79 99.82 C530.08 92.61, 667.61 66.71, 731.98 27.34 C796.34 -12.03, 810.17 -77.12, 819.97 -136.39 C829.77 -195.66, 866.02 -290.23, 790.76 -328.26 C715.5 -366.29, 500.09 -356.24, 368.41 -364.56 C236.73 -372.87, 74.45 -420.7, 0.7 -378.15 C-73.05 -335.61, -73.76 -171.66, -74.08 -109.29 C-74.39 -46.91, -13.85 -21.49, -1.19 -3.93" stroke="#1e1e1e" stroke-width="4" fill="none"></path></g></g><mask></mask></svg>