<svg version="1.1" xmlns="http://www.w3.org/2000/svg" viewBox="0 0 601.1793279263347 353.72639746089135" width="601.1793279263347" height="353.72639746089135" class="excalidraw-svg"><!-- svg-source:excalidraw --><metadata></metadata><defs><style class="style-fonts">
      </style></defs><g stroke-linecap="round"><g transform="translate(518.5112897408153 153.14687516966387) rotate(0 -218.08766071698028 24.42189278630849)"><path d="M-0.76 -0.47 C-0.08 -3.57, 4.01 -12.37, 4.83 -19.65 C5.65 -26.93, 5.04 -36.82, 4.16 -44.14 C3.28 -51.47, 1.67 -57.07, -0.45 -63.59 C-2.57 -70.1, -3.64 -76.09, -8.54 -83.23 C-13.45 -90.37, -22.49 -100.49, -29.89 -106.41 C-37.29 -112.34, -44.32 -115.03, -52.94 -118.77 C-61.57 -122.51, -72.18 -126.82, -81.63 -128.83 C-91.08 -130.84, -101.42 -131.3, -109.66 -130.83 C-117.89 -130.37, -123.31 -128.82, -131.03 -126.03 C-138.76 -123.23, -148.94 -113.21, -155.99 -114.06 C-163.05 -114.91, -166.44 -126.6, -173.36 -131.15 C-180.27 -135.69, -186.29 -139.7, -197.49 -141.33 C-208.69 -142.96, -229.14 -142.69, -240.55 -140.92 C-251.97 -139.15, -257.75 -135.99, -265.98 -130.71 C-274.21 -125.43, -284.42 -115.58, -289.91 -109.25 C-295.4 -102.93, -294.4 -93.91, -298.93 -92.77 C-303.45 -91.63, -308.64 -100.19, -317.08 -102.41 C-325.51 -104.64, -338.3 -107.02, -349.53 -106.12 C-360.76 -105.21, -373.87 -102.91, -384.45 -96.97 C-395.02 -91.04, -406.87 -79.07, -412.97 -70.5 C-419.06 -61.93, -420.63 -55.29, -421 -45.57 C-421.37 -35.84, -414.21 -17.42, -415.21 -12.17 C-416.2 -6.91, -421.79 -13.08, -426.99 -14.05 C-432.18 -15.02, -439.8 -17.33, -446.38 -18 C-452.96 -18.67, -459.54 -20.37, -466.45 -18.07 C-473.35 -15.78, -481.09 -11.24, -487.81 -4.24 C-494.53 2.75, -503.83 13.66, -506.78 23.89 C-509.73 34.13, -508.66 48.07, -505.51 57.16 C-502.37 66.24, -495.2 71.97, -487.92 78.42 C-480.63 84.87, -470.56 93.22, -461.8 95.85 C-453.04 98.47, -442.81 95.77, -435.34 94.17 C-427.87 92.57, -420.5 84.68, -416.96 86.24 C-413.43 87.8, -416.02 97.75, -414.12 103.53 C-412.21 109.31, -412.04 113.41, -405.53 120.92 C-399.01 128.44, -385.51 141.79, -375.03 148.61 C-364.55 155.43, -354.28 159.83, -342.65 161.86 C-331.01 163.89, -317.26 162.88, -305.22 160.8 C-293.17 158.71, -277.82 152.59, -270.39 149.38 C-262.95 146.16, -262.99 140.92, -260.58 141.5 C-258.18 142.07, -261.87 147.06, -255.96 152.81 C-250.05 158.56, -237.77 169.7, -225.12 175.99 C-212.46 182.28, -195.62 190, -180.02 190.55 C-164.42 191.09, -144.04 184.98, -131.51 179.28 C-118.99 173.58, -111.39 163.13, -104.85 156.35 C-98.3 149.57, -94.8 143.48, -92.24 138.58 C-89.69 133.68, -90.67 131.41, -89.54 126.95 C-88.4 122.5, -87.62 113.6, -85.43 111.85 C-83.24 110.11, -82.46 114.77, -76.4 116.46 C-70.35 118.16, -57.01 121.37, -49.1 122.01 C-41.2 122.64, -35.46 122.94, -28.98 120.27 C-22.5 117.61, -14.53 110.32, -10.22 106.01 C-5.92 101.7, -4.3 97.81, -3.15 94.41 C-2 91, -4.86 86.18, -3.32 85.59 C-1.78 85.01, 1.16 89.72, 6.09 90.92 C11.02 92.11, 17.83 95.05, 26.28 92.76 C34.73 90.46, 49.27 82.95, 56.8 77.16 C64.33 71.36, 69.2 65.5, 71.47 57.96 C73.75 50.42, 72.41 39.28, 70.46 31.9 C68.51 24.52, 65.18 19.37, 59.78 13.7 C54.38 8.04, 46.08 0.61, 38.05 -2.1 C30.01 -4.8, 18.11 -2.7, 11.59 -2.53 C5.06 -2.35, 0.9 -1.57, -1.11 -1.05 M1.05 -1.77 C1.51 -5.11, 3.49 -14.47, 3.87 -21.41 C4.26 -28.34, 4.15 -36.46, 3.36 -43.4 C2.58 -50.34, 1.32 -56.47, -0.82 -63.03 C-2.97 -69.59, -4.32 -75.91, -9.51 -82.77 C-14.7 -89.63, -24.75 -98.04, -31.97 -104.2 C-39.18 -110.36, -44.33 -115.63, -52.82 -119.73 C-61.31 -123.83, -73.71 -127.27, -82.9 -128.81 C-92.09 -130.36, -100.09 -129.47, -107.97 -128.99 C-115.84 -128.51, -122.17 -128.56, -130.16 -125.94 C-138.16 -123.32, -148.52 -112.86, -155.92 -113.29 C-163.33 -113.72, -167.75 -123.67, -174.6 -128.5 C-181.45 -133.32, -185.86 -140.22, -197.02 -142.24 C-208.18 -144.26, -230.13 -142.55, -241.56 -140.63 C-252.99 -138.7, -257.19 -136.17, -265.6 -130.7 C-274.01 -125.23, -286.29 -114.31, -292.03 -107.82 C-297.77 -101.32, -295.68 -92.79, -300.05 -91.75 C-304.42 -90.71, -310.32 -98.73, -318.24 -101.59 C-326.17 -104.45, -336.54 -109.98, -347.59 -108.91 C-358.64 -107.84, -373.46 -101.32, -384.55 -95.15 C-395.64 -88.98, -408.12 -79.96, -414.15 -71.88 C-420.17 -63.8, -420.58 -56.53, -420.7 -46.66 C-420.82 -36.8, -413.57 -17.93, -414.86 -12.69 C-416.15 -7.45, -422.87 -14.41, -428.44 -15.22 C-434.02 -16.03, -441.62 -16.98, -448.29 -17.54 C-454.95 -18.1, -461.5 -20.75, -468.42 -18.58 C-475.35 -16.4, -483.69 -11.41, -489.83 -4.51 C-495.97 2.39, -502.67 12.82, -505.27 22.84 C-507.87 32.85, -508.05 45.98, -505.43 55.58 C-502.82 65.17, -496.74 73.93, -489.59 80.42 C-482.44 86.91, -471.63 91.95, -462.54 94.52 C-453.44 97.09, -442.89 97.28, -435.02 95.82 C-427.14 94.36, -418.55 84.24, -415.3 85.74 C-412.05 87.25, -416.89 99.01, -415.53 104.85 C-414.16 110.69, -413.95 113.32, -407.1 120.77 C-400.24 128.22, -385.42 142.87, -374.4 149.56 C-363.38 156.25, -352.6 158.59, -340.98 160.89 C-329.36 163.19, -316.85 165.69, -304.66 163.36 C-292.48 161.03, -275.05 150.61, -267.85 146.93 C-260.65 143.24, -262.97 140.7, -261.44 141.27 C-259.91 141.85, -264.43 144.52, -258.66 150.38 C-252.89 156.24, -239.74 169.73, -226.83 176.41 C-213.91 183.09, -197.14 190.33, -181.16 190.45 C-165.19 190.57, -144.07 182.84, -130.97 177.13 C-117.88 171.42, -108.84 162.66, -102.61 156.17 C-96.37 149.69, -96.1 143.14, -93.57 138.22 C-91.04 133.3, -88.9 131.23, -87.44 126.67 C-85.98 122.11, -86.54 112.76, -84.8 110.86 C-83.06 108.97, -83.08 113.52, -76.98 115.29 C-70.87 117.06, -56.34 120.89, -48.17 121.5 C-39.99 122.12, -34.42 121.13, -27.96 118.99 C-21.5 116.85, -13.63 112.71, -9.41 108.65 C-5.2 104.58, -3.5 98.3, -2.67 94.6 C-1.83 90.9, -6.22 87.21, -4.4 86.44 C-2.59 85.67, 2.96 89.12, 8.2 90 C13.43 90.88, 18.6 94.02, 27.02 91.71 C35.44 89.41, 51.62 81.78, 58.73 76.17 C65.84 70.56, 67.66 65.67, 69.7 58.06 C71.74 50.46, 72.67 37.88, 70.98 30.55 C69.28 23.22, 64.85 19.42, 59.54 14.09 C54.24 8.77, 47.11 1.29, 39.16 -1.43 C31.21 -4.14, 18.28 -2.16, 11.87 -2.22 C5.45 -2.28, 2.91 -1.95, 0.69 -1.8" stroke="#1e1e1e" stroke-width="4" fill="none"></path></g></g><mask></mask></svg>