<svg version="1.1" xmlns="http://www.w3.org/2000/svg" viewBox="0 0 614.498139064407 342.07660228510593" width="614.498139064407" height="342.07660228510593" class="excalidraw-svg"><!-- svg-source:excalidraw --><metadata></metadata><defs><style class="style-fonts">
      </style></defs><g stroke-linecap="round"><g transform="translate(542.5288350794253 330.65461321188343) rotate(0 -234.79495397098026 -159.97156559008772)"><path d="M0.32 -0.78 C2.78 -1.32, 10.13 -0.96, 15.7 -3.08 C21.28 -5.2, 27.62 -7.9, 33.76 -13.51 C39.9 -19.13, 47.85 -27.59, 52.55 -36.77 C57.25 -45.95, 61.57 -59, 61.94 -68.61 C62.31 -78.21, 59.21 -86.49, 54.77 -94.41 C50.33 -102.32, 42.78 -110.77, 35.32 -116.08 C27.85 -121.38, 17.49 -125.12, 9.96 -126.24 C2.43 -127.37, -6.24 -121.38, -9.86 -122.85 C-13.47 -124.33, -10.49 -128.12, -11.72 -135.1 C-12.96 -142.07, -13.58 -155.19, -17.27 -164.72 C-20.95 -174.25, -27.91 -185.23, -33.83 -192.27 C-39.75 -199.32, -47.13 -203.06, -52.79 -206.97 C-58.45 -210.88, -62.2 -212.84, -67.79 -215.73 C-73.39 -218.62, -81.05 -223.46, -86.36 -224.3 C-91.66 -225.14, -97.46 -219.41, -99.64 -220.77 C-101.81 -222.13, -98.34 -228.83, -99.42 -232.44 C-100.5 -236.05, -103.03 -239.93, -106.1 -242.41 C-109.18 -244.89, -113.91 -246.63, -117.88 -247.3 C-121.85 -247.98, -126.6 -243.96, -129.92 -246.44 C-133.23 -248.93, -131.85 -254.94, -137.77 -262.21 C-143.68 -269.47, -156.16 -282.98, -165.4 -290.05 C-174.64 -297.12, -183.27 -300.16, -193.2 -304.61 C-203.14 -309.06, -214.48 -314.11, -225.02 -316.76 C-235.57 -319.42, -245.14 -320.86, -256.47 -320.54 C-267.8 -320.23, -281.88 -317.64, -293 -314.87 C-304.12 -312.1, -313.8 -308.67, -323.22 -303.92 C-332.63 -299.18, -341.11 -293.64, -349.47 -286.37 C-357.83 -279.11, -367.23 -268.8, -373.37 -260.34 C-379.51 -251.88, -383.72 -241.88, -386.3 -235.62 C-388.89 -229.35, -386.38 -224.98, -388.87 -222.76 C-391.35 -220.55, -394.83 -222.45, -401.21 -222.31 C-407.59 -222.18, -419.61 -224.17, -427.14 -221.97 C-434.67 -219.76, -441.64 -213.3, -446.4 -209.07 C-451.16 -204.83, -453.04 -202.03, -455.72 -196.55 C-458.4 -191.07, -461.54 -182.8, -462.48 -176.18 C-463.43 -169.57, -462.68 -161.77, -461.4 -156.86 C-460.12 -151.96, -454.16 -149.02, -454.81 -146.73 C-455.45 -144.44, -459.03 -144.77, -465.26 -143.12 C-471.49 -141.47, -485.8 -139.42, -492.2 -136.84 C-498.6 -134.25, -499.62 -131.26, -503.66 -127.6 C-507.71 -123.94, -512.9 -119.83, -516.47 -114.88 C-520.04 -109.94, -522.76 -103.11, -525.1 -97.95 C-527.44 -92.79, -529.46 -90.18, -530.51 -83.93 C-531.56 -77.68, -532.42 -67.9, -531.39 -60.45 C-530.35 -53, -529.04 -46.72, -524.3 -39.25 C-519.56 -31.79, -510.37 -21.76, -502.96 -15.68 C-495.54 -9.6, -497.11 -5.18, -479.79 -2.78 C-462.47 -0.38, -478.87 -1.73, -399.02 -1.29 C-319.17 -0.86, -67.13 -0.54, -0.71 -0.16 M-0.97 1.42 C1.77 0.53, 12.27 -2, 17.89 -4.82 C23.51 -7.64, 26.99 -10.29, 32.75 -15.5 C38.52 -20.71, 47.86 -26.8, 52.5 -36.1 C57.13 -45.41, 60 -61.41, 60.57 -71.33 C61.14 -81.26, 60.01 -88.49, 55.93 -95.66 C51.86 -102.83, 43.92 -109.18, 36.12 -114.35 C28.33 -119.52, 16.56 -125.1, 9.17 -126.67 C1.79 -128.24, -4.82 -122.37, -8.17 -123.75 C-11.51 -125.14, -9.52 -128.35, -10.9 -134.98 C-12.28 -141.62, -12.41 -153.98, -16.45 -163.55 C-20.48 -173.12, -29.11 -185.12, -35.11 -192.42 C-41.11 -199.72, -46.82 -203.52, -52.44 -207.33 C-58.06 -211.15, -63.14 -212.38, -68.83 -215.31 C-74.53 -218.24, -81.64 -224.18, -86.62 -224.91 C-91.6 -225.65, -96.35 -218.63, -98.7 -219.72 C-101.04 -220.8, -99.28 -227.78, -100.66 -231.44 C-102.05 -235.1, -104.01 -239.05, -107.02 -241.7 C-110.02 -244.34, -114.97 -246.27, -118.69 -247.33 C-122.41 -248.39, -126.06 -245.93, -129.34 -248.06 C-132.61 -250.19, -132.39 -252.89, -138.33 -260.08 C-144.26 -267.28, -155.8 -283.76, -164.93 -291.23 C-174.06 -298.7, -183.37 -300.6, -193.12 -304.91 C-202.87 -309.23, -212.57 -314.53, -223.41 -317.14 C-234.25 -319.75, -246.7 -321.01, -258.17 -320.57 C-269.63 -320.13, -281.08 -317.15, -292.21 -314.5 C-303.35 -311.84, -315.68 -309.04, -324.98 -304.63 C-334.28 -300.21, -340.04 -295.04, -348 -287.99 C-355.95 -280.93, -366.1 -270.87, -372.73 -262.28 C-379.36 -253.69, -385.06 -243.25, -387.78 -236.44 C-390.5 -229.62, -386.72 -223.51, -389.04 -221.4 C-391.35 -219.28, -395.54 -223.5, -401.65 -223.75 C-407.77 -224, -418.49 -225.04, -425.73 -222.9 C-432.97 -220.77, -439.85 -215.19, -445.1 -210.95 C-450.36 -206.7, -453.89 -202.96, -457.24 -197.45 C-460.58 -191.93, -464.3 -184.44, -465.17 -177.85 C-466.04 -171.26, -464.28 -162.98, -462.45 -157.92 C-460.62 -152.85, -453.65 -150.07, -454.2 -147.47 C-454.76 -144.87, -459.74 -144.08, -465.79 -142.31 C-471.84 -140.54, -484.32 -139.3, -490.52 -136.84 C-496.72 -134.38, -498.78 -131.26, -502.98 -127.54 C-507.18 -123.83, -511.89 -119.59, -515.72 -114.56 C-519.54 -109.52, -523.44 -102.09, -525.94 -97.35 C-528.43 -92.61, -529.63 -92.12, -530.69 -86.1 C-531.75 -80.07, -533.08 -69.1, -532.29 -61.19 C-531.49 -53.28, -530.7 -46.05, -525.9 -38.61 C-521.09 -31.18, -511.17 -22.33, -503.44 -16.57 C-495.72 -10.81, -496.88 -6.37, -479.54 -4.05 C-462.2 -1.72, -479.33 -3.26, -399.43 -2.61 C-319.52 -1.97, -66.74 -0.59, -0.12 -0.18" stroke="#1e1e1e" stroke-width="4" fill="none"></path></g></g><mask></mask></svg>