<svg version="1.1" xmlns="http://www.w3.org/2000/svg" viewBox="0 0 557.6662899894932 352.51937778735544" width="557.6662899894932" height="352.51937778735544" class="excalidraw-svg"><!-- svg-source:excalidraw --><metadata></metadata><defs><style class="style-fonts">
      </style></defs><g stroke-linecap="round"><g transform="translate(504.9063782856315 341.50554235124974) rotate(0 -225.22747454018213 -165.64454084942986)"><path d="M0.68 1.01 C4.57 -0.47, 17.13 -4.83, 23.08 -8.86 C29.03 -12.89, 33.11 -16.82, 36.39 -23.16 C39.67 -29.51, 42.45 -38.18, 42.74 -46.93 C43.02 -55.68, 40.58 -69.49, 38.12 -75.66 C35.65 -81.84, 31.7 -81.44, 27.94 -83.98 C24.17 -86.52, 20.23 -88.95, 15.53 -90.9 C10.82 -92.86, 1.3 -93.67, -0.29 -95.72 C-1.88 -97.78, 3.89 -98.86, 5.98 -103.26 C8.07 -107.66, 11.5 -115.93, 12.25 -122.14 C12.99 -128.35, 12.46 -134.25, 10.46 -140.53 C8.46 -146.8, 3.51 -154.28, 0.26 -159.79 C-2.99 -165.31, -4.92 -168.89, -9.04 -173.64 C-13.17 -178.38, -19.35 -184.56, -24.48 -188.25 C-29.62 -191.95, -33.1 -193.28, -39.83 -195.8 C-46.57 -198.32, -57.67 -202.32, -64.9 -203.39 C-72.12 -204.46, -78.93 -202.18, -83.17 -202.22 C-87.4 -202.26, -89.71 -201.49, -90.28 -203.62 C-90.84 -205.74, -87.08 -207.8, -86.55 -214.96 C-86.01 -222.12, -85.46 -236.83, -87.08 -246.57 C-88.7 -256.31, -91.76 -264.52, -96.24 -273.41 C-100.72 -282.3, -107.14 -292.62, -113.96 -299.91 C-120.77 -307.2, -127.63 -312.34, -137.14 -317.15 C-146.65 -321.96, -159.99 -326.4, -171.03 -328.78 C-182.06 -331.16, -193.11 -331.78, -203.33 -331.4 C-213.55 -331.02, -224.13 -329.45, -232.34 -326.5 C-240.56 -323.56, -246.67 -318.15, -252.63 -313.74 C-258.58 -309.32, -263.67 -304.27, -268.08 -300.02 C-272.48 -295.77, -275.19 -293.38, -279.06 -288.25 C-282.93 -283.11, -289.09 -274.3, -291.31 -269.22 C-293.52 -264.13, -290.89 -258.37, -292.35 -257.75 C-293.81 -257.14, -294.83 -262.22, -300.07 -265.54 C-305.32 -268.85, -317.08 -275.16, -323.83 -277.65 C-330.57 -280.13, -334.43 -280.3, -340.54 -280.45 C-346.65 -280.6, -353.1 -280.66, -360.47 -278.55 C-367.85 -276.44, -378.1 -272.66, -384.8 -267.78 C-391.49 -262.9, -396.79 -255.61, -400.64 -249.28 C-404.48 -242.95, -406.39 -235.83, -407.87 -229.79 C-409.35 -223.75, -409.99 -218.01, -409.52 -213.02 C-409.05 -208.02, -404.18 -202.1, -405.05 -199.82 C-405.92 -197.54, -408.49 -201.19, -414.73 -199.32 C-420.98 -197.45, -433.45 -193.4, -442.51 -188.58 C-451.56 -183.75, -461.72 -178.36, -469.05 -170.35 C-476.38 -162.35, -482.45 -149.26, -486.47 -140.55 C-490.5 -131.83, -492.13 -126.75, -493.2 -118.08 C-494.28 -109.4, -494.64 -99.1, -492.93 -88.52 C-491.23 -77.95, -487.79 -64.59, -482.97 -54.62 C-478.16 -44.66, -471.41 -35.88, -464.03 -28.72 C-456.64 -21.56, -446.51 -16, -438.66 -11.66 C-430.81 -7.33, -430.01 -4.12, -416.94 -2.73 C-403.87 -1.34, -429.54 -3.83, -360.23 -3.33 C-290.92 -2.82, -61.2 -0.47, -1.1 0.28 M-0.43 0.5 C3.38 -0.87, 16.41 -3.61, 22.37 -7.85 C28.33 -12.09, 31.97 -18.05, 35.31 -24.94 C38.65 -31.84, 42.12 -40.73, 42.41 -49.21 C42.7 -57.69, 39.27 -69.83, 37.03 -75.84 C34.79 -81.84, 32.43 -82.59, 28.95 -85.27 C25.47 -87.94, 21.22 -90.6, 16.17 -91.89 C11.12 -93.17, 0.12 -91.37, -1.35 -92.98 C-2.82 -94.59, 5.48 -96.61, 7.34 -101.53 C9.21 -106.45, 9.26 -116.12, 9.86 -122.53 C10.46 -128.93, 12.26 -133.74, 10.95 -139.95 C9.64 -146.17, 5.32 -154.14, 1.99 -159.83 C-1.35 -165.53, -4.48 -169.27, -9.06 -174.11 C-13.64 -178.95, -20.43 -185.26, -25.49 -188.88 C-30.54 -192.5, -32.97 -193.57, -39.4 -195.82 C-45.84 -198.06, -56.64 -201.31, -64.11 -202.35 C-71.59 -203.39, -79.72 -201.89, -84.25 -202.06 C-88.79 -202.22, -91.27 -201.31, -91.32 -203.33 C-91.38 -205.36, -85.37 -206.81, -84.57 -214.22 C-83.78 -221.63, -84.5 -237.76, -86.54 -247.79 C-88.58 -257.82, -92.33 -265.54, -96.83 -274.41 C-101.33 -283.28, -106.84 -293.8, -113.54 -300.99 C-120.24 -308.18, -127.67 -312.88, -137.04 -317.56 C-146.4 -322.23, -158.86 -326.78, -169.73 -329.05 C-180.6 -331.32, -192.01 -331.54, -202.27 -331.17 C-212.53 -330.8, -223.13 -329.72, -231.28 -326.85 C-239.43 -323.97, -244.71 -318.18, -251.16 -313.92 C-257.6 -309.67, -265.44 -305.79, -269.97 -301.3 C-274.51 -296.8, -274.51 -292.11, -278.39 -286.96 C-282.26 -281.81, -290.9 -275.51, -293.2 -270.4 C-295.5 -265.29, -291.06 -256.84, -292.19 -256.29 C-293.33 -255.74, -294.4 -263.56, -300 -267.11 C-305.6 -270.66, -319.32 -275.03, -325.79 -277.59 C-332.27 -280.14, -332.77 -282.1, -338.85 -282.42 C-344.92 -282.75, -354.6 -281.69, -362.25 -279.54 C-369.89 -277.39, -378.13 -274.92, -384.73 -269.52 C-391.34 -264.13, -398.14 -253.68, -401.87 -247.17 C-405.59 -240.65, -405.76 -236.26, -407.07 -230.45 C-408.37 -224.63, -409.87 -217.46, -409.69 -212.27 C-409.51 -207.07, -405.23 -201.48, -405.97 -199.3 C-406.7 -197.11, -408.2 -201.01, -414.12 -199.14 C-420.04 -197.27, -432.14 -192.8, -441.5 -188.08 C-450.85 -183.36, -462.74 -178.44, -470.25 -170.81 C-477.75 -163.18, -482.65 -151.02, -486.53 -142.3 C-490.4 -133.57, -492.26 -126.96, -493.51 -118.47 C-494.75 -109.98, -495.68 -101.98, -493.98 -91.37 C-492.29 -80.76, -488.39 -64.98, -483.35 -54.81 C-478.3 -44.65, -471.17 -37.4, -463.7 -30.4 C-456.22 -23.4, -446.37 -17.44, -438.51 -12.82 C-430.64 -8.2, -429.78 -4.49, -416.52 -2.68 C-403.26 -0.86, -428.13 -2.37, -358.93 -1.95 C-289.74 -1.53, -61.4 -0.74, -1.37 -0.14" stroke="#1e1e1e" stroke-width="4" fill="none"></path></g></g><mask></mask></svg>