<svg version="1.1" xmlns="http://www.w3.org/2000/svg" viewBox="0 0 639.3516536334719 382.80802179943703" width="639.3516536334719" height="382.80802179943703" class="excalidraw-svg"><!-- svg-source:excalidraw --><metadata></metadata><defs><style class="style-fonts">
      </style></defs><rect x="0" y="0" width="639.3516536334719" height="382.80802179943703" fill="transparent"></rect><g stroke-linecap="round"><g transform="translate(326.5058081059792 337.44180750053465) rotate(0 -7.313212487675628 -145.86428463009975)"><path d="M-1.09 -1.02 C-5.2 1.85, -15.57 12.96, -24.06 17.38 C-32.56 21.8, -41.63 24.19, -52.06 25.5 C-62.49 26.8, -75.9 27.29, -86.65 25.2 C-97.39 23.11, -107.42 18.72, -116.54 12.95 C-125.67 7.18, -135.1 -0.83, -141.4 -9.42 C-147.7 -18.02, -151.13 -35.14, -154.34 -38.62 C-157.56 -42.11, -156.42 -33.08, -160.68 -30.32 C-164.95 -27.57, -173.53 -23.25, -179.93 -22.08 C-186.33 -20.91, -191.88 -21.81, -199.06 -23.31 C-206.25 -24.82, -217.2 -28.35, -223.05 -31.12 C-228.9 -33.88, -230.78 -35.66, -234.16 -39.89 C-237.55 -44.11, -241.31 -52.28, -243.35 -56.46 C-245.39 -60.65, -246.49 -62.37, -246.41 -64.99 C-246.32 -67.62, -242.21 -72.41, -242.85 -72.22 C-243.48 -72.03, -244.86 -65.39, -250.23 -63.86 C-255.61 -62.34, -266.63 -60.93, -275.08 -63.06 C-283.53 -65.2, -294.52 -70.89, -300.93 -76.67 C-307.33 -82.44, -310.98 -91.12, -313.51 -97.71 C-316.04 -104.29, -316.04 -110.08, -316.12 -116.15 C-316.19 -122.23, -316.18 -128.76, -313.95 -134.14 C-311.72 -139.52, -306.25 -144.53, -302.73 -148.44 C-299.2 -152.35, -296.91 -155.05, -292.78 -157.61 C-288.65 -160.16, -283.41 -162.56, -277.93 -163.77 C-272.44 -164.98, -264.6 -165.36, -259.85 -164.87 C-255.11 -164.38, -250.11 -159.87, -249.48 -160.83 C-248.84 -161.79, -255.49 -165.17, -256.02 -170.64 C-256.54 -176.1, -254.78 -185.94, -252.62 -193.64 C-250.46 -201.33, -247.28 -209.07, -243.05 -216.81 C-238.82 -224.54, -233.46 -234.01, -227.24 -240.06 C-221.03 -246.11, -212.94 -250.12, -205.78 -253.1 C-198.62 -256.08, -192.66 -257.07, -184.29 -257.92 C-175.92 -258.78, -163.84 -258.79, -155.56 -258.21 C-147.28 -257.64, -140.98 -256.92, -134.59 -254.47 C-128.21 -252.03, -121.56 -246.96, -117.25 -243.55 C-112.95 -240.13, -110.09 -234.03, -108.78 -233.99 C-107.47 -233.95, -110.72 -238.87, -109.42 -243.29 C-108.13 -247.71, -105.23 -254.25, -101.01 -260.51 C-96.79 -266.77, -89.85 -274.53, -84.09 -280.85 C-78.32 -287.16, -72.71 -293.4, -66.42 -298.4 C-60.12 -303.41, -53.8 -306.99, -46.31 -310.87 C-38.82 -314.76, -31.29 -318.96, -21.45 -321.71 C-11.62 -324.47, 1.24 -327.24, 12.69 -327.43 C24.14 -327.61, 36.02 -325.48, 47.24 -322.82 C58.46 -320.16, 69.85 -316.18, 80.01 -311.46 C90.16 -306.74, 101.28 -299.81, 108.17 -294.49 C115.06 -289.18, 116.99 -284.31, 121.34 -279.57 C125.69 -274.83, 131.66 -270.92, 134.26 -266.04 C136.86 -261.17, 135.05 -251.6, 136.96 -250.31 C138.86 -249.03, 140.86 -256.44, 145.69 -258.32 C150.52 -260.19, 158.45 -261.25, 165.93 -261.59 C173.4 -261.92, 183.13 -262.17, 190.52 -260.32 C197.91 -258.47, 203.59 -255.13, 210.27 -250.51 C216.94 -245.89, 225.89 -239.33, 230.58 -232.6 C235.26 -225.86, 236.31 -216.17, 238.38 -210.1 C240.45 -204.04, 242.96 -202.45, 242.99 -196.2 C243.02 -189.96, 238.2 -175.69, 238.55 -172.66 C238.91 -169.63, 242.02 -177.15, 245.13 -178 C248.24 -178.84, 251.66 -179.01, 257.23 -177.74 C262.8 -176.47, 272.45 -174.54, 278.56 -170.37 C284.67 -166.21, 289.89 -159.17, 293.9 -152.76 C297.91 -146.35, 301.72 -139.21, 302.63 -131.93 C303.54 -124.65, 301.39 -115.14, 299.37 -109.06 C297.35 -102.99, 293.22 -99.04, 290.49 -95.47 C287.77 -91.91, 285.62 -89.19, 283.05 -87.66 C280.47 -86.14, 274.38 -87.23, 275.05 -86.33 C275.72 -85.42, 283.54 -84.43, 287.08 -82.23 C290.63 -80.04, 294.77 -77.47, 296.3 -73.15 C297.83 -68.84, 297.46 -61.18, 296.26 -56.34 C295.06 -51.5, 292.1 -47.14, 289.09 -44.11 C286.08 -41.09, 282.07 -39.37, 278.2 -38.19 C274.32 -37.01, 269.62 -36.75, 265.84 -37.05 C262.06 -37.35, 259.22 -37.57, 255.49 -39.97 C251.77 -42.37, 244.97 -51.16, 243.48 -51.45 C242 -51.74, 246.93 -45.9, 246.6 -41.72 C246.26 -37.53, 243.03 -30.65, 241.47 -26.34 C239.91 -22.03, 239.76 -20.69, 237.25 -15.86 C234.73 -11.04, 230.21 -2.5, 226.4 2.58 C222.59 7.66, 221.39 9.66, 214.39 14.63 C207.39 19.6, 193.47 29.04, 184.38 32.4 C175.29 35.76, 169.19 35.08, 159.85 34.81 C150.52 34.55, 138.06 33.2, 128.4 30.81 C118.73 28.42, 109.06 25.23, 101.87 20.49 C94.69 15.75, 88.24 3.83, 85.29 2.38 C82.34 0.94, 87.3 8.53, 84.17 11.83 C81.04 15.13, 72.83 20.05, 66.52 22.2 C60.2 24.34, 53.26 24.53, 46.29 24.68 C39.32 24.83, 31.57 25.67, 24.72 23.12 C17.87 20.56, 9.19 13.2, 5.19 9.36 C1.2 5.53, 1.53 1.86, 0.74 0.11 M0.53 1.06 C-3.27 3.58, -13.17 11.38, -21.96 15.68 C-30.75 19.99, -40.96 25.64, -52.21 26.87 C-63.46 28.09, -79.08 25.3, -89.46 23.04 C-99.85 20.79, -105.54 18.85, -114.51 13.35 C-123.48 7.86, -136.8 -1.57, -143.29 -9.93 C-149.78 -18.3, -150.95 -33.48, -153.46 -36.84 C-155.97 -40.2, -154.19 -32.38, -158.36 -30.1 C-162.54 -27.82, -171.31 -24.76, -178.52 -23.18 C-185.72 -21.61, -194.14 -19.47, -201.57 -20.66 C-209.01 -21.86, -217.46 -27.17, -223.13 -30.38 C-228.8 -33.59, -232.24 -35.97, -235.58 -39.94 C-238.92 -43.92, -241.74 -49.9, -243.16 -54.2 C-244.57 -58.5, -244.27 -62.65, -244.07 -65.73 C-243.88 -68.82, -241.18 -73.16, -242.01 -72.71 C-242.84 -72.26, -243.83 -64.21, -249.03 -63.02 C-254.23 -61.84, -264.9 -63.44, -273.2 -65.59 C-281.49 -67.74, -292.4 -70.56, -298.79 -75.94 C-305.18 -81.32, -308.75 -90.98, -311.54 -97.89 C-314.33 -104.79, -314.91 -111.12, -315.53 -117.39 C-316.15 -123.67, -317.49 -130.65, -315.28 -135.54 C-313.07 -140.43, -306.06 -142.89, -302.27 -146.72 C-298.49 -150.56, -296.84 -155.65, -292.56 -158.56 C-288.28 -161.47, -282.33 -162.65, -276.59 -164.17 C-270.86 -165.69, -262.33 -168.24, -258.15 -167.67 C-253.96 -167.11, -251.49 -160.27, -251.48 -160.79 C-251.47 -161.32, -258.15 -165.13, -258.09 -170.8 C-258.02 -176.47, -253.57 -186.88, -251.1 -194.8 C-248.63 -202.71, -247.44 -210.51, -243.28 -218.29 C-239.13 -226.06, -232.34 -235.93, -226.16 -241.47 C-219.99 -247, -213.21 -248.49, -206.25 -251.48 C-199.28 -254.47, -192.55 -258.28, -184.39 -259.42 C-176.23 -260.57, -165.33 -259.34, -157.26 -258.37 C-149.19 -257.39, -142.3 -255.97, -135.97 -253.58 C-129.63 -251.2, -123.32 -247.5, -119.24 -244.06 C-115.16 -240.62, -112.87 -232.89, -111.48 -232.94 C-110.09 -233, -112.79 -239.79, -110.91 -244.4 C-109.02 -249.01, -104.53 -254.11, -100.18 -260.61 C-95.83 -267.11, -90.25 -277.04, -84.81 -283.39 C-79.37 -289.74, -73.96 -293.72, -67.53 -298.72 C-61.11 -303.72, -53.63 -309.54, -46.27 -313.38 C-38.9 -317.23, -33.01 -319.45, -23.34 -321.79 C-13.67 -324.14, 0.44 -327.51, 11.74 -327.44 C23.04 -327.37, 33.17 -324.09, 44.48 -321.37 C55.8 -318.65, 69.26 -315.55, 79.65 -311.11 C90.03 -306.67, 99.44 -299.97, 106.78 -294.73 C114.12 -289.49, 119.06 -284.73, 123.69 -279.68 C128.31 -274.63, 132.4 -269.2, 134.54 -264.43 C136.67 -259.66, 135.01 -252.06, 136.52 -251.07 C138.02 -250.08, 139.01 -256.54, 143.56 -258.48 C148.11 -260.42, 156.46 -262.34, 163.83 -262.7 C171.2 -263.06, 179.95 -262.65, 187.78 -260.65 C195.61 -258.66, 203.78 -255.57, 210.82 -250.73 C217.87 -245.88, 225.14 -238.22, 230.05 -231.59 C234.97 -224.96, 237.95 -217.09, 240.31 -210.94 C242.68 -204.8, 244.28 -201.01, 244.25 -194.7 C244.22 -188.39, 240.3 -175.42, 240.12 -173.09 C239.95 -170.76, 240.37 -179.71, 243.19 -180.72 C246.02 -181.74, 251.31 -180.96, 257.1 -179.19 C262.88 -177.43, 271.59 -174.19, 277.92 -170.15 C284.25 -166.11, 291.38 -161.34, 295.08 -154.95 C298.79 -148.55, 299.09 -139.46, 300.17 -131.78 C301.25 -124.11, 302.75 -115.22, 301.56 -108.92 C300.38 -102.62, 295.96 -97.78, 293.06 -93.98 C290.15 -90.19, 287.12 -86.99, 284.13 -86.16 C281.15 -85.32, 274.55 -89.67, 275.15 -88.99 C275.75 -88.3, 284.07 -84.55, 287.72 -82.05 C291.36 -79.54, 295.76 -78.01, 297.01 -73.95 C298.26 -69.9, 296.48 -63.07, 295.21 -57.69 C293.93 -52.32, 292.42 -45.21, 289.36 -41.71 C286.31 -38.2, 280.59 -37.62, 276.9 -36.65 C273.21 -35.68, 270.3 -35.24, 267.21 -35.87 C264.12 -36.5, 262.01 -37.9, 258.34 -40.45 C254.68 -42.99, 246.87 -51.14, 245.22 -51.12 C243.57 -51.11, 248.73 -44.47, 248.45 -40.36 C248.16 -36.25, 245.01 -30.24, 243.51 -26.49 C242.02 -22.74, 242.65 -22.63, 239.48 -17.87 C236.31 -13.11, 228.81 -3.08, 224.51 2.09 C220.21 7.26, 220.43 8.03, 213.68 13.13 C206.94 18.24, 193.11 29.04, 184.05 32.71 C174.99 36.38, 168.68 35.19, 159.32 35.15 C149.96 35.1, 137.79 34.54, 127.87 32.43 C117.96 30.32, 106.83 27.41, 99.83 22.51 C92.82 17.61, 88.45 4.61, 85.84 3.05 C83.22 1.49, 87.01 9.7, 84.16 13.14 C81.3 16.58, 75.1 21.63, 68.71 23.67 C62.32 25.71, 53.04 25.73, 45.83 25.39 C38.61 25.04, 32.11 23.93, 25.42 21.6 C18.72 19.27, 9.83 15.15, 5.66 11.43 C1.48 7.7, 1.6 0.97, 0.39 -0.76" stroke="#1e1e1e" stroke-width="4" fill="none"></path></g></g><mask></mask></svg>