<svg version="1.1" xmlns="http://www.w3.org/2000/svg" viewBox="0 0 422.86924123104154 235.4905382022166" width="422.86924123104154" height="235.4905382022166" class="excalidraw-svg"><!-- svg-source:excalidraw --><metadata></metadata><defs><style class="style-fonts">
      </style></defs><g stroke-linecap="round"><g transform="translate(39.115100538144816 224.75228000060997) rotate(0 159.9634328398679 -0.14728059321691944)"><path d="M0.8 0.55 C54.01 0.6, 266.28 0.42, 319.59 0.37 M-0.23 -0.21 C52.76 -0.51, 265.05 -1.13, 318.47 -1.4" stroke="black" stroke-width="4" fill="none"></path></g></g><mask></mask><g stroke-linecap="round"><g transform="translate(40.76014966164121 224.32422853596745) rotate(0 -4.647289638488928 -51.496739346946015)"><path d="M-0.33 0.66 C-3.39 -0.15, -13.24 -2.2, -17.53 -4.35 C-21.81 -6.5, -23.86 -8.75, -26.04 -12.23 C-28.22 -15.71, -30.11 -17.67, -30.61 -25.24 C-31.12 -32.81, -30.25 -49.91, -29.07 -57.66 C-27.9 -65.41, -27.06 -66.48, -23.55 -71.75 C-20.04 -77.01, -13.95 -84, -8.03 -89.24 C-2.1 -94.49, 7.01 -100.91, 12 -103.22 C16.98 -105.53, 20.49 -103.26, 21.91 -103.1 M1.69 -0.03 C-1.53 -1.25, -13.88 -4.41, -18.09 -6.19 C-22.31 -7.98, -21.54 -7.24, -23.6 -10.75 C-25.67 -14.26, -29.93 -19.54, -30.49 -27.26 C-31.06 -34.97, -28.39 -49.55, -27.02 -57.06 C-25.65 -64.57, -25.62 -66.8, -22.3 -72.32 C-18.98 -77.85, -12.68 -84.96, -7.11 -90.18 C-1.54 -95.41, 6.51 -101.27, 11.14 -103.68 C15.77 -106.09, 19.04 -104.84, 20.68 -104.62" stroke="black" stroke-width="4" fill="none"></path></g></g><mask></mask><g stroke-linecap="round"><g transform="translate(61.88895141685998 118.55127794762393) rotate(0 66.09853328482018 -53.252878514820054)"><path d="M0.73 0.52 C-1.14 -5.78, -9.5 -27.58, -11.56 -37.15 C-13.61 -46.72, -12.44 -51.44, -11.61 -56.92 C-10.77 -62.39, -10.12 -64.57, -6.55 -69.98 C-2.98 -75.39, 3.85 -84.35, 9.81 -89.39 C15.77 -94.42, 22.95 -97.34, 29.2 -100.19 C35.45 -103.03, 38.74 -105.36, 47.32 -106.46 C55.9 -107.55, 69.86 -108.1, 80.66 -106.78 C91.46 -105.46, 105.2 -101.07, 112.14 -98.54 C119.07 -96, 117.04 -98.73, 122.26 -91.57 C127.49 -84.42, 140.04 -61.66, 143.49 -55.61 M-0.35 -0.25 C-1.81 -6.99, -7.28 -29.36, -9.31 -39.11 C-11.33 -48.85, -12.98 -53.8, -12.5 -58.72 C-12.02 -63.65, -10.49 -63.7, -6.44 -68.67 C-2.38 -73.64, 6.23 -83.17, 11.84 -88.53 C17.45 -93.89, 21.17 -97.59, 27.22 -100.82 C33.27 -104.05, 39.33 -106.85, 48.14 -107.92 C56.95 -108.99, 69.12 -108.65, 80.07 -107.26 C91.02 -105.88, 106.63 -102.25, 113.83 -99.61 C121.03 -96.97, 118.27 -98.9, 123.26 -91.42 C128.25 -83.93, 140.17 -60.68, 143.78 -54.7" stroke="black" stroke-width="4" fill="none"></path></g></g><mask></mask><g stroke-linecap="round"><g transform="translate(203.61630941452313 61.33291692152034) rotate(0 61.1952197431965 14.303986087490784)"><path d="M-0.87 0.31 C1.94 -1.53, 10.34 -7.85, 17.63 -10.52 C24.92 -13.19, 29.8 -15.88, 42.86 -15.71 C55.92 -15.55, 83.73 -12.84, 95.99 -9.54 C108.24 -6.23, 111.92 -4.89, 116.38 4.12 C120.83 13.12, 121.58 37.77, 122.72 44.49 M0.87 -0.57 C3.44 -2.77, 9.71 -9.23, 16.56 -12.11 C23.41 -14.99, 28.71 -17.93, 41.96 -17.85 C55.22 -17.77, 83.87 -15.43, 96.07 -11.63 C108.27 -7.84, 111.08 -4.25, 115.18 4.91 C119.28 14.07, 119.74 36.99, 120.65 43.33" stroke="black" stroke-width="4" fill="none"></path></g></g><mask></mask><g stroke-linecap="round"><g transform="translate(356.69710394514414 224.46901091038217) rotate(0 14.60366068160829 -64.03935938410723)"><path d="M-0.25 1.02 C4.66 -1.56, 20.5 -8.94, 28.55 -15.19 C36.6 -21.44, 43.61 -29.53, 48.06 -36.46 C52.5 -43.4, 54.05 -48.42, 55.21 -56.8 C56.38 -65.18, 56.65 -77.98, 55.04 -86.73 C53.43 -95.49, 50.56 -103.03, 45.55 -109.31 C40.55 -115.59, 31.53 -121.49, 25.01 -124.43 C18.49 -127.36, 13.32 -127.23, 6.43 -126.92 C-0.47 -126.61, -10.96 -124.32, -16.37 -122.57 C-21.78 -120.81, -24.59 -117.33, -26.05 -116.38 M1.83 0.51 C6.63 -2.47, 19.92 -10.63, 27.47 -17.1 C35.02 -23.58, 42.42 -31.37, 47.13 -38.34 C51.84 -45.32, 54.63 -50.93, 55.74 -58.95 C56.84 -66.97, 55.74 -77.87, 53.74 -86.46 C51.74 -95.05, 48.48 -103.99, 43.75 -110.49 C39.01 -116.99, 31.71 -122.77, 25.35 -125.46 C19 -128.16, 12.87 -126.89, 5.63 -126.65 C-1.61 -126.41, -12.87 -125.68, -18.07 -124.03 C-23.27 -122.38, -24.48 -118.05, -25.57 -116.73" stroke="black" stroke-width="4" fill="none"></path></g></g><mask></mask></svg>