<svg version="1.1" xmlns="http://www.w3.org/2000/svg" viewBox="0 0 1146.9490390697056 1050.3734357016567" width="1146.9490390697056" height="1050.3734357016567" class="excalidraw-svg"><!-- svg-source:excalidraw --><metadata></metadata><defs><style class="style-fonts">
      </style></defs><g stroke-linecap="round"><g transform="translate(300.3322921900499 619.1869288759021) rotate(0 -13.976821899414517 -304.0438715616863)"><path d="M0 0 C9.91 -2.58, 42.05 -8.14, 59.46 -15.47 C76.87 -22.8, 90.44 -33.59, 104.47 -43.99 C118.5 -54.4, 133.26 -66.88, 143.65 -77.91 C154.04 -88.93, 158.08 -92.87, 166.82 -110.14 C175.57 -127.4, 187.25 -152.33, 196.11 -181.49 C204.98 -210.66, 213.41 -244.05, 220.02 -285.11 C226.64 -326.17, 236.22 -406.29, 235.81 -427.86 C235.41 -449.43, 220.59 -413.21, 217.6 -414.54 C214.6 -415.86, 216.52 -429.74, 217.87 -435.8 C219.22 -441.85, 227.69 -446.01, 225.71 -450.84 C223.73 -455.67, 212.39 -466.87, 205.99 -464.77 C199.6 -462.67, 193.13 -440.99, 187.35 -438.23 C181.57 -435.47, 173.97 -444.86, 171.31 -448.23 C168.64 -451.61, 172.49 -450.01, 171.38 -458.48 C170.26 -466.95, 167.37 -491.15, 164.63 -499.03 C161.89 -506.92, 156.62 -502.58, 154.93 -505.79 C153.24 -508.99, 156.87 -516, 154.49 -518.28 C152.11 -520.55, 145.01 -519.74, 140.65 -519.43 C136.29 -519.11, 133.92 -522.54, 128.35 -516.4 C122.78 -510.25, 112.89 -489.08, 107.24 -482.56 C101.59 -476.03, 98.88 -476.92, 94.46 -477.25 C90.03 -477.57, 83.24 -478.36, 80.69 -484.52 C78.15 -490.68, 77.57 -506.52, 79.19 -514.21 C80.81 -521.9, 91.7 -527.58, 90.41 -530.65 C89.11 -533.71, 76.4 -536.59, 71.41 -532.58 C66.42 -528.57, 63.63 -501.41, 60.45 -506.56 C57.28 -511.72, 57.47 -552.99, 52.36 -563.52 C47.26 -574.05, 34.23 -572.66, 29.81 -569.73 C25.4 -566.79, 27.32 -545.45, 25.88 -545.9 C24.44 -546.36, 24.56 -567.76, 21.17 -572.43 C17.79 -577.11, 9.63 -580.28, 5.58 -573.93 C1.53 -567.58, -1.33 -535.45, -3.14 -534.33 C-4.94 -533.22, -6.21 -555.9, -5.25 -567.23 C-4.29 -578.56, 4.55 -596.23, 2.63 -602.3 C0.72 -608.37, -13.2 -605.15, -16.74 -603.64 C-20.28 -602.14, -17.99 -592.66, -18.6 -593.29 C-19.21 -593.92, -18.12 -604.95, -20.39 -607.42 C-22.65 -609.89, -30.24 -609.44, -32.18 -608.09 C-34.13 -606.74, -30.62 -606.11, -32.03 -599.32 C-33.44 -592.53, -37.88 -577.3, -40.64 -567.35 C-43.41 -557.39, -46.02 -549.69, -48.62 -539.6 C-51.21 -529.51, -56.18 -505.91, -56.23 -506.81 C-56.27 -507.72, -48.67 -538.34, -48.88 -545.04 C-49.1 -551.74, -53.28 -551.22, -57.54 -547.02 C-61.8 -542.81, -71.47 -528.81, -74.45 -519.81 C-77.44 -510.81, -74.12 -486.9, -75.46 -493.01 C-76.79 -499.12, -80.4 -544.6, -82.48 -556.44 C-84.57 -568.28, -87.25 -560.76, -87.96 -564.07 C-88.66 -567.38, -84.51 -573.99, -86.71 -576.31 C-88.91 -578.64, -98.95 -580.57, -101.15 -578.03 C-103.34 -575.5, -97.97 -563.42, -99.89 -561.11 C-101.82 -558.8, -108.63 -568.4, -112.7 -564.15 C-116.77 -559.9, -120.87 -534.87, -124.3 -535.61 C-127.73 -536.34, -123.83 -565.81, -133.28 -568.58 C-142.73 -571.35, -174.99 -555.92, -180.98 -552.23 C-186.97 -548.53, -169.24 -548.89, -169.21 -546.42 C-169.19 -543.94, -178.96 -540.9, -180.85 -537.37 C-182.75 -533.84, -179.57 -538.11, -180.59 -525.25 C-181.61 -512.4, -185.03 -465.62, -186.98 -460.24 C-188.93 -454.87, -186.77 -488.61, -192.28 -492.99 C-197.8 -497.37, -215.28 -489.47, -220.05 -486.53 C-224.82 -483.6, -219.52 -486.73, -220.89 -475.39 C-222.26 -464.04, -224.88 -437.18, -228.29 -418.44 C-231.69 -399.71, -236.96 -380.05, -241.33 -362.96 C-245.71 -345.86, -251.06 -328.93, -254.53 -315.87 C-258.01 -302.82, -260.64 -297.62, -262.17 -284.65 C-263.71 -271.67, -264.5 -254.27, -263.77 -238.02 C-263.04 -221.78, -260.04 -200.63, -257.8 -187.18 C-255.55 -173.73, -254.79 -170.78, -250.28 -157.32 C-245.77 -143.86, -237.71 -120.96, -230.76 -106.42 C-223.81 -91.88, -218.38 -81.32, -208.57 -70.09 C-198.75 -58.87, -188.32 -48.54, -171.88 -39.08 C-155.44 -29.62, -122.79 -18.25, -109.91 -13.33 C-97.04 -8.42, -100.18 -10.41, -94.63 -9.59 C-89.07 -8.78, -85.3 -9.42, -76.6 -8.45 C-67.9 -7.48, -55.2 -5.16, -42.43 -3.75 C-29.66 -2.35, -7.07 -0.63, 0 0 M0 0 C9.91 -2.58, 42.05 -8.14, 59.46 -15.47 C76.87 -22.8, 90.44 -33.59, 104.47 -43.99 C118.5 -54.4, 133.26 -66.88, 143.65 -77.91 C154.04 -88.93, 158.08 -92.87, 166.82 -110.14 C175.57 -127.4, 187.25 -152.33, 196.11 -181.49 C204.98 -210.66, 213.41 -244.05, 220.02 -285.11 C226.64 -326.17, 236.22 -406.29, 235.81 -427.86 C235.41 -449.43, 220.59 -413.21, 217.6 -414.54 C214.6 -415.86, 216.52 -429.74, 217.87 -435.8 C219.22 -441.85, 227.69 -446.01, 225.71 -450.84 C223.73 -455.67, 212.39 -466.87, 205.99 -464.77 C199.6 -462.67, 193.13 -440.99, 187.35 -438.23 C181.57 -435.47, 173.97 -444.86, 171.31 -448.23 C168.64 -451.61, 172.49 -450.01, 171.38 -458.48 C170.26 -466.95, 167.37 -491.15, 164.63 -499.03 C161.89 -506.92, 156.62 -502.58, 154.93 -505.79 C153.24 -508.99, 156.87 -516, 154.49 -518.28 C152.11 -520.55, 145.01 -519.74, 140.65 -519.43 C136.29 -519.11, 133.92 -522.54, 128.35 -516.4 C122.78 -510.25, 112.89 -489.08, 107.24 -482.56 C101.59 -476.03, 98.88 -476.92, 94.46 -477.25 C90.03 -477.57, 83.24 -478.36, 80.69 -484.52 C78.15 -490.68, 77.57 -506.52, 79.19 -514.21 C80.81 -521.9, 91.7 -527.58, 90.41 -530.65 C89.11 -533.71, 76.4 -536.59, 71.41 -532.58 C66.42 -528.57, 63.63 -501.41, 60.45 -506.56 C57.28 -511.72, 57.47 -552.99, 52.36 -563.52 C47.26 -574.05, 34.23 -572.66, 29.81 -569.73 C25.4 -566.79, 27.32 -545.45, 25.88 -545.9 C24.44 -546.36, 24.56 -567.76, 21.17 -572.43 C17.79 -577.11, 9.63 -580.28, 5.58 -573.93 C1.53 -567.58, -1.33 -535.45, -3.14 -534.33 C-4.94 -533.22, -6.21 -555.9, -5.25 -567.23 C-4.29 -578.56, 4.55 -596.23, 2.63 -602.3 C0.72 -608.37, -13.2 -605.15, -16.74 -603.64 C-20.28 -602.14, -17.99 -592.66, -18.6 -593.29 C-19.21 -593.92, -18.12 -604.95, -20.39 -607.42 C-22.65 -609.89, -30.24 -609.44, -32.18 -608.09 C-34.13 -606.74, -30.62 -606.11, -32.03 -599.32 C-33.44 -592.53, -37.88 -577.3, -40.64 -567.35 C-43.41 -557.39, -46.02 -549.69, -48.62 -539.6 C-51.21 -529.51, -56.18 -505.91, -56.23 -506.81 C-56.27 -507.72, -48.67 -538.34, -48.88 -545.04 C-49.1 -551.74, -53.28 -551.22, -57.54 -547.02 C-61.8 -542.81, -71.47 -528.81, -74.45 -519.81 C-77.44 -510.81, -74.12 -486.9, -75.46 -493.01 C-76.79 -499.12, -80.4 -544.6, -82.48 -556.44 C-84.57 -568.28, -87.25 -560.76, -87.96 -564.07 C-88.66 -567.38, -84.51 -573.99, -86.71 -576.31 C-88.91 -578.64, -98.95 -580.57, -101.15 -578.03 C-103.34 -575.5, -97.97 -563.42, -99.89 -561.11 C-101.82 -558.8, -108.63 -568.4, -112.7 -564.15 C-116.77 -559.9, -120.87 -534.87, -124.3 -535.61 C-127.73 -536.34, -123.83 -565.81, -133.28 -568.58 C-142.73 -571.35, -174.99 -555.92, -180.98 -552.23 C-186.97 -548.53, -169.24 -548.89, -169.21 -546.42 C-169.19 -543.94, -178.96 -540.9, -180.85 -537.37 C-182.75 -533.84, -179.57 -538.11, -180.59 -525.25 C-181.61 -512.4, -185.03 -465.62, -186.98 -460.24 C-188.93 -454.87, -186.77 -488.61, -192.28 -492.99 C-197.8 -497.37, -215.28 -489.47, -220.05 -486.53 C-224.82 -483.6, -219.52 -486.73, -220.89 -475.39 C-222.26 -464.04, -224.88 -437.18, -228.29 -418.44 C-231.69 -399.71, -236.96 -380.05, -241.33 -362.96 C-245.71 -345.86, -251.06 -328.93, -254.53 -315.87 C-258.01 -302.82, -260.64 -297.62, -262.17 -284.65 C-263.71 -271.67, -264.5 -254.27, -263.77 -238.02 C-263.04 -221.78, -260.04 -200.63, -257.8 -187.18 C-255.55 -173.73, -254.79 -170.78, -250.28 -157.32 C-245.77 -143.86, -237.71 -120.96, -230.76 -106.42 C-223.81 -91.88, -218.38 -81.32, -208.57 -70.09 C-198.75 -58.87, -188.32 -48.54, -171.88 -39.08 C-155.44 -29.62, -122.79 -18.25, -109.91 -13.33 C-97.04 -8.42, -100.18 -10.41, -94.63 -9.59 C-89.07 -8.78, -85.3 -9.42, -76.6 -8.45 C-67.9 -7.48, -55.2 -5.16, -42.43 -3.75 C-29.66 -2.35, -7.07 -0.63, 0 0" stroke="#000000" stroke-width="2" fill="none"></path></g></g><mask></mask><g transform="translate(181.07307843308809 404.06522777984856) rotate(0 -4.063258315577514 7.15267296993369)" stroke="none"><path fill="#000000" d="M 2.01,1.02 Q 2.01,1.02 1.43,2.23 0.84,3.44 0.05,4.72 -0.74,5.99 -2.38,8.55 -4.02,11.11 -4.89,12.85 -5.75,14.60 -5.97,14.88 -6.19,15.16 -6.49,15.36 -6.79,15.56 -7.14,15.65 -7.49,15.75 -7.85,15.72 -8.21,15.70 -8.54,15.57 -8.87,15.43 -9.14,15.19 -9.41,14.96 -9.60,14.65 -9.78,14.34 -9.85,13.99 -9.93,13.64 -9.88,13.28 -9.84,12.92 -9.69,12.60 -9.53,12.27 -9.28,12.01 -9.04,11.75 -8.72,11.59 -8.40,11.42 -8.04,11.37 -7.69,11.31 -7.33,11.37 -6.98,11.44 -6.66,11.61 -6.35,11.78 -6.10,12.04 -5.86,12.31 -5.71,12.63 -5.56,12.96 -5.52,13.32 -5.49,13.68 -5.57,14.03 -5.65,14.38 -5.84,14.68 -6.03,14.99 -6.30,15.22 -6.58,15.45 -6.91,15.58 -7.25,15.71 -7.61,15.73 -7.97,15.74 -8.31,15.64 -8.66,15.54 -8.96,15.34 -9.25,15.13 -9.47,14.85 -9.68,14.56 -9.79,14.22 -9.90,13.87 -9.90,13.51 -9.90,13.16 -9.78,12.82 -9.66,12.48 -9.66,12.48 -9.66,12.48 -8.65,10.75 -7.63,9.02 -6.17,6.21 -4.70,3.41 -3.99,2.37 -3.28,1.34 -2.64,0.16 -2.01,-1.02 -1.85,-1.24 -1.70,-1.47 -1.50,-1.65 -1.30,-1.83 -1.06,-1.96 -0.82,-2.09 -0.56,-2.16 -0.30,-2.23 -0.02,-2.23 0.24,-2.24 0.50,-2.18 0.77,-2.11 1.01,-1.99 1.25,-1.87 1.46,-1.69 1.66,-1.51 1.82,-1.29 1.98,-1.07 2.08,-0.82 2.18,-0.56 2.21,-0.29 2.25,-0.02 2.22,0.24 2.19,0.51 2.10,0.76 2.01,1.02 2.01,1.02 L 2.01,1.02 Z"></path></g><g transform="translate(241.24771296197014 409.0535571181533) rotate(0 6.162590258049477 8.547927394057808)" stroke="none"><path fill="#000000" d="M 2.49,-0.09 Q 2.49,-0.09 2.57,1.08 2.64,2.26 2.83,3.70 3.01,5.14 3.50,6.34 3.99,7.53 4.58,8.58 5.17,9.62 6.11,10.70 7.05,11.77 8.28,12.59 9.51,13.42 11.14,13.92 12.78,14.43 13.18,14.60 13.58,14.77 13.90,15.05 14.22,15.34 14.44,15.72 14.65,16.10 14.74,16.52 14.82,16.95 14.76,17.38 14.71,17.81 14.52,18.20 14.33,18.59 14.02,18.89 13.71,19.20 13.33,19.40 12.94,19.59 12.51,19.65 12.08,19.71 11.65,19.63 11.23,19.55 10.85,19.34 10.47,19.13 10.18,18.81 9.89,18.48 9.72,18.09 9.54,17.69 9.51,17.26 9.47,16.82 9.57,16.40 9.67,15.98 9.91,15.61 10.14,15.25 10.48,14.98 10.81,14.70 11.22,14.55 11.63,14.40 12.06,14.39 12.49,14.37 12.91,14.50 13.32,14.62 13.68,14.88 14.03,15.13 14.28,15.48 14.54,15.83 14.67,16.24 14.80,16.66 14.79,17.09 14.78,17.53 14.63,17.93 14.48,18.34 14.21,18.68 13.94,19.02 13.58,19.25 13.21,19.49 12.79,19.60 12.37,19.70 11.94,19.67 11.51,19.63 11.51,19.63 11.51,19.63 8.22,18.11 4.93,16.59 4.17,15.84 3.41,15.09 2.03,13.62 0.66,12.15 -0.05,10.83 -0.77,9.52 -1.57,7.60 -2.37,5.68 -2.41,4.07 -2.45,2.46 -2.47,1.28 -2.49,0.09 -2.47,-0.20 -2.44,-0.50 -2.35,-0.78 -2.25,-1.07 -2.09,-1.32 -1.93,-1.58 -1.71,-1.79 -1.49,-1.99 -1.23,-2.14 -0.97,-2.29 -0.68,-2.38 -0.39,-2.46 -0.09,-2.47 0.20,-2.49 0.49,-2.43 0.79,-2.36 1.06,-2.24 1.33,-2.11 1.57,-1.92 1.80,-1.72 1.98,-1.48 2.16,-1.24 2.28,-0.97 2.40,-0.69 2.44,-0.39 2.49,-0.09 2.49,-0.09 L 2.49,-0.09 Z"></path></g><g transform="translate(180.1536115474346 410.6286340594413) rotate(0 30.391355572324755 6.761391379616498)" stroke="none"><path fill="#000000" d="M 1.71,-2.04 Q 1.71,-2.04 2.53,-1.39 3.35,-0.74 4.57,0.08 5.79,0.91 6.91,1.63 8.03,2.35 9.32,3.19 10.61,4.04 11.61,4.64 12.60,5.24 14.07,5.85 15.55,6.46 16.94,6.98 18.33,7.51 19.65,7.85 20.96,8.19 22.09,8.59 23.23,8.99 24.32,9.18 25.41,9.36 26.60,9.57 27.78,9.78 28.92,9.85 30.06,9.93 31.36,9.92 32.66,9.92 33.75,9.90 34.84,9.89 35.91,9.88 36.98,9.87 38.72,9.71 40.45,9.55 41.73,9.35 43.02,9.15 44.12,8.89 45.23,8.63 46.44,8.33 47.66,8.03 48.88,7.67 50.09,7.32 51.30,6.79 52.50,6.26 53.64,5.64 54.79,5.02 56.86,4.01 58.93,3.01 59.51,2.81 60.08,2.61 60.69,2.60 61.29,2.59 61.87,2.78 62.45,2.97 62.94,3.33 63.43,3.69 63.77,4.19 64.12,4.68 64.29,5.27 64.46,5.85 64.44,6.46 64.41,7.06 64.20,7.63 63.98,8.20 63.59,8.67 63.21,9.13 62.69,9.45 62.17,9.77 61.58,9.91 60.99,10.05 60.39,9.99 59.78,9.94 59.23,9.69 58.67,9.44 58.23,9.03 57.78,8.62 57.49,8.09 57.20,7.55 57.09,6.95 56.98,6.36 57.07,5.76 57.16,5.16 57.44,4.61 57.72,4.07 58.15,3.65 58.59,3.23 59.14,2.96 59.68,2.70 60.29,2.63 60.89,2.55 61.48,2.68 62.08,2.80 62.60,3.11 63.13,3.41 63.53,3.87 63.93,4.33 64.16,4.89 64.39,5.45 64.43,6.06 64.47,6.66 64.32,7.25 64.16,7.84 63.83,8.34 63.50,8.85 63.02,9.23 62.54,9.60 62.54,9.60 62.54,9.60 60.77,10.43 59.00,11.27 57.96,11.76 56.92,12.25 55.60,12.91 54.27,13.56 53.01,14.02 51.74,14.47 50.59,14.77 49.44,15.07 48.03,15.40 46.61,15.73 45.43,15.97 44.24,16.21 42.80,16.46 41.37,16.71 40.16,16.87 38.96,17.03 37.58,17.10 36.21,17.16 34.82,17.14 33.44,17.13 32.33,17.11 31.23,17.09 29.95,17.03 28.67,16.97 27.56,16.85 26.45,16.73 25.25,16.47 24.06,16.21 22.95,15.95 21.84,15.69 20.61,15.18 19.37,14.68 18.17,14.29 16.96,13.89 15.83,13.46 14.69,13.02 13.26,12.40 11.82,11.77 10.65,11.19 9.48,10.61 8.32,9.81 7.15,9.01 5.90,8.09 4.66,7.18 3.56,6.33 2.47,5.48 1.16,4.45 -0.13,3.43 -0.92,2.74 -1.71,2.04 -1.93,1.81 -2.15,1.57 -2.31,1.29 -2.46,1.01 -2.55,0.70 -2.64,0.39 -2.64,0.07 -2.65,-0.24 -2.59,-0.55 -2.52,-0.87 -2.38,-1.16 -2.24,-1.45 -2.03,-1.70 -1.82,-1.94 -1.56,-2.13 -1.30,-2.32 -1.01,-2.45 -0.71,-2.57 -0.39,-2.62 -0.07,-2.66 0.24,-2.63 0.56,-2.61 0.86,-2.50 1.17,-2.39 1.44,-2.22 1.71,-2.04 1.71,-2.04 L 1.71,-2.04 Z"></path></g><g stroke-linecap="round"><g transform="translate(310.28610428265256 457.785266708931) rotate(0 -18.3277548513106 55.986328125)"><path d="M0 0 C-3.62 9.48, -15.74 41.43, -21.74 56.89 C-27.75 72.35, -33.55 83.58, -36.04 92.76 C-38.52 101.94, -36.55 108.77, -36.66 111.97 M0 0 C-3.62 9.48, -15.74 41.43, -21.74 56.89 C-27.75 72.35, -33.55 83.58, -36.04 92.76 C-38.52 101.94, -36.55 108.77, -36.66 111.97" stroke="#000000" stroke-width="1" fill="none"></path></g></g><mask></mask><g stroke-linecap="round"><g transform="translate(248.48777231440636 490.51859820464665) rotate(0 -7.2837681924143 23.59816028225805)"><path d="M0 0 C-1.62 3.45, -7.3 15.08, -9.73 20.7 C-12.15 26.33, -13.8 29.32, -14.57 33.74 C-15.34 38.15, -14.39 44.95, -14.36 47.2 M0 0 C-1.62 3.45, -7.3 15.08, -9.73 20.7 C-12.15 26.33, -13.8 29.32, -14.57 33.74 C-15.34 38.15, -14.39 44.95, -14.36 47.2" stroke="#000000" stroke-width="1" fill="none"></path></g></g><mask></mask><g stroke-linecap="round"><g transform="translate(417.31518851904275 503.58594951513055) rotate(0 -22.153694398941298 35.34888482862908)"><path d="M0 0 C-2.26 4.55, -8.03 17.47, -13.57 27.31 C-19.1 37.15, -28.1 51.81, -33.22 59.04 C-38.34 66.27, -42.46 68.76, -44.31 70.7 M0 0 C-2.26 4.55, -8.03 17.47, -13.57 27.31 C-19.1 37.15, -28.1 51.81, -33.22 59.04 C-38.34 66.27, -42.46 68.76, -44.31 70.7" stroke="#000000" stroke-width="1" fill="none"></path></g></g><mask></mask><g stroke-linecap="round"><g transform="translate(467.95794778063555 429.8270895730943) rotate(0 -37.5836575415824 76.72556231098793)"><path d="M0 0 C-4 11.1, -16.18 47.01, -24 66.59 C-31.82 86.17, -38.39 103.01, -46.92 117.49 C-55.45 131.97, -70.46 147.46, -75.17 153.45 M0 0 C-4 11.1, -16.18 47.01, -24 66.59 C-31.82 86.17, -38.39 103.01, -46.92 117.49 C-55.45 131.97, -70.46 147.46, -75.17 153.45" stroke="#000000" stroke-width="1" fill="none"></path></g></g><mask></mask><g stroke-linecap="round"><g transform="translate(218.28348173980976 528.9635011784371) rotate(0 -2.4525008663053995 8.524012411794388)"><path d="M0 0 C-0.82 1.18, -4.11 4.26, -4.91 7.1 C-5.7 9.94, -4.8 15.39, -4.77 17.05 M0 0 C-0.82 1.18, -4.11 4.26, -4.91 7.1 C-5.7 9.94, -4.8 15.39, -4.77 17.05" stroke="#000000" stroke-width="1" fill="none"></path></g></g><mask></mask><g stroke-linecap="round"><g transform="translate(125.49118240765256 426.3622418853424) rotate(0 5.7020125850553995 53.73608004662299)"><path d="M0 0 C-0.11 7.27, -0.96 29.19, -0.67 43.61 C-0.37 58.02, -0.36 75.82, 1.76 86.47 C3.88 97.11, 10.35 103.97, 12.07 107.47 M0 0 C-0.11 7.27, -0.96 29.19, -0.67 43.61 C-0.37 58.02, -0.36 75.82, 1.76 86.47 C3.88 97.11, 10.35 103.97, 12.07 107.47" stroke="#000000" stroke-width="1" fill="none"></path></g></g><mask></mask><g stroke-linecap="round"><g transform="translate(246.35081336153326 299.4460136217333) rotate(0 -6.0246227633570015 20.192103232106888)"><path d="M0 0 C-1.61 3.05, -7.64 11.58, -9.65 18.31 C-11.66 25.04, -11.65 36.71, -12.05 40.38 M0 0 C-1.61 3.05, -7.64 11.58, -9.65 18.31 C-11.66 25.04, -11.65 36.71, -12.05 40.38" stroke="#000000" stroke-width="1" fill="none"></path></g></g><mask></mask><g stroke-linecap="round"><g transform="translate(483.67774916042436 259.2046343453346) rotate(0 -27.93336929813495 76.13150073635961)"><path d="M0 0 C-3.05 8.51, -10.79 31.62, -18.27 51.04 C-25.76 70.47, -38.93 102.29, -44.91 116.55 C-50.88 130.81, -52.31 130.64, -54.14 136.6 C-55.97 142.55, -55.58 149.65, -55.87 152.26 M0 0 C-3.05 8.51, -10.79 31.62, -18.27 51.04 C-25.76 70.47, -38.93 102.29, -44.91 116.55 C-50.88 130.81, -52.31 130.64, -54.14 136.6 C-55.97 142.55, -55.58 149.65, -55.87 152.26" stroke="#000000" stroke-width="1" fill="none"></path></g></g><mask></mask><g stroke-linecap="round"><g transform="translate(486.45616791672455 181.66131415096697) rotate(0 -28.6391325919858 45.18606862714216)"><path d="M0 0 C-2.12 2.97, -8.07 12.56, -12.75 17.82 C-17.42 23.08, -24.34 28.52, -28.07 31.55 C-31.79 34.59, -33.14 33.52, -35.11 36.02 C-37.08 38.51, -36.17 37.47, -39.87 46.53 C-43.56 55.59, -54.38 83.06, -57.28 90.37 M0 0 C-2.12 2.97, -8.07 12.56, -12.75 17.82 C-17.42 23.08, -24.34 28.52, -28.07 31.55 C-31.79 34.59, -33.14 33.52, -35.11 36.02 C-37.08 38.51, -36.17 37.47, -39.87 46.53 C-43.56 55.59, -54.38 83.06, -57.28 90.37" stroke="#000000" stroke-width="2" fill="none"></path></g></g><mask></mask><g stroke-linecap="round"><g transform="translate(424.01779373577756 174.39691969847206) rotate(0 -15.09291125882055 42.77202975365424)"><path d="M0 0 C-1.45 4.64, -3.65 13.56, -8.68 27.82 C-13.71 42.08, -26.6 75.92, -30.19 85.54 M0 0 C-1.45 4.64, -3.65 13.56, -8.68 27.82 C-13.71 42.08, -26.6 75.92, -30.19 85.54" stroke="#000000" stroke-width="1" fill="none"></path></g></g><mask></mask><g stroke-linecap="round"><g transform="translate(300.91271876097835 209.3681544199942) rotate(0 -12.16461181640625 30.408118463331675)"><path d="M0 0 C-1.97 3.6, -7.78 11.46, -11.83 21.59 C-15.89 31.73, -22.25 54.28, -24.33 60.82 M0 0 C-1.97 3.6, -7.78 11.46, -11.83 21.59 C-15.89 31.73, -22.25 54.28, -24.33 60.82" stroke="#000000" stroke-width="1" fill="none"></path></g></g><mask></mask><g stroke-linecap="round"><g transform="translate(210.87475883154275 144.50406593083062) rotate(0 -0.05670362903219939 17.06026138797887)"><path d="M0 0 C-0.02 5.69, -0.09 28.43, -0.11 34.12 M0 0 C-0.02 5.69, -0.09 28.43, -0.11 34.12" stroke="#000000" stroke-width="1" fill="none"></path></g></g><mask></mask><g stroke-linecap="round"><g transform="translate(209.64267560321696 202.26639897014525) rotate(0 0.3137108587447983 13.695974042338719)"><path d="M0 0 C0.1 4.57, 0.52 22.83, 0.63 27.39 M0 0 C0.1 4.57, 0.52 22.83, 0.63 27.39" stroke="#000000" stroke-width="1" fill="none"></path></g></g><mask></mask><g stroke-linecap="round"><g transform="translate(165.41140355180596 176.35484875593147) rotate(0 -3.1369707661287975 35.581871771043325)"><path d="M0 0 C-0.92 4.72, -4.5 16.44, -5.55 28.3 C-6.59 40.16, -6.15 64.02, -6.27 71.16 M0 0 C-0.92 4.72, -4.5 16.44, -5.55 28.3 C-6.59 40.16, -6.15 64.02, -6.27 71.16" stroke="#000000" stroke-width="1" fill="none"></path></g></g><mask></mask><g stroke-linecap="round"><g transform="translate(97.21453957751055 163.69556668687915) rotate(0 -5.886392901020827 25.892137096774206)"><path d="M0 0 C-0.42 4.47, -0.56 18.19, -2.53 26.82 C-4.49 35.45, -10.23 47.62, -11.77 51.78 M0 0 C-0.42 4.47, -0.56 18.19, -2.53 26.82 C-4.49 35.45, -10.23 47.62, -11.77 51.78" stroke="#000000" stroke-width="1" fill="none"></path></g></g><mask></mask><g stroke-linecap="round"><g transform="translate(244.72556528315636 110.9445153070908) rotate(0 -7.17010498046875 35.69192701770413)"><path d="M0 0 C-2.39 11.9, -11.95 59.49, -14.34 71.38 M0 0 C-2.39 11.9, -11.95 59.49, -14.34 71.38" stroke="#000000" stroke-width="2" fill="none"></path></g></g><mask></mask><g stroke-linecap="round"><g transform="translate(486.6152763420823 373.8796157767688) rotate(0 -2.14996337890625 7.575589693509642)"><path d="M0 0 C-0.72 2.53, -3.58 12.63, -4.3 15.15 M0 0 C-0.72 2.53, -3.58 12.63, -4.3 15.15" stroke="#000000" stroke-width="2" fill="none"></path></g></g><mask></mask><g stroke-linecap="round"><g transform="translate(122.33612501245534 245.60252086240575) rotate(0 -1.1384113018330027 12.0562744140625)"><path d="M0 0 C-0.38 1.79, -2.01 6.74, -2.28 10.76 C-2.54 14.78, -1.69 21.89, -1.57 24.11 M0 0 C-0.38 1.79, -2.01 6.74, -2.28 10.76 C-2.54 14.78, -1.69 21.89, -1.57 24.11" stroke="#000000" stroke-width="1" fill="none"></path></g></g><mask></mask><g stroke-linecap="round" transform="translate(58.663545760652596 300.75624729344577) rotate(0 49.44058931790869 49.94405306302582)"><path d="M98.88 49.94 C98.88 52.12, 98.74 54.31, 98.46 56.46 C98.18 58.62, 97.75 60.77, 97.2 62.87 C96.64 64.97, 95.94 67.05, 95.12 69.06 C94.29 71.06, 93.33 73.03, 92.26 74.92 C91.18 76.8, 89.97 78.62, 88.66 80.35 C87.35 82.07, 85.92 83.72, 84.4 85.26 C82.88 86.8, 81.24 88.24, 79.54 89.57 C77.83 90.89, 76.02 92.11, 74.16 93.2 C72.3 94.28, 70.35 95.25, 68.36 96.09 C66.37 96.92, 64.31 97.62, 62.24 98.19 C60.16 98.75, 58.03 99.18, 55.89 99.46 C53.76 99.74, 51.59 99.89, 49.44 99.89 C47.29 99.89, 45.12 99.74, 42.99 99.46 C40.85 99.18, 38.72 98.75, 36.64 98.19 C34.57 97.62, 32.51 96.92, 30.52 96.09 C28.53 95.25, 26.58 94.28, 24.72 93.2 C22.86 92.11, 21.05 90.89, 19.34 89.57 C17.64 88.24, 16 86.8, 14.48 85.26 C12.96 83.72, 11.53 82.07, 10.22 80.35 C8.91 78.62, 7.7 76.8, 6.62 74.92 C5.55 73.03, 4.59 71.06, 3.76 69.06 C2.94 67.05, 2.24 64.97, 1.68 62.87 C1.13 60.77, 0.7 58.62, 0.42 56.46 C0.14 54.31, 0 52.12, 0 49.94 C0 47.77, 0.14 45.58, 0.42 43.43 C0.7 41.27, 1.13 39.12, 1.68 37.02 C2.24 34.92, 2.94 32.84, 3.76 30.83 C4.59 28.82, 5.55 26.85, 6.62 24.97 C7.7 23.09, 8.91 21.26, 10.22 19.54 C11.53 17.82, 12.96 16.16, 14.48 14.63 C16 13.09, 17.64 11.64, 19.34 10.32 C21.05 9, 22.86 7.78, 24.72 6.69 C26.58 5.6, 28.53 4.63, 30.52 3.8 C32.51 2.97, 34.57 2.26, 36.64 1.7 C38.72 1.14, 40.85 0.71, 42.99 0.43 C45.12 0.14, 47.29 0, 49.44 0 C51.59 0, 53.76 0.14, 55.89 0.43 C58.03 0.71, 60.16 1.14, 62.24 1.7 C64.31 2.26, 66.37 2.97, 68.36 3.8 C70.35 4.63, 72.3 5.6, 74.16 6.69 C76.02 7.78, 77.83 9, 79.54 10.32 C81.24 11.64, 82.88 13.09, 84.4 14.63 C85.92 16.16, 87.35 17.82, 88.66 19.54 C89.97 21.26, 91.18 23.09, 92.26 24.97 C93.33 26.85, 94.29 28.82, 95.12 30.83 C95.94 32.84, 96.64 34.92, 97.2 37.02 C97.75 39.12, 98.18 41.27, 98.46 43.43 C98.74 45.58, 98.81 48.86, 98.88 49.94 C98.95 51.03, 98.95 48.86, 98.88 49.94" stroke="none" stroke-width="0" fill="#000"></path><path d="M98.88 49.94 C98.88 52.12, 98.74 54.31, 98.46 56.46 C98.18 58.62, 97.75 60.77, 97.2 62.87 C96.64 64.97, 95.94 67.05, 95.12 69.06 C94.29 71.06, 93.33 73.03, 92.26 74.92 C91.18 76.8, 89.97 78.62, 88.66 80.35 C87.35 82.07, 85.92 83.72, 84.4 85.26 C82.88 86.8, 81.24 88.24, 79.54 89.57 C77.83 90.89, 76.02 92.11, 74.16 93.2 C72.3 94.28, 70.35 95.25, 68.36 96.09 C66.37 96.92, 64.31 97.62, 62.24 98.19 C60.16 98.75, 58.03 99.18, 55.89 99.46 C53.76 99.74, 51.59 99.89, 49.44 99.89 C47.29 99.89, 45.12 99.74, 42.99 99.46 C40.85 99.18, 38.72 98.75, 36.64 98.19 C34.57 97.62, 32.51 96.92, 30.52 96.09 C28.53 95.25, 26.58 94.28, 24.72 93.2 C22.86 92.11, 21.05 90.89, 19.34 89.57 C17.64 88.24, 16 86.8, 14.48 85.26 C12.96 83.72, 11.53 82.07, 10.22 80.35 C8.91 78.62, 7.7 76.8, 6.62 74.92 C5.55 73.03, 4.59 71.06, 3.76 69.06 C2.94 67.05, 2.24 64.97, 1.68 62.87 C1.13 60.77, 0.7 58.62, 0.42 56.46 C0.14 54.31, 0 52.12, 0 49.94 C0 47.77, 0.14 45.58, 0.42 43.43 C0.7 41.27, 1.13 39.12, 1.68 37.02 C2.24 34.92, 2.94 32.84, 3.76 30.83 C4.59 28.82, 5.55 26.85, 6.62 24.97 C7.7 23.09, 8.91 21.26, 10.22 19.54 C11.53 17.82, 12.96 16.16, 14.48 14.63 C16 13.09, 17.64 11.64, 19.34 10.32 C21.05 9, 22.86 7.78, 24.72 6.69 C26.58 5.6, 28.53 4.63, 30.52 3.8 C32.51 2.97, 34.57 2.26, 36.64 1.7 C38.72 1.14, 40.85 0.71, 42.99 0.43 C45.12 0.14, 47.29 0, 49.44 0 C51.59 0, 53.76 0.14, 55.89 0.43 C58.03 0.71, 60.16 1.14, 62.24 1.7 C64.31 2.26, 66.37 2.97, 68.36 3.8 C70.35 4.63, 72.3 5.6, 74.16 6.69 C76.02 7.78, 77.83 9, 79.54 10.32 C81.24 11.64, 82.88 13.09, 84.4 14.63 C85.92 16.16, 87.35 17.82, 88.66 19.54 C89.97 21.26, 91.18 23.09, 92.26 24.97 C93.33 26.85, 94.29 28.82, 95.12 30.83 C95.94 32.84, 96.64 34.92, 97.2 37.02 C97.75 39.12, 98.18 41.27, 98.46 43.43 C98.74 45.58, 98.81 48.86, 98.88 49.94 C98.95 51.03, 98.95 48.86, 98.88 49.94" stroke="#000000" stroke-width="1" fill="none"></path></g><g stroke-linecap="round" transform="translate(277.7496147209886 317.14023706770956) rotate(0 54.79792668269238 53.25927147498487)"><path d="M109.6 53.26 C109.6 55.58, 109.44 57.91, 109.13 60.21 C108.82 62.51, 108.35 64.81, 107.73 67.04 C107.11 69.28, 106.34 71.5, 105.42 73.64 C104.51 75.78, 103.45 77.88, 102.25 79.89 C101.06 81.9, 99.72 83.84, 98.27 85.68 C96.82 87.52, 95.23 89.28, 93.55 90.92 C91.86 92.56, 90.05 94.1, 88.16 95.51 C86.27 96.92, 84.26 98.22, 82.2 99.38 C80.13 100.54, 77.97 101.58, 75.77 102.46 C73.57 103.35, 71.28 104.1, 68.98 104.7 C66.68 105.3, 64.31 105.76, 61.95 106.06 C59.59 106.37, 57.18 106.52, 54.8 106.52 C52.41 106.52, 50.01 106.37, 47.65 106.06 C45.28 105.76, 42.92 105.3, 40.62 104.7 C38.31 104.1, 36.03 103.35, 33.83 102.46 C31.62 101.58, 29.46 100.54, 27.4 99.38 C25.33 98.22, 23.33 96.92, 21.44 95.51 C19.55 94.1, 17.74 92.56, 16.05 90.92 C14.36 89.28, 12.78 87.52, 11.32 85.68 C9.87 83.84, 8.53 81.9, 7.34 79.89 C6.15 77.88, 5.08 75.78, 4.17 73.64 C3.26 71.5, 2.48 69.28, 1.87 67.04 C1.25 64.81, 0.78 62.51, 0.47 60.21 C0.16 57.91, 0 55.58, 0 53.26 C0 50.94, 0.16 48.6, 0.47 46.31 C0.78 44.01, 1.25 41.71, 1.87 39.47 C2.48 37.24, 3.26 35.02, 4.17 32.88 C5.08 30.74, 6.15 28.64, 7.34 26.63 C8.53 24.62, 9.87 22.68, 11.32 20.84 C12.78 19, 14.36 17.24, 16.05 15.6 C17.74 13.96, 19.55 12.42, 21.44 11.01 C23.33 9.6, 25.33 8.29, 27.4 7.14 C29.46 5.98, 31.62 4.94, 33.83 4.05 C36.03 3.17, 38.31 2.41, 40.62 1.81 C42.92 1.22, 45.28 0.76, 47.65 0.46 C50.01 0.15, 52.41 0, 54.8 0 C57.18 0, 59.59 0.15, 61.95 0.46 C64.31 0.76, 66.68 1.22, 68.98 1.81 C71.28 2.41, 73.57 3.17, 75.77 4.05 C77.97 4.94, 80.13 5.98, 82.2 7.14 C84.26 8.29, 86.27 9.6, 88.16 11.01 C90.05 12.42, 91.86 13.96, 93.55 15.6 C95.23 17.24, 96.82 19, 98.27 20.84 C99.72 22.68, 101.06 24.62, 102.25 26.63 C103.45 28.64, 104.51 30.74, 105.42 32.88 C106.34 35.02, 107.11 37.24, 107.73 39.47 C108.35 41.71, 108.82 44.01, 109.13 46.31 C109.44 48.6, 109.52 52.1, 109.6 53.26 C109.67 54.42, 109.67 52.1, 109.6 53.26" stroke="none" stroke-width="0" fill="#000"></path><path d="M109.6 53.26 C109.6 55.58, 109.44 57.91, 109.13 60.21 C108.82 62.51, 108.35 64.81, 107.73 67.04 C107.11 69.28, 106.34 71.5, 105.42 73.64 C104.51 75.78, 103.45 77.88, 102.25 79.89 C101.06 81.9, 99.72 83.84, 98.27 85.68 C96.82 87.52, 95.23 89.28, 93.55 90.92 C91.86 92.56, 90.05 94.1, 88.16 95.51 C86.27 96.92, 84.26 98.22, 82.2 99.38 C80.13 100.54, 77.97 101.58, 75.77 102.46 C73.57 103.35, 71.28 104.1, 68.98 104.7 C66.68 105.3, 64.31 105.76, 61.95 106.06 C59.59 106.37, 57.18 106.52, 54.8 106.52 C52.41 106.52, 50.01 106.37, 47.65 106.06 C45.28 105.76, 42.92 105.3, 40.62 104.7 C38.31 104.1, 36.03 103.35, 33.83 102.46 C31.62 101.58, 29.46 100.54, 27.4 99.38 C25.33 98.22, 23.33 96.92, 21.44 95.51 C19.55 94.1, 17.74 92.56, 16.05 90.92 C14.36 89.28, 12.78 87.52, 11.32 85.68 C9.87 83.84, 8.53 81.9, 7.34 79.89 C6.15 77.88, 5.08 75.78, 4.17 73.64 C3.26 71.5, 2.48 69.28, 1.87 67.04 C1.25 64.81, 0.78 62.51, 0.47 60.21 C0.16 57.91, 0 55.58, 0 53.26 C0 50.94, 0.16 48.6, 0.47 46.31 C0.78 44.01, 1.25 41.71, 1.87 39.47 C2.48 37.24, 3.26 35.02, 4.17 32.88 C5.08 30.74, 6.15 28.64, 7.34 26.63 C8.53 24.62, 9.87 22.68, 11.32 20.84 C12.78 19, 14.36 17.24, 16.05 15.6 C17.74 13.96, 19.55 12.42, 21.44 11.01 C23.33 9.6, 25.33 8.29, 27.4 7.14 C29.46 5.98, 31.62 4.94, 33.83 4.05 C36.03 3.17, 38.31 2.41, 40.62 1.81 C42.92 1.22, 45.28 0.76, 47.65 0.46 C50.01 0.15, 52.41 0, 54.8 0 C57.18 0, 59.59 0.15, 61.95 0.46 C64.31 0.76, 66.68 1.22, 68.98 1.81 C71.28 2.41, 73.57 3.17, 75.77 4.05 C77.97 4.94, 80.13 5.98, 82.2 7.14 C84.26 8.29, 86.27 9.6, 88.16 11.01 C90.05 12.42, 91.86 13.96, 93.55 15.6 C95.23 17.24, 96.82 19, 98.27 20.84 C99.72 22.68, 101.06 24.62, 102.25 26.63 C103.45 28.64, 104.51 30.74, 105.42 32.88 C106.34 35.02, 107.11 37.24, 107.73 39.47 C108.35 41.71, 108.82 44.01, 109.13 46.31 C109.44 48.6, 109.52 52.1, 109.6 53.26 C109.67 54.42, 109.67 52.1, 109.6 53.26" stroke="#000000" stroke-width="1" fill="none"></path></g><g stroke-linecap="round"><g transform="translate(314.5638847405198 426.07534378533273) rotate(0 23.367145244891617 4.065270057091368)"><path d="M0 0 C1.69 0.87, 6.11 3.84, 10.17 5.19 C14.23 6.55, 19.7 7.83, 24.36 8.13 C29.02 8.43, 34.4 7.81, 38.13 7 C41.86 6.19, 45.3 3.89, 46.73 3.27 M0 0 C1.69 0.87, 6.11 3.84, 10.17 5.19 C14.23 6.55, 19.7 7.83, 24.36 8.13 C29.02 8.43, 34.4 7.81, 38.13 7 C41.86 6.19, 45.3 3.89, 46.73 3.27" stroke="#000000" stroke-width="2" fill="none"></path></g></g><mask></mask><g stroke-linecap="round"><g transform="translate(105.17780451215458 409.8315412011982) rotate(0 -21.347280649038566 -9.62346003605768)"><path d="M0 0 C-1.69 -0.07, -6.17 0.2, -10.11 -0.4 C-14.05 -1.01, -18.21 -0.48, -23.64 -3.62 C-29.07 -6.76, -39.52 -16.64, -42.69 -19.25 M0 0 C-1.69 -0.07, -6.17 0.2, -10.11 -0.4 C-14.05 -1.01, -18.21 -0.48, -23.64 -3.62 C-29.07 -6.76, -39.52 -16.64, -42.69 -19.25" stroke="#000000" stroke-width="2" fill="none"></path></g></g><mask></mask><g stroke-linecap="round"><g transform="translate(59.46322368282836 377.2713041969913) rotate(0 43.16788893479588 105.08864182692304)"><path d="M0 0 C0.04 3.57, 0.07 13.36, 0.21 21.39 C0.36 29.43, -0.02 38.38, 0.87 48.2 C1.77 58.02, 3.57 69.69, 5.58 80.34 C7.59 90.99, 11.09 104.42, 12.92 112.09 C14.76 119.76, 14.81 121.41, 16.59 126.35 C18.37 131.3, 20.92 136.71, 23.62 141.76 C26.33 146.81, 28.2 150.04, 32.82 156.65 C37.44 163.26, 46.22 175.11, 51.34 181.42 C56.47 187.72, 59.24 190.71, 63.57 194.49 C67.89 198.28, 73.48 201.51, 77.28 204.13 C81.07 206.74, 84.83 209.17, 86.34 210.18 M0 0 C0.04 3.57, 0.07 13.36, 0.21 21.39 C0.36 29.43, -0.02 38.38, 0.87 48.2 C1.77 58.02, 3.57 69.69, 5.58 80.34 C7.59 90.99, 11.09 104.42, 12.92 112.09 C14.76 119.76, 14.81 121.41, 16.59 126.35 C18.37 131.3, 20.92 136.71, 23.62 141.76 C26.33 146.81, 28.2 150.04, 32.82 156.65 C37.44 163.26, 46.22 175.11, 51.34 181.42 C56.47 187.72, 59.24 190.71, 63.57 194.49 C67.89 198.28, 73.48 201.51, 77.28 204.13 C81.07 206.74, 84.83 209.17, 86.34 210.18" stroke="#000000" stroke-width="1" fill="none"></path></g></g><mask></mask><g stroke-linecap="round"><g stroke-opacity="0.8" fill-opacity="0.8" transform="translate(219.4027501623923 610.2446686477781) rotate(0 29.52734140249413 50.90098454402039)"><path d="M0 0 C0.11 2.62, -0.08 10.67, 0.67 15.75 C1.41 20.83, 1.85 25.11, 4.46 30.48 C7.07 35.84, 11.92 41.91, 16.34 47.96 C20.75 54.01, 26.13 60.83, 30.94 66.76 C35.75 72.69, 40.51 77.7, 45.2 83.54 C49.88 89.38, 56.75 98.76, 59.05 101.8 M0 0 C0.11 2.62, -0.08 10.67, 0.67 15.75 C1.41 20.83, 1.85 25.11, 4.46 30.48 C7.07 35.84, 11.92 41.91, 16.34 47.96 C20.75 54.01, 26.13 60.83, 30.94 66.76 C35.75 72.69, 40.51 77.7, 45.2 83.54 C49.88 89.38, 56.75 98.76, 59.05 101.8" stroke="#000000" stroke-width="2" fill="none"></path></g></g><mask></mask><g stroke-linecap="round"><g stroke-opacity="0.8" fill-opacity="0.8" transform="translate(184.1283584931416 604.1227720507227) rotate(0 54.121130332027406 86.24807711640108)"><path d="M0 0 C0.17 4.02, -0.83 15.35, 0.99 24.14 C2.82 32.92, 6.44 44.62, 10.93 52.71 C15.43 60.79, 19.88 64.23, 27.95 72.66 C36.02 81.09, 50.19 94.82, 59.36 103.28 C68.52 111.74, 76.62 118.1, 82.96 123.42 C89.3 128.73, 93.53 129.54, 97.38 135.18 C101.24 140.82, 104.28 151.05, 106.09 157.27 C107.9 163.49, 107.88 169.96, 108.24 172.5 M0 0 C0.17 4.02, -0.83 15.35, 0.99 24.14 C2.82 32.92, 6.44 44.62, 10.93 52.71 C15.43 60.79, 19.88 64.23, 27.95 72.66 C36.02 81.09, 50.19 94.82, 59.36 103.28 C68.52 111.74, 76.62 118.1, 82.96 123.42 C89.3 128.73, 93.53 129.54, 97.38 135.18 C101.24 140.82, 104.28 151.05, 106.09 157.27 C107.9 163.49, 107.88 169.96, 108.24 172.5" stroke="#000000" stroke-width="2" fill="none"></path></g></g><mask></mask><g stroke-linecap="round"><g stroke-opacity="0.8" fill-opacity="0.8" transform="translate(182.36941088204458 603.2054488648755) rotate(0 38.022660130289296 87.71103388583492)"><path d="M0 0 C-1.48 1.53, -6.7 5.28, -8.89 9.16 C-11.09 13.03, -12.75 17.98, -13.17 23.25 C-13.6 28.51, -12.57 34.98, -11.46 40.77 C-10.35 46.56, -8.81 52.52, -6.51 58.01 C-4.22 63.5, -4.01 66.95, 2.29 73.73 C8.59 80.51, 23.93 92.17, 31.28 98.69 C38.63 105.22, 42.14 108.7, 46.4 112.9 C50.67 117.1, 52.07 119.86, 56.85 123.91 C61.63 127.96, 70.39 131.76, 75.1 137.2 C79.8 142.64, 82.71 150.19, 85.06 156.56 C87.42 162.93, 88.53 172.28, 89.22 175.42 M0 0 C-1.48 1.53, -6.7 5.28, -8.89 9.16 C-11.09 13.03, -12.75 17.98, -13.17 23.25 C-13.6 28.51, -12.57 34.98, -11.46 40.77 C-10.35 46.56, -8.81 52.52, -6.51 58.01 C-4.22 63.5, -4.01 66.95, 2.29 73.73 C8.59 80.51, 23.93 92.17, 31.28 98.69 C38.63 105.22, 42.14 108.7, 46.4 112.9 C50.67 117.1, 52.07 119.86, 56.85 123.91 C61.63 127.96, 70.39 131.76, 75.1 137.2 C79.8 142.64, 82.71 150.19, 85.06 156.56 C87.42 162.93, 88.53 172.28, 89.22 175.42" stroke="#000000" stroke-width="2" fill="none"></path></g></g><mask></mask><g stroke-linecap="round"><g stroke-opacity="0.8" fill-opacity="0.8" transform="translate(169.10576717711683 637.8650018058311) rotate(0 -5.215853177583995 10.726482684795656)"><path d="M0 0 C-0.91 0.41, -3.73 0.86, -5.47 2.44 C-7.2 4.01, -10.03 6.28, -10.43 9.45 C-10.84 12.62, -8.33 19.45, -7.91 21.45 M0 0 C-0.91 0.41, -3.73 0.86, -5.47 2.44 C-7.2 4.01, -10.03 6.28, -10.43 9.45 C-10.84 12.62, -8.33 19.45, -7.91 21.45" stroke="#000000" stroke-width="2" fill="none"></path></g></g><mask></mask><g stroke-linecap="round"><g stroke-opacity="0.8" fill-opacity="0.8" transform="translate(160.75967906113056 655.7750172054705) rotate(0 37.09935874421126 62.79856962316171)"><path d="M0 0 C-1.08 0.45, -4.94 0.86, -6.48 2.72 C-8.02 4.59, -8.9 7.9, -9.22 11.18 C-9.54 14.46, -9.6 18.72, -8.4 22.41 C-7.21 26.11, -3.53 29.54, -2.04 33.35 C-0.54 37.16, -1.97 41.27, 0.56 45.27 C3.09 49.28, 7.26 53.38, 13.13 57.38 C19 61.38, 27.94 64.52, 35.79 69.28 C43.63 74.04, 53.68 80.25, 60.21 85.93 C66.74 91.6, 71.1 96.71, 74.97 103.33 C78.84 109.94, 82.01 121.89, 83.42 125.6 M0 0 C-1.08 0.45, -4.94 0.86, -6.48 2.72 C-8.02 4.59, -8.9 7.9, -9.22 11.18 C-9.54 14.46, -9.6 18.72, -8.4 22.41 C-7.21 26.11, -3.53 29.54, -2.04 33.35 C-0.54 37.16, -1.97 41.27, 0.56 45.27 C3.09 49.28, 7.26 53.38, 13.13 57.38 C19 61.38, 27.94 64.52, 35.79 69.28 C43.63 74.04, 53.68 80.25, 60.21 85.93 C66.74 91.6, 71.1 96.71, 74.97 103.33 C78.84 109.94, 82.01 121.89, 83.42 125.6" stroke="#000000" stroke-width="2" fill="none"></path></g></g><mask></mask><g stroke-linecap="round"><g stroke-opacity="0.8" fill-opacity="0.8" transform="translate(192.6770984947243 723.2862382841963) rotate(0 11.688713660606936 25.343721829927972)"><path d="M0 0 C0.17 1.39, 0.13 5.26, 1 8.36 C1.87 11.46, 3.14 15.29, 5.24 18.61 C7.35 21.92, 11.24 25.72, 13.64 28.25 C16.05 30.78, 18.06 30.02, 19.69 33.76 C21.31 37.5, 22.76 47.87, 23.38 50.69 M0 0 C0.17 1.39, 0.13 5.26, 1 8.36 C1.87 11.46, 3.14 15.29, 5.24 18.61 C7.35 21.92, 11.24 25.72, 13.64 28.25 C16.05 30.78, 18.06 30.02, 19.69 33.76 C21.31 37.5, 22.76 47.87, 23.38 50.69" stroke="#000000" stroke-width="2" fill="none"></path></g></g><mask></mask><g stroke-linecap="round"><g stroke-opacity="0.8" fill-opacity="0.8" transform="translate(170.1896431525738 711.351009565305) rotate(0 12.979004458604322 35.63281477846169)"><path d="M0 0 C-0.17 1.44, -1.13 4.98, -1.01 8.65 C-0.89 12.32, -0.44 17.46, 0.74 22.03 C1.93 26.6, 3.82 30.95, 6.1 36.09 C8.38 41.23, 10.95 47.02, 14.42 52.88 C17.9 58.74, 24.88 68.2, 26.97 71.27 M0 0 C-0.17 1.44, -1.13 4.98, -1.01 8.65 C-0.89 12.32, -0.44 17.46, 0.74 22.03 C1.93 26.6, 3.82 30.95, 6.1 36.09 C8.38 41.23, 10.95 47.02, 14.42 52.88 C17.9 58.74, 24.88 68.2, 26.97 71.27" stroke="#000000" stroke-width="2" fill="none"></path></g></g><mask></mask><g stroke-linecap="round"><g stroke-opacity="0.8" fill-opacity="0.8" transform="translate(150.42712544961705 672.4444772846116) rotate(0 11.692458319340403 54.966332565929065)"><path d="M0 0 C-1.07 1.89, -4.64 5.41, -6.4 11.32 C-8.16 17.23, -11 26.24, -10.55 35.47 C-10.09 44.7, -11.08 54.3, -3.67 66.71 C3.74 79.12, 27.66 102.73, 33.93 109.93 M0 0 C-1.07 1.89, -4.64 5.41, -6.4 11.32 C-8.16 17.23, -11 26.24, -10.55 35.47 C-10.09 44.7, -11.08 54.3, -3.67 66.71 C3.74 79.12, 27.66 102.73, 33.93 109.93" stroke="#000000" stroke-width="2" fill="none"></path></g></g><mask></mask><g stroke-linecap="round"><g stroke-opacity="0.8" fill-opacity="0.8" transform="translate(140.8897391349692 725.5098898767444) rotate(0 7.219495000573261 28.25080181139083)"><path d="M0 0 C-0.52 2.21, -2.58 9.24, -3.13 13.25 C-3.67 17.26, -3.57 20.38, -3.27 24.04 C-2.96 27.69, -4.81 29.75, -1.31 35.17 C2.18 40.58, 14.54 52.95, 17.71 56.5 M0 0 C-0.52 2.21, -2.58 9.24, -3.13 13.25 C-3.67 17.26, -3.57 20.38, -3.27 24.04 C-2.96 27.69, -4.81 29.75, -1.31 35.17 C2.18 40.58, 14.54 52.95, 17.71 56.5" stroke="#000000" stroke-width="2" fill="none"></path></g></g><mask></mask><g stroke-linecap="round"><g transform="translate(252.58258790277705 614.1693935200738) rotate(0 23.247856727013186 36.136427659254764)"><path d="M0 0 C0.16 2.56, -0.16 9.76, 0.98 15.38 C2.13 21.01, 4.63 27.97, 6.86 33.75 C9.1 39.53, 10.43 44.6, 14.39 50.07 C18.35 55.54, 25.3 62.85, 30.65 66.55 C36 70.25, 43.85 71.32, 46.5 72.27 M0 0 C0.16 2.56, -0.16 9.76, 0.98 15.38 C2.13 21.01, 4.63 27.97, 6.86 33.75 C9.1 39.53, 10.43 44.6, 14.39 50.07 C18.35 55.54, 25.3 62.85, 30.65 66.55 C36 70.25, 43.85 71.32, 46.5 72.27" stroke="#000000" stroke-width="2" fill="none"></path></g></g><mask></mask><g stroke-linecap="round"><g transform="translate(299.82300068823406 671.6816475014439) rotate(0 8.892599252554191 50.78380878155053)"><path d="M0 0 C0.04 5.17, -2.47 19.34, 0.25 31.03 C2.98 42.71, 13.42 58.36, 16.34 70.11 C19.27 81.87, 17.55 96.33, 17.79 101.57 M0 0 C0.04 5.17, -2.47 19.34, 0.25 31.03 C2.98 42.71, 13.42 58.36, 16.34 70.11 C19.27 81.87, 17.55 96.33, 17.79 101.57" stroke="#000000" stroke-width="2" fill="none"></path></g></g><mask></mask><g stroke-linecap="round"><g transform="translate(282.76792350223604 681.4239382917083) rotate(0 8.732002375676075 11.423115304800149)"><path d="M0 0 C0.83 1.6, 3.06 6.79, 4.98 9.6 C6.91 12.41, 9.48 14.66, 11.56 16.87 C13.64 19.08, 16.48 21.85, 17.46 22.85 M0 0 C0.83 1.6, 3.06 6.79, 4.98 9.6 C6.91 12.41, 9.48 14.66, 11.56 16.87 C13.64 19.08, 16.48 21.85, 17.46 22.85" stroke="#000000" stroke-width="2" fill="none"></path></g></g><mask></mask><g stroke-linecap="round"><g transform="translate(312.9472260112516 671.9106467126819) rotate(0 -6.47095383864189 8.914224477914672)"><path d="M0 0 C-0.61 1.57, -1.48 6.42, -3.63 9.39 C-5.79 12.36, -11.39 16.42, -12.94 17.83 M0 0 C-0.61 1.57, -1.48 6.42, -3.63 9.39 C-5.79 12.36, -11.39 16.42, -12.94 17.83" stroke="#000000" stroke-width="2" fill="none"></path></g></g><mask></mask><g stroke-linecap="round"><g transform="translate(300.33665847819793 671.2608570492205) rotate(0 95.5921349158657 -27.764164851262194)"><path d="M0 0 C23.61 0.17, 110.93 1.53, 141.66 1.04 C172.39 0.55, 180.19 -1.49, 184.4 -2.93 C188.61 -4.37, 165.97 -5.9, 166.93 -7.6 C167.89 -9.31, 187.12 -11.07, 190.16 -13.16 C193.19 -15.26, 189.13 -19.08, 185.16 -20.18 C181.19 -21.28, 167.51 -18.87, 166.35 -19.77 C165.19 -20.66, 174.06 -23.08, 178.2 -25.53 C182.33 -27.99, 190.25 -32.03, 191.18 -34.48 C192.12 -36.93, 190.22 -39.86, 183.83 -40.25 C177.44 -40.64, 157.57 -34.87, 152.85 -36.83 C148.13 -38.79, 156.4 -48.74, 155.52 -52.03 C154.64 -55.32, 151.68 -58.47, 147.58 -56.57 C143.48 -54.66, 143.2 -43.5, 130.9 -40.6 C118.6 -37.71, 91.59 -38.46, 73.79 -39.18 C55.98 -39.9, 35.18 -42.46, 24.06 -44.92 C12.94 -47.38, 9.89 -52.43, 7.06 -53.93 M0 0 C23.61 0.17, 110.93 1.53, 141.66 1.04 C172.39 0.55, 180.19 -1.49, 184.4 -2.93 C188.61 -4.37, 165.97 -5.9, 166.93 -7.6 C167.89 -9.31, 187.12 -11.07, 190.16 -13.16 C193.19 -15.26, 189.13 -19.08, 185.16 -20.18 C181.19 -21.28, 167.51 -18.87, 166.35 -19.77 C165.19 -20.66, 174.06 -23.08, 178.2 -25.53 C182.33 -27.99, 190.25 -32.03, 191.18 -34.48 C192.12 -36.93, 190.22 -39.86, 183.83 -40.25 C177.44 -40.64, 157.57 -34.87, 152.85 -36.83 C148.13 -38.79, 156.4 -48.74, 155.52 -52.03 C154.64 -55.32, 151.68 -58.47, 147.58 -56.57 C143.48 -54.66, 143.2 -43.5, 130.9 -40.6 C118.6 -37.71, 91.59 -38.46, 73.79 -39.18 C55.98 -39.9, 35.18 -42.46, 24.06 -44.92 C12.94 -47.38, 9.89 -52.43, 7.06 -53.93" stroke="#000000" stroke-width="2" fill="none"></path></g></g><mask></mask><g stroke-linecap="round"><g transform="translate(276.63466497609534 628.2474809599776) rotate(0 14.74788959209718 21.476546067458003)"><path d="M0 0 C0.46 1.53, 0.48 4.7, 2.74 9.16 C5.01 13.62, 9.13 21.12, 13.59 26.75 C18.05 32.38, 26.84 40.25, 29.5 42.95 M0 0 C0.46 1.53, 0.48 4.7, 2.74 9.16 C5.01 13.62, 9.13 21.12, 13.59 26.75 C18.05 32.38, 26.84 40.25, 29.5 42.95" stroke="#000000" stroke-width="2" fill="none"></path></g></g><mask></mask><g stroke-linecap="round"><g transform="translate(289.91431867200754 618.4810108578142) rotate(0 38.23217538686913 27.071674698304804)"><path d="M0 0 C0.59 1.14, 0.88 3.93, 3.51 6.82 C6.15 9.71, 11.17 13.58, 15.78 17.32 C20.4 21.06, 26.36 25.45, 31.22 29.25 C36.08 33.05, 38.92 36.03, 44.94 40.11 C50.96 44.19, 62.08 51.41, 67.34 53.75 C72.59 56.09, 74.94 54.08, 76.46 54.14 M0 0 C0.59 1.14, 0.88 3.93, 3.51 6.82 C6.15 9.71, 11.17 13.58, 15.78 17.32 C20.4 21.06, 26.36 25.45, 31.22 29.25 C36.08 33.05, 38.92 36.03, 44.94 40.11 C50.96 44.19, 62.08 51.41, 67.34 53.75 C72.59 56.09, 74.94 54.08, 76.46 54.14" stroke="#000000" stroke-width="2" fill="none"></path></g></g><mask></mask><g stroke-linecap="round"><g transform="translate(330.2142595148571 627.4475565496712) rotate(0 36.94462702824512 22.774652334359985)"><path d="M0 0 C1.02 1.43, 3.83 5.89, 6.15 8.56 C8.47 11.22, 9.38 12.66, 13.92 16 C18.46 19.34, 26.69 24.39, 33.39 28.62 C40.1 32.85, 48.82 38.55, 54.16 41.37 C59.5 44.19, 62.12 44.93, 65.41 45.55 C68.7 46.17, 72.48 45.15, 73.89 45.07 M0 0 C1.02 1.43, 3.83 5.89, 6.15 8.56 C8.47 11.22, 9.38 12.66, 13.92 16 C18.46 19.34, 26.69 24.39, 33.39 28.62 C40.1 32.85, 48.82 38.55, 54.16 41.37 C59.5 44.19, 62.12 44.93, 65.41 45.55 C68.7 46.17, 72.48 45.15, 73.89 45.07" stroke="#000000" stroke-width="2" fill="none"></path></g></g><mask></mask><g stroke-linecap="round"><g transform="translate(368.9813493586071 631.5909750818225) rotate(0 21.944087101862806 14.311235868013796)"><path d="M0 0 C3.54 2.65, 13.91 11.14, 21.22 15.91 C28.53 20.68, 40.11 26.5, 43.89 28.62 M0 0 C3.54 2.65, 13.91 11.14, 21.22 15.91 C28.53 20.68, 40.11 26.5, 43.89 28.62" stroke="#000000" stroke-width="2" fill="none"></path></g></g><mask></mask><g stroke-linecap="round"><g transform="translate(452.14494235740403 632.9724706309512) rotate(0 -6.363807091346189 9.989694448617797)"><path d="M0 0 C-0.21 1.29, -0.38 5.17, -1.27 7.75 C-2.15 10.32, -3.39 13.42, -5.3 15.46 C-7.21 17.5, -11.49 19.23, -12.73 19.98 M0 0 C-0.21 1.29, -0.38 5.17, -1.27 7.75 C-2.15 10.32, -3.39 13.42, -5.3 15.46 C-7.21 17.5, -11.49 19.23, -12.73 19.98" stroke="#000000" stroke-width="2" fill="none"></path></g></g><mask></mask><g stroke-linecap="round"><g transform="translate(177.76511863121323 601.1666251666404) rotate(0 -83.02723005706184 3.7496290019914227)"><path d="M0 0 C-2.93 0.64, -11.34 3.01, -17.61 3.86 C-23.88 4.71, -31.47 5.06, -37.61 5.1 C-43.75 5.14, -50.49 5.16, -54.45 4.1 C-58.41 3.04, -58.29 0.05, -61.36 -1.26 C-64.43 -2.57, -69.46 -3.23, -72.86 -3.76 C-76.26 -4.29, -78.63 -3.49, -81.76 -4.44 C-84.88 -5.39, -89.19 -7.3, -91.6 -9.46 C-94.01 -11.61, -94.1 -15.82, -96.19 -17.38 C-98.28 -18.94, -99.41 -15.74, -104.13 -18.81 C-108.85 -21.89, -119.84 -31.34, -124.52 -35.85 C-129.19 -40.36, -129.3 -44.31, -132.17 -45.88 C-135.04 -47.46, -140.52 -47.08, -141.73 -45.29 C-142.93 -43.5, -136.76 -34.69, -139.42 -35.16 C-142.08 -35.63, -154.57 -48.08, -157.69 -48.09 C-160.82 -48.1, -156.88 -36.65, -158.17 -35.23 C-159.46 -33.8, -164.13 -41.81, -165.44 -39.55 C-166.75 -37.29, -169.59 -27, -166.05 -21.66 C-162.52 -16.32, -149.59 -10.29, -144.22 -7.52 C-138.85 -4.75, -135.96 -6.78, -133.83 -5.05 C-131.69 -3.31, -134.9 1.45, -131.4 2.87 C-127.9 4.29, -115.75 2.02, -112.82 3.47 C-109.88 4.92, -114.58 9.09, -113.8 11.57 C-113.01 14.04, -110.87 16.85, -108.12 18.31 C-105.38 19.77, -99.33 18.6, -97.33 20.34 C-95.32 22.08, -99.03 27.09, -96.1 28.73 C-93.18 30.37, -84.41 27.97, -79.77 30.19 C-75.12 32.41, -72.41 39.74, -68.24 42.03 C-64.07 44.32, -58.61 42.16, -54.75 43.94 C-50.9 45.72, -50.71 50.79, -45.12 52.73 C-39.54 54.67, -25.24 55.12, -21.26 55.59 M0 0 C-2.93 0.64, -11.34 3.01, -17.61 3.86 C-23.88 4.71, -31.47 5.06, -37.61 5.1 C-43.75 5.14, -50.49 5.16, -54.45 4.1 C-58.41 3.04, -58.29 0.05, -61.36 -1.26 C-64.43 -2.57, -69.46 -3.23, -72.86 -3.76 C-76.26 -4.29, -78.63 -3.49, -81.76 -4.44 C-84.88 -5.39, -89.19 -7.3, -91.6 -9.46 C-94.01 -11.61, -94.1 -15.82, -96.19 -17.38 C-98.28 -18.94, -99.41 -15.74, -104.13 -18.81 C-108.85 -21.89, -119.84 -31.34, -124.52 -35.85 C-129.19 -40.36, -129.3 -44.31, -132.17 -45.88 C-135.04 -47.46, -140.52 -47.08, -141.73 -45.29 C-142.93 -43.5, -136.76 -34.69, -139.42 -35.16 C-142.08 -35.63, -154.57 -48.08, -157.69 -48.09 C-160.82 -48.1, -156.88 -36.65, -158.17 -35.23 C-159.46 -33.8, -164.13 -41.81, -165.44 -39.55 C-166.75 -37.29, -169.59 -27, -166.05 -21.66 C-162.52 -16.32, -149.59 -10.29, -144.22 -7.52 C-138.85 -4.75, -135.96 -6.78, -133.83 -5.05 C-131.69 -3.31, -134.9 1.45, -131.4 2.87 C-127.9 4.29, -115.75 2.02, -112.82 3.47 C-109.88 4.92, -114.58 9.09, -113.8 11.57 C-113.01 14.04, -110.87 16.85, -108.12 18.31 C-105.38 19.77, -99.33 18.6, -97.33 20.34 C-95.32 22.08, -99.03 27.09, -96.1 28.73 C-93.18 30.37, -84.41 27.97, -79.77 30.19 C-75.12 32.41, -72.41 39.74, -68.24 42.03 C-64.07 44.32, -58.61 42.16, -54.75 43.94 C-50.9 45.72, -50.71 50.79, -45.12 52.73 C-39.54 54.67, -25.24 55.12, -21.26 55.59" stroke="#000000" stroke-width="2" fill="none"></path></g></g><mask></mask><g stroke-linecap="round"><g transform="translate(78.05399443544138 620.5760741268884) rotate(0 35.79667633655026 -7.393158557368224)"><path d="M0 0 C4.24 -0.51, 16.84 -1.64, 25.44 -3.06 C34.04 -4.47, 45.3 -6.58, 51.59 -8.49 C57.87 -10.4, 59.82 -13.47, 63.16 -14.52 C66.49 -15.57, 70.19 -14.74, 71.59 -14.79 M0 0 C4.24 -0.51, 16.84 -1.64, 25.44 -3.06 C34.04 -4.47, 45.3 -6.58, 51.59 -8.49 C57.87 -10.4, 59.82 -13.47, 63.16 -14.52 C66.49 -15.57, 70.19 -14.74, 71.59 -14.79" stroke="#000000" stroke-width="2" fill="none"></path></g></g><mask></mask><g stroke-linecap="round"><g transform="translate(97.24057531779454 630.5817348384387) rotate(0 35.97887226179546 -5.284531537224268)"><path d="M0 0 C5.14 -0.35, 22.61 -0.9, 30.81 -2.11 C39.01 -3.32, 43.78 -5.85, 49.2 -7.26 C54.62 -8.67, 59.53 -10.01, 63.33 -10.56 C67.12 -11.11, 70.52 -10.57, 71.96 -10.57 M0 0 C5.14 -0.35, 22.61 -0.9, 30.81 -2.11 C39.01 -3.32, 43.78 -5.85, 49.2 -7.26 C54.62 -8.67, 59.53 -10.01, 63.33 -10.56 C67.12 -11.11, 70.52 -10.57, 71.96 -10.57" stroke="#000000" stroke-width="2" fill="none"></path></g></g><mask></mask><g stroke-linecap="round"><g transform="translate(65.71680272281901 604.5684046617355) rotate(0 22.403636259191444 -3.02689347667598)"><path d="M0 0 C2.28 -0.01, 8.52 0.21, 13.65 -0.07 C18.78 -0.35, 25.58 -0.67, 30.77 -1.67 C35.96 -2.67, 42.47 -5.32, 44.81 -6.05 M0 0 C2.28 -0.01, 8.52 0.21, 13.65 -0.07 C18.78 -0.35, 25.58 -0.67, 30.77 -1.67 C35.96 -2.67, 42.47 -5.32, 44.81 -6.05" stroke="#000000" stroke-width="2" fill="none"></path></g></g><mask></mask><g stroke-linecap="round"><g transform="translate(82.67285980385441 584.8620465725073) rotate(0 -14.380558986289543 2.118697820925263)"><path d="M0 0 C-0.99 0.47, -1.12 2.1, -5.91 2.81 C-10.71 3.51, -24.95 4, -28.76 4.24 M0 0 C-0.99 0.47, -1.12 2.1, -5.91 2.81 C-10.71 3.51, -24.95 4, -28.76 4.24" stroke="#000000" stroke-width="2" fill="none"></path></g></g><mask></mask><g stroke-linecap="round"><g transform="translate(39.24137954573598 566.2693138251116) rotate(0 1.7659864238664795 10.74228024950213)"><path d="M0 0 C0.31 0.8, 1.3 2.57, 1.88 4.78 C2.47 6.98, 3.65 10.45, 3.53 13.23 C3.42 16.02, 1.58 20.11, 1.18 21.48 M0 0 C0.31 0.8, 1.3 2.57, 1.88 4.78 C2.47 6.98, 3.65 10.45, 3.53 13.23 C3.42 16.02, 1.58 20.11, 1.18 21.48" stroke="#000000" stroke-width="2" fill="none"></path></g></g><mask></mask><g stroke-linecap="round"><g transform="translate(20.28479349334657 566.1602284429118) rotate(0 2.4735454484527963 2.4737548828125)"><path d="M0 0 C0.82 0.82, 4.12 4.12, 4.95 4.95 M0 0 C0.82 0.82, 4.12 4.12, 4.95 4.95" stroke="#000000" stroke-width="2" fill="none"></path></g></g><mask></mask><g stroke-linecap="round"><g transform="translate(265.07221648452924 595.2553076502415) rotate(0 -4.250886978641574 9.477785172001006)"><path d="M0 0 C0.02 0.96, 0.37 3.46, 0.1 5.74 C-0.18 8.01, -0.2 11.45, -1.65 13.66 C-3.1 15.86, -7.44 18.07, -8.6 18.96 M0 0 C0.02 0.96, 0.37 3.46, 0.1 5.74 C-0.18 8.01, -0.2 11.45, -1.65 13.66 C-3.1 15.86, -7.44 18.07, -8.6 18.96" stroke="#000000" stroke-width="1" fill="none"></path></g></g><mask></mask><g stroke-linecap="round"><g transform="translate(134.6752654247457 744.8949663512462) rotate(0 108.29387498938513 19.00982400645381)"><path d="M-1.16 2.71 C-5.91 4.12, -15.85 4.46, -27.34 6.4 C-38.83 8.35, -61.11 11.33, -70.1 14.39 C-79.08 17.45, -83.83 21.54, -81.25 24.75 C-78.67 27.97, -77.93 31.85, -54.59 33.68 C-31.26 35.51, 23.37 35.71, 58.76 35.74 C94.14 35.76, 122.68 35.78, 157.71 33.85 C192.74 31.92, 245.93 27.37, 268.94 24.17 C291.95 20.97, 293.25 17.65, 295.77 14.64 C298.29 11.63, 290.3 7.98, 284.06 6.13 C277.82 4.27, 274.82 3.93, 258.35 3.51 C241.89 3.09, 197.76 4.15, 185.27 3.61 M3.41 1.71 C-1.92 2.53, -17.64 0.03, -30.19 2.44 C-42.74 4.85, -63.28 12.17, -71.89 16.18 C-80.5 20.19, -84.15 23.51, -81.85 26.48 C-79.56 29.46, -80.89 31.65, -58.14 34.02 C-35.4 36.38, 18.49 39.92, 54.59 40.68 C90.7 41.44, 122.93 41.35, 158.48 38.57 C194.04 35.8, 245.69 28.38, 267.93 24.01 C290.16 19.64, 288.97 15.43, 291.89 12.36 C294.81 9.29, 290.88 6.78, 285.45 5.59 C280.03 4.41, 276.51 5.5, 259.35 5.24 C242.2 4.98, 195.14 5.24, 182.51 4.01" stroke="#000000" stroke-width="2" fill="none"></path></g></g><mask></mask><g stroke-linecap="round"><g transform="translate(54.065139426954374 772.7639106022652) rotate(0 189.3545067828636 124.83740765115499)"><path d="M-1.13 1.92 C1.2 15.23, 8.49 57.92, 12.83 82.53 C17.18 107.14, 18.1 127.02, 24.95 149.58 C31.81 172.14, 39.54 200.56, 53.97 217.9 C68.41 235.25, 87.04 246.27, 111.56 253.64 C136.09 261.01, 173.35 261.16, 201.13 262.13 C228.92 263.09, 255.05 263.08, 278.27 259.45 C301.49 255.83, 329.56 246.34, 340.48 240.39 C351.41 234.44, 341.16 239.52, 343.81 223.76 C346.47 208, 352.12 167.33, 356.4 145.83 C360.68 124.33, 365.93 117.06, 369.52 94.75 C373.1 72.45, 376.86 29.69, 377.91 11.99 C378.95 -5.7, 375.93 -6.71, 375.79 -11.44 M3.46 0.5 C5.52 15.26, 6.09 59.62, 10.61 84.84 C15.13 110.06, 23.29 129.3, 30.6 151.81 C37.91 174.33, 41.37 203.01, 54.48 219.93 C67.58 236.85, 84.36 245.38, 109.23 253.32 C134.11 261.26, 176.5 266.97, 203.72 267.57 C230.94 268.17, 250.16 261.42, 272.56 256.92 C294.96 252.42, 325.54 246.56, 338.13 240.58 C350.72 234.59, 344.7 237.1, 348.09 221.03 C351.48 204.96, 354.66 166.03, 358.46 144.16 C362.25 122.3, 366.79 112.11, 370.84 89.84 C374.9 67.57, 382.03 27.56, 382.78 10.57 C383.53 -6.42, 376.63 -8.73, 375.35 -12.1" stroke="#000000" stroke-width="2" fill="none"></path></g></g><mask></mask><g stroke-linecap="round" transform="translate(78.99170362573659 321.03084094015514) rotate(0 11.759608342097636 11.358008751502439)"><path d="M23.52 11.36 C23.52 12.02, 23.46 12.68, 23.34 13.33 C23.22 13.98, 23.04 14.62, 22.81 15.24 C22.58 15.86, 22.28 16.47, 21.94 17.04 C21.6 17.61, 21.21 18.16, 20.77 18.66 C20.33 19.16, 19.84 19.64, 19.32 20.06 C18.8 20.48, 18.23 20.87, 17.64 21.19 C17.05 21.52, 16.42 21.81, 15.78 22.03 C15.14 22.26, 14.47 22.43, 13.8 22.54 C13.13 22.66, 12.44 22.72, 11.76 22.72 C11.08 22.72, 10.39 22.66, 9.72 22.54 C9.05 22.43, 8.38 22.26, 7.74 22.03 C7.1 21.81, 6.47 21.52, 5.88 21.19 C5.29 20.87, 4.72 20.48, 4.2 20.06 C3.68 19.64, 3.19 19.16, 2.75 18.66 C2.31 18.16, 1.92 17.61, 1.58 17.04 C1.24 16.47, 0.94 15.86, 0.71 15.24 C0.48 14.62, 0.3 13.98, 0.18 13.33 C0.06 12.68, 0 12.02, 0 11.36 C0 10.7, 0.06 10.03, 0.18 9.39 C0.3 8.74, 0.48 8.09, 0.71 7.47 C0.94 6.86, 1.24 6.25, 1.58 5.68 C1.92 5.11, 2.31 4.56, 2.75 4.06 C3.19 3.55, 3.68 3.08, 4.2 2.66 C4.72 2.23, 5.29 1.85, 5.88 1.52 C6.47 1.19, 7.1 0.91, 7.74 0.68 C8.38 0.46, 9.05 0.29, 9.72 0.17 C10.39 0.06, 11.08 0, 11.76 0 C12.44 0, 13.13 0.06, 13.8 0.17 C14.47 0.29, 15.14 0.46, 15.78 0.68 C16.42 0.91, 17.05 1.19, 17.64 1.52 C18.23 1.85, 18.8 2.23, 19.32 2.66 C19.84 3.08, 20.33 3.55, 20.77 4.06 C21.21 4.56, 21.6 5.11, 21.94 5.68 C22.28 6.25, 22.58 6.86, 22.81 7.47 C23.04 8.09, 23.22 8.74, 23.34 9.39 C23.46 10.03, 23.49 11.03, 23.52 11.36 C23.55 11.69, 23.55 11.03, 23.52 11.36" stroke="none" stroke-width="0" fill="#ffffff"></path><path d="M23.52 11.36 C23.52 12.02, 23.46 12.68, 23.34 13.33 C23.22 13.98, 23.04 14.62, 22.81 15.24 C22.58 15.86, 22.28 16.47, 21.94 17.04 C21.6 17.61, 21.21 18.16, 20.77 18.66 C20.33 19.16, 19.84 19.64, 19.32 20.06 C18.8 20.48, 18.23 20.87, 17.64 21.19 C17.05 21.52, 16.42 21.81, 15.78 22.03 C15.14 22.26, 14.47 22.43, 13.8 22.54 C13.13 22.66, 12.44 22.72, 11.76 22.72 C11.08 22.72, 10.39 22.66, 9.72 22.54 C9.05 22.43, 8.38 22.26, 7.74 22.03 C7.1 21.81, 6.47 21.52, 5.88 21.19 C5.29 20.87, 4.72 20.48, 4.2 20.06 C3.68 19.64, 3.19 19.16, 2.75 18.66 C2.31 18.16, 1.92 17.61, 1.58 17.04 C1.24 16.47, 0.94 15.86, 0.71 15.24 C0.48 14.62, 0.3 13.98, 0.18 13.33 C0.06 12.68, 0 12.02, 0 11.36 C0 10.7, 0.06 10.03, 0.18 9.39 C0.3 8.74, 0.48 8.09, 0.71 7.47 C0.94 6.86, 1.24 6.25, 1.58 5.68 C1.92 5.11, 2.31 4.56, 2.75 4.06 C3.19 3.55, 3.68 3.08, 4.2 2.66 C4.72 2.23, 5.29 1.85, 5.88 1.52 C6.47 1.19, 7.1 0.91, 7.74 0.68 C8.38 0.46, 9.05 0.29, 9.72 0.17 C10.39 0.06, 11.08 0, 11.76 0 C12.44 0, 13.13 0.06, 13.8 0.17 C14.47 0.29, 15.14 0.46, 15.78 0.68 C16.42 0.91, 17.05 1.19, 17.64 1.52 C18.23 1.85, 18.8 2.23, 19.32 2.66 C19.84 3.08, 20.33 3.55, 20.77 4.06 C21.21 4.56, 21.6 5.11, 21.94 5.68 C22.28 6.25, 22.58 6.86, 22.81 7.47 C23.04 8.09, 23.22 8.74, 23.34 9.39 C23.46 10.03, 23.49 11.03, 23.52 11.36 C23.55 11.69, 23.55 11.03, 23.52 11.36" stroke="#000000" stroke-width="1" fill="none"></path></g><g stroke-linecap="round"><g transform="translate(132.8127446240378 349.6047828374667) rotate(0 -17.17333112444203 16.771639869326577)" fill-rule="evenodd"><path d="M0 0 C-0.94 1.36, -3.68 5.78, -5.62 8.14 C-7.56 10.5, -8.32 12.71, -11.64 14.15 C-14.96 15.58, -20.27 16.29, -25.55 16.74 C-30.83 17.19, -39.29 15.79, -43.3 16.83 C-47.3 17.87, -48.56 20.48, -49.59 22.99 C-50.62 25.5, -50.85 29.62, -49.48 31.89 C-48.11 34.16, -47.34 35.92, -41.37 36.61 C-35.4 37.3, -21.2 38.02, -13.66 36.01 C-6.13 34.01, -0.58 28.3, 3.85 24.58 C8.28 20.86, 11.01 17.57, 12.91 13.7 C14.81 9.84, 16.02 4.19, 15.24 1.4 C14.47 -1.4, 10.8 -2.84, 8.26 -3.07 C5.72 -3.3, 1.38 -0.51, 0 0" stroke="none" stroke-width="0" fill="#868e96" fill-rule="evenodd"></path><path d="M0 0 C-0.94 1.36, -3.68 5.78, -5.62 8.14 C-7.56 10.5, -8.32 12.71, -11.64 14.15 C-14.96 15.58, -20.27 16.29, -25.55 16.74 C-30.83 17.19, -39.29 15.79, -43.3 16.83 C-47.3 17.87, -48.56 20.48, -49.59 22.99 C-50.62 25.5, -50.85 29.62, -49.48 31.89 C-48.11 34.16, -47.34 35.92, -41.37 36.61 C-35.4 37.3, -21.2 38.02, -13.66 36.01 C-6.13 34.01, -0.58 28.3, 3.85 24.58 C8.28 20.86, 11.01 17.57, 12.91 13.7 C14.81 9.84, 16.02 4.19, 15.24 1.4 C14.47 -1.4, 10.8 -2.84, 8.26 -3.07 C5.72 -3.3, 1.38 -0.51, 0 0 M0 0 C-0.94 1.36, -3.68 5.78, -5.62 8.14 C-7.56 10.5, -8.32 12.71, -11.64 14.15 C-14.96 15.58, -20.27 16.29, -25.55 16.74 C-30.83 17.19, -39.29 15.79, -43.3 16.83 C-47.3 17.87, -48.56 20.48, -49.59 22.99 C-50.62 25.5, -50.85 29.62, -49.48 31.89 C-48.11 34.16, -47.34 35.92, -41.37 36.61 C-35.4 37.3, -21.2 38.02, -13.66 36.01 C-6.13 34.01, -0.58 28.3, 3.85 24.58 C8.28 20.86, 11.01 17.57, 12.91 13.7 C14.81 9.84, 16.02 4.19, 15.24 1.4 C14.47 -1.4, 10.8 -2.84, 8.26 -3.07 C5.72 -3.3, 1.38 -0.51, 0 0" stroke="#000000" stroke-width="1" fill="none"></path></g></g><mask></mask><g stroke-linecap="round" transform="translate(307.86089824337523 336.301267763698) rotate(0 11.759608342097636 11.358008751502439)"><path d="M23.52 11.36 C23.52 12.02, 23.46 12.68, 23.34 13.33 C23.22 13.98, 23.04 14.62, 22.81 15.24 C22.58 15.86, 22.28 16.47, 21.94 17.04 C21.6 17.61, 21.21 18.16, 20.77 18.66 C20.33 19.16, 19.84 19.64, 19.32 20.06 C18.8 20.48, 18.23 20.87, 17.64 21.19 C17.05 21.52, 16.42 21.81, 15.78 22.03 C15.14 22.26, 14.47 22.43, 13.8 22.54 C13.13 22.66, 12.44 22.72, 11.76 22.72 C11.08 22.72, 10.39 22.66, 9.72 22.54 C9.05 22.43, 8.38 22.26, 7.74 22.03 C7.1 21.81, 6.47 21.52, 5.88 21.19 C5.29 20.87, 4.72 20.48, 4.2 20.06 C3.68 19.64, 3.19 19.16, 2.75 18.66 C2.31 18.16, 1.92 17.61, 1.58 17.04 C1.24 16.47, 0.94 15.86, 0.71 15.24 C0.48 14.62, 0.3 13.98, 0.18 13.33 C0.06 12.68, 0 12.02, 0 11.36 C0 10.7, 0.06 10.03, 0.18 9.39 C0.3 8.74, 0.48 8.09, 0.71 7.47 C0.94 6.86, 1.24 6.25, 1.58 5.68 C1.92 5.11, 2.31 4.56, 2.75 4.06 C3.19 3.55, 3.68 3.08, 4.2 2.66 C4.72 2.23, 5.29 1.85, 5.88 1.52 C6.47 1.19, 7.1 0.91, 7.74 0.68 C8.38 0.46, 9.05 0.29, 9.72 0.17 C10.39 0.06, 11.08 0, 11.76 0 C12.44 0, 13.13 0.06, 13.8 0.17 C14.47 0.29, 15.14 0.46, 15.78 0.68 C16.42 0.91, 17.05 1.19, 17.64 1.52 C18.23 1.85, 18.8 2.23, 19.32 2.66 C19.84 3.08, 20.33 3.55, 20.77 4.06 C21.21 4.56, 21.6 5.11, 21.94 5.68 C22.28 6.25, 22.58 6.86, 22.81 7.47 C23.04 8.09, 23.22 8.74, 23.34 9.39 C23.46 10.03, 23.49 11.03, 23.52 11.36 C23.55 11.69, 23.55 11.03, 23.52 11.36" stroke="none" stroke-width="0" fill="#ffffff"></path><path d="M23.52 11.36 C23.52 12.02, 23.46 12.68, 23.34 13.33 C23.22 13.98, 23.04 14.62, 22.81 15.24 C22.58 15.86, 22.28 16.47, 21.94 17.04 C21.6 17.61, 21.21 18.16, 20.77 18.66 C20.33 19.16, 19.84 19.64, 19.32 20.06 C18.8 20.48, 18.23 20.87, 17.64 21.19 C17.05 21.52, 16.42 21.81, 15.78 22.03 C15.14 22.26, 14.47 22.43, 13.8 22.54 C13.13 22.66, 12.44 22.72, 11.76 22.72 C11.08 22.72, 10.39 22.66, 9.72 22.54 C9.05 22.43, 8.38 22.26, 7.74 22.03 C7.1 21.81, 6.47 21.52, 5.88 21.19 C5.29 20.87, 4.72 20.48, 4.2 20.06 C3.68 19.64, 3.19 19.16, 2.75 18.66 C2.31 18.16, 1.92 17.61, 1.58 17.04 C1.24 16.47, 0.94 15.86, 0.71 15.24 C0.48 14.62, 0.3 13.98, 0.18 13.33 C0.06 12.68, 0 12.02, 0 11.36 C0 10.7, 0.06 10.03, 0.18 9.39 C0.3 8.74, 0.48 8.09, 0.71 7.47 C0.94 6.86, 1.24 6.25, 1.58 5.68 C1.92 5.11, 2.31 4.56, 2.75 4.06 C3.19 3.55, 3.68 3.08, 4.2 2.66 C4.72 2.23, 5.29 1.85, 5.88 1.52 C6.47 1.19, 7.1 0.91, 7.74 0.68 C8.38 0.46, 9.05 0.29, 9.72 0.17 C10.39 0.06, 11.08 0, 11.76 0 C12.44 0, 13.13 0.06, 13.8 0.17 C14.47 0.29, 15.14 0.46, 15.78 0.68 C16.42 0.91, 17.05 1.19, 17.64 1.52 C18.23 1.85, 18.8 2.23, 19.32 2.66 C19.84 3.08, 20.33 3.55, 20.77 4.06 C21.21 4.56, 21.6 5.11, 21.94 5.68 C22.28 6.25, 22.58 6.86, 22.81 7.47 C23.04 8.09, 23.22 8.74, 23.34 9.39 C23.46 10.03, 23.49 11.03, 23.52 11.36 C23.55 11.69, 23.55 11.03, 23.52 11.36" stroke="#000000" stroke-width="1" fill="none"></path></g><g stroke-linecap="round"><g transform="translate(362.19776156866374 370.2500965504114) rotate(0 -17.17333112444203 16.771639869326577)" fill-rule="evenodd"><path d="M0 0 C-0.94 1.36, -3.68 5.78, -5.62 8.14 C-7.56 10.5, -8.32 12.71, -11.64 14.15 C-14.96 15.58, -20.27 16.29, -25.55 16.74 C-30.83 17.19, -39.29 15.79, -43.3 16.83 C-47.3 17.87, -48.56 20.48, -49.59 22.99 C-50.62 25.5, -50.85 29.62, -49.48 31.89 C-48.11 34.16, -47.34 35.92, -41.37 36.61 C-35.4 37.3, -21.2 38.02, -13.66 36.01 C-6.13 34.01, -0.58 28.3, 3.85 24.58 C8.28 20.86, 11.01 17.57, 12.91 13.7 C14.81 9.84, 16.02 4.19, 15.24 1.4 C14.47 -1.4, 10.8 -2.84, 8.26 -3.07 C5.72 -3.3, 1.38 -0.51, 0 0" stroke="none" stroke-width="0" fill="#868e96" fill-rule="evenodd"></path><path d="M0 0 C-0.94 1.36, -3.68 5.78, -5.62 8.14 C-7.56 10.5, -8.32 12.71, -11.64 14.15 C-14.96 15.58, -20.27 16.29, -25.55 16.74 C-30.83 17.19, -39.29 15.79, -43.3 16.83 C-47.3 17.87, -48.56 20.48, -49.59 22.99 C-50.62 25.5, -50.85 29.62, -49.48 31.89 C-48.11 34.16, -47.34 35.92, -41.37 36.61 C-35.4 37.3, -21.2 38.02, -13.66 36.01 C-6.13 34.01, -0.58 28.3, 3.85 24.58 C8.28 20.86, 11.01 17.57, 12.91 13.7 C14.81 9.84, 16.02 4.19, 15.24 1.4 C14.47 -1.4, 10.8 -2.84, 8.26 -3.07 C5.72 -3.3, 1.38 -0.51, 0 0 M0 0 C-0.94 1.36, -3.68 5.78, -5.62 8.14 C-7.56 10.5, -8.32 12.71, -11.64 14.15 C-14.96 15.58, -20.27 16.29, -25.55 16.74 C-30.83 17.19, -39.29 15.79, -43.3 16.83 C-47.3 17.87, -48.56 20.48, -49.59 22.99 C-50.62 25.5, -50.85 29.62, -49.48 31.89 C-48.11 34.16, -47.34 35.92, -41.37 36.61 C-35.4 37.3, -21.2 38.02, -13.66 36.01 C-6.13 34.01, -0.58 28.3, 3.85 24.58 C8.28 20.86, 11.01 17.57, 12.91 13.7 C14.81 9.84, 16.02 4.19, 15.24 1.4 C14.47 -1.4, 10.8 -2.84, 8.26 -3.07 C5.72 -3.3, 1.38 -0.51, 0 0" stroke="#000000" stroke-width="1" fill="none"></path></g></g><mask></mask><g stroke-linecap="round"><g transform="translate(572.0390054760219 442.2656300502249) rotate(0 -6.364833286830617 68.57905796595986)"><path d="M1.11 0.51 C-0.9 23.6, -10.32 115.09, -12.68 137.94 M0.24 -0.27 C-1.88 22.53, -11.23 113.6, -13.6 136.23" stroke="#000000" stroke-width="2" fill="none"></path></g></g><mask></mask><g stroke-linecap="round"><g transform="translate(650.3256614470038 580.5789671037965) rotate(0 19.55348423549094 -63.15242222377236)"><path d="M0.05 0.78 C2.59 -20.97, 11.04 -118.25, 16.35 -129.97 C21.66 -141.68, 28.04 -92.04, 31.91 -69.51 C35.78 -46.98, 38.41 -7.02, 39.56 5.19 M-1.38 0.14 C0.88 -22.01, 9.79 -120.44, 15.23 -131.87 C20.67 -143.3, 27.11 -90.95, 31.24 -68.44 C35.38 -45.93, 38.45 -8.85, 40.04 3.21" stroke="#000000" stroke-width="2" fill="none"></path></g></g><mask></mask><g stroke-linecap="round"><g transform="translate(725.5068486679857 585.4454744977697) rotate(0 24.42339215959828 -64.41807338169656)"><path d="M-0.33 0.42 C-0.16 -22.68, -0.74 -120.07, 1.07 -137.8 C2.89 -155.54, 7.13 -118.37, 10.54 -106.01 C13.95 -93.64, 15.28 -60.09, 21.54 -63.6 C27.79 -67.11, 44.27 -123.47, 48.08 -127.06 C51.88 -130.65, 45.3 -107.63, 44.38 -85.12 C43.47 -62.61, 42.83 -7.71, 42.61 7.99 M1.7 -0.4 C1.72 -23.41, -1.16 -118.62, 0.23 -136.51 C1.61 -154.41, 6.45 -120.07, 10.01 -107.77 C13.57 -95.46, 14.96 -59, 21.6 -62.67 C28.24 -66.34, 45.85 -126.4, 49.86 -129.8 C53.87 -133.2, 46.74 -106.39, 45.68 -83.09 C44.62 -59.78, 44.03 -5.32, 43.51 10.04" stroke="#000000" stroke-width="2" fill="none"></path></g></g><mask></mask><g stroke-linecap="round"><g transform="translate(658.8630847170925 522.3495097935283) rotate(0 13.349565778459692 -0.7153756277901948)"><path d="M0.09 -0.22 C4.6 -0.4, 22.5 -0.7, 26.9 -0.92 M-0.53 -0.8 C3.94 -1.15, 22.14 -1.58, 26.58 -1.63" stroke="#000000" stroke-width="2" fill="none"></path></g></g><mask></mask><g stroke-linecap="round"><g transform="translate(879.4177715260521 475.10454330371954) rotate(0 -17.179847130409144 58.74968308668872)"><path d="M0.45 1.11 C-2 0.48, -10.4 -4.78, -14.52 -4.24 C-18.63 -3.69, -21.68 -3.21, -24.22 4.38 C-26.76 11.98, -28.04 29.12, -29.75 41.34 C-31.47 53.56, -35.44 64.76, -34.5 77.7 C-33.57 90.65, -28.69 111.86, -24.13 119.01 C-19.56 126.16, -10.63 122.47, -7.1 120.59 C-3.57 118.7, -4.19 116.9, -2.93 107.69 C-1.67 98.47, 2.92 72.91, 0.46 65.29 C-1.99 57.68, -14.8 62.58, -17.65 61.99 M-0.78 0.64 C-3.43 0.23, -12.15 -3.2, -15.64 -2.87 C-19.14 -2.55, -19.4 -4.88, -21.73 2.57 C-24.06 10.03, -27.29 29.31, -29.62 41.85 C-31.96 54.4, -36.35 65.09, -35.72 77.82 C-35.09 90.56, -30.8 110.83, -25.87 118.28 C-20.94 125.72, -9.83 124.34, -6.14 122.47 C-2.46 120.6, -5.19 116.31, -3.77 107.06 C-2.35 97.81, 4.64 74.49, 2.36 66.97 C0.09 59.44, -14.3 62.57, -17.42 61.92" stroke="#000000" stroke-width="2" fill="none"></path></g></g><mask></mask><g stroke-linecap="round"><g transform="translate(916.6392399380111 588.6001792900474) rotate(0 14.025561992938947 -56.22508122370783)"><path d="M-0.34 -0.34 C0.65 -21.87, 1.73 -112.51, 6.43 -128.11 C11.12 -143.7, 25.8 -105.29, 27.82 -93.92 C29.85 -82.55, 22.7 -66.63, 18.58 -59.88 C14.45 -53.12, 3.34 -55.47, 3.08 -53.38 C2.83 -51.29, 13.3 -51.07, 17.05 -47.32 C20.79 -43.57, 24.07 -41.34, 25.55 -30.87 C27.03 -20.4, 26 7.48, 25.92 15.52 M1.68 -1.56 C3.02 -22.9, 4.52 -114.43, 8.73 -129.7 C12.94 -144.97, 25.21 -104.96, 26.94 -93.19 C28.66 -81.41, 23.22 -65.79, 19.08 -59.04 C14.94 -52.29, 2.78 -55, 2.12 -52.68 C1.46 -50.36, 11.07 -49.1, 15.11 -45.13 C19.15 -41.16, 24.77 -39.4, 26.38 -28.84 C28 -18.28, 24.78 10.7, 24.81 18.24" stroke="#000000" stroke-width="2" fill="none"></path></g></g><mask></mask><g stroke-linecap="round" transform="translate(970.5206406820062 474.0944730670026) rotate(3.515497646950588 17.390078703061135 63.91288959694032)"><path d="M15.31 1.09 C18.49 -0.82, 23.1 2.41, 25.84 7.6 C28.58 12.79, 30.36 22.39, 31.77 32.25 C33.18 42.12, 34.51 55.5, 34.31 66.81 C34.11 78.13, 32.24 90.74, 30.6 100.14 C28.95 109.54, 27.13 118.9, 24.45 123.23 C21.78 127.56, 17.6 128.39, 14.54 126.15 C11.48 123.9, 8.45 117.52, 6.1 109.76 C3.75 102, 1.37 90.61, 0.46 79.6 C-0.44 68.58, -0.5 54.8, 0.67 43.67 C1.85 32.55, 4.55 20.05, 7.49 12.85 C10.43 5.66, 16.31 2.42, 18.3 0.49 C20.29 -1.44, 19.54 0.39, 19.41 1.27 M9.6 6.15 C12.5 1.12, 17.31 -1.45, 20.83 0.43 C24.35 2.31, 28.59 9.29, 30.71 17.45 C32.83 25.61, 32.83 38.23, 33.56 49.38 C34.3 60.53, 36 73.7, 35.14 84.34 C34.28 94.99, 30.97 105.93, 28.4 113.23 C25.82 120.52, 22.84 126.98, 19.68 128.1 C16.52 129.22, 12.3 125.33, 9.44 119.94 C6.59 114.55, 4.03 105.62, 2.56 95.75 C1.08 85.87, 0.46 71.92, 0.6 60.68 C0.74 49.44, 1.66 37.44, 3.39 28.3 C5.12 19.16, 9.77 9.64, 10.98 5.83 C12.18 2.03, 10.78 4.54, 10.61 5.46" stroke="#000000" stroke-width="2" fill="none"></path></g><g stroke-linecap="round" transform="translate(1031.7921910201067 477.29931267988604) rotate(3.515497646950588 17.390078703061135 63.91288959694032)"><path d="M21.37 1.8 C24.29 3.03, 26.77 10.54, 28.86 18.48 C30.95 26.42, 33.23 38.4, 33.89 49.44 C34.54 60.47, 33.68 73.82, 32.8 84.68 C31.91 95.54, 30.83 107.53, 28.58 114.6 C26.32 121.66, 22.38 126.18, 19.28 127.08 C16.17 127.97, 12.8 125.17, 9.95 119.96 C7.1 114.76, 3.9 105.69, 2.2 95.83 C0.5 85.97, -0.58 72.52, -0.25 60.79 C0.08 49.05, 2.27 34.75, 4.2 25.41 C6.12 16.07, 8.61 8.84, 11.32 4.74 C14.04 0.63, 18.8 1.1, 20.49 0.79 C22.17 0.49, 21.47 1.85, 21.43 2.92 M15.05 0.17 C18.39 -2.57, 23.2 0.78, 25.89 5.75 C28.59 10.71, 29.54 20.36, 31.23 29.96 C32.92 39.57, 35.87 52.14, 36.03 63.37 C36.2 74.6, 34.03 87.52, 32.23 97.35 C30.44 107.19, 28.12 117.57, 25.25 122.37 C22.37 127.17, 18.13 127.9, 14.97 126.17 C11.81 124.43, 8.56 119.37, 6.29 111.96 C4.02 104.55, 2.25 92.47, 1.35 81.73 C0.46 70.99, 0.14 58.28, 0.92 47.5 C1.71 36.73, 3.83 24.98, 6.08 17.09 C8.33 9.21, 13.24 2.6, 14.45 0.19 C15.66 -2.23, 13.37 1.63, 13.33 2.61" stroke="#000000" stroke-width="2" fill="none"></path></g><g stroke-linecap="round"><g transform="translate(1094.1240515741292 486.95570438019195) rotate(0 21.191641000601066 1.0596759502704458)"><path d="M0.22 -0.23 C7.38 0.25, 35.75 2.06, 42.82 2.39 M-0.33 -0.83 C6.8 -0.46, 35.49 1.06, 42.62 1.56" stroke="#000000" stroke-width="2" fill="none"></path></g></g><mask></mask><g stroke-linecap="round"><g transform="translate(1112.4753511534554 487.2782751809732) rotate(0 -2.0530113807089947 58.576531043419436)"><path d="M0.96 0.58 C0.3 20.05, -2.73 97, -3.51 116.34 M0.01 -0.16 C-0.8 19.49, -3.42 97.82, -4.15 117.45" stroke="#000000" stroke-width="2" fill="none"></path></g></g><mask></mask></svg>