<svg version="1.1" xmlns="http://www.w3.org/2000/svg" viewBox="0 0 169.88327103704478 211.8199995454097" width="169.88327103704478" height="211.8199995454097" class="excalidraw-svg"><!-- svg-source:excalidraw --><metadata></metadata><defs><style class="style-fonts">
      </style></defs><g stroke-linecap="round"><g stroke-opacity="0.3" fill-opacity="0.3" transform="translate(14.407246174951979 71.36534427986453) rotate(0 0 43.675603753632004)"><path d="M0 0 C-1.83 27.05, 1.66 57.51, 0 87.35" stroke="#343a40" stroke-width="1.5" fill="none" stroke-dasharray="8 9"></path></g></g><mask></mask><g stroke-linecap="round"><g stroke-opacity="0.3" fill-opacity="0.3" transform="translate(20.435333503578022 77.18488280472161) rotate(0 0.7274423156070497 62.317558370344045)"><path d="M0 0 C0.88 40.49, -0.49 82.97, 1.45 124.64" stroke="#343a40" stroke-width="1.5" fill="none" stroke-dasharray="8 9"></path></g></g><mask></mask><g stroke-linecap="round"><g stroke-opacity="0.3" fill-opacity="0.3" transform="translate(30.895938662046774 82.03449824210247) rotate(0 -0.2424807718689408 59.892750651653614)"><path d="M0 0 C0.59 27.48, 1.78 52.68, -0.48 119.79" stroke="#343a40" stroke-width="1.5" fill="none" stroke-dasharray="8 9"></path></g></g><mask></mask><g stroke-linecap="round"><g stroke-opacity="0.3" fill-opacity="0.3" transform="translate(41.08013108054638 79.12472897967382) rotate(0 -0.2424807718689408 34.6747503772732)"><path d="M0 0 C0.8 22.22, -1.86 41.37, -0.48 69.35" stroke="#343a40" stroke-width="1.5" fill="none" stroke-dasharray="8 9"></path></g></g><mask></mask><g stroke-linecap="round"><g stroke-opacity="0.3" fill-opacity="0.3" transform="translate(41.565092624284716 171.26742228991043) rotate(0 0.48496154373810896 12.609000137190264)"><path d="M0 0 C-0.29 10.02, 0.37 20.56, 0.97 25.22" stroke="#343a40" stroke-width="1.5" fill="none" stroke-dasharray="8 9"></path></g></g><mask></mask><g stroke-linecap="round"><g stroke-opacity="0.3" fill-opacity="0.3" transform="translate(51.74928504278432 86.39915213574523) rotate(0 0.6630112679931699 43.260708621725826)"><path d="M0 0 C-1.07 33.9, 1.03 67.34, 1.33 86.52" stroke="#343a40" stroke-width="1.5" fill="none" stroke-dasharray="8 9"></path></g></g><mask></mask><g stroke-linecap="round"><g stroke-opacity="0.3" fill-opacity="0.3" transform="translate(65.32820826745092 87.36907522322144) rotate(0 1.2379047206127325 56.35646915282359)"><path d="M0 0 C0.9 36.09, 2.61 67.68, 2.48 112.71" stroke="#343a40" stroke-width="1.5" fill="none" stroke-dasharray="8 9"></path></g></g><mask></mask><g stroke-linecap="round"><g stroke-opacity="0.3" fill-opacity="0.3" transform="translate(78.78774426745076 74.31732722322135) rotate(0 0.3662234751061533 51.0133259060932)"><path d="M0 0 C-0.03 37.04, 0.86 74.68, 0.73 102.03" stroke="#343a40" stroke-width="1.5" fill="none" stroke-dasharray="8 9"></path></g></g><mask></mask><g stroke-linecap="round"><g stroke-opacity="0.5" fill-opacity="0.5" transform="translate(106.75848828895732 86.88411367948333) rotate(0 1.1098925510814297 38.291293012302276)"><path d="M0 0 C2.69 26.67, 3.7 55.98, 2.22 76.58" stroke="#495057" stroke-width="1.5" fill="none" stroke-dasharray="8 9"></path></g></g><mask></mask><g stroke-linecap="round"><g stroke-opacity="0.5" fill-opacity="0.5" transform="translate(92.98506928895722 71.3653436794832) rotate(0 1.7680834393777332 57.76948386315303)"><path d="M0 0 C1.76 44.51, 2.77 90.86, 3.54 115.54" stroke="#495057" stroke-width="1.5" fill="none" stroke-dasharray="8 9"></path></g></g><mask></mask><g stroke-linecap="round"><g stroke-opacity="0.5" fill-opacity="0.5" transform="translate(116.94268070745693 88.33899831069766) rotate(0 0.606903562363641 50.37299567617583)"><path d="M0 0 C3.15 40.74, 1.84 80.13, 1.21 100.75" stroke="#495057" stroke-width="1.5" fill="none" stroke-dasharray="8 9"></path></g></g><mask></mask><g stroke-linecap="round"><g stroke-opacity="0.5" fill-opacity="0.5" transform="translate(128.0967962134332 80.09465206715004) rotate(0 2.9097692624284264 58.19538524857035)"><path d="M0 0 C2.66 31.22, 3.19 60.94, 5.82 116.39" stroke="#495057" stroke-width="1.5" fill="none" stroke-dasharray="8 9"></path></g></g><mask></mask><g stroke-linecap="round"><g stroke-opacity="0.5" fill-opacity="0.5" transform="translate(140.70579635062313 80.09465206715004) rotate(0 1.2124038593451587 59.65026987978467)"><path d="M0 0 C-0.04 42.36, 0.79 84.18, 2.42 119.3" stroke="#495057" stroke-width="1.5" fill="none" stroke-dasharray="8 9"></path></g></g><mask></mask><g stroke-linecap="round"><g stroke-opacity="0.5" fill-opacity="0.5" transform="translate(151.58349911663026 83.4893828733168) rotate(0 0 42.869360538451815)"><path d="M0 0 C-1.37 28.91, -1.7 60.47, 0 85.74" stroke="#495057" stroke-width="1.5" fill="none" stroke-dasharray="8 9"></path></g></g><mask></mask><g stroke-linecap="round"><g stroke-opacity="0.6" fill-opacity="0.6" transform="translate(152.55342184011533 176.11703691731236) rotate(0 -2.424807718690545 -2.424807718690431)"><path d="M0 0 C-1.88 -2.14, -3.84 -3.99, -4.85 -4.85 M0 0 C-1.97 -1.83, -3.7 -3.79, -4.85 -4.85" stroke="#343a40" stroke-width="1" fill="none"></path></g></g><mask></mask><g stroke-linecap="round"><g stroke-opacity="0.6" fill-opacity="0.6" transform="translate(155.4631916462822 171.7523830236696) rotate(0 -1.4548846312143269 2.1823269468213766)"><path d="M0 0 C-0.56 0.8, -1.04 1.9, -2.91 4.36 M0 0 C-0.72 1, -1.45 2.18, -2.91 4.36" stroke="#343a40" stroke-width="1" fill="none"></path></g></g><mask></mask><g stroke-linecap="round"><g stroke-opacity="0.6" fill-opacity="0.6" transform="translate(10 157.5041476548838) rotate(0 4.364653893642753 1.2124038593452724)"><path d="M0 0 C1.13 1.32, 1.76 2.09, 4.36 5.33 M0 0 C1.41 1.83, 2.87 3.45, 4.36 5.33 M4.36 5.33 C5.81 3.03, 6.71 0.4, 8.73 -2.91 M4.36 5.33 C5.32 3.42, 6.27 1.38, 8.73 -2.91" stroke="#343a40" stroke-width="1" fill="none"></path></g></g><mask></mask><g stroke-linecap="round"><g transform="translate(66.2430194069616 23.991919565537955) rotate(0 20 23.466853307035308)" fill-rule="evenodd"><path d="M2.36 0.71 C-1.16 -0.1, -20.78 -6.75, -24.9 -4.04 C-29.02 -1.33, -19.53 13.75, -22.36 16.97 C-25.18 20.19, -36.31 11.44, -41.85 15.27 C-47.39 19.11, -56.72 33.48, -55.58 39.99 C-54.44 46.5, -41.37 54.19, -35 54.35 C-28.63 54.5, -21.71 39.78, -17.35 40.93 C-13 42.08, -12.97 59.27, -8.85 61.25 C-4.73 63.23, 0.7 55.36, 7.34 52.81 C13.99 50.26, 24.02 45.35, 31.02 45.95 C38.02 46.55, 44.75 55.89, 49.33 56.42 C53.92 56.94, 52.85 50.15, 58.53 49.1 C64.2 48.06, 78.1 54.23, 83.39 50.14 C88.68 46.06, 88.56 31.46, 90.27 24.59 C91.98 17.72, 96.95 13.52, 93.64 8.91 C90.34 4.3, 75.76 -2.26, 70.46 -3.07 C65.16 -3.89, 65.55 5.85, 61.85 4 C58.15 2.16, 52.6 -12.06, 48.25 -14.16 C43.89 -16.26, 40.31 -10.47, 35.71 -8.59 C31.1 -6.7, 25.2 -2.54, 20.61 -2.84 C16.01 -3.15, 11 -10.77, 8.13 -10.41 C5.27 -10.04, 4.83 -1.72, 3.43 -0.68" stroke="none" stroke-width="0" fill="#ced4da" fill-rule="evenodd"></path><path d="M0.21 -2.05 C-3.42 -2.94, -20.23 -7.54, -24.42 -4.55 C-28.6 -1.56, -22.55 12.04, -24.92 15.9 C-27.28 19.77, -33.64 14.25, -38.61 18.66 C-43.58 23.07, -55.44 37.39, -54.75 42.37 C-54.05 47.34, -40.36 48.38, -34.43 48.51 C-28.5 48.64, -24.05 41.11, -19.16 43.13 C-14.26 45.16, -9.95 59.03, -5.04 60.65 C-0.12 62.26, 4.72 55.27, 10.33 52.83 C15.94 50.4, 22.84 45.43, 28.62 46.06 C34.39 46.68, 39.42 56.3, 44.98 56.58 C50.55 56.86, 56.03 49.4, 62 47.74 C67.97 46.08, 75.63 50.07, 80.78 46.63 C85.93 43.2, 91.35 33.42, 92.9 27.12 C94.45 20.82, 93.6 13.21, 90.07 8.83 C86.55 4.45, 76.69 1.69, 71.76 0.83 C66.83 -0.03, 65.41 5.76, 60.5 3.68 C55.58 1.61, 47.34 -8.86, 42.28 -11.61 C37.22 -14.35, 33.14 -14.7, 30.12 -12.78 C27.1 -10.86, 27.85 -0.74, 24.15 -0.08 C20.46 0.58, 12.3 -8.68, 7.97 -8.83 C3.64 -8.98, -0.77 -2.36, -1.83 -0.96 M-3.13 3.01 C-6.95 1.24, -23.09 -11.16, -27.01 -8.64 C-30.94 -6.12, -24.86 14.5, -26.68 18.15 C-28.5 21.8, -34.04 8.96, -37.95 13.25 C-41.86 17.54, -49.99 37.23, -50.12 43.89 C-50.26 50.55, -44.24 52.59, -38.75 53.2 C-33.26 53.82, -22.55 46.37, -17.18 47.58 C-11.81 48.8, -11.83 60.15, -6.54 60.5 C-1.25 60.85, 8.59 52.45, 14.57 49.7 C20.54 46.95, 24.16 42.66, 29.31 43.99 C34.47 45.32, 40.55 55.99, 45.52 57.67 C50.49 59.35, 53.39 56.26, 59.13 54.06 C64.86 51.86, 74.66 49.08, 79.93 44.48 C85.21 39.88, 88.95 32.62, 90.77 26.46 C92.6 20.31, 93.72 11.26, 90.89 7.56 C88.06 3.85, 78.02 4.52, 73.8 4.24 C69.59 3.96, 70.18 8.4, 65.61 5.87 C61.05 3.35, 51.64 -7.9, 46.41 -10.93 C41.17 -13.97, 37.59 -13.62, 34.2 -12.33 C30.81 -11.04, 30.8 -3.52, 26.04 -3.19 C21.29 -2.85, 10.36 -11.51, 5.67 -10.31 C0.97 -9.12, -1.6 2.7, -2.15 3.96" stroke="#343a40" stroke-width="1" fill="none"></path></g></g><mask></mask><g stroke-linecap="round"><g transform="translate(82.30757533678207 75.36321689821852) rotate(0 4.604046278324859 21.437590483449753)" fill-rule="evenodd"><path d="M-0.96 1.99 L-2.57 16.44 L8.07 12.02 L0.83 46.46 L15.43 4.53 L5.33 7.07 L6.57 -1.25" stroke="none" stroke-width="0" fill="#fab005" fill-rule="evenodd"></path><path d="M1.05 0.05 C-2.43 5.21, -2.06 9.63, -3.63 17.81 M0.52 0.37 C-1.08 3.42, -2.33 6.15, -4.44 15.99 M-4.49 16.3 C-0.64 15.02, 3.37 12.85, 7.57 10.75 M-4.86 16.63 C-0.18 15.37, 3.39 13.67, 6.78 11 M7.57 12.3 C5 22.54, 3.23 36.18, 0.05 43.18 M7.48 11.93 C5.94 18.58, 3.13 28.24, -0.59 44.65 M-0.83 43.4 C4.05 32.1, 10.05 18.08, 12.19 5.99 M0.36 44.85 C5.24 31.79, 9.25 21.12, 13.03 4.14 M13.36 4.25 C9.35 5.45, 6.27 6.82, 2.47 8.5 M13.68 4.33 C10.74 5.8, 7.05 7.03, 3.78 8.29 M4.33 7.84 C4.49 5.58, 5.62 4.07, 7.28 -1.44 M3.21 8.31 C4.46 5.81, 5.14 2.5, 6.38 -1.64 M6.63 -1.97 C4.83 -0.84, 2.12 -0.97, -0.32 -0.1 M6.74 -1.73 C4.6 -1.29, 3.05 -0.65, -0.18 -0.32" stroke="#343a40" stroke-width="1" fill="none"></path></g></g><mask></mask></svg>