<svg version="1.1" xmlns="http://www.w3.org/2000/svg" viewBox="0 0 1347.8051954256166 920.1499136355809" width="1347.8051954256166" height="920.1499136355809" class="excalidraw-svg"><!-- svg-source:excalidraw --><metadata></metadata><defs><style class="style-fonts">
      </style></defs><g stroke-linecap="round" transform="translate(10 10) rotate(0 323.73143589731694 450.07495681779045)"><path d="M7.86 8.16 C7.86 8.16, 7.86 8.16, 7.86 8.16 M7.86 8.16 C7.86 8.16, 7.86 8.16, 7.86 8.16 M0.78 28.5 C7.39 20.89, 14.01 13.28, 25.05 0.58 M0.78 28.5 C8.84 19.22, 16.91 9.94, 25.05 0.58 M0.26 41.3 C11 28.93, 21.75 16.57, 36.34 -0.21 M0.26 41.3 C13.33 26.25, 26.41 11.21, 36.34 -0.21 M0.39 53.34 C14.64 36.94, 28.9 20.54, 46.97 -0.25 M0.39 53.34 C16.67 34.61, 32.95 15.88, 46.97 -0.25 M0.52 65.38 C14.66 49.12, 28.79 32.86, 57.6 -0.28 M0.52 65.38 C12.11 52.04, 23.71 38.71, 57.6 -0.28 M0 78.17 C18.96 56.36, 37.93 34.54, 67.57 0.44 M0 78.17 C22.5 52.29, 45 26.4, 67.57 0.44 M0.13 90.22 C18.06 69.59, 35.99 48.97, 78.2 0.41 M0.13 90.22 C18.89 68.64, 37.64 47.06, 78.2 0.41 M0.26 102.26 C30.85 67.07, 61.43 31.89, 88.83 0.37 M0.26 102.26 C18.65 81.11, 37.04 59.96, 88.83 0.37 M0.4 114.3 C36.44 72.83, 72.48 31.37, 99.46 0.34 M0.4 114.3 C29.14 81.23, 57.89 48.16, 99.46 0.34 M0.53 126.34 C29.69 92.8, 58.85 59.25, 110.09 0.3 M0.53 126.34 C23.11 100.37, 45.68 74.4, 110.09 0.3 M0.01 139.13 C40.74 92.28, 81.47 45.43, 120.72 0.27 M0.01 139.13 C39.48 93.72, 78.96 48.31, 120.72 0.27 M0.14 151.17 C42.96 101.91, 85.78 52.65, 131.35 0.23 M0.14 151.17 C48.55 95.48, 96.96 39.79, 131.35 0.23 M0.27 163.22 C43.45 113.54, 86.63 63.87, 141.98 0.2 M0.27 163.22 C54.51 100.82, 108.75 38.43, 141.98 0.2 M0.41 175.26 C34.88 135.6, 69.34 95.95, 152.61 0.16 M0.41 175.26 C37.64 132.42, 74.88 89.59, 152.61 0.16 M0.54 187.3 C63.56 114.8, 126.58 42.31, 163.24 0.13 M0.54 187.3 C40.74 141.05, 80.95 94.8, 163.24 0.13 M0.02 200.09 C66.79 123.28, 133.57 46.46, 173.87 0.09 M0.02 200.09 C67.7 122.24, 135.38 44.38, 173.87 0.09 M0.15 212.13 C69.1 132.82, 138.04 53.51, 184.5 0.06 M0.15 212.13 C67.94 134.15, 135.73 56.17, 184.5 0.06 M0.28 224.17 C45.9 171.7, 91.51 119.23, 195.13 0.03 M0.28 224.17 C52.29 164.35, 104.29 104.53, 195.13 0.03 M0.42 236.22 C45.73 184.09, 91.04 131.97, 205.76 -0.01 M0.42 236.22 C72.28 153.55, 144.14 70.88, 205.76 -0.01 M-0.11 249.01 C71.01 167.2, 142.13 85.39, 216.39 -0.04 M-0.11 249.01 C75.51 162.03, 151.12 75.05, 216.39 -0.04 M0.03 261.05 C79.57 169.55, 159.11 78.05, 227.02 -0.08 M0.03 261.05 C58.37 193.94, 116.71 126.82, 227.02 -0.08 M0.16 273.09 C56.33 208.48, 112.49 143.87, 237.65 -0.11 M0.16 273.09 C51.45 214.09, 102.75 155.08, 237.65 -0.11 M0.29 285.13 C87.98 184.27, 175.66 83.4, 248.28 -0.15 M0.29 285.13 C77.16 196.71, 154.02 108.29, 248.28 -0.15 M0.43 297.17 C63.63 224.47, 126.83 151.76, 258.91 -0.18 M0.43 297.17 C66.21 221.5, 132 145.82, 258.91 -0.18 M-0.1 309.97 C77.46 220.75, 155.02 131.52, 269.54 -0.22 M-0.1 309.97 C104.41 189.75, 208.91 69.53, 269.54 -0.22 M0.04 322.01 C71.79 239.47, 143.54 156.93, 280.17 -0.25 M0.04 322.01 C100.91 205.97, 201.77 89.94, 280.17 -0.25 M0.17 334.05 C109.83 207.9, 219.49 81.76, 290.8 -0.28 M0.17 334.05 C95.07 224.88, 189.97 115.71, 290.8 -0.28 M0.3 346.09 C88.08 245.12, 175.85 144.15, 300.78 0.44 M0.3 346.09 C71.13 264.61, 141.96 183.13, 300.78 0.44 M0.44 358.13 C98.21 245.65, 195.99 133.17, 311.41 0.4 M0.44 358.13 C69.25 278.97, 138.06 199.81, 311.41 0.4 M-0.09 370.93 C125.69 226.24, 251.46 81.56, 322.04 0.37 M-0.09 370.93 C94.08 262.6, 188.25 154.28, 322.04 0.37 M0.05 382.97 C119.15 245.96, 238.25 108.95, 332.67 0.33 M0.05 382.97 C107.85 258.96, 215.65 134.95, 332.67 0.33 M0.18 395.01 C105.27 274.12, 210.35 153.24, 343.3 0.3 M0.18 395.01 C119.78 257.43, 239.38 119.85, 343.3 0.3 M0.31 407.05 C83.22 311.67, 166.14 216.3, 353.93 0.26 M0.31 407.05 C122.33 266.68, 244.35 126.32, 353.93 0.26 M0.45 419.09 C77.61 330.33, 154.77 241.56, 364.56 0.23 M0.45 419.09 C120.94 280.48, 241.43 141.87, 364.56 0.23 M-0.08 431.89 C88.88 329.55, 177.84 227.21, 375.19 0.19 M-0.08 431.89 C132.04 279.9, 264.16 127.91, 375.19 0.19 M0.06 443.93 C153.17 267.79, 306.29 91.65, 385.82 0.16 M0.06 443.93 C144.21 278.09, 288.37 112.26, 385.82 0.16 M0.19 455.97 C129.56 307.15, 258.92 158.33, 396.45 0.12 M0.19 455.97 C107.51 332.51, 214.83 209.06, 396.45 0.12 M0.32 468.01 C150.01 295.82, 299.69 123.62, 407.08 0.09 M0.32 468.01 C130.08 318.74, 259.84 169.47, 407.08 0.09 M0.46 480.05 C96.63 369.41, 192.81 258.77, 417.71 0.06 M0.46 480.05 C161.04 295.32, 321.62 110.59, 417.71 0.06 M-0.07 492.85 C149.47 320.83, 299 148.81, 428.34 0.02 M-0.07 492.85 C92.8 386.01, 185.67 279.18, 428.34 0.02 M0.07 504.89 C151.11 331.13, 302.16 157.37, 438.97 -0.01 M0.07 504.89 C103.43 385.99, 206.79 267.08, 438.97 -0.01 M0.2 516.93 C171.49 319.88, 342.78 122.84, 449.6 -0.05 M0.2 516.93 C101.2 400.74, 202.2 284.55, 449.6 -0.05 M0.33 528.97 C105.92 407.5, 211.51 286.03, 460.23 -0.08 M0.33 528.97 C148.36 358.68, 296.4 188.39, 460.23 -0.08 M0.47 541.01 C105.17 420.56, 209.88 300.1, 470.86 -0.12 M0.47 541.01 C145.57 374.09, 290.67 207.16, 470.86 -0.12 M-0.06 553.81 C152.22 378.64, 304.49 203.47, 481.49 -0.15 M-0.06 553.81 C96.72 442.48, 193.5 331.14, 481.49 -0.15 M0.08 565.85 C122.52 424.99, 244.96 284.14, 492.12 -0.19 M0.08 565.85 C168.02 372.65, 335.96 179.46, 492.12 -0.19 M0.21 577.89 C101 461.94, 201.79 346, 502.75 -0.22 M0.21 577.89 C194.97 353.84, 389.72 129.8, 502.75 -0.22 M0.34 589.93 C181.21 381.87, 362.07 173.81, 513.38 -0.25 M0.34 589.93 C105.23 469.26, 210.12 348.6, 513.38 -0.25 M0.48 601.97 C181.59 393.62, 362.7 185.27, 523.35 0.47 M0.48 601.97 C133.38 449.08, 266.29 296.19, 523.35 0.47 M-0.05 614.76 C130 465.16, 260.05 315.56, 533.98 0.43 M-0.05 614.76 C153.15 438.53, 306.35 262.3, 533.98 0.43 M0.09 626.81 C209.51 385.89, 418.94 144.97, 544.61 0.4 M0.09 626.81 C180.47 419.29, 360.86 211.78, 544.61 0.4 M0.22 638.85 C193.83 416.13, 387.43 193.41, 555.24 0.36 M0.22 638.85 C214.11 392.79, 428 146.74, 555.24 0.36 M0.35 650.89 C121.01 512.09, 241.66 373.29, 565.87 0.33 M0.35 650.89 C117.43 516.2, 234.51 381.52, 565.87 0.33 M0.49 662.93 C180.58 455.75, 360.68 248.57, 576.5 0.29 M0.49 662.93 C118.32 527.37, 236.16 391.81, 576.5 0.29 M-0.04 675.72 C174.9 474.48, 349.84 273.24, 587.14 0.26 M-0.04 675.72 C133.53 522.08, 267.09 368.43, 587.14 0.26 M0.1 687.76 C177.26 483.96, 354.43 280.15, 597.77 0.22 M0.1 687.76 C153.64 511.13, 307.18 334.5, 597.77 0.22 M0.23 699.81 C225.76 440.36, 451.3 180.91, 608.4 0.19 M0.23 699.81 C241.32 422.46, 482.42 145.11, 608.4 0.19 M0.36 711.85 C172.61 513.7, 344.86 315.55, 618.37 0.91 M0.36 711.85 C224.45 454.06, 448.54 196.28, 618.37 0.91 M0.49 723.89 C208.58 484.52, 416.66 245.15, 627.69 2.38 M0.49 723.89 C173.32 525.07, 346.15 326.26, 627.69 2.38 M-0.03 736.68 C225.84 476.85, 451.71 217.01, 635.69 5.37 M-0.03 736.68 C222.29 480.94, 444.6 225.19, 635.69 5.37 M0.11 748.72 C223.11 492.18, 446.12 235.64, 641.73 10.62 M0.11 748.72 C182.52 538.88, 364.94 329.03, 641.73 10.62 M0.24 760.76 C154.62 583.17, 309 405.57, 645.8 18.13 M0.24 760.76 C228.83 497.8, 457.42 234.84, 645.8 18.13 M0.37 772.81 C228.5 510.37, 456.63 247.94, 647.9 27.91 M0.37 772.81 C259.35 474.89, 518.32 176.97, 647.9 27.91 M0.5 784.85 C233.88 516.38, 467.25 247.92, 648.03 39.95 M0.5 784.85 C207.35 546.89, 414.21 308.94, 648.03 39.95 M-0.02 797.64 C225.05 538.73, 450.12 279.81, 648.17 51.99 M-0.02 797.64 C166.93 605.59, 333.88 413.54, 648.17 51.99 M0.11 809.68 C237.38 536.74, 474.64 263.8, 647.64 64.78 M0.11 809.68 C192.59 588.27, 385.06 366.85, 647.64 64.78 M0.25 821.72 C195.01 597.68, 389.77 373.63, 647.78 76.83 M0.25 821.72 C162.16 635.46, 324.08 449.2, 647.78 76.83 M0.38 833.76 C143.94 668.62, 287.5 503.47, 647.91 88.87 M0.38 833.76 C224.93 575.45, 449.49 317.13, 647.91 88.87 M0.51 845.81 C161.46 660.66, 322.4 475.52, 648.04 100.91 M0.51 845.81 C148.23 675.88, 295.94 505.96, 648.04 100.91 M-0.01 858.6 C199.62 628.95, 399.25 399.31, 648.18 112.95 M-0.01 858.6 C152.44 683.23, 304.89 507.86, 648.18 112.95 M0.78 869.89 C255.24 577.16, 509.7 284.44, 647.65 125.74 M0.78 869.89 C130.34 720.85, 259.89 571.81, 647.65 125.74 M2.23 880.42 C211.49 639.69, 420.75 398.96, 647.79 137.78 M2.23 880.42 C220.03 629.86, 437.84 379.31, 647.79 137.78 M5.64 888.69 C137.45 737.05, 269.27 585.41, 647.92 149.82 M5.64 888.69 C155.21 716.62, 304.79 544.55, 647.92 149.82 M11.02 894.69 C257.11 611.59, 503.21 328.5, 648.05 161.87 M11.02 894.69 C225.14 648.38, 439.25 402.06, 648.05 161.87 M18.37 898.43 C220.74 665.63, 423.11 432.83, 648.19 173.91 M18.37 898.43 C238.84 644.8, 459.32 391.18, 648.19 173.91 M27.69 899.9 C230.87 666.17, 434.05 432.44, 647.66 186.7 M27.69 899.9 C227.27 670.31, 426.85 440.71, 647.66 186.7 M37.66 900.62 C187.75 727.97, 337.83 555.32, 647.8 198.74 M37.66 900.62 C180.3 736.54, 322.93 572.46, 647.8 198.74 M48.29 900.59 C287.46 625.45, 526.63 350.32, 647.93 210.78 M48.29 900.59 C224.09 698.36, 399.89 496.13, 647.93 210.78 M58.92 900.55 C206.68 730.57, 354.45 560.59, 648.06 222.82 M58.92 900.55 C249.68 681.11, 440.44 461.67, 648.06 222.82 M69.55 900.52 C282.13 655.98, 494.7 411.44, 648.2 234.87 M69.55 900.52 C217.71 730.08, 365.87 559.64, 648.2 234.87 M80.18 900.49 C235.97 721.27, 391.76 542.05, 647.67 247.66 M80.18 900.49 C260.48 693.08, 440.77 485.68, 647.67 247.66 M90.81 900.45 C212.29 760.71, 333.76 620.97, 647.81 259.7 M90.81 900.45 C271.57 692.51, 452.34 484.57, 647.81 259.7 M101.44 900.42 C223.35 760.18, 345.26 619.94, 647.94 271.74 M101.44 900.42 C249.49 730.11, 397.53 559.8, 647.94 271.74 M112.07 900.38 C247.71 744.35, 383.34 588.32, 648.07 283.78 M112.07 900.38 C230.22 764.47, 348.37 628.55, 648.07 283.78 M122.7 900.35 C264.36 737.39, 406.01 574.43, 648.21 295.82 M122.7 900.35 C278.56 721.05, 434.42 541.76, 648.21 295.82 M133.33 900.31 C334.68 668.69, 536.03 437.06, 647.68 308.62 M133.33 900.31 C325.37 679.4, 517.4 458.49, 647.68 308.62 M143.96 900.28 C322.48 694.91, 501 489.55, 647.82 320.66 M143.96 900.28 C277.88 746.22, 411.8 592.16, 647.82 320.66 M154.59 900.24 C287.67 747.16, 420.74 594.08, 647.95 332.7 M154.59 900.24 C263.49 774.97, 372.39 649.7, 647.95 332.7 M165.22 900.21 C302.74 742.01, 440.27 583.81, 648.08 344.74 M165.22 900.21 C313.63 729.49, 462.03 558.77, 648.08 344.74 M175.85 900.17 C337.14 714.64, 498.42 529.1, 648.22 356.78 M175.85 900.17 C321.25 732.92, 466.64 565.66, 648.22 356.78 M185.83 900.89 C294.71 775.64, 403.58 650.39, 647.69 369.58 M185.83 900.89 C328.03 737.31, 470.23 573.73, 647.69 369.58 M196.46 900.86 C366.79 704.91, 537.12 508.97, 647.83 381.62 M196.46 900.86 C371.42 699.59, 546.37 498.33, 647.83 381.62 M207.09 900.83 C316.85 774.56, 426.61 648.29, 647.96 393.66 M207.09 900.83 C300.5 793.37, 393.91 685.91, 647.96 393.66 M217.72 900.79 C375.01 719.85, 532.31 538.9, 648.09 405.7 M217.72 900.79 C355.89 741.85, 494.05 582.9, 648.09 405.7 M228.35 900.76 C368.4 739.64, 508.46 578.53, 648.23 417.74 M228.35 900.76 C363.38 745.42, 498.41 590.09, 648.23 417.74 M238.98 900.72 C325.19 801.55, 411.4 702.37, 647.7 430.54 M238.98 900.72 C392.97 723.58, 546.95 546.44, 647.7 430.54 M249.61 900.69 C395.26 733.13, 540.92 565.57, 647.84 442.58 M249.61 900.69 C407.75 718.77, 565.89 536.85, 647.84 442.58 M260.24 900.65 C351.76 795.37, 443.29 690.08, 647.97 454.62 M260.24 900.65 C388.67 752.91, 517.1 605.17, 647.97 454.62 M270.87 900.62 C417.61 731.81, 564.35 563, 648.1 466.66 M270.87 900.62 C405.29 745.99, 539.71 591.36, 648.1 466.66 M281.5 900.58 C384.32 782.3, 487.14 664.02, 648.24 478.7 M281.5 900.58 C416.75 744.99, 552 589.4, 648.24 478.7 M292.13 900.55 C403.74 772.15, 515.36 643.75, 647.71 491.5 M292.13 900.55 C425.46 747.18, 558.78 593.8, 647.71 491.5 M302.76 900.52 C371.98 820.88, 441.21 741.25, 647.85 503.54 M302.76 900.52 C434.43 749.05, 566.1 597.58, 647.85 503.54 M313.39 900.48 C386.41 816.48, 459.44 732.47, 647.98 515.58 M313.39 900.48 C442.71 751.71, 572.03 602.95, 647.98 515.58 M324.02 900.45 C444.14 762.26, 564.27 624.07, 648.11 527.62 M324.02 900.45 C411.34 800, 498.66 699.55, 648.11 527.62 M334.65 900.41 C412.13 811.28, 489.61 722.15, 648.25 539.66 M334.65 900.41 C454.54 762.49, 574.44 624.57, 648.25 539.66 M345.28 900.38 C460.69 767.61, 576.11 634.84, 647.72 552.46 M345.28 900.38 C417.91 816.82, 490.55 733.27, 647.72 552.46 M355.91 900.34 C447.15 795.38, 538.4 690.41, 647.86 564.5 M355.91 900.34 C446.86 795.71, 537.81 691.09, 647.86 564.5 M366.54 900.31 C462.72 789.66, 558.9 679.02, 647.99 576.54 M366.54 900.31 C453.59 800.17, 540.64 700.03, 647.99 576.54 M377.17 900.27 C483.93 777.46, 590.69 654.65, 648.12 588.58 M377.17 900.27 C480.44 781.48, 583.7 662.69, 648.12 588.58 M387.8 900.24 C485.86 787.43, 583.93 674.62, 648.25 600.62 M387.8 900.24 C439.94 840.25, 492.09 780.27, 648.25 600.62 M398.43 900.2 C457.78 831.93, 517.13 763.65, 647.73 613.42 M398.43 900.2 C487.14 798.15, 575.85 696.1, 647.73 613.42 M409.06 900.17 C487.53 809.9, 566 719.64, 647.87 625.46 M409.06 900.17 C467.34 833.12, 525.63 766.07, 647.87 625.46 M419.03 900.89 C478.21 832.82, 537.38 764.75, 648 637.5 M419.03 900.89 C478.17 832.86, 537.31 764.83, 648 637.5 M429.66 900.86 C485.98 836.07, 542.3 771.28, 648.13 649.54 M429.66 900.86 C490.81 830.52, 551.95 760.19, 648.13 649.54 M440.29 900.82 C489.39 844.35, 538.48 787.88, 648.26 661.58 M440.29 900.82 C496.2 836.51, 552.11 772.19, 648.26 661.58 M450.92 900.79 C518.07 823.54, 585.22 746.3, 647.74 674.37 M450.92 900.79 C520.68 820.54, 590.43 740.3, 647.74 674.37 M461.55 900.75 C502.36 853.81, 543.18 806.86, 647.87 686.42 M461.55 900.75 C503.61 852.38, 545.66 804, 647.87 686.42 M472.18 900.72 C537.75 825.29, 603.31 749.87, 648.01 698.46 M472.18 900.72 C511.27 855.75, 550.36 810.79, 648.01 698.46 M482.81 900.68 C519.63 858.33, 556.45 815.98, 648.14 710.5 M482.81 900.68 C536.53 838.89, 590.25 777.09, 648.14 710.5 M493.44 900.65 C534.38 853.55, 575.32 806.46, 648.27 722.54 M493.44 900.65 C531.53 856.84, 569.61 813.03, 648.27 722.54 M504.07 900.61 C551.42 846.15, 598.77 791.68, 647.75 735.33 M504.07 900.61 C535.73 864.2, 567.38 827.79, 647.75 735.33 M514.7 900.58 C560.56 847.83, 606.41 795.08, 647.88 747.37 M514.7 900.58 C554.08 855.28, 593.46 809.98, 647.88 747.37 M525.33 900.55 C573.08 845.62, 620.84 790.68, 648.02 759.42 M525.33 900.55 C565.02 854.89, 604.71 809.23, 648.02 759.42 M535.96 900.51 C564.95 867.17, 593.93 833.83, 648.15 771.46 M535.96 900.51 C563.95 868.32, 591.93 836.12, 648.15 771.46 M546.59 900.48 C578.79 863.44, 610.98 826.41, 647.63 784.25 M546.59 900.48 C577.31 865.14, 608.02 829.81, 647.63 784.25 M557.22 900.44 C581.62 872.38, 606.02 844.31, 647.76 796.29 M557.22 900.44 C583.77 869.91, 610.31 839.38, 647.76 796.29 M567.85 900.41 C584.01 881.82, 600.16 863.24, 647.89 808.33 M567.85 900.41 C598.99 864.59, 630.13 828.77, 647.89 808.33 M578.48 900.37 C603.37 871.75, 628.26 843.12, 648.03 820.37 M578.48 900.37 C593.82 882.73, 609.15 865.1, 648.03 820.37 M589.12 900.34 C612.15 873.85, 635.18 847.35, 648.16 832.41 M589.12 900.34 C604.69 882.43, 620.26 864.51, 648.16 832.41 M599.75 900.3 C615.11 882.63, 630.47 864.95, 647.64 845.21 M599.75 900.3 C615.69 881.96, 631.63 863.62, 647.64 845.21 M610.38 900.27 C617.92 891.59, 625.46 882.91, 647.77 857.25 M610.38 900.27 C624.25 884.31, 638.12 868.36, 647.77 857.25 M621.01 900.24 C628.17 892, 635.33 883.76, 647.25 870.05 M621.01 900.24 C629.92 889.98, 638.84 879.72, 647.25 870.05 M635.57 895.67 C637.47 893.49, 639.37 891.31, 644.1 885.86 M635.57 895.67 C637.37 893.6, 639.18 891.53, 644.1 885.86 M7.74 891.93 C7.74 891.93, 7.74 891.93, 7.74 891.93 M7.74 891.93 C7.74 891.93, 7.74 891.93, 7.74 891.93 M28.09 899.01 C22.51 894.16, 16.94 889.32, 0.92 875.39 M28.09 899.01 C21.47 893.26, 14.85 887.51, 0.92 875.39 M41.64 900.19 C25.51 886.17, 9.38 872.15, 0.13 864.11 M41.64 900.19 C28.65 888.9, 15.66 877.61, 0.13 864.11 M53.68 900.06 C33.87 882.84, 14.06 865.62, 0.09 853.48 M53.68 900.06 C33.11 882.18, 12.54 864.3, 0.09 853.48 M65.72 899.92 C48.18 884.68, 30.65 869.44, 0.06 842.85 M65.72 899.92 C50.16 886.4, 34.61 872.88, 0.06 842.85 M77.76 899.79 C54.18 879.3, 30.61 858.8, 0.02 832.22 M77.76 899.79 C53.95 879.09, 30.14 858.39, 0.02 832.22 M89.8 899.66 C57.05 871.19, 24.3 842.72, -0.01 821.59 M89.8 899.66 C56.52 870.72, 23.23 841.79, -0.01 821.59 M102.59 900.18 C75.88 876.95, 49.16 853.73, -0.05 810.96 M102.59 900.18 C67.39 869.57, 32.18 838.97, -0.05 810.96 M114.64 900.05 C82.31 871.94, 49.98 843.84, -0.08 800.33 M114.64 900.05 C73.06 863.91, 31.49 827.77, -0.08 800.33 M126.68 899.91 C93.41 871, 60.15 842.08, -0.11 789.7 M126.68 899.91 C78.03 857.62, 29.38 815.33, -0.11 789.7 M138.72 899.78 C92.03 859.2, 45.35 818.61, -0.15 779.06 M138.72 899.78 C101.43 867.37, 64.14 834.95, -0.15 779.06 M150.76 899.65 C90.67 847.41, 30.58 795.17, -0.18 768.43 M150.76 899.65 C94.02 850.32, 37.28 801, -0.18 768.43 M163.55 900.17 C120.54 862.78, 77.53 825.39, -0.22 757.8 M163.55 900.17 C122.14 864.17, 80.73 828.17, -0.22 757.8 M175.59 900.04 C118.7 850.58, 61.81 801.12, -0.25 747.17 M175.59 900.04 C136.02 865.63, 96.44 831.23, -0.25 747.17 M187.64 899.9 C128.79 848.75, 69.94 797.59, -0.29 736.54 M187.64 899.9 C133.64 852.97, 79.65 806.03, -0.29 736.54 M199.68 899.77 C127.6 837.11, 55.52 774.45, 0.43 726.57 M199.68 899.77 C141.03 848.79, 82.38 797.8, 0.43 726.57 M211.72 899.64 C136.28 834.06, 60.84 768.49, 0.4 715.94 M211.72 899.64 C158.59 853.45, 105.45 807.26, 0.4 715.94 M224.51 900.16 C178.99 860.59, 133.47 821.01, 0.36 705.31 M224.51 900.16 C156.18 840.76, 87.85 781.36, 0.36 705.31 M236.55 900.03 C146.67 821.89, 56.79 743.76, 0.33 694.68 M236.55 900.03 C181.59 852.25, 126.63 804.48, 0.33 694.68 M248.59 899.89 C197.69 855.64, 146.78 811.39, 0.3 684.05 M248.59 899.89 C190.17 849.1, 131.74 798.31, 0.3 684.05 M260.64 899.76 C159.79 812.1, 58.95 724.44, 0.26 673.42 M260.64 899.76 C201.73 848.55, 142.82 797.35, 0.26 673.42 M272.68 899.63 C193.06 830.42, 113.45 761.21, 0.23 662.79 M272.68 899.63 C212.07 846.94, 151.47 794.26, 0.23 662.79 M285.47 900.15 C200.41 826.21, 115.35 752.26, 0.19 652.16 M285.47 900.15 C218.37 841.82, 151.27 783.49, 0.19 652.16 M297.51 900.02 C221.22 833.7, 144.94 767.38, 0.16 641.53 M297.51 900.02 C220 832.64, 142.48 765.25, 0.16 641.53 M309.55 899.88 C231.87 832.35, 154.18 764.82, 0.12 630.9 M309.55 899.88 C194.92 800.24, 80.29 700.59, 0.12 630.9 M321.59 899.75 C238.93 827.9, 156.27 756.04, 0.09 620.27 M321.59 899.75 C224.41 815.27, 127.22 730.78, 0.09 620.27 M333.64 899.62 C233.18 812.29, 132.73 724.97, 0.05 609.64 M333.64 899.62 C216.67 797.94, 99.7 696.26, 0.05 609.64 M346.43 900.14 C235.54 803.75, 124.66 707.36, 0.02 599.01 M346.43 900.14 C222.64 792.53, 98.84 684.92, 0.02 599.01 M358.47 900.01 C243.49 800.06, 128.52 700.11, -0.02 588.38 M358.47 900.01 C285.96 836.98, 213.46 773.95, -0.02 588.38 M370.51 899.87 C281.96 822.89, 193.4 745.91, -0.05 577.75 M370.51 899.87 C224.59 773.03, 78.67 646.18, -0.05 577.75 M382.55 899.74 C268.01 800.17, 153.46 700.59, -0.08 567.12 M382.55 899.74 C244.95 780.13, 107.35 660.51, -0.08 567.12 M394.59 899.61 C286.3 805.47, 178.01 711.33, -0.12 556.49 M394.59 899.61 C300.94 818.19, 207.28 736.78, -0.12 556.49 M407.39 900.13 C308.05 813.78, 208.71 727.42, -0.15 545.86 M407.39 900.13 C258.71 770.89, 110.04 641.65, -0.15 545.86 M419.43 900 C312.83 807.33, 206.22 714.66, -0.19 535.23 M419.43 900 C305.57 801.02, 191.7 702.04, -0.19 535.23 M431.47 899.86 C311.54 795.61, 191.62 691.36, -0.22 524.6 M431.47 899.86 C272.7 761.85, 113.93 623.83, -0.22 524.6 M443.51 899.73 C322.34 794.4, 201.18 689.07, -0.26 513.97 M443.51 899.73 C293.81 769.6, 144.11 639.46, -0.26 513.97 M456.31 900.25 C300.13 764.49, 143.96 628.73, 0.46 503.99 M456.31 900.25 C353.17 810.59, 250.02 720.93, 0.46 503.99 M468.35 900.12 C284.21 740.05, 100.07 579.98, 0.43 493.36 M468.35 900.12 C358.67 804.78, 248.99 709.44, 0.43 493.36 M480.39 899.99 C338.11 776.3, 195.82 652.62, 0.39 482.73 M480.39 899.99 C381.6 814.11, 282.81 728.23, 0.39 482.73 M492.43 899.85 C322.73 752.34, 153.03 604.82, 0.36 472.1 M492.43 899.85 C384.43 805.98, 276.44 712.1, 0.36 472.1 M504.47 899.72 C396.21 805.61, 287.96 711.51, 0.33 461.47 M504.47 899.72 C363.41 777.1, 222.35 654.48, 0.33 461.47 M517.27 900.24 C401.66 799.75, 286.05 699.25, 0.29 450.84 M517.27 900.24 C358.38 762.13, 199.49 624.01, 0.29 450.84 M529.31 900.11 C375.79 766.66, 222.26 633.2, 0.26 440.21 M529.31 900.11 C407.95 794.62, 286.6 689.13, 0.26 440.21 M541.35 899.98 C328.4 714.86, 115.44 529.74, 0.22 429.58 M541.35 899.98 C340.82 725.66, 140.29 551.34, 0.22 429.58 M553.39 899.85 C369.39 739.9, 185.39 579.95, 0.19 418.95 M553.39 899.85 C363.33 734.63, 173.27 569.41, 0.19 418.95 M565.43 899.71 C347.49 710.26, 129.55 520.81, 0.15 408.32 M565.43 899.71 C430 781.98, 294.56 664.25, 0.15 408.32 M578.23 900.24 C422.69 765.03, 267.16 629.83, 0.12 397.69 M578.23 900.24 C393.73 739.85, 209.23 579.47, 0.12 397.69 M590.27 900.1 C355.51 696.03, 120.76 491.97, 0.08 387.06 M590.27 900.1 C470.71 796.17, 351.15 692.24, 0.08 387.06 M602.31 899.97 C455.54 772.39, 308.78 644.81, 0.05 376.43 M602.31 899.97 C385.05 711.11, 167.8 522.26, 0.05 376.43 M614.35 899.84 C371.38 688.62, 128.4 477.41, 0.01 365.8 M614.35 899.84 C426.63 736.65, 238.91 573.47, 0.01 365.8 M625.63 899.05 C426.7 726.12, 227.77 553.19, -0.02 355.17 M625.63 899.05 C449.98 746.35, 274.32 593.65, -0.02 355.17 M633.9 895.63 C499.97 779.21, 366.04 662.78, -0.05 344.54 M633.9 895.63 C473.9 756.55, 313.91 617.46, -0.05 344.54 M640.66 890.91 C403.3 684.58, 165.94 478.24, -0.09 333.91 M640.66 890.91 C384.7 668.41, 128.74 445.91, -0.09 333.91 M644.4 883.56 C486.67 746.45, 328.95 609.34, -0.12 323.28 M644.4 883.56 C448.03 712.86, 251.66 542.15, -0.12 323.28 M647.38 875.55 C390.37 652.14, 133.36 428.72, -0.16 312.65 M647.38 875.55 C488.8 737.7, 330.22 599.84, -0.16 312.65 M647.35 864.92 C412.46 660.73, 177.57 456.55, -0.19 302.02 M647.35 864.92 C400.05 649.95, 152.75 434.97, -0.19 302.02 M648.07 854.95 C511.72 736.42, 375.38 617.9, -0.23 291.39 M648.07 854.95 C484.1 712.41, 320.12 569.87, -0.23 291.39 M648.03 844.32 C389.11 619.24, 130.19 394.16, -0.26 280.76 M648.03 844.32 C413.78 640.68, 179.53 437.05, -0.26 280.76 M648 833.69 C427.3 641.84, 206.6 449.99, 0.46 270.79 M648 833.69 C474.96 683.26, 301.92 532.84, 0.46 270.79 M647.97 823.06 C482.25 679, 316.54 534.95, 0.42 260.16 M647.97 823.06 C403.16 610.25, 158.35 397.44, 0.42 260.16 M647.93 812.43 C430.5 623.42, 213.07 434.41, 0.39 249.53 M647.93 812.43 C492.98 677.73, 338.04 543.04, 0.39 249.53 M647.9 801.8 C517.91 688.8, 387.93 575.81, 0.36 238.9 M647.9 801.8 C437.47 618.87, 227.04 435.95, 0.36 238.9 M647.86 791.17 C479.7 644.99, 311.54 498.81, 0.32 228.27 M647.86 791.17 C435.21 606.31, 222.55 421.45, 0.32 228.27 M647.83 780.54 C408.57 572.55, 169.31 364.57, 0.29 217.64 M647.83 780.54 C419.4 581.97, 190.97 383.39, 0.29 217.64 M647.79 769.91 C392.48 547.96, 137.16 326.02, 0.25 207.01 M647.79 769.91 C517.18 656.37, 386.57 542.83, 0.25 207.01 M647.76 759.28 C476.18 610.13, 304.61 460.98, 0.22 196.38 M647.76 759.28 C408.18 551.02, 168.61 342.76, 0.22 196.38 M647.72 748.65 C428.56 558.13, 209.39 367.61, 0.18 185.75 M647.72 748.65 C431.38 560.58, 215.04 372.52, 0.18 185.75 M647.69 738.02 C481.16 593.25, 314.63 448.49, 0.15 175.12 M647.69 738.02 C425.63 544.98, 203.56 351.94, 0.15 175.12 M647.66 727.39 C448.01 553.84, 248.37 380.29, 0.11 164.49 M647.66 727.39 C448 553.82, 248.34 380.26, 0.11 164.49 M647.62 716.76 C464.18 557.29, 280.74 397.83, 0.08 153.86 M647.62 716.76 C391.34 493.97, 135.06 271.19, 0.08 153.86 M647.59 706.13 C494.05 572.66, 340.52 439.2, 0.05 143.23 M647.59 706.13 C443.63 528.83, 239.68 351.54, 0.05 143.23 M647.55 695.5 C422.41 499.79, 197.27 304.08, 0.01 132.6 M647.55 695.5 C446.51 520.73, 245.46 345.97, 0.01 132.6 M647.52 684.87 C469.25 529.9, 290.98 374.93, -0.02 121.97 M647.52 684.87 C484.11 542.81, 320.69 400.76, -0.02 121.97 M647.48 674.24 C503.78 549.32, 360.08 424.4, -0.06 111.34 M647.48 674.24 C500.63 546.58, 353.77 418.92, -0.06 111.34 M647.45 663.61 C459.3 500.05, 271.15 336.49, -0.09 100.71 M647.45 663.61 C500.66 536.01, 353.88 408.41, -0.09 100.71 M647.41 652.98 C424.19 458.93, 200.96 264.88, -0.13 90.08 M647.41 652.98 C425.76 460.29, 204.1 267.61, -0.13 90.08 M647.38 642.35 C409.26 435.35, 171.15 228.36, -0.16 79.45 M647.38 642.35 C484.25 500.54, 321.11 358.73, -0.16 79.45 M647.34 631.72 C438.8 450.43, 230.25 269.14, -0.2 68.82 M647.34 631.72 C509.79 512.14, 372.24 392.57, -0.2 68.82 M648.06 621.74 C447.86 447.71, 247.66 273.68, -0.23 58.19 M648.06 621.74 C421.23 424.55, 194.39 227.37, -0.23 58.19 M648.03 611.11 C500.85 483.17, 353.68 355.23, -0.27 47.56 M648.03 611.11 C485.74 470.03, 323.44 328.95, -0.27 47.56 M648 600.48 C432.34 413.01, 216.68 225.54, 0.46 37.58 M648 600.48 C485.97 459.64, 323.95 318.79, 0.46 37.58 M647.96 589.85 C453.75 421.02, 259.53 252.19, 0.42 26.95 M647.96 589.85 C500.91 462.02, 353.86 334.2, 0.42 26.95 M647.93 579.22 C404.49 367.61, 161.06 156, 1.9 17.63 M647.93 579.22 C460.39 416.2, 272.85 253.18, 1.9 17.63 M647.89 568.59 C488.44 429.98, 328.98 291.37, 5.63 10.29 M647.89 568.59 C409.3 361.18, 170.7 153.77, 5.63 10.29 M647.86 557.96 C397.37 340.22, 146.88 122.47, 11.64 4.9 M647.86 557.96 C447.21 383.54, 246.56 209.12, 11.64 4.9 M647.82 547.33 C430.1 358.07, 212.38 168.81, 19.91 1.49 M647.82 547.33 C478.16 399.84, 308.49 252.35, 19.91 1.49 M647.79 536.7 C490.66 400.11, 333.53 263.52, 30.44 0.04 M647.79 536.7 C414.11 333.57, 180.43 130.44, 30.44 0.04 M647.75 526.07 C443.41 348.43, 239.06 170.8, 41.72 -0.74 M647.75 526.07 C424.93 332.37, 202.1 138.67, 41.72 -0.74 M647.72 515.44 C500.9 387.81, 354.07 260.18, 53.76 -0.88 M647.72 515.44 C504.83 391.23, 361.93 267.01, 53.76 -0.88 M647.69 504.81 C456.43 338.55, 265.17 172.29, 65.8 -1.01 M647.69 504.81 C492.8 370.17, 337.9 235.52, 65.8 -1.01 M647.65 494.18 C433.18 307.74, 218.7 121.3, 78.6 -0.49 M647.65 494.18 C493.87 360.5, 340.09 226.82, 78.6 -0.49 M647.62 483.55 C481.92 339.52, 316.23 195.48, 90.64 -0.62 M647.62 483.55 C521.84 374.22, 396.07 264.89, 90.64 -0.62 M647.58 472.92 C502.66 346.94, 357.74 220.97, 102.68 -0.75 M647.58 472.92 C460.14 309.98, 272.7 147.04, 102.68 -0.75 M647.55 462.29 C441.34 283.04, 235.13 103.78, 114.72 -0.89 M647.55 462.29 C506.64 339.8, 365.74 217.32, 114.72 -0.89 M647.51 451.66 C515.29 336.72, 383.07 221.78, 126.76 -1.02 M647.51 451.66 C467.27 294.98, 287.02 138.29, 126.76 -1.02 M647.48 441.03 C541.9 349.25, 436.31 257.47, 139.56 -0.5 M647.48 441.03 C516.53 327.2, 385.59 213.37, 139.56 -0.5 M647.44 430.4 C499.95 302.19, 352.46 173.98, 151.6 -0.63 M647.44 430.4 C514.18 314.55, 380.91 198.71, 151.6 -0.63 M647.41 419.77 C483.95 277.67, 320.48 135.58, 163.64 -0.76 M647.41 419.77 C531.59 319.09, 415.78 218.42, 163.64 -0.76 M647.37 409.14 C519.78 298.22, 392.18 187.3, 175.68 -0.9 M647.37 409.14 C500.28 281.27, 353.19 153.41, 175.68 -0.9 M647.34 398.51 C545.28 309.79, 443.21 221.06, 187.72 -1.03 M647.34 398.51 C509.19 278.42, 371.04 158.33, 187.72 -1.03 M648.06 388.54 C529.84 285.77, 411.62 183, 200.52 -0.51 M648.06 388.54 C476.62 239.5, 305.17 90.47, 200.52 -0.51 M648.03 377.91 C529.33 274.73, 410.64 171.55, 212.56 -0.64 M648.03 377.91 C521.54 267.95, 395.05 158, 212.56 -0.64 M647.99 367.28 C526.62 261.77, 405.25 156.27, 224.6 -0.77 M647.99 367.28 C479.46 220.78, 310.93 74.28, 224.6 -0.77 M647.96 356.65 C496.28 224.79, 344.6 92.94, 236.64 -0.91 M647.96 356.65 C517.97 243.65, 387.98 130.65, 236.64 -0.91 M647.92 346.02 C503.07 220.1, 358.22 94.18, 249.44 -0.38 M647.92 346.02 C496.46 214.35, 345 82.69, 249.44 -0.38 M647.89 335.39 C509.85 215.39, 371.82 95.4, 261.48 -0.52 M647.89 335.39 C554.36 254.08, 460.83 172.78, 261.48 -0.52 M647.85 324.76 C559.01 247.53, 470.17 170.3, 273.52 -0.65 M647.85 324.76 C512.94 207.48, 378.03 90.2, 273.52 -0.65 M647.82 314.13 C520.42 203.38, 393.02 92.63, 285.56 -0.78 M647.82 314.13 C506.15 190.97, 364.47 67.81, 285.56 -0.78 M647.78 303.5 C553.94 221.92, 460.1 140.35, 297.6 -0.92 M647.78 303.5 C550.45 218.88, 453.11 134.26, 297.6 -0.92 M647.75 292.86 C569.12 224.51, 490.49 156.16, 310.4 -0.39 M647.75 292.86 C565.59 221.44, 483.42 150.02, 310.4 -0.39 M647.72 282.23 C539.57 188.23, 431.42 94.22, 322.44 -0.53 M647.72 282.23 C556.77 203.18, 465.83 124.12, 322.44 -0.53 M647.68 271.6 C538.2 176.44, 428.73 81.27, 334.48 -0.66 M647.68 271.6 C541.93 179.67, 436.17 87.74, 334.48 -0.66 M647.65 260.97 C549.77 175.89, 451.9 90.81, 346.52 -0.79 M647.65 260.97 C581.44 203.42, 515.23 145.87, 346.52 -0.79 M647.61 250.34 C585.07 195.98, 522.53 141.61, 358.56 -0.93 M647.61 250.34 C540.83 157.52, 434.05 64.7, 358.56 -0.93 M647.58 239.71 C576.57 177.99, 505.57 116.27, 371.35 -0.4 M647.58 239.71 C547.79 152.97, 448.01 66.23, 371.35 -0.4 M647.54 229.08 C590.48 179.48, 533.41 129.87, 383.39 -0.54 M647.54 229.08 C570.24 161.88, 492.93 94.68, 383.39 -0.54 M647.51 218.45 C557.49 140.2, 467.47 61.95, 395.44 -0.67 M647.51 218.45 C578.45 158.42, 509.39 98.39, 395.44 -0.67 M647.47 207.82 C575.89 145.6, 504.31 83.37, 407.48 -0.8 M647.47 207.82 C594.91 162.13, 542.34 116.43, 407.48 -0.8 M647.44 197.19 C562.88 123.68, 478.31 50.17, 419.52 -0.94 M647.44 197.19 C570.85 130.61, 494.25 64.03, 419.52 -0.94 M647.41 186.56 C587.2 134.23, 527 81.89, 432.31 -0.41 M647.41 186.56 C579 127.1, 510.6 67.64, 432.31 -0.41 M647.37 175.93 C594.24 129.75, 541.1 83.56, 444.35 -0.55 M647.37 175.93 C599.99 134.74, 552.6 93.55, 444.35 -0.55 M647.34 165.3 C581.46 108.04, 515.59 50.77, 456.39 -0.68 M647.34 165.3 C586.84 112.71, 526.34 60.12, 456.39 -0.68 M648.06 155.33 C592.49 107.03, 536.92 58.72, 468.44 -0.81 M648.06 155.33 C601.41 114.78, 554.77 74.24, 468.44 -0.81 M648.02 144.7 C590.25 94.48, 532.48 44.26, 480.48 -0.95 M648.02 144.7 C614.41 115.48, 580.8 86.26, 480.48 -0.95 M647.99 134.07 C615.3 105.65, 582.61 77.24, 493.27 -0.42 M647.99 134.07 C614.51 104.97, 581.04 75.87, 493.27 -0.42 M647.95 123.44 C605.48 86.52, 563 49.59, 505.31 -0.56 M647.95 123.44 C603.42 84.72, 558.88 46.01, 505.31 -0.56 M647.92 112.81 C598.04 69.45, 548.17 26.1, 517.35 -0.69 M647.92 112.81 C607.08 77.31, 566.24 41.81, 517.35 -0.69 M647.88 102.18 C613.58 72.36, 579.27 42.54, 529.39 -0.82 M647.88 102.18 C617.98 76.18, 588.07 50.19, 529.39 -0.82 M647.85 91.55 C620.9 68.12, 593.95 44.69, 541.44 -0.96 M647.85 91.55 C619.54 66.94, 591.24 42.34, 541.44 -0.96 M647.82 80.92 C612.92 50.59, 578.03 20.26, 554.23 -0.43 M647.82 80.92 C612.29 50.04, 576.76 19.15, 554.23 -0.43 M647.78 70.29 C617.3 43.79, 586.82 17.3, 566.27 -0.57 M647.78 70.29 C631.4 56.05, 615.01 41.8, 566.27 -0.57 M647.75 59.66 C629.16 43.5, 610.57 27.34, 578.31 -0.7 M647.75 59.66 C626.2 40.93, 604.66 22.21, 578.31 -0.7 M647.71 49.03 C629.92 33.57, 612.13 18.1, 590.35 -0.83 M647.71 49.03 C627.61 31.55, 607.5 14.08, 590.35 -0.83 M647.68 38.4 C635.84 28.11, 624.01 17.82, 602.39 -0.96 M647.68 38.4 C637.79 29.8, 627.89 21.2, 602.39 -0.96 M647.64 27.77 C636.44 18.03, 625.24 8.3, 615.19 -0.44 M647.64 27.77 C636.12 17.75, 624.6 7.74, 615.19 -0.44 M643.83 13.86 C639.42 10.02, 635 6.18, 629.5 1.39 M643.83 13.86 C639.01 9.67, 634.19 5.48, 629.5 1.39" stroke="#a5d8ff" stroke-width="1" fill="none"></path><path d="M32 0 C203.59 0, 375.17 0, 615.46 0 M32 0 C160.16 0, 288.31 0, 615.46 0 M615.46 0 C636.8 0, 647.46 10.67, 647.46 32 M615.46 0 C636.8 0, 647.46 10.67, 647.46 32 M647.46 32 C647.46 231.26, 647.46 430.52, 647.46 868.15 M647.46 32 C647.46 205.96, 647.46 379.92, 647.46 868.15 M647.46 868.15 C647.46 889.48, 636.8 900.15, 615.46 900.15 M647.46 868.15 C647.46 889.48, 636.8 900.15, 615.46 900.15 M615.46 900.15 C397.57 900.15, 179.69 900.15, 32 900.15 M615.46 900.15 C446.57 900.15, 277.67 900.15, 32 900.15 M32 900.15 C10.67 900.15, 0 889.48, 0 868.15 M32 900.15 C10.67 900.15, 0 889.48, 0 868.15 M0 868.15 C0 538.9, 0 209.65, 0 32 M0 868.15 C0 589.09, 0 310.03, 0 32 M0 32 C0 10.67, 10.67 0, 32 0 M0 32 C0 10.67, 10.67 0, 32 0" stroke="#1e1e1e" stroke-width="2" fill="none"></path></g><g stroke-linecap="round" transform="translate(203.7884464498511 353.04067870639216) rotate(0 129.94298944746424 107.03427811139835)"><path d="M32 0 C83.68 0, 135.36 0, 227.89 0 M32 0 C79.69 0, 127.38 0, 227.89 0 M227.89 0 C249.22 0, 259.89 10.67, 259.89 32 M227.89 0 C249.22 0, 259.89 10.67, 259.89 32 M259.89 32 C259.89 64.22, 259.89 96.44, 259.89 182.07 M259.89 32 C259.89 79.87, 259.89 127.74, 259.89 182.07 M259.89 182.07 C259.89 203.4, 249.22 214.07, 227.89 214.07 M259.89 182.07 C259.89 203.4, 249.22 214.07, 227.89 214.07 M227.89 214.07 C165.32 214.07, 102.76 214.07, 32 214.07 M227.89 214.07 C181.71 214.07, 135.53 214.07, 32 214.07 M32 214.07 C10.67 214.07, 0 203.4, 0 182.07 M32 214.07 C10.67 214.07, 0 203.4, 0 182.07 M0 182.07 C0 139.09, 0 96.12, 0 32 M0 182.07 C0 137.39, 0 92.7, 0 32 M0 32 C0 10.67, 10.67 0, 32 0 M0 32 C0 10.67, 10.67 0, 32 0" stroke="#1e1e1e" stroke-width="2" fill="none"></path></g><g stroke-linecap="round"><g transform="translate(211.48173310076527 517.3020321976077) rotate(0 123.36597299960044 -38.02800623156672)"><path d="M0 0 C14.84 -12.68, 65.04 -71.64, 89.02 -76.06 C113.01 -80.48, 126.24 -29.91, 143.89 -26.52 C161.54 -23.12, 177.79 -56.95, 194.93 -55.69 C212.08 -54.44, 238.1 -25.11, 246.73 -19 M0 0 C14.84 -12.68, 65.04 -71.64, 89.02 -76.06 C113.01 -80.48, 126.24 -29.91, 143.89 -26.52 C161.54 -23.12, 177.79 -56.95, 194.93 -55.69 C212.08 -54.44, 238.1 -25.11, 246.73 -19" stroke="#1e1e1e" stroke-width="2" fill="none"></path></g></g><mask></mask><g stroke-linecap="round" transform="translate(344.4404594048269 389.9788156280587) rotate(0 22.951641385551966 22.951641385552)"><path d="M5.15 8.45 C5.15 8.45, 5.15 8.45, 5.15 8.45 M5.15 8.45 C5.15 8.45, 5.15 8.45, 5.15 8.45 M0.69 25.78 C5.48 20.27, 10.27 14.76, 23 0.12 M0.69 25.78 C7.81 17.59, 14.92 9.4, 23 0.12 M3.45 34.8 C13.72 22.98, 23.99 11.17, 31.66 2.34 M3.45 34.8 C12.98 23.83, 22.52 12.86, 31.66 2.34 M8.83 40.8 C19.99 27.96, 31.15 15.13, 39.01 6.08 M8.83 40.8 C16.26 32.25, 23.69 23.71, 39.01 6.08 M15.52 45.29 C26.63 32.52, 37.74 19.74, 43.73 12.84 M15.52 45.29 C24.94 34.46, 34.35 23.63, 43.73 12.84 M24.84 46.77 C32.33 38.15, 39.82 29.53, 46.49 21.86 M24.84 46.77 C29.19 41.77, 33.53 36.77, 46.49 21.86 M8.36 40.68 C8.36 40.68, 8.36 40.68, 8.36 40.68 M8.36 40.68 C8.36 40.68, 8.36 40.68, 8.36 40.68 M25.69 45.14 C18.73 39.09, 11.76 33.03, 0.03 22.83 M25.69 45.14 C18.86 39.2, 12.03 33.26, 0.03 22.83 M34.71 42.38 C23.73 32.83, 12.75 23.29, 2.26 14.17 M34.71 42.38 C24.01 33.08, 13.31 23.78, 2.26 14.17 M40.71 37 C29.15 26.94, 17.58 16.89, 6.75 7.48 M40.71 37 C27.68 25.67, 14.64 14.33, 6.75 7.48 M45.21 30.3 C34.88 21.33, 24.55 12.35, 12.75 2.09 M45.21 30.3 C34.26 20.78, 23.3 11.26, 12.75 2.09 M46.68 20.99 C38.81 14.14, 30.94 7.3, 21.78 -0.66 M46.68 20.99 C40.38 15.51, 34.09 10.04, 21.78 -0.66" stroke="#a5d8ff" stroke-width="1" fill="none"></path><path d="M45.9 22.95 C45.9 24.28, 45.79 25.63, 45.55 26.94 C45.32 28.25, 44.97 29.55, 44.52 30.8 C44.06 32.05, 43.49 33.28, 42.83 34.43 C42.16 35.58, 41.39 36.69, 40.53 37.7 C39.68 38.72, 38.72 39.68, 37.7 40.53 C36.69 41.39, 35.58 42.16, 34.43 42.83 C33.28 43.49, 32.05 44.06, 30.8 44.52 C29.55 44.97, 28.25 45.32, 26.94 45.55 C25.63 45.79, 24.28 45.9, 22.95 45.9 C21.62 45.9, 20.27 45.79, 18.97 45.55 C17.66 45.32, 16.35 44.97, 15.1 44.52 C13.85 44.06, 12.63 43.49, 11.48 42.83 C10.33 42.16, 9.22 41.39, 8.2 40.53 C7.18 39.68, 6.22 38.72, 5.37 37.7 C4.52 36.69, 3.74 35.58, 3.07 34.43 C2.41 33.28, 1.84 32.05, 1.38 30.8 C0.93 29.55, 0.58 28.25, 0.35 26.94 C0.12 25.63, 0 24.28, 0 22.95 C0 21.62, 0.12 20.27, 0.35 18.97 C0.58 17.66, 0.93 16.35, 1.38 15.1 C1.84 13.85, 2.41 12.63, 3.07 11.48 C3.74 10.33, 4.52 9.22, 5.37 8.2 C6.22 7.18, 7.18 6.22, 8.2 5.37 C9.22 4.52, 10.33 3.74, 11.48 3.07 C12.63 2.41, 13.85 1.84, 15.1 1.38 C16.35 0.93, 17.66 0.58, 18.97 0.35 C20.27 0.12, 21.62 0, 22.95 0 C24.28 0, 25.63 0.12, 26.94 0.35 C28.25 0.58, 29.55 0.93, 30.8 1.38 C32.05 1.84, 33.28 2.41, 34.43 3.07 C35.58 3.74, 36.69 4.52, 37.7 5.37 C38.72 6.22, 39.68 7.18, 40.53 8.2 C41.39 9.22, 42.16 10.33, 42.83 11.48 C43.49 12.63, 44.06 13.85, 44.52 15.1 C44.97 16.35, 45.32 17.66, 45.55 18.97 C45.79 20.27, 45.85 22.29, 45.9 22.95 C45.96 23.62, 45.96 22.29, 45.9 22.95" stroke="#1e1e1e" stroke-width="2" fill="none"></path></g><g stroke-linecap="round" transform="translate(702.696498120124 10) rotate(0 317.5543486527463 207.69869757248205)"><path d="M7.86 8.16 C7.86 8.16, 7.86 8.16, 7.86 8.16 M7.86 8.16 C7.86 8.16, 7.86 8.16, 7.86 8.16 M0.78 28.5 C8.27 19.89, 15.75 11.28, 25.05 0.58 M0.78 28.5 C5.95 22.56, 11.11 16.61, 25.05 0.58 M0.26 41.3 C9.89 30.22, 19.52 19.14, 36.34 -0.21 M0.26 41.3 C9.89 30.22, 19.52 19.13, 36.34 -0.21 M0.39 53.34 C14.07 37.6, 27.75 21.86, 46.97 -0.25 M0.39 53.34 C17.76 33.36, 35.13 13.37, 46.97 -0.25 M0.52 65.38 C20.18 42.76, 39.84 20.15, 57.6 -0.28 M0.52 65.38 C15.01 48.71, 29.5 32.05, 57.6 -0.28 M0 78.17 C16.53 59.16, 33.06 40.15, 67.57 0.44 M0 78.17 C18.3 57.12, 36.6 36.07, 67.57 0.44 M0.13 90.22 C27.37 58.88, 54.61 27.55, 78.2 0.41 M0.13 90.22 C16.8 71.04, 33.46 51.87, 78.2 0.41 M0.26 102.26 C26.89 71.63, 53.51 41, 88.83 0.37 M0.26 102.26 C34.88 62.44, 69.49 22.62, 88.83 0.37 M0.4 114.3 C29.22 81.14, 58.05 47.98, 99.46 0.34 M0.4 114.3 C22.35 89.05, 44.3 63.8, 99.46 0.34 M0.53 126.34 C24.47 98.8, 48.4 71.27, 110.09 0.3 M0.53 126.34 C36.15 85.37, 71.76 44.4, 110.09 0.3 M0.01 139.13 C42.07 90.75, 84.13 42.37, 120.72 0.27 M0.01 139.13 C37.63 95.85, 75.25 52.57, 120.72 0.27 M0.14 151.17 C35.84 110.1, 71.55 69.03, 131.35 0.23 M0.14 151.17 C36.03 109.89, 71.92 68.61, 131.35 0.23 M0.27 163.22 C52.18 103.51, 104.08 43.8, 141.98 0.2 M0.27 163.22 C53.43 102.07, 106.58 40.93, 141.98 0.2 M0.41 175.26 C54.07 113.53, 107.73 51.8, 152.61 0.16 M0.41 175.26 C52.75 115.05, 105.09 54.84, 152.61 0.16 M0.54 187.3 C58.58 120.53, 116.62 53.76, 163.24 0.13 M0.54 187.3 C43 138.45, 85.46 89.61, 163.24 0.13 M0.02 200.09 C46.63 146.47, 93.25 92.84, 173.87 0.09 M0.02 200.09 C43.78 149.75, 87.54 99.41, 173.87 0.09 M0.15 212.13 C73.73 127.49, 147.3 42.85, 184.5 0.06 M0.15 212.13 C51.08 153.54, 102.02 94.95, 184.5 0.06 M0.28 224.17 C47.88 169.42, 95.48 114.66, 195.13 0.03 M0.28 224.17 C43.22 174.78, 86.16 125.38, 195.13 0.03 M0.42 236.22 C70.24 155.9, 140.06 75.58, 205.76 -0.01 M0.42 236.22 C59.1 168.71, 117.79 101.2, 205.76 -0.01 M-0.11 249.01 C48.32 193.3, 96.75 137.59, 216.39 -0.04 M-0.11 249.01 C60.74 179.01, 121.59 109.01, 216.39 -0.04 M0.03 261.05 C66.58 184.5, 133.12 107.94, 227.02 -0.08 M0.03 261.05 C48.17 205.67, 96.31 150.29, 227.02 -0.08 M0.16 273.09 C87.12 173.06, 174.08 73.03, 237.65 -0.11 M0.16 273.09 C88.68 171.26, 177.21 69.42, 237.65 -0.11 M0.29 285.13 C84.49 188.28, 168.68 91.42, 248.28 -0.15 M0.29 285.13 C83.51 189.41, 166.72 93.69, 248.28 -0.15 M0.43 297.17 C90.56 193.48, 180.7 89.79, 258.91 -0.18 M0.43 297.17 C63.04 225.15, 125.65 153.12, 258.91 -0.18 M-0.1 309.97 C61.15 239.51, 122.4 169.05, 269.54 -0.22 M-0.1 309.97 C106.25 187.63, 212.59 65.3, 269.54 -0.22 M0.04 322.01 C74.44 236.42, 148.84 150.84, 280.17 -0.25 M0.04 322.01 C96.44 211.11, 192.85 100.21, 280.17 -0.25 M0.17 334.05 C79.05 243.31, 157.94 152.56, 290.8 -0.28 M0.17 334.05 C82.9 238.88, 165.63 143.72, 290.8 -0.28 M0.3 346.09 C98.91 232.66, 197.52 119.23, 300.78 0.44 M0.3 346.09 C102.73 228.26, 205.16 110.44, 300.78 0.44 M0.44 358.13 C79.67 266.99, 158.9 175.84, 311.41 0.4 M0.44 358.13 C112.43 229.3, 224.42 100.47, 311.41 0.4 M-0.09 370.93 C117.51 235.65, 235.1 100.38, 322.04 0.37 M-0.09 370.93 C65.21 295.81, 130.51 220.69, 322.04 0.37 M0.05 382.97 C108.8 257.87, 217.55 132.76, 332.67 0.33 M0.05 382.97 C110.65 255.74, 221.25 128.5, 332.67 0.33 M1.49 393.5 C111.56 266.88, 221.63 140.26, 343.3 0.3 M1.49 393.5 C106.66 272.52, 211.83 151.54, 343.3 0.3 M4.25 402.52 C110.82 279.92, 217.4 157.32, 353.93 0.26 M4.25 402.52 C134.06 253.19, 263.87 103.86, 353.93 0.26 M9.63 408.53 C138.13 260.71, 266.62 112.89, 364.56 0.23 M9.63 408.53 C130.89 269.03, 252.15 129.54, 364.56 0.23 M16.33 413.02 C149.94 259.31, 283.55 105.61, 375.19 0.19 M16.33 413.02 C89.37 328.99, 162.42 244.95, 375.19 0.19 M24.99 415.25 C156.78 263.64, 288.57 112.03, 385.82 0.16 M24.99 415.25 C168.71 249.92, 312.42 84.59, 385.82 0.16 M34.96 415.97 C172.63 257.6, 310.3 99.23, 396.45 0.12 M34.96 415.97 C112.53 326.74, 190.1 237.51, 396.45 0.12 M45.59 415.94 C128.36 320.72, 211.14 225.5, 407.08 0.09 M45.59 415.94 C146.48 299.87, 247.38 183.81, 407.08 0.09 M56.22 415.9 C182.29 270.88, 308.35 125.85, 417.71 0.06 M56.22 415.9 C181.73 271.52, 307.23 127.15, 417.71 0.06 M66.85 415.87 C199.8 262.93, 332.74 109.99, 428.34 0.02 M66.85 415.87 C209.06 252.28, 351.26 88.69, 428.34 0.02 M77.48 415.83 C208.22 265.43, 338.96 115.04, 438.97 -0.01 M77.48 415.83 C150.54 331.79, 223.6 247.75, 438.97 -0.01 M88.11 415.8 C165.23 327.08, 242.35 238.36, 449.6 -0.05 M88.11 415.8 C181.46 308.41, 274.82 201.02, 449.6 -0.05 M98.74 415.76 C197.22 302.48, 295.69 189.19, 460.23 -0.08 M98.74 415.76 C220.86 275.28, 342.98 134.79, 460.23 -0.08 M109.37 415.73 C223.09 284.91, 336.81 154.09, 470.86 -0.12 M109.37 415.73 C253.47 249.97, 397.56 84.21, 470.86 -0.12 M120 415.69 C192.66 332.11, 265.31 248.53, 481.49 -0.15 M120 415.69 C254.01 261.54, 388.02 107.38, 481.49 -0.15 M130.63 415.66 C216.52 316.86, 302.41 218.05, 492.12 -0.19 M130.63 415.66 C220 312.85, 309.37 210.04, 492.12 -0.19 M141.26 415.62 C226.05 318.08, 310.85 220.54, 502.75 -0.22 M141.26 415.62 C240.63 301.31, 340 187, 502.75 -0.22 M151.89 415.59 C247.92 305.12, 343.94 194.66, 513.38 -0.25 M151.89 415.59 C240.33 313.86, 328.76 212.12, 513.38 -0.25 M162.52 415.56 C280.7 279.61, 398.88 143.66, 523.35 0.47 M162.52 415.56 C264.39 298.37, 366.26 181.18, 523.35 0.47 M173.15 415.52 C281.11 291.33, 389.07 167.14, 533.98 0.43 M173.15 415.52 C295.55 274.71, 417.96 133.91, 533.98 0.43 M183.78 415.49 C256.45 331.89, 329.12 248.3, 544.61 0.4 M183.78 415.49 C321.9 256.6, 460.02 97.71, 544.61 0.4 M194.41 415.45 C322.83 267.72, 451.25 119.99, 555.24 0.36 M194.41 415.45 C298.02 296.26, 401.63 177.07, 555.24 0.36 M204.39 416.17 C292.93 314.31, 381.48 212.45, 565.87 0.33 M204.39 416.17 C285.3 323.09, 366.22 230, 565.87 0.33 M215.02 416.14 C312.83 303.61, 410.65 191.09, 576.5 0.29 M215.02 416.14 C342.4 269.6, 469.79 123.06, 576.5 0.29 M225.65 416.1 C303.04 327.07, 380.44 238.03, 587.14 0.26 M225.65 416.1 C301.89 328.4, 378.13 240.69, 587.14 0.26 M236.28 416.07 C379.18 251.68, 522.08 87.29, 597.77 0.22 M236.28 416.07 C311.02 330.08, 385.77 244.1, 597.77 0.22 M246.91 416.03 C366.92 277.97, 486.93 139.92, 608.4 0.19 M246.91 416.03 C321.81 329.87, 396.71 243.71, 608.4 0.19 M257.54 416 C365.13 292.23, 472.72 168.46, 617.06 2.42 M257.54 416 C340.19 320.92, 422.84 225.84, 617.06 2.42 M268.17 415.97 C406.72 256.58, 545.27 97.2, 624.41 6.16 M268.17 415.97 C351.42 320.19, 434.68 224.41, 624.41 6.16 M278.8 415.93 C373.34 307.17, 467.88 198.41, 630.44 11.41 M278.8 415.93 C352.36 331.3, 425.93 246.68, 630.44 11.41 M289.43 415.9 C372.91 319.86, 456.4 223.82, 633.86 19.67 M289.43 415.9 C416.62 269.57, 543.82 123.25, 633.86 19.67 M300.06 415.86 C369.68 335.77, 439.3 255.69, 635.3 30.21 M300.06 415.86 C380.49 323.34, 460.92 230.82, 635.3 30.21 M310.69 415.83 C413.86 297.14, 517.03 178.46, 636.09 41.49 M310.69 415.83 C392.23 322.02, 473.77 228.22, 636.09 41.49 M321.32 415.79 C427.06 294.15, 532.8 172.51, 635.57 54.29 M321.32 415.79 C392.05 334.42, 462.78 253.05, 635.57 54.29 M331.95 415.76 C424.54 309.25, 517.12 202.74, 635.7 66.33 M331.95 415.76 C444.96 285.75, 557.97 155.75, 635.7 66.33 M342.58 415.72 C428.58 316.79, 514.58 217.86, 635.84 78.37 M342.58 415.72 C452.72 289.02, 562.87 162.31, 635.84 78.37 M353.21 415.69 C428.06 329.58, 502.91 243.48, 635.97 90.41 M353.21 415.69 C462.34 290.15, 571.47 164.61, 635.97 90.41 M363.84 415.66 C427.32 342.63, 490.79 269.61, 636.1 102.45 M363.84 415.66 C448.27 318.53, 532.69 221.41, 636.1 102.45 M374.47 415.62 C458.81 318.6, 543.14 221.58, 635.58 115.25 M374.47 415.62 C427.31 354.83, 480.15 294.05, 635.58 115.25 M385.1 415.59 C467.42 320.88, 549.75 226.18, 635.71 127.29 M385.1 415.59 C474.09 313.21, 563.08 210.84, 635.71 127.29 M395.73 415.55 C485.32 312.49, 574.9 209.43, 635.85 139.33 M395.73 415.55 C465.17 335.66, 534.62 255.78, 635.85 139.33 M406.36 415.52 C468.09 344.51, 529.81 273.5, 635.98 151.37 M406.36 415.52 C462.59 350.83, 518.82 286.14, 635.98 151.37 M416.99 415.48 C499.3 320.79, 581.61 226.1, 636.11 163.41 M416.99 415.48 C498.54 321.67, 580.1 227.85, 636.11 163.41 M427.62 415.45 C502.66 329.12, 577.71 242.79, 635.59 176.21 M427.62 415.45 C473.7 362.43, 519.79 309.42, 635.59 176.21 M437.59 416.17 C488.8 357.27, 540 298.36, 635.72 188.25 M437.59 416.17 C503.93 339.86, 570.26 263.55, 635.72 188.25 M448.22 416.13 C491.09 366.82, 533.96 317.51, 635.86 200.29 M448.22 416.13 C511.11 343.79, 573.99 271.45, 635.86 200.29 M458.85 416.1 C497.2 371.99, 535.54 327.88, 635.99 212.33 M458.85 416.1 C515.25 351.22, 571.65 286.34, 635.99 212.33 M469.48 416.06 C521.6 356.11, 573.72 296.15, 636.12 224.37 M469.48 416.06 C526.68 350.26, 583.88 284.46, 636.12 224.37 M480.11 416.03 C513.06 378.12, 546.02 340.22, 635.6 237.16 M480.11 416.03 C514.65 376.3, 549.18 336.58, 635.6 237.16 M490.74 416 C544.68 353.94, 598.63 291.89, 635.73 249.21 M490.74 416 C521.41 380.72, 552.08 345.44, 635.73 249.21 M501.37 415.96 C538.25 373.54, 575.12 331.12, 635.86 261.25 M501.37 415.96 C528.66 384.57, 555.95 353.17, 635.86 261.25 M512 415.93 C559.34 361.48, 606.67 307.03, 636 273.29 M512 415.93 C538.44 385.51, 564.89 355.09, 636 273.29 M522.63 415.89 C568.01 363.69, 613.38 311.5, 636.13 285.33 M522.63 415.89 C565.26 366.86, 607.89 317.82, 636.13 285.33 M533.26 415.86 C557.26 388.25, 581.26 360.64, 635.61 298.12 M533.26 415.86 C556.77 388.82, 580.27 361.78, 635.61 298.12 M543.89 415.82 C567.08 389.15, 590.27 362.47, 635.74 310.16 M543.89 415.82 C572.61 382.79, 601.33 349.75, 635.74 310.16 M554.52 415.79 C574.06 393.31, 593.6 370.83, 635.87 322.21 M554.52 415.79 C574.84 392.42, 595.15 369.05, 635.87 322.21 M565.15 415.75 C583.8 394.3, 602.45 372.85, 636.01 334.25 M565.15 415.75 C589.57 387.67, 613.98 359.58, 636.01 334.25 M575.78 415.72 C589.41 400.04, 603.04 384.36, 636.14 346.29 M575.78 415.72 C592.09 396.96, 608.41 378.19, 636.14 346.29 M586.41 415.69 C602.66 397, 618.9 378.32, 635.62 359.08 M586.41 415.69 C599.18 400.99, 611.96 386.3, 635.62 359.08 M597.04 415.65 C606.16 405.16, 615.28 394.67, 635.75 371.12 M597.04 415.65 C612.37 398.02, 627.69 380.4, 635.75 371.12 M607.67 415.62 C616.45 405.52, 625.22 395.43, 635.23 383.92 M607.67 415.62 C613.28 409.16, 618.89 402.71, 635.23 383.92 M621.58 411.81 C624.31 408.67, 627.04 405.53, 633.39 398.22 M621.58 411.81 C625.59 407.2, 629.59 402.6, 633.39 398.22 M7.76 407.19 C7.76 407.19, 7.76 407.19, 7.76 407.19 M7.76 407.19 C7.76 407.19, 7.76 407.19, 7.76 407.19 M28.11 414.27 C17.5 405.05, 6.89 395.83, 0.94 390.66 M28.11 414.27 C19.42 406.72, 10.73 399.17, 0.94 390.66 M41.66 415.45 C26.85 402.58, 12.05 389.71, 0.15 379.37 M41.66 415.45 C27.05 402.75, 12.44 390.05, 0.15 379.37 M53.7 415.32 C42.45 405.55, 31.21 395.77, 0.11 368.74 M53.7 415.32 C34.06 398.25, 14.43 381.19, 0.11 368.74 M65.74 415.19 C47.81 399.6, 29.87 384.01, 0.08 358.11 M65.74 415.19 C43.58 395.93, 21.43 376.67, 0.08 358.11 M77.78 415.05 C62.07 401.4, 46.36 387.74, 0.04 347.48 M77.78 415.05 C61.09 400.55, 44.4 386.04, 0.04 347.48 M89.82 414.92 C67.9 395.86, 45.97 376.81, 0.01 336.85 M89.82 414.92 C61.61 390.4, 33.39 365.87, 0.01 336.85 M102.61 415.44 C61.82 379.98, 21.03 344.52, -0.03 326.22 M102.61 415.44 C81.23 396.86, 59.85 378.27, -0.03 326.22 M114.66 415.31 C83.58 388.29, 52.5 361.28, -0.06 315.59 M114.66 415.31 C78.27 383.68, 41.88 352.05, -0.06 315.59 M126.7 415.18 C95.87 388.38, 65.04 361.58, -0.09 304.96 M126.7 415.18 C76.14 371.23, 25.58 327.28, -0.09 304.96 M138.74 415.04 C94.03 376.18, 49.32 337.31, -0.13 294.33 M138.74 415.04 C91.59 374.06, 44.44 333.07, -0.13 294.33 M150.78 414.91 C104.93 375.05, 59.08 335.2, -0.16 283.7 M150.78 414.91 C113.75 382.72, 76.72 350.53, -0.16 283.7 M163.57 415.43 C125.43 382.28, 87.3 349.13, -0.2 273.07 M163.57 415.43 C125.61 382.43, 87.65 349.43, -0.2 273.07 M175.61 415.3 C112.14 360.12, 48.66 304.94, -0.23 262.44 M175.61 415.3 C120.2 367.13, 64.78 318.96, -0.23 262.44 M187.66 415.17 C148.86 381.44, 110.06 347.71, -0.27 251.81 M187.66 415.17 C149.59 382.08, 111.52 348.99, -0.27 251.81 M199.7 415.03 C137.19 360.7, 74.68 306.36, 0.45 241.84 M199.7 415.03 C123.37 348.68, 47.04 282.33, 0.45 241.84 M211.74 414.9 C145.66 357.46, 79.58 300.02, 0.42 231.21 M211.74 414.9 C144.51 356.46, 77.29 298.03, 0.42 231.21 M224.53 415.42 C162.2 361.24, 99.87 307.05, 0.38 220.58 M224.53 415.42 C150.12 350.74, 75.71 286.06, 0.38 220.58 M236.57 415.29 C144.73 335.45, 52.89 255.62, 0.35 209.94 M236.57 415.29 C188.71 373.68, 140.84 332.07, 0.35 209.94 M248.61 415.16 C177.27 353.14, 105.93 291.13, 0.31 199.31 M248.61 415.16 C185.97 360.7, 123.32 306.24, 0.31 199.31 M260.66 415.03 C172.36 338.27, 84.07 261.52, 0.28 188.68 M260.66 415.03 C172.63 338.51, 84.61 262, 0.28 188.68 M272.7 414.89 C165.92 322.07, 59.15 229.26, 0.25 178.05 M272.7 414.89 C179.4 333.79, 86.1 252.68, 0.25 178.05 M285.49 415.41 C218.4 357.09, 151.3 298.77, 0.21 167.42 M285.49 415.41 C181.6 325.11, 77.72 234.8, 0.21 167.42 M297.53 415.28 C190.64 322.36, 83.74 229.44, 0.18 156.79 M297.53 415.28 C235.51 361.36, 173.48 307.44, 0.18 156.79 M309.57 415.15 C242.8 357.1, 176.03 299.06, 0.14 146.16 M309.57 415.15 C192.45 313.33, 75.32 211.51, 0.14 146.16 M321.61 415.02 C201.08 310.24, 80.55 205.46, 0.11 135.53 M321.61 415.02 C204.35 313.08, 87.09 211.15, 0.11 135.53 M333.66 414.88 C204.61 302.71, 75.57 190.53, 0.07 124.9 M333.66 414.88 C254.74 346.29, 175.83 277.69, 0.07 124.9 M346.45 415.41 C228.61 312.96, 110.76 210.52, 0.04 114.27 M346.45 415.41 C231.22 315.24, 115.99 215.07, 0.04 114.27 M358.49 415.27 C243.25 315.09, 128.01 214.91, 0 103.64 M358.49 415.27 C268.35 336.91, 178.2 258.55, 0 103.64 M370.53 415.14 C231.74 294.49, 92.95 173.84, -0.03 93.01 M370.53 415.14 C243.81 304.98, 117.09 194.83, -0.03 93.01 M382.57 415.01 C244.83 295.27, 107.09 175.53, -0.06 82.38 M382.57 415.01 C269.98 317.13, 157.4 219.26, -0.06 82.38 M394.61 414.87 C270.52 307, 146.43 199.13, -0.1 71.75 M394.61 414.87 C303.79 335.92, 212.96 256.96, -0.1 71.75 M407.41 415.4 C281.13 305.62, 154.85 195.85, -0.13 61.12 M407.41 415.4 C287.69 311.33, 167.98 207.26, -0.13 61.12 M419.45 415.26 C329.95 337.46, 240.45 259.66, -0.17 50.49 M419.45 415.26 C275.8 290.39, 132.15 165.52, -0.17 50.49 M431.49 415.13 C282.21 285.36, 132.93 155.6, -0.2 39.86 M431.49 415.13 C286.17 288.8, 140.85 162.48, -0.2 39.86 M443.53 415 C336.3 321.78, 229.07 228.57, 0.52 29.89 M443.53 415 C340.9 325.78, 238.27 236.56, 0.52 29.89 M455.57 414.86 C315.11 292.76, 174.66 170.67, 1.99 20.57 M455.57 414.86 C288.96 270.03, 122.35 125.19, 1.99 20.57 M468.37 415.39 C288.29 258.85, 108.22 102.31, 4.98 12.57 M468.37 415.39 C302.02 270.78, 135.66 126.17, 4.98 12.57 M480.41 415.25 C381.43 329.21, 282.45 243.17, 10.23 6.53 M480.41 415.25 C344.94 297.49, 209.46 179.72, 10.23 6.53 M492.45 415.12 C322.17 267.1, 151.9 119.08, 16.98 1.8 M492.45 415.12 C305.61 252.7, 118.76 90.28, 16.98 1.8 M504.49 414.99 C349.66 280.4, 194.84 145.81, 27.51 0.36 M504.49 414.99 C380.9 307.55, 257.32 200.12, 27.51 0.36 M516.53 414.85 C386.14 301.5, 255.75 188.16, 38.8 -0.43 M516.53 414.85 C368.39 286.07, 220.24 157.29, 38.8 -0.43 M529.33 415.38 C388.01 292.53, 246.69 169.68, 50.84 -0.57 M529.33 415.38 C338.82 249.77, 148.3 84.16, 50.84 -0.57 M541.37 415.24 C363.09 260.27, 184.82 105.3, 62.88 -0.7 M541.37 415.24 C400.36 292.67, 259.36 170.1, 62.88 -0.7 M553.41 415.11 C441.74 318.04, 330.07 220.97, 74.92 -0.83 M553.41 415.11 C418.96 298.23, 284.51 181.36, 74.92 -0.83 M565.45 414.98 C415.55 284.67, 265.66 154.37, 87.72 -0.31 M565.45 414.98 C451.35 315.79, 337.25 216.6, 87.72 -0.31 M578.25 415.5 C474.66 325.45, 371.06 235.4, 99.76 -0.44 M578.25 415.5 C462.87 315.21, 347.49 214.91, 99.76 -0.44 M590.29 415.37 C460.91 302.9, 331.53 190.44, 111.8 -0.57 M590.29 415.37 C474.26 314.51, 358.24 213.65, 111.8 -0.57 M602.33 415.23 C415.86 253.14, 229.39 91.05, 123.84 -0.71 M602.33 415.23 C473.18 302.97, 344.04 190.71, 123.84 -0.71 M612.86 413.79 C501.47 316.96, 390.08 220.13, 135.88 -0.84 M612.86 413.79 C463.39 283.86, 313.93 153.93, 135.88 -0.84 M621.88 411.03 C496.4 301.95, 370.91 192.87, 148.68 -0.32 M621.88 411.03 C472.13 280.86, 322.39 150.69, 148.68 -0.32 M628.64 406.31 C482.89 279.6, 337.13 152.9, 160.72 -0.45 M628.64 406.31 C503.7 297.69, 378.75 189.08, 160.72 -0.45 M632.38 398.96 C530.21 310.14, 428.04 221.33, 172.76 -0.58 M632.38 398.96 C454.16 244.04, 275.95 89.12, 172.76 -0.58 M634.61 390.29 C531.28 300.47, 427.95 210.65, 184.8 -0.72 M634.61 390.29 C532.58 301.6, 430.55 212.91, 184.8 -0.72 M635.33 380.32 C544.3 301.19, 453.27 222.06, 196.84 -0.85 M635.33 380.32 C526.34 285.58, 417.36 190.84, 196.84 -0.85 M635.29 369.69 C537.03 284.27, 438.76 198.84, 209.64 -0.33 M635.29 369.69 C497.4 249.82, 359.5 129.95, 209.64 -0.33 M635.26 359.06 C538.13 274.62, 441 190.19, 221.68 -0.46 M635.26 359.06 C502.32 243.49, 369.37 127.93, 221.68 -0.46 M635.22 348.43 C484.75 217.63, 334.28 86.83, 233.72 -0.59 M635.22 348.43 C475.66 209.73, 316.11 71.02, 233.72 -0.59 M635.19 337.8 C524.21 241.33, 413.23 144.85, 245.76 -0.73 M635.19 337.8 C484.55 206.85, 333.9 75.89, 245.76 -0.73 M635.16 327.17 C545.17 248.95, 455.19 170.73, 257.8 -0.86 M635.16 327.17 C524.23 230.74, 413.3 134.31, 257.8 -0.86 M635.12 316.54 C559.99 251.23, 484.86 185.92, 270.6 -0.34 M635.12 316.54 C531.99 226.89, 428.86 137.24, 270.6 -0.34 M635.09 305.91 C558.91 239.69, 482.73 173.46, 282.64 -0.47 M635.09 305.91 C505.29 193.08, 375.5 80.26, 282.64 -0.47 M635.05 295.28 C562.38 232.1, 489.7 168.92, 294.68 -0.6 M635.05 295.28 C565.03 234.41, 495.02 173.55, 294.68 -0.6 M635.77 285.3 C563.63 222.59, 491.49 159.88, 306.72 -0.74 M635.77 285.3 C509.84 175.83, 383.91 66.36, 306.72 -0.74 M635.74 274.67 C512.2 167.28, 388.66 59.89, 318.76 -0.87 M635.74 274.67 C569.47 217.07, 503.2 159.46, 318.76 -0.87 M635.7 264.04 C521.25 164.55, 406.79 65.06, 331.56 -0.35 M635.7 264.04 C572.58 209.17, 509.45 154.29, 331.56 -0.35 M635.67 253.41 C523.39 155.81, 411.1 58.2, 343.6 -0.48 M635.67 253.41 C546.7 176.08, 457.74 98.74, 343.6 -0.48 M635.63 242.78 C542.35 161.69, 449.07 80.6, 355.64 -0.61 M635.63 242.78 C545.8 164.69, 455.96 86.6, 355.64 -0.61 M635.6 232.15 C551.34 158.91, 467.09 85.67, 367.68 -0.75 M635.6 232.15 C538.67 147.89, 441.73 63.63, 367.68 -0.75 M635.57 221.52 C545.32 143.07, 455.07 64.62, 379.72 -0.88 M635.57 221.52 C556.65 152.92, 477.73 84.32, 379.72 -0.88 M635.53 210.89 C571.39 155.14, 507.25 99.38, 392.51 -0.36 M635.53 210.89 C585 166.97, 534.47 123.05, 392.51 -0.36 M635.5 200.26 C585.8 157.06, 536.1 113.86, 404.55 -0.49 M635.5 200.26 C551.42 127.18, 467.35 54.1, 404.55 -0.49 M635.46 189.63 C551.41 116.57, 467.35 43.5, 416.6 -0.62 M635.46 189.63 C563.66 127.22, 491.86 64.81, 416.6 -0.62 M635.43 179 C569.69 121.86, 503.96 64.72, 428.64 -0.76 M635.43 179 C554.96 109.06, 474.49 39.11, 428.64 -0.76 M635.39 168.37 C558.82 101.81, 482.25 35.25, 440.68 -0.89 M635.39 168.37 C564.31 106.58, 493.22 44.78, 440.68 -0.89 M635.36 157.74 C567.1 98.41, 498.84 39.07, 453.47 -0.37 M635.36 157.74 C582.07 111.42, 528.78 65.1, 453.47 -0.37 M635.32 147.11 C588.26 106.2, 541.2 65.3, 465.51 -0.5 M635.32 147.11 C598.01 114.68, 560.7 82.25, 465.51 -0.5 M635.29 136.48 C584.94 92.72, 534.6 48.95, 477.55 -0.63 M635.29 136.48 C589.12 96.35, 542.94 56.21, 477.55 -0.63 M635.25 125.85 C578.66 76.66, 522.06 27.46, 489.6 -0.77 M635.25 125.85 C584.2 81.47, 533.15 37.09, 489.6 -0.77 M635.22 115.22 C582 68.96, 528.77 22.69, 501.64 -0.9 M635.22 115.22 C606.73 90.46, 578.24 65.69, 501.64 -0.9 M635.19 104.59 C593.23 68.12, 551.27 31.65, 514.43 -0.38 M635.19 104.59 C602.13 75.86, 569.08 47.13, 514.43 -0.38 M635.15 93.96 C604.82 67.59, 574.48 41.22, 526.47 -0.51 M635.15 93.96 C593.05 57.36, 550.94 20.76, 526.47 -0.51 M635.12 83.33 C602.17 54.69, 569.22 26.05, 538.51 -0.64 M635.12 83.33 C609.65 61.2, 584.19 39.07, 538.51 -0.64 M635.08 72.7 C605.96 47.39, 576.83 22.07, 550.55 -0.78 M635.08 72.7 C605.02 46.57, 574.96 20.44, 550.55 -0.78 M635.05 62.07 C618.84 47.98, 602.63 33.89, 562.6 -0.91 M635.05 62.07 C616.79 46.2, 598.53 30.33, 562.6 -0.91 M635.77 52.1 C611.91 31.36, 588.05 10.62, 575.39 -0.39 M635.77 52.1 C613.65 32.87, 591.53 13.64, 575.39 -0.39 M635.73 41.47 C625.25 32.36, 614.77 23.24, 587.43 -0.52 M635.73 41.47 C619.85 27.67, 603.98 13.86, 587.43 -0.52 M634.94 30.18 C622.58 19.43, 610.21 8.68, 599.47 -0.65 M634.94 30.18 C625.16 21.68, 615.38 13.18, 599.47 -0.65 M633.4 18.24 C629.13 14.53, 624.85 10.81, 613.02 0.53 M633.4 18.24 C628.48 13.96, 623.56 9.69, 613.02 0.53" stroke="#a5d8ff" stroke-width="1" fill="none"></path><path d="M32 0 C164.31 0, 296.63 0, 603.11 0 M32 0 C207.37 0, 382.74 0, 603.11 0 M603.11 0 C624.44 0, 635.11 10.67, 635.11 32 M603.11 0 C624.44 0, 635.11 10.67, 635.11 32 M635.11 32 C635.11 105.17, 635.11 178.33, 635.11 383.4 M635.11 32 C635.11 161.69, 635.11 291.37, 635.11 383.4 M635.11 383.4 C635.11 404.73, 624.44 415.4, 603.11 415.4 M635.11 383.4 C635.11 404.73, 624.44 415.4, 603.11 415.4 M603.11 415.4 C391.93 415.4, 180.75 415.4, 32 415.4 M603.11 415.4 C462.51 415.4, 321.92 415.4, 32 415.4 M32 415.4 C10.67 415.4, 0 404.73, 0 383.4 M32 415.4 C10.67 415.4, 0 404.73, 0 383.4 M0 383.4 C0 260.93, 0 138.46, 0 32 M0 383.4 C0 255.45, 0 127.5, 0 32 M0 32 C0 10.67, 10.67 0, 32 0 M0 32 C0 10.67, 10.67 0, 32 0" stroke="#1e1e1e" stroke-width="2" fill="none"></path></g><g stroke-linecap="round" transform="translate(698.6872278927754 489.42377409214396) rotate(0 317.5543486527463 207.69869757248205)"><path d="M7.86 8.16 C7.86 8.16, 7.86 8.16, 7.86 8.16 M7.86 8.16 C7.86 8.16, 7.86 8.16, 7.86 8.16 M0.78 28.5 C9.53 18.44, 18.27 8.37, 25.05 0.58 M0.78 28.5 C9.73 18.21, 18.68 7.91, 25.05 0.58 M0.26 41.3 C8.59 31.71, 16.92 22.13, 36.34 -0.21 M0.26 41.3 C10.02 30.06, 19.79 18.82, 36.34 -0.21 M0.39 53.34 C18.4 32.62, 36.41 11.9, 46.97 -0.25 M0.39 53.34 C13.65 38.08, 26.92 22.82, 46.97 -0.25 M0.52 65.38 C12.4 51.71, 24.28 38.05, 57.6 -0.28 M0.52 65.38 C17.01 46.41, 33.5 27.44, 57.6 -0.28 M0 78.17 C21.02 53.99, 42.04 29.81, 67.57 0.44 M0 78.17 C25.91 48.37, 51.82 18.56, 67.57 0.44 M0.13 90.22 C24.03 62.72, 47.93 35.23, 78.2 0.41 M0.13 90.22 C29.94 55.92, 59.76 21.62, 78.2 0.41 M0.26 102.26 C23.13 75.95, 46 49.64, 88.83 0.37 M0.26 102.26 C18.09 81.75, 35.91 61.25, 88.83 0.37 M0.4 114.3 C24.74 86.3, 49.08 58.29, 99.46 0.34 M0.4 114.3 C35.34 74.1, 70.29 33.9, 99.46 0.34 M0.53 126.34 C24.64 98.61, 48.74 70.88, 110.09 0.3 M0.53 126.34 C36.97 84.42, 73.42 42.49, 110.09 0.3 M0.01 139.13 C44.05 88.47, 88.09 37.81, 120.72 0.27 M0.01 139.13 C37.72 95.75, 75.43 52.37, 120.72 0.27 M0.14 151.17 C46.79 97.51, 93.44 43.85, 131.35 0.23 M0.14 151.17 C43.43 101.38, 86.71 51.59, 131.35 0.23 M0.27 163.22 C45.42 111.28, 90.57 59.34, 141.98 0.2 M0.27 163.22 C54.06 101.35, 107.84 39.48, 141.98 0.2 M0.41 175.26 C44.7 124.31, 88.99 73.36, 152.61 0.16 M0.41 175.26 C31.32 139.69, 62.24 104.12, 152.61 0.16 M0.54 187.3 C62.27 116.28, 124 45.27, 163.24 0.13 M0.54 187.3 C62.46 116.07, 124.37 44.84, 163.24 0.13 M0.02 200.09 C38.24 156.13, 76.45 112.16, 173.87 0.09 M0.02 200.09 C55.69 136.05, 111.36 72.01, 173.87 0.09 M0.15 212.13 C62.23 140.72, 124.31 69.3, 184.5 0.06 M0.15 212.13 C64.64 137.95, 129.13 63.76, 184.5 0.06 M0.28 224.17 C39.77 178.75, 79.26 133.32, 195.13 0.03 M0.28 224.17 C60.08 155.39, 119.87 86.6, 195.13 0.03 M0.42 236.22 C82.01 142.35, 163.61 48.49, 205.76 -0.01 M0.42 236.22 C47.53 182.02, 94.64 127.82, 205.76 -0.01 M-0.11 249.01 C57.77 182.43, 115.64 115.86, 216.39 -0.04 M-0.11 249.01 C74.94 162.69, 149.98 76.36, 216.39 -0.04 M0.03 261.05 C64.75 186.6, 129.47 112.15, 227.02 -0.08 M0.03 261.05 C83.86 164.61, 167.69 68.18, 227.02 -0.08 M0.16 273.09 C73.49 188.73, 146.82 104.38, 237.65 -0.11 M0.16 273.09 C66.84 196.39, 133.52 119.68, 237.65 -0.11 M0.29 285.13 C84.89 187.82, 169.48 90.5, 248.28 -0.15 M0.29 285.13 C56.64 220.31, 112.99 155.5, 248.28 -0.15 M0.43 297.17 C101.03 181.44, 201.64 65.7, 258.91 -0.18 M0.43 297.17 C80.17 205.44, 159.91 113.71, 258.91 -0.18 M-0.1 309.97 C60.21 240.59, 120.52 171.22, 269.54 -0.22 M-0.1 309.97 C72.35 226.63, 144.79 143.29, 269.54 -0.22 M0.04 322.01 C66.71 245.31, 133.39 168.61, 280.17 -0.25 M0.04 322.01 C80.36 229.61, 160.68 137.21, 280.17 -0.25 M0.17 334.05 C60.67 264.45, 121.18 194.85, 290.8 -0.28 M0.17 334.05 C77.79 244.76, 155.41 155.47, 290.8 -0.28 M0.3 346.09 C105.99 224.51, 211.68 102.94, 300.78 0.44 M0.3 346.09 C69.49 266.5, 138.67 186.91, 300.78 0.44 M0.44 358.13 C89.79 255.34, 179.14 152.55, 311.41 0.4 M0.44 358.13 C63.74 285.31, 127.04 212.49, 311.41 0.4 M-0.09 370.93 C94.65 261.94, 189.39 152.96, 322.04 0.37 M-0.09 370.93 C68.09 292.5, 136.28 214.06, 322.04 0.37 M0.05 382.97 C90.18 279.28, 180.31 175.6, 332.67 0.33 M0.05 382.97 C122.17 242.48, 244.3 101.99, 332.67 0.33 M1.49 393.5 C136.87 237.76, 272.25 82.02, 343.3 0.3 M1.49 393.5 C90.82 290.74, 180.14 187.99, 343.3 0.3 M4.25 402.52 C104.3 287.43, 204.35 172.34, 353.93 0.26 M4.25 402.52 C93.3 300.09, 182.35 197.65, 353.93 0.26 M9.63 408.53 C100.41 304.1, 191.18 199.68, 364.56 0.23 M9.63 408.53 C104.57 299.31, 199.51 190.1, 364.56 0.23 M16.33 413.02 C115.72 298.68, 215.12 184.33, 375.19 0.19 M16.33 413.02 C113.46 301.28, 210.59 189.55, 375.19 0.19 M24.99 415.25 C111.03 316.27, 197.07 217.29, 385.82 0.16 M24.99 415.25 C124.63 300.63, 224.26 186.01, 385.82 0.16 M34.96 415.97 C145.2 289.15, 255.44 162.34, 396.45 0.12 M34.96 415.97 C117.24 321.32, 199.51 226.68, 396.45 0.12 M45.59 415.94 C181.76 259.3, 317.92 102.66, 407.08 0.09 M45.59 415.94 C186.98 253.29, 328.36 90.65, 407.08 0.09 M56.22 415.9 C146.1 312.5, 235.99 209.1, 417.71 0.06 M56.22 415.9 C145.05 313.72, 233.87 211.54, 417.71 0.06 M66.85 415.87 C164.49 303.55, 262.12 191.23, 428.34 0.02 M66.85 415.87 C165.93 301.89, 265 187.92, 428.34 0.02 M77.48 415.83 C187.31 289.49, 297.14 163.15, 438.97 -0.01 M77.48 415.83 C168.96 310.59, 260.45 205.36, 438.97 -0.01 M88.11 415.8 C227.49 255.46, 366.88 95.12, 449.6 -0.05 M88.11 415.8 C176.48 314.14, 264.86 212.48, 449.6 -0.05 M98.74 415.76 C201.2 297.89, 303.66 180.03, 460.23 -0.08 M98.74 415.76 C201.95 297.03, 305.16 178.3, 460.23 -0.08 M109.37 415.73 C238.49 267.19, 367.61 118.66, 470.86 -0.12 M109.37 415.73 C246.58 257.89, 383.79 100.05, 470.86 -0.12 M120 415.69 C234.83 283.59, 349.67 151.5, 481.49 -0.15 M120 415.69 C259.8 254.88, 399.6 94.06, 481.49 -0.15 M130.63 415.66 C234.08 296.66, 337.53 177.65, 492.12 -0.19 M130.63 415.66 C208.15 326.48, 285.68 237.3, 492.12 -0.19 M141.26 415.62 C269.17 268.49, 397.07 121.35, 502.75 -0.22 M141.26 415.62 C252.67 287.46, 364.08 159.3, 502.75 -0.22 M151.89 415.59 C238.99 315.39, 326.1 215.19, 513.38 -0.25 M151.89 415.59 C239.38 314.95, 326.87 214.3, 513.38 -0.25 M162.52 415.56 C255.06 309.1, 347.6 202.65, 523.35 0.47 M162.52 415.56 C238.02 328.71, 313.52 241.86, 523.35 0.47 M173.15 415.52 C302.03 267.27, 430.91 119.01, 533.98 0.43 M173.15 415.52 C250 327.11, 326.86 238.7, 533.98 0.43 M183.78 415.49 C294.65 287.95, 405.52 160.41, 544.61 0.4 M183.78 415.49 C312.58 267.32, 441.37 119.16, 544.61 0.4 M194.41 415.45 C316.23 275.32, 438.05 135.18, 555.24 0.36 M194.41 415.45 C279.52 317.55, 364.62 219.65, 555.24 0.36 M204.39 416.17 C314.69 289.28, 425 162.39, 565.87 0.33 M204.39 416.17 C286.17 322.09, 367.96 228, 565.87 0.33 M215.02 416.14 C342.36 269.65, 469.7 123.16, 576.5 0.29 M215.02 416.14 C315.14 300.96, 415.27 185.78, 576.5 0.29 M225.65 416.1 C321.88 305.4, 418.11 194.71, 587.14 0.26 M225.65 416.1 C370.21 249.81, 514.77 83.51, 587.14 0.26 M236.28 416.07 C358.59 275.37, 480.9 134.67, 597.77 0.22 M236.28 416.07 C330.44 307.75, 424.61 199.42, 597.77 0.22 M246.91 416.03 C363.92 281.42, 480.94 146.81, 608.4 0.19 M246.91 416.03 C343.95 304.4, 440.99 192.77, 608.4 0.19 M257.54 416 C365.47 291.84, 473.4 167.68, 617.06 2.42 M257.54 416 C389.97 263.66, 522.4 111.31, 617.06 2.42 M268.17 415.97 C349.43 322.48, 430.7 229, 624.41 6.16 M268.17 415.97 C385.82 280.63, 503.47 145.29, 624.41 6.16 M278.8 415.93 C352.43 331.22, 426.07 246.52, 630.44 11.41 M278.8 415.93 C398.47 278.26, 518.15 140.59, 630.44 11.41 M289.43 415.9 C374.53 317.99, 459.64 220.09, 633.86 19.67 M289.43 415.9 C389.83 300.4, 490.22 184.91, 633.86 19.67 M300.06 415.86 C402.2 298.36, 504.34 180.86, 635.3 30.21 M300.06 415.86 C425.44 271.62, 550.83 127.38, 635.3 30.21 M310.69 415.83 C397.07 316.46, 483.45 217.08, 636.09 41.49 M310.69 415.83 C429.83 278.76, 548.98 141.7, 636.09 41.49 M321.32 415.79 C444.49 274.1, 567.67 132.4, 635.57 54.29 M321.32 415.79 C391.96 334.53, 462.6 253.27, 635.57 54.29 M331.95 415.76 C418.6 316.08, 505.25 216.4, 635.7 66.33 M331.95 415.76 C446.17 284.36, 560.39 152.96, 635.7 66.33 M342.58 415.72 C443.57 299.54, 544.57 183.36, 635.84 78.37 M342.58 415.72 C432.28 312.54, 521.98 209.35, 635.84 78.37 M353.21 415.69 C445.3 309.75, 537.4 203.8, 635.97 90.41 M353.21 415.69 C424.11 334.12, 495.02 252.55, 635.97 90.41 M363.84 415.66 C418.9 352.31, 473.97 288.96, 636.1 102.45 M363.84 415.66 C469.55 294.04, 575.27 172.43, 636.1 102.45 M374.47 415.62 C458.85 318.54, 543.24 221.47, 635.58 115.25 M374.47 415.62 C460.05 317.17, 545.63 218.72, 635.58 115.25 M385.1 415.59 C453.53 336.86, 521.96 258.14, 635.71 127.29 M385.1 415.59 C460.5 328.85, 535.9 242.11, 635.71 127.29 M395.73 415.55 C451.27 351.66, 506.8 287.77, 635.85 139.33 M395.73 415.55 C456.3 345.87, 516.87 276.19, 635.85 139.33 M406.36 415.52 C459.51 354.37, 512.67 293.22, 635.98 151.37 M406.36 415.52 C459.22 354.7, 512.09 293.89, 635.98 151.37 M416.99 415.48 C487.29 334.61, 557.58 253.75, 636.11 163.41 M416.99 415.48 C477.75 345.58, 538.52 275.68, 636.11 163.41 M427.62 415.45 C473.25 362.96, 518.88 310.47, 635.59 176.21 M427.62 415.45 C473.55 362.61, 519.49 309.76, 635.59 176.21 M437.59 416.17 C493.01 352.42, 548.43 288.67, 635.72 188.25 M437.59 416.17 C509.67 333.25, 581.75 250.34, 635.72 188.25 M448.22 416.13 C513.12 341.48, 578.01 266.83, 635.86 200.29 M448.22 416.13 C499.83 356.77, 551.44 297.4, 635.86 200.29 M458.85 416.1 C514.32 352.3, 569.78 288.49, 635.99 212.33 M458.85 416.1 C508.51 358.97, 558.18 301.84, 635.99 212.33 M469.48 416.06 C533.99 341.86, 598.5 267.65, 636.12 224.37 M469.48 416.06 C511.61 367.6, 553.75 319.13, 636.12 224.37 M480.11 416.03 C517.96 372.5, 555.8 328.96, 635.6 237.16 M480.11 416.03 C527.31 361.74, 574.5 307.45, 635.6 237.16 M490.74 416 C532.3 368.19, 573.85 320.39, 635.73 249.21 M490.74 416 C544.7 353.93, 598.65 291.86, 635.73 249.21 M501.37 415.96 C529.62 383.46, 557.87 350.97, 635.86 261.25 M501.37 415.96 C544.08 366.83, 586.8 317.69, 635.86 261.25 M512 415.93 C543.61 379.56, 575.22 343.2, 636 273.29 M512 415.93 C550.27 371.9, 588.55 327.88, 636 273.29 M522.63 415.89 C564.6 367.61, 606.58 319.33, 636.13 285.33 M522.63 415.89 C558.34 374.81, 594.05 333.73, 636.13 285.33 M533.26 415.86 C560.89 384.08, 588.51 352.3, 635.61 298.12 M533.26 415.86 C563.55 381.02, 593.83 346.18, 635.61 298.12 M543.89 415.82 C580.32 373.92, 616.74 332.02, 635.74 310.16 M543.89 415.82 C570.95 384.69, 598.01 353.57, 635.74 310.16 M554.52 415.79 C585.16 380.55, 615.79 345.31, 635.87 322.21 M554.52 415.79 C572.85 394.71, 591.17 373.63, 635.87 322.21 M565.15 415.75 C592.18 384.67, 619.2 353.58, 636.01 334.25 M565.15 415.75 C591.03 385.98, 616.92 356.21, 636.01 334.25 M575.78 415.72 C599.14 388.85, 622.5 361.98, 636.14 346.29 M575.78 415.72 C596.65 391.71, 617.53 367.7, 636.14 346.29 M586.41 415.69 C602.78 396.86, 619.15 378.03, 635.62 359.08 M586.41 415.69 C598.33 401.98, 610.24 388.27, 635.62 359.08 M597.04 415.65 C611.78 398.7, 626.51 381.75, 635.75 371.12 M597.04 415.65 C611.15 399.42, 625.26 383.19, 635.75 371.12 M607.67 415.62 C615.27 406.88, 622.87 398.14, 635.23 383.92 M607.67 415.62 C617.28 404.57, 626.89 393.52, 635.23 383.92 M621.58 411.81 C623.99 409.04, 626.4 406.26, 633.39 398.22 M621.58 411.81 C625.67 407.11, 629.76 402.4, 633.39 398.22 M7.76 407.19 C7.76 407.19, 7.76 407.19, 7.76 407.19 M7.76 407.19 C7.76 407.19, 7.76 407.19, 7.76 407.19 M28.11 414.27 C18.03 405.51, 7.95 396.75, 0.94 390.66 M28.11 414.27 C22.31 409.23, 16.51 404.19, 0.94 390.66 M41.66 415.45 C28.16 403.72, 14.67 391.99, 0.15 379.37 M41.66 415.45 C29.92 405.25, 18.18 395.04, 0.15 379.37 M53.7 415.32 C34.28 398.44, 14.86 381.56, 0.11 368.74 M53.7 415.32 C40.49 403.84, 27.27 392.35, 0.11 368.74 M65.74 415.19 C48.12 399.87, 30.51 384.56, 0.08 358.11 M65.74 415.19 C39.71 392.57, 13.69 369.94, 0.08 358.11 M77.78 415.05 C52.41 393.01, 27.05 370.96, 0.04 347.48 M77.78 415.05 C47.94 389.12, 18.11 363.18, 0.04 347.48 M89.82 414.92 C64.94 393.29, 40.05 371.66, 0.01 336.85 M89.82 414.92 C61.88 390.64, 33.95 366.35, 0.01 336.85 M102.61 415.44 C63.81 381.71, 25.01 347.98, -0.03 326.22 M102.61 415.44 C69.64 386.78, 36.67 358.12, -0.03 326.22 M114.66 415.31 C73.04 379.13, 31.42 342.95, -0.06 315.59 M114.66 415.31 C81.46 386.46, 48.27 357.61, -0.06 315.59 M126.7 415.18 C88.63 382.09, 50.57 349, -0.09 304.96 M126.7 415.18 C99.73 391.74, 72.77 368.3, -0.09 304.96 M138.74 415.04 C89.57 372.3, 40.4 329.56, -0.13 294.33 M138.74 415.04 C96.87 378.65, 55.01 342.26, -0.13 294.33 M150.78 414.91 C114.19 383.11, 77.6 351.3, -0.16 283.7 M150.78 414.91 C94.98 366.4, 39.17 317.9, -0.16 283.7 M163.57 415.43 C98.61 358.96, 33.64 302.48, -0.2 273.07 M163.57 415.43 C110.27 369.1, 56.97 322.76, -0.2 273.07 M175.61 415.3 C136.67 381.44, 97.72 347.59, -0.23 262.44 M175.61 415.3 C111.99 359.99, 48.36 304.68, -0.23 262.44 M187.66 415.17 C140 373.74, 92.34 332.31, -0.27 251.81 M187.66 415.17 C141.19 374.78, 94.73 334.39, -0.27 251.81 M199.7 415.03 C155.55 376.66, 111.41 338.29, 0.45 241.84 M199.7 415.03 C136.67 360.25, 73.65 305.46, 0.45 241.84 M211.74 414.9 C168.43 377.25, 125.12 339.61, 0.42 231.21 M211.74 414.9 C135.57 348.69, 59.41 282.48, 0.42 231.21 M224.53 415.42 C158.67 358.17, 92.81 300.92, 0.38 220.58 M224.53 415.42 C175.61 372.9, 126.69 330.37, 0.38 220.58 M236.57 415.29 C154.35 343.81, 72.12 272.34, 0.35 209.94 M236.57 415.29 C173.61 360.56, 110.65 305.83, 0.35 209.94 M248.61 415.16 C184.86 359.74, 121.11 304.32, 0.31 199.31 M248.61 415.16 C196.34 369.72, 144.06 324.27, 0.31 199.31 M260.66 415.03 C183.19 347.68, 105.72 280.34, 0.28 188.68 M260.66 415.03 C163.05 330.18, 65.45 245.34, 0.28 188.68 M272.7 414.89 C164.82 321.12, 56.94 227.34, 0.25 178.05 M272.7 414.89 C192.63 345.29, 112.57 275.7, 0.25 178.05 M285.49 415.41 C204.19 344.74, 122.89 274.07, 0.21 167.42 M285.49 415.41 C227.72 365.2, 169.95 314.98, 0.21 167.42 M297.53 415.28 C189.23 321.13, 80.92 226.99, 0.18 156.79 M297.53 415.28 C230.1 356.67, 162.67 298.05, 0.18 156.79 M309.57 415.15 C229.32 345.38, 149.06 275.62, 0.14 146.16 M309.57 415.15 C224.66 341.34, 139.75 267.52, 0.14 146.16 M321.61 415.02 C231.09 336.32, 140.56 257.63, 0.11 135.53 M321.61 415.02 C249.1 351.98, 176.58 288.94, 0.11 135.53 M333.66 414.88 C204.63 302.73, 75.61 190.57, 0.07 124.9 M333.66 414.88 C259.16 350.12, 184.66 285.37, 0.07 124.9 M346.45 415.41 C264.99 344.59, 183.53 273.78, 0.04 114.27 M346.45 415.41 C254.86 335.78, 163.26 256.16, 0.04 114.27 M358.49 415.27 C232.85 306.06, 107.22 196.84, 0 103.64 M358.49 415.27 C254.61 324.97, 150.73 234.67, 0 103.64 M370.53 415.14 C229.95 292.93, 89.37 170.73, -0.03 93.01 M370.53 415.14 C231.48 294.26, 92.42 173.38, -0.03 93.01 M382.57 415.01 C286.57 331.55, 190.56 248.09, -0.06 82.38 M382.57 415.01 C297.57 341.11, 212.57 267.22, -0.06 82.38 M394.61 414.87 C301.55 333.97, 208.49 253.08, -0.1 71.75 M394.61 414.87 C257.3 295.51, 119.99 176.14, -0.1 71.75 M407.41 415.4 C282.8 307.07, 158.19 198.75, -0.13 61.12 M407.41 415.4 C253.92 281.97, 100.44 148.55, -0.13 61.12 M419.45 415.26 C254.5 271.87, 89.55 128.48, -0.17 50.49 M419.45 415.26 C322.99 331.41, 226.54 247.57, -0.17 50.49 M431.49 415.13 C280.46 283.84, 129.43 152.56, -0.2 39.86 M431.49 415.13 C337.75 333.64, 244 252.15, -0.2 39.86 M443.53 415 C351.7 335.17, 259.88 255.35, 0.52 29.89 M443.53 415 C343.14 327.73, 242.75 240.46, 0.52 29.89 M455.57 414.86 C303.53 282.69, 151.48 150.52, 1.99 20.57 M455.57 414.86 C357.79 329.86, 260.01 244.86, 1.99 20.57 M468.37 415.39 C328.68 293.96, 189 172.53, 4.98 12.57 M468.37 415.39 C375.09 334.3, 281.8 253.21, 4.98 12.57 M480.41 415.25 C371.77 320.81, 263.13 226.37, 10.23 6.53 M480.41 415.25 C315.14 271.59, 149.87 127.92, 10.23 6.53 M492.45 415.12 C366.03 305.22, 239.61 195.33, 16.98 1.8 M492.45 415.12 C314.16 260.13, 135.86 105.14, 16.98 1.8 M504.49 414.99 C350.05 280.73, 195.61 146.48, 27.51 0.36 M504.49 414.99 C403.21 326.94, 301.93 238.9, 27.51 0.36 M516.53 414.85 C345.45 266.13, 174.37 117.41, 38.8 -0.43 M516.53 414.85 C408.33 320.8, 300.13 226.74, 38.8 -0.43 M529.33 415.38 C377.65 283.52, 225.97 151.67, 50.84 -0.57 M529.33 415.38 C388.97 293.36, 248.6 171.35, 50.84 -0.57 M541.37 415.24 C444.33 330.89, 347.29 246.53, 62.88 -0.7 M541.37 415.24 C353.59 252.01, 165.81 88.77, 62.88 -0.7 M553.41 415.11 C442.66 318.84, 331.91 222.56, 74.92 -0.83 M553.41 415.11 C411.03 291.34, 268.65 167.57, 74.92 -0.83 M565.45 414.98 C426.03 293.78, 286.62 172.59, 87.72 -0.31 M565.45 414.98 C389.97 262.43, 214.48 109.89, 87.72 -0.31 M578.25 415.5 C432.25 288.58, 286.25 161.67, 99.76 -0.44 M578.25 415.5 C465.39 317.4, 352.54 219.29, 99.76 -0.44 M590.29 415.37 C454.28 297.14, 318.27 178.9, 111.8 -0.57 M590.29 415.37 C492.96 330.77, 395.64 246.17, 111.8 -0.57 M602.33 415.23 C462.05 293.29, 321.78 171.35, 123.84 -0.71 M602.33 415.23 C445.91 279.26, 289.48 143.28, 123.84 -0.71 M612.86 413.79 C466.76 286.79, 320.66 159.78, 135.88 -0.84 M612.86 413.79 C512.34 326.41, 411.83 239.03, 135.88 -0.84 M621.88 411.03 C447.79 259.69, 273.69 108.35, 148.68 -0.32 M621.88 411.03 C481.24 288.78, 340.61 166.52, 148.68 -0.32 M628.64 406.31 C510.99 304.04, 393.34 201.77, 160.72 -0.45 M628.64 406.31 C508.27 301.67, 387.9 197.03, 160.72 -0.45 M632.38 398.96 C531.78 311.5, 431.17 224.05, 172.76 -0.58 M632.38 398.96 C503.21 286.67, 374.03 174.38, 172.76 -0.58 M634.61 390.29 C508.55 280.72, 382.5 171.14, 184.8 -0.72 M634.61 390.29 C513.77 285.26, 392.94 180.22, 184.8 -0.72 M635.33 380.32 C480.63 245.84, 325.93 111.37, 196.84 -0.85 M635.33 380.32 C494.77 258.14, 354.22 135.96, 196.84 -0.85 M635.29 369.69 C498.85 251.08, 362.4 132.47, 209.64 -0.33 M635.29 369.69 C495.5 248.17, 355.71 126.65, 209.64 -0.33 M635.26 359.06 C472.49 217.57, 309.72 76.07, 221.68 -0.46 M635.26 359.06 C525.4 263.56, 415.54 168.06, 221.68 -0.46 M635.22 348.43 C487.73 220.21, 340.24 92, 233.72 -0.59 M635.22 348.43 C483.48 216.52, 331.74 84.62, 233.72 -0.59 M635.19 337.8 C486.33 208.39, 337.46 78.99, 245.76 -0.73 M635.19 337.8 C528.47 245.03, 421.75 152.26, 245.76 -0.73 M635.16 327.17 C490.69 201.59, 346.23 76.01, 257.8 -0.86 M635.16 327.17 C515.79 223.41, 396.43 119.65, 257.8 -0.86 M635.12 316.54 C534.08 228.71, 433.05 140.88, 270.6 -0.34 M635.12 316.54 C521.63 217.89, 408.15 119.23, 270.6 -0.34 M635.09 305.91 C495.39 184.47, 355.7 63.04, 282.64 -0.47 M635.09 305.91 C529.16 213.83, 423.24 121.75, 282.64 -0.47 M635.05 295.28 C548.68 220.2, 462.31 145.11, 294.68 -0.6 M635.05 295.28 C549.66 221.05, 464.28 146.83, 294.68 -0.6 M635.77 285.3 C568.49 226.82, 501.2 168.33, 306.72 -0.74 M635.77 285.3 C555.04 215.12, 474.3 144.94, 306.72 -0.74 M635.74 274.67 C570.86 218.28, 505.98 161.88, 318.76 -0.87 M635.74 274.67 C517.25 171.67, 398.76 68.67, 318.76 -0.87 M635.7 264.04 C553.29 192.41, 470.88 120.77, 331.56 -0.35 M635.7 264.04 C537.35 178.55, 439 93.05, 331.56 -0.35 M635.67 253.41 C565.64 192.54, 495.62 131.67, 343.6 -0.48 M635.67 253.41 C557.05 185.07, 478.43 116.73, 343.6 -0.48 M635.63 242.78 C572.16 187.61, 508.68 132.43, 355.64 -0.61 M635.63 242.78 C561.44 178.29, 487.26 113.8, 355.64 -0.61 M635.6 232.15 C532.18 142.25, 428.75 52.35, 367.68 -0.75 M635.6 232.15 C546.18 154.43, 456.77 76.7, 367.68 -0.75 M635.57 221.52 C540.94 139.27, 446.31 57.01, 379.72 -0.88 M635.57 221.52 C569.47 164.07, 503.37 106.61, 379.72 -0.88 M635.53 210.89 C565.62 150.12, 495.7 89.34, 392.51 -0.36 M635.53 210.89 C569.4 153.41, 503.27 95.92, 392.51 -0.36 M635.5 200.26 C551.04 126.84, 466.58 53.43, 404.55 -0.49 M635.5 200.26 C577.87 150.17, 520.24 100.07, 404.55 -0.49 M635.46 189.63 C568.45 131.38, 501.44 73.13, 416.6 -0.62 M635.46 189.63 C548.62 114.15, 461.78 38.66, 416.6 -0.62 M635.43 179 C563.72 116.67, 492 54.33, 428.64 -0.76 M635.43 179 C585.31 135.43, 535.18 91.86, 428.64 -0.76 M635.39 168.37 C592.54 131.13, 549.7 93.88, 440.68 -0.89 M635.39 168.37 C571.54 112.87, 507.7 57.37, 440.68 -0.89 M635.36 157.74 C596.67 124.11, 557.97 90.47, 453.47 -0.37 M635.36 157.74 C562.88 94.74, 490.39 31.73, 453.47 -0.37 M635.32 147.11 C580.12 99.12, 524.91 51.13, 465.51 -0.5 M635.32 147.11 C585.47 103.78, 535.62 60.44, 465.51 -0.5 M635.29 136.48 C583.17 91.17, 531.05 45.87, 477.55 -0.63 M635.29 136.48 C582.07 90.22, 528.86 43.96, 477.55 -0.63 M635.25 125.85 C586.56 83.52, 537.87 41.2, 489.6 -0.77 M635.25 125.85 C601.8 96.77, 568.35 67.69, 489.6 -0.77 M635.22 115.22 C603.97 88.06, 572.71 60.89, 501.64 -0.9 M635.22 115.22 C603.66 87.79, 572.1 60.35, 501.64 -0.9 M635.19 104.59 C601.64 75.44, 568.1 46.28, 514.43 -0.38 M635.19 104.59 C601.4 75.22, 567.61 45.85, 514.43 -0.38 M635.15 93.96 C599.88 63.3, 564.61 32.64, 526.47 -0.51 M635.15 93.96 C599.26 62.76, 563.37 31.56, 526.47 -0.51 M635.12 83.33 C615.52 66.3, 595.92 49.26, 538.51 -0.64 M635.12 83.33 C606.57 58.51, 578.01 33.69, 538.51 -0.64 M635.08 72.7 C603.76 45.47, 572.43 18.24, 550.55 -0.78 M635.08 72.7 C617.14 57.11, 599.2 41.51, 550.55 -0.78 M635.05 62.07 C615.19 44.81, 595.32 27.54, 562.6 -0.91 M635.05 62.07 C610.69 40.9, 586.34 19.73, 562.6 -0.91 M635.77 52.1 C623.22 41.19, 610.68 30.29, 575.39 -0.39 M635.77 52.1 C615.67 34.62, 595.56 17.15, 575.39 -0.39 M635.73 41.47 C622.53 30, 609.34 18.52, 587.43 -0.52 M635.73 41.47 C617.92 25.99, 600.11 10.5, 587.43 -0.52 M634.94 30.18 C626.47 22.82, 618 15.45, 599.47 -0.65 M634.94 30.18 C624.27 20.91, 613.6 11.63, 599.47 -0.65 M633.4 18.24 C627.3 12.94, 621.21 7.64, 613.02 0.53 M633.4 18.24 C625.9 11.72, 618.39 5.19, 613.02 0.53" stroke="#a5d8ff" stroke-width="1" fill="none"></path><path d="M32 0 C173.71 0, 315.42 0, 603.11 0 M32 0 C156.66 0, 281.33 0, 603.11 0 M603.11 0 C624.44 0, 635.11 10.67, 635.11 32 M603.11 0 C624.44 0, 635.11 10.67, 635.11 32 M635.11 32 C635.11 119.69, 635.11 207.38, 635.11 383.4 M635.11 32 C635.11 145.43, 635.11 258.87, 635.11 383.4 M635.11 383.4 C635.11 404.73, 624.44 415.4, 603.11 415.4 M635.11 383.4 C635.11 404.73, 624.44 415.4, 603.11 415.4 M603.11 415.4 C396.03 415.4, 188.96 415.4, 32 415.4 M603.11 415.4 C427.1 415.4, 251.08 415.4, 32 415.4 M32 415.4 C10.67 415.4, 0 404.73, 0 383.4 M32 415.4 C10.67 415.4, 0 404.73, 0 383.4 M0 383.4 C0 305.71, 0 228.03, 0 32 M0 383.4 C0 296.64, 0 209.87, 0 32 M0 32 C0 10.67, 10.67 0, 32 0 M0 32 C0 10.67, 10.67 0, 32 0" stroke="#1e1e1e" stroke-width="2" fill="none"></path></g><g stroke-linecap="round" transform="translate(890.3078573254052 110.66441946108398) rotate(0 129.94298944746402 107.03427811139835)"><path d="M32 0 C84.09 0, 136.18 0, 227.89 0 M32 0 C82.22 0, 132.44 0, 227.89 0 M227.89 0 C249.22 0, 259.89 10.67, 259.89 32 M227.89 0 C249.22 0, 259.89 10.67, 259.89 32 M259.89 32 C259.89 78.86, 259.89 125.72, 259.89 182.07 M259.89 32 C259.89 64.51, 259.89 97.03, 259.89 182.07 M259.89 182.07 C259.89 203.4, 249.22 214.07, 227.89 214.07 M259.89 182.07 C259.89 203.4, 249.22 214.07, 227.89 214.07 M227.89 214.07 C181.01 214.07, 134.14 214.07, 32 214.07 M227.89 214.07 C183.55 214.07, 139.21 214.07, 32 214.07 M32 214.07 C10.67 214.07, 0 203.4, 0 182.07 M32 214.07 C10.67 214.07, 0 203.4, 0 182.07 M0 182.07 C0 147.64, 0 113.21, 0 32 M0 182.07 C0 135.87, 0 89.67, 0 32 M0 32 C0 10.67, 10.67 0, 32 0 M0 32 C0 10.67, 10.67 0, 32 0" stroke="#1e1e1e" stroke-width="2" fill="none"></path></g><g stroke-linecap="round"><g transform="translate(898.0011439763193 274.92577295229916) rotate(0 123.36597299960044 -38.02800623156672)"><path d="M0 0 C14.84 -12.68, 65.04 -71.64, 89.02 -76.06 C113.01 -80.48, 126.24 -29.91, 143.89 -26.52 C161.54 -23.12, 177.79 -56.95, 194.93 -55.69 C212.08 -54.44, 238.1 -25.11, 246.73 -19 M0 0 C14.84 -12.68, 65.04 -71.64, 89.02 -76.06 C113.01 -80.48, 126.24 -29.91, 143.89 -26.52 C161.54 -23.12, 177.79 -56.95, 194.93 -55.69 C212.08 -54.44, 238.1 -25.11, 246.73 -19" stroke="#1e1e1e" stroke-width="2" fill="none"></path></g></g><mask></mask><g stroke-linecap="round" transform="translate(1030.959870280381 147.6025563827499) rotate(0 22.951641385551966 22.951641385552)"><path d="M5.15 8.45 C5.15 8.45, 5.15 8.45, 5.15 8.45 M5.15 8.45 C5.15 8.45, 5.15 8.45, 5.15 8.45 M0.69 25.78 C7.66 17.76, 14.62 9.75, 23 0.12 M0.69 25.78 C5.52 20.22, 10.36 14.66, 23 0.12 M3.45 34.8 C13.1 23.69, 22.75 12.59, 31.66 2.34 M3.45 34.8 C13.66 23.05, 23.86 11.31, 31.66 2.34 M8.83 40.8 C16.59 31.87, 24.35 22.94, 39.01 6.08 M8.83 40.8 C18.68 29.47, 28.52 18.15, 39.01 6.08 M15.52 45.29 C21.76 38.12, 28 30.95, 43.73 12.84 M15.52 45.29 C22.49 37.28, 29.45 29.27, 43.73 12.84 M24.84 46.77 C30.76 39.96, 36.69 33.14, 46.49 21.86 M24.84 46.77 C33.34 37, 41.83 27.22, 46.49 21.86 M8.36 40.68 C8.36 40.68, 8.36 40.68, 8.36 40.68 M8.36 40.68 C8.36 40.68, 8.36 40.68, 8.36 40.68 M25.69 45.14 C19.53 39.78, 13.37 34.43, 0.03 22.83 M25.69 45.14 C17.08 37.66, 8.48 30.17, 0.03 22.83 M34.71 42.38 C26.65 35.37, 18.59 28.37, 2.26 14.17 M34.71 42.38 C23.53 32.66, 12.35 22.94, 2.26 14.17 M40.71 37 C28.74 26.59, 16.78 16.19, 6.75 7.48 M40.71 37 C31.09 28.64, 21.48 20.27, 6.75 7.48 M45.21 30.3 C36.67 22.88, 28.13 15.46, 12.75 2.09 M45.21 30.3 C34.23 20.76, 23.25 11.22, 12.75 2.09 M46.68 20.99 C41.11 16.15, 35.54 11.3, 21.78 -0.66 M46.68 20.99 C39.91 15.1, 33.14 9.22, 21.78 -0.66" stroke="#a5d8ff" stroke-width="1" fill="none"></path><path d="M45.9 22.95 C45.9 24.28, 45.79 25.63, 45.55 26.94 C45.32 28.25, 44.97 29.55, 44.52 30.8 C44.06 32.05, 43.49 33.28, 42.83 34.43 C42.16 35.58, 41.39 36.69, 40.53 37.7 C39.68 38.72, 38.72 39.68, 37.7 40.53 C36.69 41.39, 35.58 42.16, 34.43 42.83 C33.28 43.49, 32.05 44.06, 30.8 44.52 C29.55 44.97, 28.25 45.32, 26.94 45.55 C25.63 45.79, 24.28 45.9, 22.95 45.9 C21.62 45.9, 20.27 45.79, 18.97 45.55 C17.66 45.32, 16.35 44.97, 15.1 44.52 C13.85 44.06, 12.63 43.49, 11.48 42.83 C10.33 42.16, 9.22 41.39, 8.2 40.53 C7.18 39.68, 6.22 38.72, 5.37 37.7 C4.52 36.69, 3.74 35.58, 3.07 34.43 C2.41 33.28, 1.84 32.05, 1.38 30.8 C0.93 29.55, 0.58 28.25, 0.35 26.94 C0.12 25.63, 0 24.28, 0 22.95 C0 21.62, 0.12 20.27, 0.35 18.97 C0.58 17.66, 0.93 16.35, 1.38 15.1 C1.84 13.85, 2.41 12.63, 3.07 11.48 C3.74 10.33, 4.52 9.22, 5.37 8.2 C6.22 7.18, 7.18 6.22, 8.2 5.37 C9.22 4.52, 10.33 3.74, 11.48 3.07 C12.63 2.41, 13.85 1.84, 15.1 1.38 C16.35 0.93, 17.66 0.58, 18.97 0.35 C20.27 0.12, 21.62 0, 22.95 0 C24.28 0, 25.63 0.12, 26.94 0.35 C28.25 0.58, 29.55 0.93, 30.8 1.38 C32.05 1.84, 33.28 2.41, 34.43 3.07 C35.58 3.74, 36.69 4.52, 37.7 5.37 C38.72 6.22, 39.68 7.18, 40.53 8.2 C41.39 9.22, 42.16 10.33, 42.83 11.48 C43.49 12.63, 44.06 13.85, 44.52 15.1 C44.97 16.35, 45.32 17.66, 45.55 18.97 C45.79 20.27, 45.85 22.29, 45.9 22.95 C45.96 23.62, 45.96 22.29, 45.9 22.95" stroke="#1e1e1e" stroke-width="2" fill="none"></path></g><g stroke-linecap="round" transform="translate(886.2985870980588 590.0881935532276) rotate(0 129.94298944746424 107.03427811139835)"><path d="M32 0 C88.38 0, 144.76 0, 227.89 0 M32 0 C99.71 0, 167.42 0, 227.89 0 M227.89 0 C249.22 0, 259.89 10.67, 259.89 32 M227.89 0 C249.22 0, 259.89 10.67, 259.89 32 M259.89 32 C259.89 76.71, 259.89 121.43, 259.89 182.07 M259.89 32 C259.89 69.97, 259.89 107.95, 259.89 182.07 M259.89 182.07 C259.89 203.4, 249.22 214.07, 227.89 214.07 M259.89 182.07 C259.89 203.4, 249.22 214.07, 227.89 214.07 M227.89 214.07 C177.51 214.07, 127.13 214.07, 32 214.07 M227.89 214.07 C163.97 214.07, 100.06 214.07, 32 214.07 M32 214.07 C10.67 214.07, 0 203.4, 0 182.07 M32 214.07 C10.67 214.07, 0 203.4, 0 182.07 M0 182.07 C0 140.85, 0 99.62, 0 32 M0 182.07 C0 143.62, 0 105.18, 0 32 M0 32 C0 10.67, 10.67 0, 32 0 M0 32 C0 10.67, 10.67 0, 32 0" stroke="#1e1e1e" stroke-width="2" fill="none"></path></g><g stroke-linecap="round"><g transform="translate(893.9918737489734 754.3495470444428) rotate(0 123.36597299960044 -38.028006231566735)"><path d="M0 0 C14.84 -12.68, 65.04 -71.64, 89.02 -76.06 C113.01 -80.48, 126.24 -29.91, 143.89 -26.52 C161.54 -23.12, 177.79 -56.95, 194.93 -55.69 C212.08 -54.44, 238.1 -25.11, 246.73 -19 M0 0 C14.84 -12.68, 65.04 -71.64, 89.02 -76.06 C113.01 -80.48, 126.24 -29.91, 143.89 -26.52 C161.54 -23.12, 177.79 -56.95, 194.93 -55.69 C212.08 -54.44, 238.1 -25.11, 246.73 -19" stroke="#1e1e1e" stroke-width="2" fill="none"></path></g></g><mask></mask><g stroke-linecap="round" transform="translate(1026.9506000530323 627.0263304748942) rotate(0 22.951641385551966 22.951641385551994)"><path d="M5.15 8.45 C5.15 8.45, 5.15 8.45, 5.15 8.45 M5.15 8.45 C5.15 8.45, 5.15 8.45, 5.15 8.45 M0.69 25.78 C7.34 18.13, 13.98 10.48, 23 0.12 M0.69 25.78 C6.33 19.28, 11.98 12.79, 23 0.12 M3.45 34.8 C13.68 23.03, 23.91 11.26, 31.66 2.34 M3.45 34.8 C12.14 24.8, 20.84 14.79, 31.66 2.34 M8.83 40.8 C17.47 30.86, 26.11 20.92, 39.01 6.08 M8.83 40.8 C17.81 30.46, 26.8 20.13, 39.01 6.08 M15.52 45.29 C23.04 36.65, 30.56 28, 43.73 12.84 M15.52 45.29 C24.39 35.1, 33.25 24.9, 43.73 12.84 M24.84 46.77 C32.92 37.48, 40.99 28.19, 46.49 21.86 M24.84 46.77 C29.93 40.92, 35.02 35.07, 46.49 21.86 M8.36 40.68 C8.36 40.68, 8.36 40.68, 8.36 40.68 M8.36 40.68 C8.36 40.68, 8.36 40.68, 8.36 40.68 M25.69 45.14 C18.84 39.18, 11.99 33.23, 0.03 22.83 M25.69 45.14 C18.84 39.18, 11.99 33.23, 0.03 22.83 M34.71 42.38 C25.18 34.09, 15.65 25.81, 2.26 14.17 M34.71 42.38 C22.61 31.86, 10.51 21.34, 2.26 14.17 M40.71 37 C29.02 26.83, 17.32 16.66, 6.75 7.48 M40.71 37 C32.09 29.5, 23.47 22.01, 6.75 7.48 M45.21 30.3 C37.27 23.4, 29.33 16.5, 12.75 2.09 M45.21 30.3 C36.42 22.67, 27.63 15.03, 12.75 2.09 M46.68 20.99 C37.99 13.43, 29.3 5.88, 21.78 -0.66 M46.68 20.99 C41.37 16.36, 36.05 11.74, 21.78 -0.66" stroke="#a5d8ff" stroke-width="1" fill="none"></path><path d="M45.9 22.95 C45.9 24.28, 45.79 25.63, 45.55 26.94 C45.32 28.25, 44.97 29.55, 44.52 30.8 C44.06 32.05, 43.49 33.28, 42.83 34.43 C42.16 35.58, 41.39 36.69, 40.53 37.7 C39.68 38.72, 38.72 39.68, 37.7 40.53 C36.69 41.39, 35.58 42.16, 34.43 42.83 C33.28 43.49, 32.05 44.06, 30.8 44.52 C29.55 44.97, 28.25 45.32, 26.94 45.55 C25.63 45.79, 24.28 45.9, 22.95 45.9 C21.62 45.9, 20.27 45.79, 18.97 45.55 C17.66 45.32, 16.35 44.97, 15.1 44.52 C13.85 44.06, 12.63 43.49, 11.48 42.83 C10.33 42.16, 9.22 41.39, 8.2 40.53 C7.18 39.68, 6.22 38.72, 5.37 37.7 C4.52 36.69, 3.74 35.58, 3.07 34.43 C2.41 33.28, 1.84 32.05, 1.38 30.8 C0.93 29.55, 0.58 28.25, 0.35 26.94 C0.12 25.63, 0 24.28, 0 22.95 C0 21.62, 0.12 20.27, 0.35 18.97 C0.58 17.66, 0.93 16.35, 1.38 15.1 C1.84 13.85, 2.41 12.63, 3.07 11.48 C3.74 10.33, 4.52 9.22, 5.37 8.2 C6.22 7.18, 7.18 6.22, 8.2 5.37 C9.22 4.52, 10.33 3.74, 11.48 3.07 C12.63 2.41, 13.85 1.84, 15.1 1.38 C16.35 0.93, 17.66 0.58, 18.97 0.35 C20.27 0.12, 21.62 0, 22.95 0 C24.28 0, 25.63 0.12, 26.94 0.35 C28.25 0.58, 29.55 0.93, 30.8 1.38 C32.05 1.84, 33.28 2.41, 34.43 3.07 C35.58 3.74, 36.69 4.52, 37.7 5.37 C38.72 6.22, 39.68 7.18, 40.53 8.2 C41.39 9.22, 42.16 10.33, 42.83 11.48 C43.49 12.63, 44.06 13.85, 44.52 15.1 C44.97 16.35, 45.32 17.66, 45.55 18.97 C45.79 20.27, 45.85 22.29, 45.9 22.95 C45.96 23.62, 45.96 22.29, 45.9 22.95" stroke="#1e1e1e" stroke-width="2" fill="none"></path></g></svg>