<svg version="1.1" xmlns="http://www.w3.org/2000/svg" viewBox="0 0 1206.5863253457069 813.8832447296852" width="1206.5863253457069" height="813.8832447296852" class="excalidraw-svg"><!-- svg-source:excalidraw --><metadata></metadata><defs><style class="style-fonts">
      </style></defs><g stroke-linecap="round" transform="translate(625.5593022731732 10) rotate(0 285.51351153626683 396.9416223648426)"><path d="M7.86 8.16 C7.86 8.16, 7.86 8.16, 7.86 8.16 M7.86 8.16 C7.86 8.16, 7.86 8.16, 7.86 8.16 M0.78 28.5 C6.35 22.1, 11.92 15.69, 25.05 0.58 M0.78 28.5 C8.25 19.91, 15.72 11.31, 25.05 0.58 M0.26 41.3 C12.59 27.1, 24.93 12.91, 36.34 -0.21 M0.26 41.3 C9.83 30.29, 19.39 19.28, 36.34 -0.21 M0.39 53.34 C11.3 40.79, 22.21 28.23, 46.97 -0.25 M0.39 53.34 C18.64 32.34, 36.9 11.34, 46.97 -0.25 M0.52 65.38 C20.02 42.94, 39.53 20.51, 57.6 -0.28 M0.52 65.38 C15.15 48.55, 29.78 31.73, 57.6 -0.28 M0 78.17 C21.58 53.35, 43.16 28.52, 67.57 0.44 M0 78.17 C21.27 53.71, 42.54 29.24, 67.57 0.44 M0.13 90.22 C23.69 63.11, 47.25 36.01, 78.2 0.41 M0.13 90.22 C23.73 63.06, 47.34 35.91, 78.2 0.41 M0.26 102.26 C23.45 75.58, 46.64 48.91, 88.83 0.37 M0.26 102.26 C28.89 69.32, 57.52 36.39, 88.83 0.37 M0.4 114.3 C27.18 83.49, 53.96 52.68, 99.46 0.34 M0.4 114.3 C24.33 86.77, 48.26 59.24, 99.46 0.34 M0.53 126.34 C28.54 94.11, 56.56 61.89, 110.09 0.3 M0.53 126.34 C41.28 79.46, 82.03 32.58, 110.09 0.3 M0.01 139.13 C31.72 102.65, 63.44 66.17, 120.72 0.27 M0.01 139.13 C32.61 101.64, 65.2 64.14, 120.72 0.27 M0.14 151.17 C28.02 119.1, 55.9 87.03, 131.35 0.23 M0.14 151.17 C29.44 117.47, 58.74 83.76, 131.35 0.23 M0.27 163.22 C51.49 104.3, 102.7 45.39, 141.98 0.2 M0.27 163.22 C34.5 123.84, 68.73 84.46, 141.98 0.2 M0.41 175.26 C40.1 129.6, 79.79 83.94, 152.61 0.16 M0.41 175.26 C53.31 114.4, 106.21 53.55, 152.61 0.16 M0.54 187.3 C35.69 146.86, 70.85 106.42, 163.24 0.13 M0.54 187.3 C60.38 118.47, 120.21 49.63, 163.24 0.13 M0.02 200.09 C42.84 150.83, 85.67 101.56, 173.87 0.09 M0.02 200.09 C38.75 155.54, 77.48 110.99, 173.87 0.09 M0.15 212.13 C63.49 139.27, 126.83 66.41, 184.5 0.06 M0.15 212.13 C58.8 144.67, 117.44 77.21, 184.5 0.06 M0.28 224.17 C45.51 172.15, 90.74 120.12, 195.13 0.03 M0.28 224.17 C46.03 171.55, 91.78 118.92, 195.13 0.03 M0.42 236.22 C47.23 182.36, 94.05 128.5, 205.76 -0.01 M0.42 236.22 C66.11 160.65, 131.8 85.08, 205.76 -0.01 M-0.11 249.01 C86.12 149.82, 172.35 50.62, 216.39 -0.04 M-0.11 249.01 C81.58 155.04, 163.26 61.08, 216.39 -0.04 M0.03 261.05 C50.09 203.46, 100.16 145.86, 227.02 -0.08 M0.03 261.05 C58.64 193.63, 117.24 126.21, 227.02 -0.08 M0.16 273.09 C81.42 179.61, 162.69 86.13, 237.65 -0.11 M0.16 273.09 C83.71 176.98, 167.25 80.87, 237.65 -0.11 M0.29 285.13 C59.74 216.75, 119.18 148.37, 248.28 -0.15 M0.29 285.13 C93.51 177.9, 186.73 70.67, 248.28 -0.15 M0.43 297.17 C98.21 184.68, 196 72.19, 258.91 -0.18 M0.43 297.17 C69.59 217.62, 138.74 138.06, 258.91 -0.18 M-0.1 309.97 C72.99 225.89, 146.08 141.81, 269.54 -0.22 M-0.1 309.97 C100.67 194.06, 201.43 78.14, 269.54 -0.22 M0.04 322.01 C66.82 245.18, 133.61 168.35, 280.17 -0.25 M0.04 322.01 C95.76 211.89, 191.49 101.77, 280.17 -0.25 M0.17 334.05 C77.9 244.64, 155.62 155.22, 290.8 -0.28 M0.17 334.05 C90.3 230.36, 180.44 126.68, 290.8 -0.28 M0.3 346.09 C111.89 217.73, 223.47 89.37, 300.78 0.44 M0.3 346.09 C120.25 208.11, 240.2 70.12, 300.78 0.44 M0.44 358.13 C77.81 269.12, 155.19 180.11, 311.41 0.4 M0.44 358.13 C94.2 250.27, 187.97 142.4, 311.41 0.4 M-0.09 370.93 C78.28 280.78, 156.64 190.64, 322.04 0.37 M-0.09 370.93 C119.98 232.81, 240.05 94.68, 322.04 0.37 M0.05 382.97 C67.36 305.53, 134.68 228.09, 332.67 0.33 M0.05 382.97 C73.9 298.01, 147.76 213.05, 332.67 0.33 M0.18 395.01 C81.64 301.3, 163.1 207.6, 343.3 0.3 M0.18 395.01 C69.8 314.93, 139.41 234.84, 343.3 0.3 M0.31 407.05 C135.58 251.45, 270.84 95.85, 353.93 0.26 M0.31 407.05 C72.32 324.22, 144.32 241.39, 353.93 0.26 M0.45 419.09 C129.43 270.72, 258.41 122.34, 364.56 0.23 M0.45 419.09 C123.52 277.51, 246.6 135.92, 364.56 0.23 M-0.08 431.89 C79.02 340.9, 158.11 249.92, 375.19 0.19 M-0.08 431.89 C126.02 286.82, 252.13 141.76, 375.19 0.19 M0.06 443.93 C120.18 305.74, 240.31 167.55, 385.82 0.16 M0.06 443.93 C90.44 339.95, 180.83 235.97, 385.82 0.16 M0.19 455.97 C149.13 284.63, 298.08 113.29, 396.45 0.12 M0.19 455.97 C145.57 288.73, 290.94 121.5, 396.45 0.12 M0.32 468.01 C99.47 353.95, 198.62 239.9, 407.08 0.09 M0.32 468.01 C104.34 348.35, 208.36 228.69, 407.08 0.09 M0.46 480.05 C139.73 319.84, 279 159.62, 417.71 0.06 M0.46 480.05 C84.54 383.32, 168.63 286.59, 417.71 0.06 M-0.07 492.85 C87.03 392.65, 174.13 292.46, 428.34 0.02 M-0.07 492.85 C160.2 308.48, 320.47 124.11, 428.34 0.02 M0.07 504.89 C91.19 400.07, 182.3 295.25, 438.97 -0.01 M0.07 504.89 C89.25 402.29, 178.44 299.7, 438.97 -0.01 M0.2 516.93 C116.72 382.88, 233.25 248.84, 449.6 -0.05 M0.2 516.93 C121.1 377.85, 242.01 238.76, 449.6 -0.05 M0.33 528.97 C132.62 376.79, 264.92 224.6, 460.23 -0.08 M0.33 528.97 C135.05 374, 269.76 219.03, 460.23 -0.08 M0.47 541.01 C187.72 325.59, 374.98 110.18, 470.86 -0.12 M0.47 541.01 C107.69 417.66, 214.91 294.32, 470.86 -0.12 M-0.06 553.81 C159.54 370.21, 319.13 186.62, 481.49 -0.15 M-0.06 553.81 C120.1 415.58, 240.26 277.35, 481.49 -0.15 M0.08 565.85 C109.95 439.45, 219.82 313.05, 492.12 -0.19 M0.08 565.85 C121.16 426.56, 242.24 287.26, 492.12 -0.19 M0.21 577.89 C132.67 425.51, 265.14 273.12, 502.75 -0.22 M0.21 577.89 C105.57 456.69, 210.93 335.49, 502.75 -0.22 M0.34 589.93 C131.53 439.02, 262.71 288.1, 513.38 -0.25 M0.34 589.93 C167.85 397.24, 335.35 204.54, 513.38 -0.25 M0.48 601.97 C144.8 435.94, 289.13 269.91, 523.35 0.47 M0.48 601.97 C192.77 380.76, 385.06 159.55, 523.35 0.47 M-0.05 614.76 C124.52 471.47, 249.09 328.17, 533.98 0.43 M-0.05 614.76 C202.91 381.29, 405.87 147.81, 533.98 0.43 M0.09 626.81 C178.58 421.47, 357.07 216.14, 544.61 0.4 M0.09 626.81 C150.44 453.84, 300.79 280.88, 544.61 0.4 M0.22 638.85 C116.98 504.53, 233.73 370.22, 553.28 2.63 M0.22 638.85 C180.2 431.81, 360.17 224.76, 553.28 2.63 M0.35 650.89 C137.7 492.89, 275.04 334.9, 560.63 6.37 M0.35 650.89 C193.54 428.65, 386.73 206.41, 560.63 6.37 M0.49 662.93 C148.43 492.73, 296.38 322.54, 566.01 12.37 M0.49 662.93 C220.53 409.79, 440.58 156.66, 566.01 12.37 M-0.04 675.72 C126.09 530.63, 252.22 385.54, 569.42 20.64 M-0.04 675.72 C194.57 451.86, 389.17 227.99, 569.42 20.64 M0.1 687.76 C213.97 441.73, 427.84 195.7, 571.52 30.41 M0.1 687.76 C117.46 552.75, 234.82 417.74, 571.52 30.41 M0.23 699.81 C181.43 491.36, 362.63 282.92, 571 43.21 M0.23 699.81 C167.24 507.69, 334.24 315.57, 571 43.21 M0.36 711.85 C203.46 478.21, 406.56 244.57, 571.13 55.25 M0.36 711.85 C180.95 504.1, 361.54 296.36, 571.13 55.25 M0.49 723.89 C206.47 486.94, 412.45 249.99, 571.27 67.29 M0.49 723.89 C217.91 473.78, 435.33 223.66, 571.27 67.29 M-0.03 736.68 C188.64 519.65, 377.3 302.62, 571.4 79.33 M-0.03 736.68 C155.43 557.85, 310.89 379.01, 571.4 79.33 M0.11 748.72 C141.08 586.55, 282.06 424.37, 571.53 91.37 M0.11 748.72 C141.84 585.68, 283.57 422.63, 571.53 91.37 M0.24 760.76 C136.29 604.25, 272.35 447.74, 571.01 104.17 M0.24 760.76 C188.65 544.02, 377.06 327.28, 571.01 104.17 M1.03 772.05 C136.24 616.51, 271.45 460.96, 571.14 116.21 M1.03 772.05 C168.12 579.83, 335.22 387.61, 571.14 116.21 M4.44 780.32 C196.44 559.45, 388.44 338.58, 571.28 128.25 M4.44 780.32 C206.28 548.13, 408.12 315.93, 571.28 128.25 M9.17 787.08 C156.25 617.88, 303.33 448.67, 571.41 140.29 M9.17 787.08 C218.9 545.8, 428.64 304.53, 571.41 140.29 M15.86 791.57 C186.28 595.52, 356.71 399.47, 571.54 152.33 M15.86 791.57 C195.55 584.86, 375.25 378.14, 571.54 152.33 M24.52 793.8 C142.88 657.64, 261.24 521.49, 571.02 165.13 M24.52 793.8 C189.92 603.53, 355.32 413.26, 571.02 165.13 M35.15 793.76 C214.67 587.25, 394.19 380.74, 571.15 177.17 M35.15 793.76 C149.4 662.34, 263.65 530.91, 571.15 177.17 M45.78 793.73 C185.48 633.02, 325.18 472.32, 571.29 189.21 M45.78 793.73 C232.08 579.42, 418.38 365.11, 571.29 189.21 M55.76 794.45 C176.04 656.08, 296.32 517.71, 571.42 201.25 M55.76 794.45 C217.87 607.95, 379.99 421.46, 571.42 201.25 M66.39 794.42 C238.3 596.65, 410.22 398.88, 571.55 213.29 M66.39 794.42 C247.75 585.78, 429.12 377.14, 571.55 213.29 M77.02 794.38 C239.41 607.57, 401.8 420.76, 571.03 226.09 M77.02 794.38 C237.03 610.31, 397.04 426.24, 571.03 226.09 M87.65 794.35 C202.79 661.89, 317.93 529.44, 571.16 238.13 M87.65 794.35 C186.47 680.66, 285.29 566.98, 571.16 238.13 M98.28 794.31 C271.18 595.41, 444.08 396.51, 571.3 250.17 M98.28 794.31 C214.78 660.29, 331.29 526.26, 571.3 250.17 M108.91 794.28 C259.04 621.57, 409.17 448.86, 571.43 262.21 M108.91 794.28 C264.6 615.17, 420.29 436.07, 571.43 262.21 M119.54 794.24 C212.24 687.6, 304.94 580.96, 571.56 274.25 M119.54 794.24 C252.44 641.36, 385.34 488.47, 571.56 274.25 M130.17 794.21 C232.54 676.45, 334.91 558.68, 571.04 287.04 M130.17 794.21 C244.6 662.57, 359.03 530.93, 571.04 287.04 M140.8 794.17 C281.09 632.79, 421.37 471.41, 571.17 299.09 M140.8 794.17 C307.47 602.43, 474.15 410.69, 571.17 299.09 M151.43 794.14 C302.85 619.95, 454.26 445.77, 571.3 311.13 M151.43 794.14 C250.04 680.7, 348.64 567.27, 571.3 311.13 M162.06 794.11 C294.68 641.54, 427.31 488.97, 571.44 323.17 M162.06 794.11 C266.1 674.41, 370.15 554.72, 571.44 323.17 M172.69 794.07 C322.96 621.2, 473.24 448.32, 571.57 335.21 M172.69 794.07 C325.04 618.81, 477.4 443.54, 571.57 335.21 M183.32 794.04 C265.53 699.46, 347.74 604.89, 571.05 348 M183.32 794.04 C311.46 646.63, 439.6 499.22, 571.05 348 M193.95 794 C312.63 657.47, 431.31 520.94, 571.18 360.04 M193.95 794 C336.59 629.91, 479.24 465.81, 571.18 360.04 M204.58 793.97 C322.05 658.83, 439.53 523.68, 571.31 372.08 M204.58 793.97 C299.92 684.29, 395.26 574.61, 571.31 372.08 M215.21 793.93 C313.34 681.04, 411.48 568.14, 571.45 384.13 M215.21 793.93 C342.91 647.03, 470.62 500.12, 571.45 384.13 M225.84 793.9 C362.82 636.32, 499.8 478.74, 571.58 396.17 M225.84 793.9 C362.09 637.15, 498.35 480.41, 571.58 396.17 M236.47 793.86 C346.14 667.7, 455.81 541.54, 571.06 408.96 M236.47 793.86 C308.7 710.77, 380.93 627.68, 571.06 408.96 M247.1 793.83 C345.67 680.44, 444.24 567.05, 571.19 421 M247.1 793.83 C341.78 684.91, 436.47 575.99, 571.19 421 M257.73 793.8 C322.68 719.08, 387.63 644.36, 571.32 433.04 M257.73 793.8 C352.14 685.19, 446.55 576.58, 571.32 433.04 M268.36 793.76 C367.14 680.13, 465.91 566.5, 571.46 445.08 M268.36 793.76 C335.42 716.61, 402.48 639.47, 571.46 445.08 M278.99 793.73 C342.28 720.91, 405.58 648.1, 571.59 457.13 M278.99 793.73 C373.36 685.17, 467.73 576.61, 571.59 457.13 M288.96 794.45 C362.41 709.96, 435.85 625.47, 571.07 469.92 M288.96 794.45 C361.28 711.26, 433.59 628.07, 571.07 469.92 M299.59 794.41 C387.97 692.75, 476.34 591.09, 571.2 481.96 M299.59 794.41 C366.57 717.36, 433.55 640.32, 571.2 481.96 M310.22 794.38 C394.72 697.17, 479.22 599.97, 571.33 494 M310.22 794.38 C409.48 680.19, 508.74 566.01, 571.33 494 M320.85 794.34 C388.88 716.08, 456.92 637.82, 571.47 506.04 M320.85 794.34 C420.46 679.76, 520.06 565.18, 571.47 506.04 M331.48 794.31 C391.25 725.55, 451.03 656.79, 571.6 518.08 M331.48 794.31 C423.5 688.46, 515.51 582.61, 571.6 518.08 M342.11 794.27 C401.4 726.07, 460.69 657.86, 571.08 530.88 M342.11 794.27 C423.85 700.24, 505.6 606.21, 571.08 530.88 M352.74 794.24 C437.24 697.03, 521.74 599.83, 571.21 542.92 M352.74 794.24 C432.24 702.78, 511.75 611.33, 571.21 542.92 M363.37 794.2 C417.32 732.14, 471.27 670.08, 571.34 554.96 M363.37 794.2 C418.5 730.79, 473.63 667.37, 571.34 554.96 M374 794.17 C414.45 747.64, 454.9 701.11, 571.48 567 M374 794.17 C419.11 742.28, 464.21 690.39, 571.48 567 M384.63 794.14 C442.68 727.36, 500.73 660.58, 570.95 579.8 M384.63 794.14 C444.11 725.72, 503.58 657.3, 570.95 579.8 M395.26 794.1 C463.47 715.64, 531.67 637.18, 571.09 591.84 M395.26 794.1 C463.96 715.07, 532.66 636.05, 571.09 591.84 M405.89 794.07 C442.49 751.97, 479.09 709.87, 571.22 603.88 M405.89 794.07 C451.33 741.8, 496.76 689.53, 571.22 603.88 M416.52 794.03 C468.86 733.83, 521.2 673.62, 571.35 615.92 M416.52 794.03 C458.73 745.47, 500.95 696.92, 571.35 615.92 M427.15 794 C464.96 750.51, 502.76 707.02, 571.49 627.96 M427.15 794 C476.96 736.7, 526.78 679.39, 571.49 627.96 M437.78 793.96 C474.33 751.92, 510.88 709.88, 570.96 640.76 M437.78 793.96 C464.92 762.75, 492.05 731.53, 570.96 640.76 M448.41 793.93 C481.97 755.32, 515.53 716.72, 571.1 652.8 M448.41 793.93 C485.35 751.43, 522.3 708.94, 571.1 652.8 M459.04 793.89 C496.45 750.86, 533.86 707.82, 571.23 664.84 M459.04 793.89 C495.11 752.4, 531.18 710.91, 571.23 664.84 M469.67 793.86 C506.66 751.31, 543.65 708.76, 571.36 676.88 M469.67 793.86 C507.47 750.39, 545.26 706.91, 571.36 676.88 M480.3 793.83 C504.81 765.63, 529.32 737.43, 571.5 688.92 M480.3 793.83 C505.03 765.38, 529.76 736.93, 571.5 688.92 M490.93 793.79 C507.52 774.72, 524.1 755.64, 570.97 701.72 M490.93 793.79 C518.42 762.18, 545.9 730.56, 570.97 701.72 M501.56 793.76 C525.98 765.67, 550.4 737.58, 571.11 713.76 M501.56 793.76 C522.83 769.3, 544.09 744.84, 571.11 713.76 M512.19 793.72 C532.61 770.24, 553.02 746.76, 571.24 725.8 M512.19 793.72 C527.59 776.01, 542.98 758.31, 571.24 725.8 M522.17 794.44 C535.38 779.25, 548.59 764.05, 571.37 737.84 M522.17 794.44 C541.17 772.59, 560.16 750.73, 571.37 737.84 M532.8 794.41 C543.96 781.56, 555.13 768.72, 571.51 749.88 M532.8 794.41 C545.41 779.89, 558.03 765.38, 571.51 749.88 M543.43 794.37 C549.8 787.04, 556.18 779.71, 571.64 761.92 M543.43 794.37 C551.35 785.26, 559.28 776.14, 571.64 761.92 M557.99 789.81 C560.49 786.94, 562.99 784.06, 569.8 776.23 M557.99 789.81 C562.71 784.39, 567.42 778.96, 569.8 776.23 M8.28 786.13 C8.28 786.13, 8.28 786.13, 8.28 786.13 M8.28 786.13 C8.28 786.13, 8.28 786.13, 8.28 786.13 M28.63 793.21 C21.41 786.94, 14.19 780.66, 0.7 768.94 M28.63 793.21 C20.3 785.97, 11.97 778.73, 0.7 768.94 M41.42 793.74 C30.3 784.07, 19.18 774.4, -0.09 757.65 M41.42 793.74 C31.97 785.52, 22.51 777.29, -0.09 757.65 M53.46 793.6 C40.6 782.42, 27.74 771.24, -0.12 747.02 M53.46 793.6 C37.44 779.67, 21.41 765.74, -0.12 747.02 M65.5 793.47 C49.18 779.28, 32.86 765.09, -0.16 736.39 M65.5 793.47 C42.11 773.13, 18.72 752.8, -0.16 736.39 M77.54 793.34 C51.6 770.78, 25.65 748.23, -0.19 725.76 M77.54 793.34 C59.28 777.46, 41.02 761.59, -0.19 725.76 M90.34 793.86 C66.62 773.24, 42.9 752.62, -0.22 715.13 M90.34 793.86 C67.51 774.02, 44.69 754.17, -0.22 715.13 M102.38 793.73 C62.89 759.39, 23.39 725.06, -0.26 704.5 M102.38 793.73 C61.61 758.29, 20.84 722.85, -0.26 704.5 M114.42 793.59 C68.95 754.07, 23.49 714.54, 0.46 694.53 M114.42 793.59 C89.03 771.52, 63.63 749.44, 0.46 694.53 M126.46 793.46 C100.59 770.97, 74.72 748.48, 0.43 683.9 M126.46 793.46 C96.83 767.7, 67.2 741.95, 0.43 683.9 M139.26 793.98 C102.04 761.63, 64.82 729.28, 0.39 673.27 M139.26 793.98 C85.9 747.6, 32.54 701.21, 0.39 673.27 M151.3 793.85 C109.86 757.82, 68.41 721.8, 0.36 662.64 M151.3 793.85 C112.73 760.32, 74.16 726.79, 0.36 662.64 M163.34 793.72 C115.33 751.98, 67.32 710.24, 0.32 652.01 M163.34 793.72 C104.72 742.76, 46.1 691.8, 0.32 652.01 M175.38 793.58 C133.49 757.17, 91.6 720.76, 0.29 641.38 M175.38 793.58 C118.78 744.38, 62.17 695.17, 0.29 641.38 M187.42 793.45 C146.03 757.47, 104.65 721.49, 0.25 630.75 M187.42 793.45 C116.28 731.61, 45.14 669.76, 0.25 630.75 M200.22 793.97 C157.61 756.93, 115 719.89, 0.22 620.12 M200.22 793.97 C128.03 731.22, 55.84 668.47, 0.22 620.12 M212.26 793.84 C168.21 755.55, 124.17 717.27, 0.19 609.49 M212.26 793.84 C130.67 722.92, 49.08 651.99, 0.19 609.49 M224.3 793.71 C162.23 739.75, 100.16 685.79, 0.15 598.86 M224.3 793.71 C168.5 745.21, 112.71 696.7, 0.15 598.86 M236.34 793.57 C158.1 725.56, 79.86 657.55, 0.12 588.23 M236.34 793.57 C160.68 727.81, 85.02 662.04, 0.12 588.23 M248.38 793.44 C154.28 711.64, 60.18 629.84, 0.08 577.6 M248.38 793.44 C167.58 723.21, 86.79 652.97, 0.08 577.6 M261.18 793.96 C186.51 729.06, 111.85 664.15, 0.05 566.97 M261.18 793.96 C198.15 739.17, 135.12 684.38, 0.05 566.97 M273.22 793.83 C209.15 738.14, 145.08 682.44, 0.01 556.34 M273.22 793.83 C194.97 725.81, 116.72 657.79, 0.01 556.34 M285.26 793.7 C204.46 723.46, 123.66 653.22, -0.02 545.71 M285.26 793.7 C225.22 741.51, 165.19 689.32, -0.02 545.71 M297.3 793.56 C230.08 735.14, 162.87 676.71, -0.06 535.08 M297.3 793.56 C212.32 719.7, 127.35 645.83, -0.06 535.08 M309.34 793.43 C200.51 698.83, 91.68 604.22, -0.09 524.45 M309.34 793.43 C186.28 686.45, 63.21 579.48, -0.09 524.45 M322.14 793.95 C224.42 709.01, 126.69 624.06, -0.13 513.82 M322.14 793.95 C246.36 728.08, 170.58 662.21, -0.13 513.82 M334.18 793.82 C254.89 724.9, 175.6 655.97, -0.16 503.19 M334.18 793.82 C206.71 683.02, 79.25 572.22, -0.16 503.19 M346.22 793.69 C248.2 708.48, 150.17 623.27, -0.19 492.56 M346.22 793.69 C240.91 702.15, 135.6 610.6, -0.19 492.56 M358.26 793.56 C249.82 699.29, 141.37 605.02, -0.23 481.93 M358.26 793.56 C269.75 716.61, 181.24 639.67, -0.23 481.93 M370.3 793.42 C240.87 680.91, 111.43 568.39, -0.26 471.3 M370.3 793.42 C288.93 722.69, 207.57 651.96, -0.26 471.3 M383.09 793.94 C295.88 718.13, 208.67 642.32, 0.46 461.32 M383.09 793.94 C272.76 698.03, 162.42 602.11, 0.46 461.32 M395.14 793.81 C255.62 672.54, 116.11 551.26, 0.42 450.69 M395.14 793.81 C250.29 667.9, 105.44 541.98, 0.42 450.69 M407.18 793.68 C280.77 683.79, 154.36 573.9, 0.39 440.06 M407.18 793.68 C282.25 685.08, 157.32 576.48, 0.39 440.06 M419.22 793.55 C287.74 679.25, 156.26 564.96, 0.35 429.43 M419.22 793.55 C298.13 688.29, 177.04 583.03, 0.35 429.43 M431.26 793.41 C273.74 656.49, 116.23 519.56, 0.32 418.8 M431.26 793.41 C296.61 676.36, 161.96 559.32, 0.32 418.8 M444.05 793.94 C303.72 671.95, 163.4 549.96, 0.28 408.17 M444.05 793.94 C272.48 644.79, 100.91 495.65, 0.28 408.17 M456.09 793.8 C354.02 705.07, 251.94 616.34, 0.25 397.54 M456.09 793.8 C355.12 706.03, 254.15 618.26, 0.25 397.54 M468.14 793.67 C368.35 706.93, 268.57 620.19, 0.22 386.91 M468.14 793.67 C366.08 704.95, 264.02 616.24, 0.22 386.91 M480.18 793.54 C367.43 695.53, 254.69 597.52, 0.18 376.28 M480.18 793.54 C307.77 643.66, 135.36 493.79, 0.18 376.28 M492.22 793.4 C332.31 654.39, 172.39 515.38, 0.15 365.65 M492.22 793.4 C295.46 622.36, 98.7 451.32, 0.15 365.65 M505.01 793.93 C320.98 633.95, 136.95 473.98, 0.11 355.02 M505.01 793.93 C324.14 636.69, 143.26 479.46, 0.11 355.02 M517.05 793.79 C342.02 641.63, 166.98 489.48, 0.08 344.39 M517.05 793.79 C358.84 656.26, 200.62 518.72, 0.08 344.39 M529.09 793.66 C372.5 657.53, 215.9 521.4, 0.04 333.76 M529.09 793.66 C391.95 674.44, 254.81 555.23, 0.04 333.76 M541.14 793.53 C428.35 695.48, 315.56 597.44, 0.01 323.13 M541.14 793.53 C341.68 620.14, 142.22 446.75, 0.01 323.13 M551.67 792.08 C369.67 633.87, 187.67 475.66, -0.03 312.5 M551.67 792.08 C435.54 691.14, 319.42 590.19, -0.03 312.5 M559.93 788.67 C416.53 664, 273.12 539.34, -0.06 301.87 M559.93 788.67 C348.64 604.99, 137.35 421.32, -0.06 301.87 M565.18 782.63 C404.75 643.17, 244.32 503.7, -0.09 291.24 M565.18 782.63 C357.03 601.69, 148.89 420.75, -0.09 291.24 M568.92 775.28 C415.11 641.57, 261.29 507.86, -0.13 280.61 M568.92 775.28 C352.82 587.43, 136.72 399.58, -0.13 280.61 M571.15 766.62 C346.85 571.64, 122.55 376.66, -0.16 269.98 M571.15 766.62 C344.68 569.75, 118.2 372.87, -0.16 269.98 M571.12 755.99 C452.86 653.19, 334.6 550.39, -0.2 259.35 M571.12 755.99 C353.26 566.61, 135.4 377.23, -0.2 259.35 M571.08 745.36 C452.08 641.91, 333.08 538.47, -0.23 248.72 M571.08 745.36 C361.49 563.16, 151.9 380.97, -0.23 248.72 M571.05 734.73 C405.77 591.06, 240.5 447.39, -0.27 238.09 M571.05 734.73 C430.94 612.94, 290.84 491.14, -0.27 238.09 M571.01 724.1 C399.8 575.26, 228.58 426.43, 0.45 228.12 M571.01 724.1 C423.14 595.55, 275.27 467.01, 0.45 228.12 M571.73 714.12 C396.06 561.41, 220.38 408.7, 0.42 217.49 M571.73 714.12 C347.49 519.19, 123.25 324.26, 0.42 217.49 M571.7 703.49 C369.23 527.49, 166.76 351.49, 0.38 206.86 M571.7 703.49 C422.71 573.98, 273.72 444.46, 0.38 206.86 M571.66 692.86 C389.36 534.38, 207.05 375.91, 0.35 196.23 M571.66 692.86 C399.15 542.9, 226.64 392.93, 0.35 196.23 M571.63 682.23 C414.64 545.76, 257.64 409.29, 0.31 185.6 M571.63 682.23 C419.12 549.66, 266.62 417.09, 0.31 185.6 M571.6 671.6 C372.32 498.37, 173.04 325.14, 0.28 174.97 M571.6 671.6 C451.47 567.18, 331.35 462.76, 0.28 174.97 M571.56 660.97 C410.41 520.89, 249.26 380.8, 0.25 164.34 M571.56 660.97 C354.07 471.91, 136.59 282.86, 0.25 164.34 M571.53 650.34 C406.72 507.08, 241.92 363.82, 0.21 153.71 M571.53 650.34 C450.5 545.13, 329.47 439.93, 0.21 153.71 M571.49 639.71 C449.12 533.34, 326.75 426.96, 0.18 143.08 M571.49 639.71 C449.88 533.99, 328.26 428.28, 0.18 143.08 M571.46 629.08 C344.56 431.85, 117.67 234.61, 0.14 132.45 M571.46 629.08 C366.36 450.79, 161.26 272.5, 0.14 132.45 M571.42 618.45 C442.13 506.06, 312.85 393.68, 0.11 121.82 M571.42 618.45 C353.07 428.64, 134.72 238.83, 0.11 121.82 M571.39 607.82 C456.51 507.96, 341.63 408.09, 0.07 111.19 M571.39 607.82 C364.69 428.14, 157.99 248.46, 0.07 111.19 M571.35 597.19 C405.25 452.8, 239.15 308.41, 0.04 100.56 M571.35 597.19 C448.45 490.35, 325.54 383.51, 0.04 100.56 M571.32 586.56 C346.38 391.03, 121.45 195.49, 0 89.93 M571.32 586.56 C406.7 443.46, 242.08 300.36, 0 89.93 M571.28 575.93 C401.58 428.41, 231.88 280.9, -0.03 79.3 M571.28 575.93 C430.75 453.76, 290.21 331.59, -0.03 79.3 M571.25 565.3 C379.48 398.6, 187.71 231.9, -0.06 68.67 M571.25 565.3 C420.58 434.32, 269.9 303.34, -0.06 68.67 M571.22 554.67 C370.17 379.91, 169.12 205.14, -0.1 58.04 M571.22 554.67 C390.17 397.29, 209.13 239.92, -0.1 58.04 M571.18 544.04 C368.52 367.87, 165.85 191.69, -0.13 47.41 M571.18 544.04 C358.6 359.24, 146.01 174.45, -0.13 47.41 M571.15 533.41 C411.62 394.73, 252.08 256.05, -0.17 36.78 M571.15 533.41 C412.47 395.47, 253.79 257.53, -0.17 36.78 M571.11 522.78 C430.8 400.81, 290.49 278.84, 0.55 26.8 M571.11 522.78 C368.81 346.92, 166.5 171.06, 0.55 26.8 M571.08 512.15 C388.91 353.79, 206.73 195.43, 2.03 17.48 M571.08 512.15 C408.16 370.53, 245.23 228.9, 2.03 17.48 M571.04 501.52 C361.09 319.02, 151.15 136.51, 5.77 10.13 M571.04 501.52 C395.64 349.05, 220.24 196.57, 5.77 10.13 M571.01 490.89 C440.78 377.69, 310.55 264.48, 11.77 4.75 M571.01 490.89 C398.7 341.1, 226.39 191.32, 11.77 4.75 M571.73 480.92 C372.81 308, 173.89 135.08, 20.04 1.34 M571.73 480.92 C353.14 290.9, 134.54 100.88, 20.04 1.34 M571.69 470.29 C359.09 285.47, 146.48 100.65, 30.57 -0.11 M571.69 470.29 C454.52 368.43, 337.34 266.57, 30.57 -0.11 M571.66 459.66 C460.59 363.1, 349.51 266.55, 42.61 -0.24 M571.66 459.66 C398.59 309.21, 225.52 158.76, 42.61 -0.24 M571.63 449.03 C420.21 317.41, 268.8 185.78, 54.65 -0.37 M571.63 449.03 C420.27 317.46, 268.92 185.89, 54.65 -0.37 M571.59 438.4 C378.35 270.41, 185.1 102.43, 67.45 0.15 M571.59 438.4 C432.65 317.62, 293.71 196.84, 67.45 0.15 M571.56 427.77 C452.15 323.97, 332.75 220.17, 79.49 0.02 M571.56 427.77 C411.25 288.42, 250.95 149.07, 79.49 0.02 M571.52 417.14 C421.97 287.13, 272.42 157.13, 91.53 -0.12 M571.52 417.14 C392.95 261.91, 214.38 106.68, 91.53 -0.12 M571.49 406.51 C445.5 296.99, 319.51 187.47, 103.57 -0.25 M571.49 406.51 C425.33 279.45, 279.17 152.4, 103.57 -0.25 M571.45 395.88 C437.96 279.83, 304.46 163.78, 115.61 -0.38 M571.45 395.88 C478.18 314.79, 384.9 233.71, 115.61 -0.38 M571.42 385.25 C475.34 301.73, 379.26 218.21, 128.4 0.14 M571.42 385.25 C413.2 247.71, 254.98 110.17, 128.4 0.14 M571.38 374.62 C402.25 227.59, 233.11 80.56, 140.45 0.01 M571.38 374.62 C433.74 254.97, 296.1 135.32, 140.45 0.01 M571.35 363.99 C467.92 274.08, 364.49 184.17, 152.49 -0.13 M571.35 363.99 C415.3 228.33, 259.24 92.68, 152.49 -0.13 M571.32 353.36 C431.82 232.09, 292.32 110.83, 164.53 -0.26 M571.32 353.36 C441.06 240.13, 310.81 126.9, 164.53 -0.26 M571.28 342.73 C437.87 226.75, 304.45 110.77, 176.57 -0.39 M571.28 342.73 C421.75 212.74, 272.21 82.75, 176.57 -0.39 M571.25 332.1 C478.11 251.13, 384.97 170.17, 189.36 0.13 M571.25 332.1 C430.46 209.72, 289.68 87.33, 189.36 0.13 M571.21 321.47 C428.51 197.42, 285.81 73.37, 201.4 0 M571.21 321.47 C495.76 255.88, 420.3 190.28, 201.4 0 M571.18 310.84 C477.37 229.29, 383.56 147.74, 213.44 -0.14 M571.18 310.84 C469.5 222.45, 367.81 134.06, 213.44 -0.14 M571.14 300.21 C466.23 209.01, 361.32 117.81, 225.49 -0.27 M571.14 300.21 C438.41 184.82, 305.67 69.43, 225.49 -0.27 M571.11 289.58 C460.36 193.3, 349.6 97.02, 237.53 -0.4 M571.11 289.58 C489.64 218.76, 408.18 147.94, 237.53 -0.4 M571.07 278.95 C468.09 189.43, 365.11 99.9, 250.32 0.12 M571.07 278.95 C486.89 205.77, 402.71 132.59, 250.32 0.12 M571.04 268.32 C492.49 200.03, 413.94 131.75, 262.36 -0.01 M571.04 268.32 C483.48 192.2, 395.92 116.08, 262.36 -0.01 M571 257.69 C486.22 183.98, 401.43 110.28, 274.4 -0.15 M571 257.69 C484.74 182.7, 398.48 107.72, 274.4 -0.15 M571.73 247.71 C458.17 149, 344.61 50.29, 286.44 -0.28 M571.73 247.71 C458.9 149.63, 346.07 51.56, 286.44 -0.28 M571.69 237.08 C472.67 151, 373.65 64.93, 298.49 -0.41 M571.69 237.08 C481.95 159.08, 392.22 81.07, 298.49 -0.41 M571.66 226.45 C467.93 136.28, 364.21 46.12, 311.28 0.11 M571.66 226.45 C511.67 174.3, 451.68 122.16, 311.28 0.11 M571.62 215.82 C489.06 144.05, 406.5 72.28, 323.32 -0.02 M571.62 215.82 C486.59 141.91, 401.56 67.99, 323.32 -0.02 M571.59 205.19 C510.59 152.17, 449.59 99.14, 335.36 -0.15 M571.59 205.19 C477.83 123.69, 384.07 42.19, 335.36 -0.15 M571.55 194.56 C505.44 137.09, 439.32 79.61, 347.4 -0.29 M571.55 194.56 C502.57 134.6, 433.6 74.64, 347.4 -0.29 M571.52 183.93 C519 138.28, 466.49 92.63, 359.44 -0.42 M571.52 183.93 C494.89 117.32, 418.26 50.71, 359.44 -0.42 M571.48 173.3 C498.58 109.92, 425.67 46.55, 372.24 0.1 M571.48 173.3 C510.31 120.12, 449.13 66.94, 372.24 0.1 M571.45 162.67 C533.31 129.52, 495.18 96.37, 384.28 -0.03 M571.45 162.67 C506.34 106.08, 441.24 49.48, 384.28 -0.03 M571.41 152.04 C505.12 94.41, 438.83 36.79, 396.32 -0.16 M571.41 152.04 C530.98 116.89, 490.54 81.74, 396.32 -0.16 M571.38 141.41 C533.73 108.68, 496.08 75.95, 408.36 -0.3 M571.38 141.41 C532.52 107.63, 493.65 73.85, 408.36 -0.3 M571.35 130.78 C513.45 80.46, 455.56 30.13, 420.4 -0.43 M571.35 130.78 C529.42 94.33, 487.49 57.89, 420.4 -0.43 M571.31 120.15 C543.58 96.04, 515.84 71.93, 433.2 0.09 M571.31 120.15 C533.64 87.4, 495.97 54.66, 433.2 0.09 M571.28 109.52 C527.37 71.36, 483.47 33.19, 445.24 -0.04 M571.28 109.52 C539.3 81.72, 507.32 53.92, 445.24 -0.04 M571.24 98.89 C542.51 73.92, 513.79 48.95, 457.28 -0.17 M571.24 98.89 C531.53 64.37, 491.81 29.84, 457.28 -0.17 M571.21 88.26 C544.94 65.42, 518.66 42.59, 469.32 -0.31 M571.21 88.26 C543.41 64.1, 515.62 39.94, 469.32 -0.31 M571.17 77.63 C545.29 55.13, 519.4 32.63, 482.12 0.22 M571.17 77.63 C542.58 52.78, 513.99 27.93, 482.12 0.22 M571.14 67 C554.66 52.67, 538.18 38.35, 494.16 0.08 M571.14 67 C551.37 49.82, 531.6 32.63, 494.16 0.08 M571.1 56.37 C552.3 40.03, 533.5 23.68, 506.2 -0.05 M571.1 56.37 C551.4 39.24, 531.7 22.12, 506.2 -0.05 M571.07 45.74 C553.3 30.3, 535.54 14.85, 518.24 -0.18 M571.07 45.74 C558.64 34.93, 546.21 24.13, 518.24 -0.18 M571.04 35.11 C555.16 21.31, 539.29 7.51, 530.28 -0.32 M571.04 35.11 C556.07 22.1, 541.11 9.1, 530.28 -0.32 M571 24.48 C563.52 17.98, 556.04 11.47, 542.32 -0.45 M571 24.48 C563.95 18.35, 556.9 12.23, 542.32 -0.45" stroke="#a5d8ff" stroke-width="1" fill="none"></path><path d="M32 0 C201.96 0, 371.92 0, 539.03 0 M32 0 C225.06 0, 418.11 0, 539.03 0 M539.03 0 C560.36 0, 571.03 10.67, 571.03 32 M539.03 0 C560.36 0, 571.03 10.67, 571.03 32 M571.03 32 C571.03 203.18, 571.03 374.36, 571.03 761.88 M571.03 32 C571.03 206.11, 571.03 380.21, 571.03 761.88 M571.03 761.88 C571.03 783.22, 560.36 793.88, 539.03 793.88 M571.03 761.88 C571.03 783.22, 560.36 793.88, 539.03 793.88 M539.03 793.88 C376.48 793.88, 213.94 793.88, 32 793.88 M539.03 793.88 C338.81 793.88, 138.58 793.88, 32 793.88 M32 793.88 C10.67 793.88, 0 783.22, 0 761.88 M32 793.88 C10.67 793.88, 0 783.22, 0 761.88 M0 761.88 C0 488.93, 0 215.98, 0 32 M0 761.88 C0 504.91, 0 247.94, 0 32 M0 32 C0 10.67, 10.67 0, 32 0 M0 32 C0 10.67, 10.67 0, 32 0" stroke="#1e1e1e" stroke-width="2" fill="none"></path></g><g stroke-linecap="round" transform="translate(796.4701675948977 312.5432130363527) rotate(0 114.60264621454098 94.39840932848996)"><path d="M32 0 C82.97 0, 133.93 0, 197.21 0 M32 0 C69.21 0, 106.42 0, 197.21 0 M197.21 0 C218.54 0, 229.21 10.67, 229.21 32 M197.21 0 C218.54 0, 229.21 10.67, 229.21 32 M229.21 32 C229.21 68.7, 229.21 105.4, 229.21 156.8 M229.21 32 C229.21 59.41, 229.21 86.82, 229.21 156.8 M229.21 156.8 C229.21 178.13, 218.54 188.8, 197.21 188.8 M229.21 156.8 C229.21 178.13, 218.54 188.8, 197.21 188.8 M197.21 188.8 C157.84 188.8, 118.47 188.8, 32 188.8 M197.21 188.8 C162.83 188.8, 128.46 188.8, 32 188.8 M32 188.8 C10.67 188.8, 0 178.13, 0 156.8 M32 188.8 C10.67 188.8, 0 178.13, 0 156.8 M0 156.8 C0 110.19, 0 63.59, 0 32 M0 156.8 C0 120.67, 0 84.55, 0 32 M0 32 C0 10.67, 10.67 0, 32 0 M0 32 C0 10.67, 10.67 0, 32 0" stroke="#1e1e1e" stroke-width="2" fill="none"></path></g><g stroke-linecap="round"><g transform="translate(803.2552278126955 457.4127890013283) rotate(0 108.8020755771654 -33.5386323104609)"><path d="M0 0 C13.09 -11.18, 57.36 -63.18, 78.51 -67.08 C99.66 -70.98, 111.33 -26.38, 126.9 -23.39 C142.47 -20.39, 156.8 -50.23, 171.92 -49.12 C187.04 -48.01, 209.99 -22.15, 217.6 -16.76 M0 0 C13.09 -11.18, 57.36 -63.18, 78.51 -67.08 C99.66 -70.98, 111.33 -26.38, 126.9 -23.39 C142.47 -20.39, 156.8 -50.23, 171.92 -49.12 C187.04 -48.01, 209.99 -22.15, 217.6 -16.76" stroke="#1e1e1e" stroke-width="2" fill="none"></path></g></g><mask></mask><g stroke-linecap="round" transform="translate(920.5175898420134 345.1206399176198) rotate(0 20.2420988537815 20.24209885378133)"><path d="M4.97 6.97 C4.97 6.97, 4.97 6.97, 4.97 6.97 M4.97 6.97 C4.97 6.97, 4.97 6.97, 4.97 6.97 M0.51 24.29 C6.68 17.19, 12.85 10.09, 21.5 0.14 M0.51 24.29 C5.12 18.99, 9.73 13.68, 21.5 0.14 M3.92 32.56 C12.21 23.02, 20.5 13.49, 30.16 2.37 M3.92 32.56 C10.72 24.74, 17.52 16.92, 30.16 2.37 M9.96 37.81 C18.65 27.81, 27.33 17.82, 36.2 7.62 M9.96 37.81 C18.25 28.27, 26.54 18.73, 36.2 7.62 M17.96 40.79 C26.3 31.19, 34.65 21.6, 40.27 15.13 M17.96 40.79 C25.82 31.76, 33.67 22.72, 40.27 15.13 M30.56 38.49 C32.76 35.96, 34.96 33.43, 39.75 27.93 M30.56 38.49 C32.64 36.1, 34.72 33.71, 39.75 27.93 M7.3 35.81 C7.3 35.81, 7.3 35.81, 7.3 35.81 M7.3 35.81 C7.3 35.81, 7.3 35.81, 7.3 35.81 M23.87 39.61 C17.44 34.02, 11.01 28.44, 0.47 19.27 M23.87 39.61 C17.87 34.4, 11.88 29.19, 0.47 19.27 M32.13 36.2 C21.22 26.71, 10.3 17.22, 2.7 10.61 M32.13 36.2 C22.36 27.7, 12.58 19.2, 2.7 10.61 M37.38 30.16 C26.78 20.94, 16.17 11.72, 7.95 4.57 M37.38 30.16 C26.53 20.73, 15.68 11.29, 7.95 4.57 M40.37 22.15 C34.62 17.15, 28.87 12.16, 15.46 0.5 M40.37 22.15 C33.63 16.29, 26.88 10.43, 15.46 0.5 M38.07 9.56 C33.98 6, 29.9 2.45, 27.5 0.37 M38.07 9.56 C35.06 6.94, 32.05 4.32, 27.5 0.37" stroke="#a5d8ff" stroke-width="1" fill="none"></path><path d="M40.48 20.24 C40.48 21.41, 40.38 22.6, 40.18 23.76 C39.97 24.91, 39.66 26.06, 39.26 27.17 C38.86 28.27, 38.36 29.35, 37.77 30.36 C37.19 31.38, 36.5 32.36, 35.75 33.25 C35 34.15, 34.15 35, 33.25 35.75 C32.36 36.5, 31.38 37.19, 30.36 37.77 C29.35 38.36, 28.27 38.86, 27.17 39.26 C26.06 39.66, 24.91 39.97, 23.76 40.18 C22.6 40.38, 21.41 40.48, 20.24 40.48 C19.07 40.48, 17.88 40.38, 16.73 40.18 C15.57 39.97, 14.42 39.66, 13.32 39.26 C12.22 38.86, 11.14 38.36, 10.12 37.77 C9.11 37.19, 8.13 36.5, 7.23 35.75 C6.33 35, 5.49 34.15, 4.74 33.25 C3.98 32.36, 3.3 31.38, 2.71 30.36 C2.13 29.35, 1.62 28.27, 1.22 27.17 C0.82 26.06, 0.51 24.91, 0.31 23.76 C0.1 22.6, 0 21.41, 0 20.24 C0 19.07, 0.1 17.88, 0.31 16.73 C0.51 15.57, 0.82 14.42, 1.22 13.32 C1.62 12.22, 2.13 11.14, 2.71 10.12 C3.3 9.11, 3.98 8.13, 4.74 7.23 C5.49 6.33, 6.33 5.49, 7.23 4.74 C8.13 3.98, 9.11 3.3, 10.12 2.71 C11.14 2.13, 12.22 1.62, 13.32 1.22 C14.42 0.82, 15.57 0.51, 16.73 0.31 C17.88 0.1, 19.07 0, 20.24 0 C21.41 0, 22.6 0.1, 23.76 0.31 C24.91 0.51, 26.06 0.82, 27.17 1.22 C28.27 1.62, 29.35 2.13, 30.36 2.71 C31.38 3.3, 32.36 3.98, 33.25 4.74 C34.15 5.49, 35 6.33, 35.75 7.23 C36.5 8.13, 37.19 9.11, 37.77 10.12 C38.36 11.14, 38.86 12.22, 39.26 13.32 C39.66 14.42, 39.97 15.57, 40.18 16.73 C40.38 17.88, 40.43 19.66, 40.48 20.24 C40.54 20.83, 40.54 19.66, 40.48 20.24" stroke="#1e1e1e" stroke-width="2" fill="none"></path></g><g stroke-linecap="round" transform="translate(13.535958187484994 10) rotate(0 280.06565669518614 183.17894992514053)"><path d="M7.86 8.16 C7.86 8.16, 7.86 8.16, 7.86 8.16 M7.86 8.16 C7.86 8.16, 7.86 8.16, 7.86 8.16 M0.78 28.5 C5.85 22.67, 10.93 16.83, 25.05 0.58 M0.78 28.5 C6.56 21.85, 12.34 15.2, 25.05 0.58 M0.26 41.3 C14.42 25, 28.59 8.71, 36.34 -0.21 M0.26 41.3 C12.48 27.24, 24.7 13.18, 36.34 -0.21 M0.39 53.34 C10.39 41.83, 20.4 30.32, 46.97 -0.25 M0.39 53.34 C16.92 34.32, 33.45 15.3, 46.97 -0.25 M0.52 65.38 C15.7 47.91, 30.89 30.45, 57.6 -0.28 M0.52 65.38 C18.73 44.44, 36.93 23.49, 57.6 -0.28 M0 78.17 C14.8 61.15, 29.6 44.12, 67.57 0.44 M0 78.17 C19.49 55.76, 38.97 33.34, 67.57 0.44 M0.13 90.22 C22.64 64.32, 45.15 38.43, 78.2 0.41 M0.13 90.22 C26.43 59.97, 52.72 29.72, 78.2 0.41 M0.26 102.26 C34.75 62.58, 69.24 22.91, 88.83 0.37 M0.26 102.26 C21.94 77.32, 43.61 52.39, 88.83 0.37 M0.4 114.3 C39.85 68.91, 79.3 23.53, 99.46 0.34 M0.4 114.3 C29.11 81.27, 57.82 48.24, 99.46 0.34 M0.53 126.34 C34.57 87.18, 68.61 48.02, 110.09 0.3 M0.53 126.34 C37.55 83.75, 74.57 41.16, 110.09 0.3 M0.01 139.13 C36.44 97.23, 72.87 55.32, 120.72 0.27 M0.01 139.13 C28.18 106.73, 56.34 74.33, 120.72 0.27 M0.14 151.17 C37.54 108.15, 74.94 65.13, 131.35 0.23 M0.14 151.17 C38.16 107.44, 76.18 63.7, 131.35 0.23 M0.27 163.22 C52.99 102.57, 105.7 41.93, 141.98 0.2 M0.27 163.22 C40.04 117.47, 79.8 71.73, 141.98 0.2 M0.41 175.26 C35.65 134.71, 70.89 94.17, 152.61 0.16 M0.41 175.26 C50.62 117.5, 100.83 59.74, 152.61 0.16 M0.54 187.3 C57.36 121.93, 114.18 56.57, 163.24 0.13 M0.54 187.3 C49.78 130.65, 99.02 74.01, 163.24 0.13 M0.02 200.09 C67.24 122.76, 134.47 45.43, 173.87 0.09 M0.02 200.09 C51.43 140.95, 102.84 81.81, 173.87 0.09 M0.15 212.13 C44.57 161.03, 88.99 109.93, 184.5 0.06 M0.15 212.13 C42.23 163.72, 84.32 115.31, 184.5 0.06 M0.28 224.17 C40.03 178.45, 79.78 132.73, 195.13 0.03 M0.28 224.17 C65.07 149.65, 129.86 75.12, 195.13 0.03 M0.42 236.22 C45.98 183.81, 91.53 131.4, 205.76 -0.01 M0.42 236.22 C71.09 154.92, 141.76 73.62, 205.76 -0.01 M-0.11 249.01 C54.94 185.68, 109.99 122.36, 216.39 -0.04 M-0.11 249.01 C85.04 151.07, 170.18 53.12, 216.39 -0.04 M0.03 261.05 C75.8 173.88, 151.58 86.71, 227.02 -0.08 M0.03 261.05 C89.63 157.98, 179.23 54.9, 227.02 -0.08 M0.16 273.09 C77.46 184.17, 154.76 95.24, 237.65 -0.11 M0.16 273.09 C80.65 180.5, 161.13 87.92, 237.65 -0.11 M0.29 285.13 C95.99 175.04, 191.69 64.96, 248.28 -0.15 M0.29 285.13 C70.29 204.61, 140.29 124.08, 248.28 -0.15 M0.43 297.17 C83.86 201.19, 167.3 105.21, 258.91 -0.18 M0.43 297.17 C61.96 226.38, 123.5 155.6, 258.91 -0.18 M-0.1 309.97 C68.48 231.08, 137.06 152.19, 269.54 -0.22 M-0.1 309.97 C98.83 196.17, 197.75 82.38, 269.54 -0.22 M0.04 322.01 C103.27 203.25, 206.51 84.5, 280.17 -0.25 M0.04 322.01 C74.91 235.88, 149.77 149.76, 280.17 -0.25 M0.17 334.05 C111.35 206.15, 222.53 78.26, 290.8 -0.28 M0.17 334.05 C106.66 211.54, 213.16 89.04, 290.8 -0.28 M1.62 344.58 C92.02 240.59, 182.42 136.59, 300.78 0.44 M1.62 344.58 C64.67 272.04, 127.73 199.51, 300.78 0.44 M4.37 353.6 C90.7 254.3, 177.03 154.99, 311.41 0.4 M4.37 353.6 C83.17 262.96, 161.96 172.32, 311.41 0.4 M9.75 359.61 C128.59 222.91, 247.42 86.21, 322.04 0.37 M9.75 359.61 C122.41 230.02, 235.06 100.42, 322.04 0.37 M16.45 364.1 C88.55 281.16, 160.65 198.22, 332.67 0.33 M16.45 364.1 C133.77 229.14, 251.09 94.18, 332.67 0.33 M25.11 366.33 C145.2 228.18, 265.3 90.03, 343.3 0.3 M25.11 366.33 C94.18 286.88, 163.25 207.42, 343.3 0.3 M35.08 367.05 C152.44 232.05, 269.79 97.05, 353.93 0.26 M35.08 367.05 C131.03 256.68, 226.97 146.32, 353.93 0.26 M45.71 367.02 C136.26 262.85, 226.81 158.69, 364.56 0.23 M45.71 367.02 C169.27 224.89, 292.82 82.75, 364.56 0.23 M56.34 366.98 C124.42 288.67, 192.5 210.36, 375.19 0.19 M56.34 366.98 C182.43 221.93, 308.52 76.89, 375.19 0.19 M66.97 366.95 C133.45 290.48, 199.92 214.01, 385.82 0.16 M66.97 366.95 C158.67 261.46, 250.37 155.97, 385.82 0.16 M77.6 366.91 C187.2 240.84, 296.79 114.77, 396.45 0.12 M77.6 366.91 C161.02 270.95, 244.44 174.99, 396.45 0.12 M88.23 366.88 C176.35 265.51, 264.47 164.15, 407.08 0.09 M88.23 366.88 C164.99 278.59, 241.74 190.3, 407.08 0.09 M98.86 366.84 C196.19 254.88, 293.52 142.92, 417.71 0.06 M98.86 366.84 C183.1 269.95, 267.33 173.05, 417.71 0.06 M109.5 366.81 C214.81 245.66, 320.12 124.52, 428.34 0.02 M109.5 366.81 C230.03 228.15, 350.56 89.49, 428.34 0.02 M120.13 366.78 C219.55 252.39, 318.98 138.01, 438.97 -0.01 M120.13 366.78 C192.09 283.99, 264.05 201.21, 438.97 -0.01 M130.76 366.74 C204.12 282.34, 277.49 197.94, 449.6 -0.05 M130.76 366.74 C238.7 242.57, 346.64 118.4, 449.6 -0.05 M141.39 366.71 C251.21 240.37, 361.03 114.03, 460.23 -0.08 M141.39 366.71 C245.51 246.92, 349.64 127.14, 460.23 -0.08 M152.02 366.67 C264.51 237.26, 377.01 107.85, 470.86 -0.12 M152.02 366.67 C269.68 231.31, 387.35 95.95, 470.86 -0.12 M162.65 366.64 C242.73 274.52, 322.8 182.4, 481.49 -0.15 M162.65 366.64 C228.02 291.44, 293.39 216.23, 481.49 -0.15 M173.28 366.6 C266.59 259.26, 359.91 151.91, 492.12 -0.19 M173.28 366.6 C244.74 284.39, 316.21 202.18, 492.12 -0.19 M183.91 366.57 C262.76 275.86, 341.6 185.16, 502.75 -0.22 M183.91 366.57 C265.87 272.28, 347.84 177.98, 502.75 -0.22 M194.54 366.53 C309.65 234.11, 424.77 101.68, 513.38 -0.25 M194.54 366.53 C279.44 268.87, 364.34 171.2, 513.38 -0.25 M205.17 366.5 C273.69 287.67, 342.22 208.84, 523.35 0.47 M205.17 366.5 C312.25 243.31, 419.34 120.12, 523.35 0.47 M215.14 367.22 C306.5 262.12, 397.86 157.03, 533.98 0.43 M215.14 367.22 C331.74 233.09, 448.33 98.96, 533.98 0.43 M225.77 367.19 C290.74 292.45, 355.71 217.71, 542.65 2.66 M225.77 367.19 C306.6 274.2, 387.43 181.21, 542.65 2.66 M236.4 367.15 C335.15 253.55, 433.91 139.94, 550 6.4 M236.4 367.15 C299.25 294.85, 362.1 222.55, 550 6.4 M247.03 367.12 C349.76 248.94, 452.5 130.75, 555.38 12.4 M247.03 367.12 C334.03 267.03, 421.04 166.94, 555.38 12.4 M257.66 367.08 C350.75 259.99, 443.85 152.9, 558.79 20.67 M257.66 367.08 C364.96 243.65, 472.26 120.21, 558.79 20.67 M268.29 367.05 C351.35 271.5, 434.4 175.96, 560.89 30.45 M268.29 367.05 C339.99 284.57, 411.68 202.09, 560.89 30.45 M278.92 367.01 C349.11 286.27, 419.3 205.53, 560.37 43.24 M278.92 367.01 C342.84 293.48, 406.76 219.95, 560.37 43.24 M289.55 366.98 C345.99 302.05, 402.43 237.12, 560.5 55.28 M289.55 366.98 C351.54 295.67, 413.53 224.36, 560.5 55.28 M300.18 366.94 C386.9 267.18, 473.63 167.41, 560.64 67.32 M300.18 366.94 C382.03 272.79, 463.87 178.64, 560.64 67.32 M310.81 366.91 C367.04 302.22, 423.27 237.53, 560.77 79.37 M310.81 366.91 C379.88 287.46, 448.94 208.01, 560.77 79.37 M321.44 366.88 C386.98 291.49, 452.51 216.1, 560.25 92.16 M321.44 366.88 C399.54 277.03, 477.63 187.19, 560.25 92.16 M332.07 366.84 C405.01 282.94, 477.94 199.04, 560.38 104.2 M332.07 366.84 C397.9 291.12, 463.72 215.39, 560.38 104.2 M342.7 366.81 C387.46 315.32, 432.21 263.84, 560.51 116.24 M342.7 366.81 C404.25 296, 465.8 225.19, 560.51 116.24 M353.33 366.77 C404.04 308.44, 454.75 250.11, 560.65 128.28 M353.33 366.77 C420.37 289.66, 487.4 212.54, 560.65 128.28 M363.96 366.74 C437.77 281.83, 511.58 196.93, 560.78 140.32 M363.96 366.74 C404.47 320.13, 444.99 273.53, 560.78 140.32 M374.59 366.7 C415.5 319.64, 456.41 272.58, 560.26 153.12 M374.59 366.7 C429.86 303.12, 485.14 239.53, 560.26 153.12 M385.22 366.67 C428.86 316.47, 472.49 266.27, 560.39 165.16 M385.22 366.67 C425.43 320.42, 465.63 274.16, 560.39 165.16 M395.85 366.63 C434.37 322.32, 472.9 278, 560.52 177.2 M395.85 366.63 C442.87 312.54, 489.89 258.45, 560.52 177.2 M406.48 366.6 C439.02 329.17, 471.56 291.73, 560.66 189.24 M406.48 366.6 C451.84 314.42, 497.2 262.24, 560.66 189.24 M417.11 366.56 C465.92 310.42, 514.72 254.27, 560.79 201.28 M417.11 366.56 C448.55 330.4, 479.99 294.23, 560.79 201.28 M427.74 366.53 C462.38 326.69, 497.01 286.85, 560.27 214.08 M427.74 366.53 C460.64 328.69, 493.54 290.84, 560.27 214.08 M438.37 366.5 C482.2 316.07, 526.04 265.65, 560.4 226.12 M438.37 366.5 C485.64 312.12, 532.9 257.75, 560.4 226.12 M448.35 367.22 C483.97 326.23, 519.6 285.24, 560.53 238.16 M448.35 367.22 C487.36 322.33, 526.38 277.45, 560.53 238.16 M458.98 367.18 C497.74 322.59, 536.5 278, 560.67 250.2 M458.98 367.18 C493.41 327.57, 527.85 287.96, 560.67 250.2 M469.61 367.15 C498.3 334.14, 526.99 301.13, 560.8 262.24 M469.61 367.15 C502.15 329.71, 534.69 292.27, 560.8 262.24 M480.24 367.11 C501.18 343.02, 522.12 318.94, 560.28 275.04 M480.24 367.11 C510.5 332.3, 540.76 297.48, 560.28 275.04 M490.87 367.08 C512.04 342.72, 533.22 318.36, 560.41 287.08 M490.87 367.08 C508.06 347.3, 525.26 327.52, 560.41 287.08 M501.5 367.04 C520.6 345.06, 539.71 323.09, 560.54 299.12 M501.5 367.04 C517.38 348.77, 533.26 330.5, 560.54 299.12 M512.13 367.01 C529.43 347.1, 546.73 327.2, 560.67 311.16 M512.13 367.01 C526.62 350.33, 541.12 333.66, 560.67 311.16 M522.76 366.97 C532.55 355.71, 542.34 344.44, 560.81 323.2 M522.76 366.97 C535.4 352.43, 548.05 337.88, 560.81 323.2 M534.04 366.19 C540.78 358.43, 547.52 350.68, 560.28 336 M534.04 366.19 C544.49 354.16, 554.95 342.14, 560.28 336 M547.95 362.38 C549.98 360.05, 552 357.72, 557.14 351.81 M547.95 362.38 C551.14 358.71, 554.32 355.05, 557.14 351.81 M7.89 358.26 C7.89 358.26, 7.89 358.26, 7.89 358.26 M7.89 358.26 C7.89 358.26, 7.89 358.26, 7.89 358.26 M28.24 365.35 C19.06 357.37, 9.88 349.4, 1.07 341.73 M28.24 365.35 C21.46 359.46, 14.69 353.57, 1.07 341.73 M41.03 365.87 C27.4 354.02, 13.77 342.17, 0.28 330.44 M41.03 365.87 C27.52 354.13, 14.01 342.38, 0.28 330.44 M53.83 366.39 C43.07 357.04, 32.31 347.69, 0.24 319.81 M53.83 366.39 C41.28 355.49, 28.73 344.58, 0.24 319.81 M65.87 366.26 C41.54 345.12, 17.22 323.97, 0.21 309.18 M65.87 366.26 C47.55 350.34, 29.24 334.42, 0.21 309.18 M77.91 366.13 C49.24 341.21, 20.57 316.28, 0.17 298.55 M77.91 366.13 C58.2 348.99, 38.48 331.86, 0.17 298.55 M89.95 365.99 C56.51 336.92, 23.06 307.85, 0.14 287.92 M89.95 365.99 C62.77 342.37, 35.6 318.75, 0.14 287.92 M101.99 365.86 C74.68 342.12, 47.37 318.38, 0.1 277.29 M101.99 365.86 C69.62 337.72, 37.24 309.58, 0.1 277.29 M114.79 366.38 C90.4 345.19, 66.02 323.99, 0.07 266.66 M114.79 366.38 C88.53 343.56, 62.27 320.73, 0.07 266.66 M126.83 366.25 C89.82 334.08, 52.81 301.91, 0.04 256.03 M126.83 366.25 C76.81 322.77, 26.79 279.29, 0.04 256.03 M138.87 366.12 C99.91 332.25, 60.95 298.38, 0 245.4 M138.87 366.12 C98.29 330.84, 57.71 295.57, 0 245.4 M150.91 365.99 C105.47 326.49, 60.04 286.99, -0.03 234.77 M150.91 365.99 C104.18 325.37, 57.45 284.75, -0.03 234.77 M162.95 365.85 C100.5 311.57, 38.06 257.29, -0.07 224.14 M162.95 365.85 C124.7 332.6, 86.46 299.36, -0.07 224.14 M175.74 366.37 C118.91 316.97, 62.08 267.57, -0.1 213.51 M175.74 366.37 C132.4 328.7, 89.06 291.02, -0.1 213.51 M187.79 366.24 C141.94 326.39, 96.09 286.54, -0.14 202.88 M187.79 366.24 C149.07 332.58, 110.34 298.92, -0.14 202.88 M199.83 366.11 C149.15 322.05, 98.46 278, -0.17 192.25 M199.83 366.11 C150.52 323.24, 101.21 280.38, -0.17 192.25 M211.87 365.98 C168.53 328.3, 125.19 290.63, -0.21 181.62 M211.87 365.98 C155.83 317.26, 99.79 268.55, -0.21 181.62 M223.91 365.84 C144.59 296.89, 65.27 227.94, -0.24 170.99 M223.91 365.84 C154.66 305.65, 85.41 245.45, -0.24 170.99 M236.7 366.37 C160.27 299.92, 83.83 233.48, -0.27 160.36 M236.7 366.37 C171.6 309.77, 106.49 253.17, -0.27 160.36 M248.74 366.23 C160.86 289.84, 72.98 213.44, 0.45 150.39 M248.74 366.23 C176.59 303.51, 104.43 240.78, 0.45 150.39 M260.79 366.1 C189.45 304.09, 118.12 242.08, 0.41 139.76 M260.79 366.1 C205.86 318.36, 150.94 270.61, 0.41 139.76 M272.83 365.97 C177.42 283.03, 82.02 200.1, 0.38 129.13 M272.83 365.97 C216.62 317.11, 160.42 268.25, 0.38 129.13 M284.87 365.83 C213.38 303.69, 141.89 241.54, 0.34 118.5 M284.87 365.83 C212.6 303.02, 140.34 240.2, 0.34 118.5 M297.66 366.36 C206.58 287.18, 115.49 208, 0.31 107.87 M297.66 366.36 C199.95 281.41, 102.23 196.47, 0.31 107.87 M309.7 366.22 C227.92 295.13, 146.14 224.04, 0.27 97.24 M309.7 366.22 C219.08 287.45, 128.46 208.67, 0.27 97.24 M321.74 366.09 C208.15 267.35, 94.56 168.6, 0.24 86.61 M321.74 366.09 C229.16 285.61, 136.58 205.13, 0.24 86.61 M333.79 365.96 C253.7 296.34, 173.61 226.72, 0.2 75.98 M333.79 365.96 C258.93 300.89, 184.07 235.81, 0.2 75.98 M345.83 365.82 C245.84 278.91, 145.86 191.99, 0.17 65.35 M345.83 365.82 C217.06 253.89, 88.29 141.95, 0.17 65.35 M358.62 366.35 C242.89 265.74, 127.16 165.14, 0.13 54.72 M358.62 366.35 C267.85 287.44, 177.09 208.54, 0.13 54.72 M370.66 366.21 C267.1 276.18, 163.53 186.16, 0.1 44.09 M370.66 366.21 C286.05 292.66, 201.43 219.1, 0.1 44.09 M382.7 366.08 C239.61 241.69, 96.52 117.31, 0.07 33.46 M382.7 366.08 C232.83 235.8, 82.96 105.52, 0.07 33.46 M394.74 365.95 C254.31 243.87, 113.88 121.79, 0.79 23.48 M394.74 365.95 C253.22 242.92, 111.69 119.89, 0.79 23.48 M406.79 365.81 C296.94 270.33, 187.1 174.84, 3.02 14.82 M406.79 365.81 C261.39 239.42, 115.99 113.03, 3.02 14.82 M419.58 366.34 C287.76 251.74, 155.93 137.15, 7.51 8.13 M419.58 366.34 C326.09 285.07, 232.6 203.8, 7.51 8.13 M431.62 366.2 C342.78 288.98, 253.95 211.75, 14.27 3.4 M431.62 366.2 C312.06 262.27, 192.49 158.33, 14.27 3.4 M443.66 366.07 C344.18 279.59, 244.69 193.11, 23.29 0.65 M443.66 366.07 C296.24 237.92, 148.82 109.77, 23.29 0.65 M455.7 365.94 C367.37 289.15, 279.04 212.36, 33.82 -0.8 M455.7 365.94 C368.49 290.12, 281.28 214.31, 33.82 -0.8 M468.5 366.46 C324.73 241.48, 180.95 116.5, 46.62 -0.28 M468.5 366.46 C380.77 290.2, 293.04 213.93, 46.62 -0.28 M480.54 366.33 C315.27 222.66, 150 78.99, 58.66 -0.41 M480.54 366.33 C326.77 232.66, 173.01 98.99, 58.66 -0.41 M492.58 366.19 C351.87 243.87, 211.15 121.55, 70.7 -0.54 M492.58 366.19 C351.77 243.79, 210.97 121.39, 70.7 -0.54 M504.62 366.06 C374.98 253.36, 245.33 140.66, 82.74 -0.68 M504.62 366.06 C373.31 251.92, 242.01 137.77, 82.74 -0.68 M516.66 365.93 C397.12 262.01, 277.58 158.1, 94.78 -0.81 M516.66 365.93 C423.43 284.88, 330.19 203.83, 94.78 -0.81 M528.7 365.79 C435.81 285.05, 342.92 204.3, 107.58 -0.29 M528.7 365.79 C441.82 290.26, 354.93 214.74, 107.58 -0.29 M539.23 364.35 C402.51 245.5, 265.79 126.65, 119.62 -0.42 M539.23 364.35 C446.76 283.96, 354.29 203.58, 119.62 -0.42 M548.26 361.59 C459.41 284.36, 370.56 207.12, 131.66 -0.55 M548.26 361.59 C416.27 246.86, 284.28 132.12, 131.66 -0.55 M554.26 356.21 C404.9 226.38, 255.55 96.54, 143.7 -0.69 M554.26 356.21 C455.55 270.41, 356.85 184.6, 143.7 -0.69 M558 348.86 C443.63 249.44, 329.27 150.03, 155.74 -0.82 M558 348.86 C430.21 237.78, 302.42 126.69, 155.74 -0.82 M560.23 340.2 C416.39 215.16, 272.55 90.12, 168.53 -0.3 M560.23 340.2 C463.3 255.94, 366.37 171.68, 168.53 -0.3 M560.19 329.57 C465.38 247.15, 370.57 164.73, 180.58 -0.43 M560.19 329.57 C411.53 200.33, 262.86 71.1, 180.58 -0.43 M560.91 319.59 C460.25 232.09, 359.59 144.58, 192.62 -0.56 M560.91 319.59 C426.25 202.53, 291.59 85.47, 192.62 -0.56 M560.88 308.96 C474.35 233.75, 387.83 158.53, 204.66 -0.7 M560.88 308.96 C443.61 207.02, 326.34 105.08, 204.66 -0.7 M560.85 298.33 C462.27 212.64, 363.69 126.95, 216.7 -0.83 M560.85 298.33 C431.13 185.58, 301.42 72.82, 216.7 -0.83 M560.81 287.7 C489.84 226.01, 418.87 164.32, 229.49 -0.31 M560.81 287.7 C485 221.81, 409.2 155.91, 229.49 -0.31 M560.78 277.07 C440.05 172.13, 319.33 67.19, 241.53 -0.44 M560.78 277.07 C490.21 215.73, 419.63 154.38, 241.53 -0.44 M560.74 266.44 C489.69 204.68, 418.63 142.91, 253.58 -0.57 M560.74 266.44 C438.92 160.55, 317.11 54.65, 253.58 -0.57 M560.71 255.81 C446.45 156.49, 332.19 57.16, 265.62 -0.71 M560.71 255.81 C473.46 179.97, 386.22 104.13, 265.62 -0.71 M560.67 245.18 C453.38 151.92, 346.09 58.65, 277.66 -0.84 M560.67 245.18 C490.9 184.53, 421.12 123.87, 277.66 -0.84 M560.64 234.55 C474.31 159.51, 387.98 84.47, 290.45 -0.32 M560.64 234.55 C464.42 150.92, 368.21 67.28, 290.45 -0.32 M560.6 223.92 C493.61 165.69, 426.63 107.46, 302.49 -0.45 M560.6 223.92 C508.86 178.94, 457.12 133.96, 302.49 -0.45 M560.57 213.29 C499.5 160.21, 438.43 107.12, 314.53 -0.58 M560.57 213.29 C507.52 167.18, 454.48 121.07, 314.53 -0.58 M560.53 202.66 C492.25 143.3, 423.96 83.94, 326.58 -0.72 M560.53 202.66 C469.76 123.75, 378.99 44.85, 326.58 -0.72 M560.5 192.03 C513.11 150.83, 465.71 109.64, 338.62 -0.85 M560.5 192.03 C506.1 144.74, 451.69 97.45, 338.62 -0.85 M560.47 181.4 C516.04 142.79, 471.62 104.17, 351.41 -0.33 M560.47 181.4 C488.02 118.43, 415.58 55.46, 351.41 -0.33 M560.43 170.77 C496.77 115.44, 433.12 60.1, 363.45 -0.46 M560.43 170.77 C506.52 123.91, 452.61 77.05, 363.45 -0.46 M560.4 160.14 C491.06 99.87, 421.72 39.59, 375.49 -0.59 M560.4 160.14 C500.98 108.5, 441.57 56.85, 375.49 -0.59 M560.36 149.51 C516.88 111.71, 473.39 73.91, 387.53 -0.72 M560.36 149.51 C510.64 106.29, 460.91 63.06, 387.53 -0.72 M560.33 138.88 C520.11 103.92, 479.9 68.97, 399.57 -0.86 M560.33 138.88 C501.59 87.82, 442.85 36.76, 399.57 -0.86 M560.29 128.25 C509.88 84.43, 459.47 40.61, 412.37 -0.34 M560.29 128.25 C511.22 85.59, 462.14 42.93, 412.37 -0.34 M560.26 117.62 C515.98 79.13, 471.7 40.64, 424.41 -0.47 M560.26 117.62 C527.7 89.32, 495.14 61.01, 424.41 -0.47 M560.22 106.99 C523.12 74.74, 486.02 42.48, 436.45 -0.6 M560.22 106.99 C534.47 84.6, 508.71 62.21, 436.45 -0.6 M560.19 96.36 C537.01 76.21, 513.83 56.07, 448.49 -0.73 M560.19 96.36 C525.25 65.99, 490.31 35.62, 448.49 -0.73 M560.91 86.39 C530.32 59.79, 499.72 33.2, 460.53 -0.87 M560.91 86.39 C523.09 53.51, 485.26 20.63, 460.53 -0.87 M560.88 75.76 C533.11 51.62, 505.34 27.48, 473.33 -0.34 M560.88 75.76 C538 55.88, 515.13 35.99, 473.33 -0.34 M560.84 65.13 C538.25 45.49, 515.66 25.86, 485.37 -0.48 M560.84 65.13 C541.54 48.35, 522.23 31.57, 485.37 -0.48 M560.81 54.5 C535.8 32.76, 510.79 11.02, 497.41 -0.61 M560.81 54.5 C537.39 34.14, 513.98 13.79, 497.41 -0.61 M560.77 43.87 C545.69 30.76, 530.61 17.64, 509.45 -0.74 M560.77 43.87 C544.31 29.56, 527.85 15.25, 509.45 -0.74 M560.74 33.24 C545.19 19.72, 529.65 6.21, 521.49 -0.88 M560.74 33.24 C551.74 25.42, 542.75 17.6, 521.49 -0.88 M559.19 21.3 C552.76 15.7, 546.33 10.11, 535.04 0.3 M559.19 21.3 C554.24 16.99, 549.28 12.68, 535.04 0.3" stroke="#a5d8ff" stroke-width="1" fill="none"></path><path d="M32 0 C188.57 0, 345.13 0, 528.13 0 M32 0 C191.33 0, 350.66 0, 528.13 0 M528.13 0 C549.46 0, 560.13 10.67, 560.13 32 M528.13 0 C549.46 0, 560.13 10.67, 560.13 32 M560.13 32 C560.13 146.12, 560.13 260.24, 560.13 334.36 M560.13 32 C560.13 107.95, 560.13 183.9, 560.13 334.36 M560.13 334.36 C560.13 355.69, 549.46 366.36, 528.13 366.36 M560.13 334.36 C560.13 355.69, 549.46 366.36, 528.13 366.36 M528.13 366.36 C363.88 366.36, 199.62 366.36, 32 366.36 M528.13 366.36 C371.36 366.36, 214.6 366.36, 32 366.36 M32 366.36 C10.67 366.36, 0 355.69, 0 334.36 M32 366.36 C10.67 366.36, 0 355.69, 0 334.36 M0 334.36 C0 260.29, 0 186.22, 0 32 M0 334.36 C0 266.74, 0 199.13, 0 32 M0 32 C0 10.67, 10.67 0, 32 0 M0 32 C0 10.67, 10.67 0, 32 0" stroke="#1e1e1e" stroke-width="2" fill="none"></path></g><g stroke-linecap="round" transform="translate(10 432.8256822684189) rotate(0 280.0656566951859 183.17894992514053)"><path d="M7.86 8.16 C7.86 8.16, 7.86 8.16, 7.86 8.16 M7.86 8.16 C7.86 8.16, 7.86 8.16, 7.86 8.16 M0.78 28.5 C8.73 19.36, 16.68 10.21, 25.05 0.58 M0.78 28.5 C9.51 18.46, 18.24 8.42, 25.05 0.58 M0.26 41.3 C10.09 29.98, 19.92 18.67, 36.34 -0.21 M0.26 41.3 C12.24 27.51, 24.23 13.71, 36.34 -0.21 M0.39 53.34 C14.26 37.38, 28.14 21.42, 46.97 -0.25 M0.39 53.34 C17.27 33.92, 34.15 14.5, 46.97 -0.25 M0.52 65.38 C17.99 45.29, 35.46 25.19, 57.6 -0.28 M0.52 65.38 C20.47 42.43, 40.42 19.48, 57.6 -0.28 M0 78.17 C16.73 58.92, 33.47 39.67, 67.57 0.44 M0 78.17 C13.72 62.39, 27.45 46.6, 67.57 0.44 M0.13 90.22 C22.04 65.01, 43.95 39.8, 78.2 0.41 M0.13 90.22 C26.13 60.31, 52.13 30.4, 78.2 0.41 M0.26 102.26 C20.6 78.86, 40.94 55.46, 88.83 0.37 M0.26 102.26 C21.54 77.78, 42.82 53.3, 88.83 0.37 M0.4 114.3 C34.61 74.94, 68.82 35.59, 99.46 0.34 M0.4 114.3 C20.96 90.64, 41.53 66.98, 99.46 0.34 M0.53 126.34 C40.39 80.48, 80.25 34.63, 110.09 0.3 M0.53 126.34 C32.32 89.77, 64.11 53.2, 110.09 0.3 M0.01 139.13 C32.13 102.18, 64.26 65.22, 120.72 0.27 M0.01 139.13 C24.88 110.52, 49.76 81.9, 120.72 0.27 M0.14 151.17 C44.41 100.25, 88.68 49.32, 131.35 0.23 M0.14 151.17 C43.05 101.82, 85.95 52.46, 131.35 0.23 M0.27 163.22 C46.52 110.01, 92.77 56.81, 141.98 0.2 M0.27 163.22 C52.56 103.07, 104.84 42.92, 141.98 0.2 M0.41 175.26 C46.79 121.9, 93.16 68.55, 152.61 0.16 M0.41 175.26 C58.66 108.24, 116.91 41.23, 152.61 0.16 M0.54 187.3 C37.39 144.91, 74.23 102.53, 163.24 0.13 M0.54 187.3 C40.34 141.51, 80.15 95.72, 163.24 0.13 M0.02 200.09 C67.36 122.63, 134.7 45.16, 173.87 0.09 M0.02 200.09 C42.98 150.67, 85.94 101.25, 173.87 0.09 M0.15 212.13 C70.96 130.68, 141.77 49.22, 184.5 0.06 M0.15 212.13 C71.92 129.58, 143.68 47.02, 184.5 0.06 M0.28 224.17 C73.16 140.34, 146.03 56.51, 195.13 0.03 M0.28 224.17 C71.93 141.75, 143.58 59.33, 195.13 0.03 M0.42 236.22 C48.49 180.92, 96.56 125.62, 205.76 -0.01 M0.42 236.22 C55.22 173.17, 110.03 110.13, 205.76 -0.01 M-0.11 249.01 C47.66 194.06, 95.43 139.1, 216.39 -0.04 M-0.11 249.01 C75.66 161.86, 151.42 74.7, 216.39 -0.04 M0.03 261.05 C74.59 175.27, 149.16 89.5, 227.02 -0.08 M0.03 261.05 C79.31 169.85, 158.58 78.66, 227.02 -0.08 M0.16 273.09 C83.38 177.36, 166.6 81.63, 237.65 -0.11 M0.16 273.09 C61.2 202.87, 122.24 132.66, 237.65 -0.11 M0.29 285.13 C58.94 217.67, 117.59 150.2, 248.28 -0.15 M0.29 285.13 C53.85 223.52, 107.41 161.91, 248.28 -0.15 M0.43 297.17 C91.82 192.04, 183.21 86.9, 258.91 -0.18 M0.43 297.17 C80.54 205.01, 160.66 112.84, 258.91 -0.18 M-0.1 309.97 C65.83 234.13, 131.76 158.28, 269.54 -0.22 M-0.1 309.97 C68.53 231.03, 137.15 152.08, 269.54 -0.22 M0.04 322.01 C80.62 229.31, 161.2 136.62, 280.17 -0.25 M0.04 322.01 C108.61 197.11, 217.18 72.21, 280.17 -0.25 M0.17 334.05 C74.61 248.42, 149.05 162.79, 290.8 -0.28 M0.17 334.05 C104.82 213.67, 209.47 93.28, 290.8 -0.28 M1.62 344.58 C114.49 214.73, 227.37 84.88, 300.78 0.44 M1.62 344.58 C99.3 232.21, 196.99 119.83, 300.78 0.44 M4.37 353.6 C94.06 250.43, 183.75 147.25, 311.41 0.4 M4.37 353.6 C76.75 270.35, 149.12 187.09, 311.41 0.4 M9.75 359.61 C107.95 246.65, 206.14 133.7, 322.04 0.37 M9.75 359.61 C78.86 280.11, 147.96 200.62, 322.04 0.37 M16.45 364.1 C139.92 222.07, 263.38 80.04, 332.67 0.33 M16.45 364.1 C108.89 257.76, 201.33 151.42, 332.67 0.33 M25.11 366.33 C139.04 235.27, 252.98 104.2, 343.3 0.3 M25.11 366.33 C128.23 247.7, 231.36 129.07, 343.3 0.3 M35.08 367.05 C132.74 254.72, 230.39 142.38, 353.93 0.26 M35.08 367.05 C146.22 239.2, 257.36 111.35, 353.93 0.26 M45.71 367.02 C120.47 281.02, 195.23 195.02, 364.56 0.23 M45.71 367.02 C155.74 240.45, 265.76 113.89, 364.56 0.23 M56.34 366.98 C123.91 289.25, 191.48 211.53, 375.19 0.19 M56.34 366.98 C161.86 245.61, 267.37 124.23, 375.19 0.19 M66.97 366.95 C142.56 280, 218.15 193.05, 385.82 0.16 M66.97 366.95 C179.23 237.81, 291.49 108.68, 385.82 0.16 M77.6 366.91 C204.16 221.33, 330.72 75.74, 396.45 0.12 M77.6 366.91 C196.76 229.85, 315.91 92.78, 396.45 0.12 M88.23 366.88 C192.33 247.13, 296.42 127.39, 407.08 0.09 M88.23 366.88 C174.59 267.54, 260.94 168.21, 407.08 0.09 M98.86 366.84 C216.2 231.87, 333.53 96.89, 417.71 0.06 M98.86 366.84 C200.58 249.84, 302.29 132.83, 417.71 0.06 M109.5 366.81 C182.99 282.27, 256.48 197.72, 428.34 0.02 M109.5 366.81 C232.21 225.65, 354.92 84.49, 428.34 0.02 M120.13 366.78 C231.42 238.75, 342.71 110.72, 438.97 -0.01 M120.13 366.78 C189.24 287.26, 258.36 207.75, 438.97 -0.01 M130.76 366.74 C240.49 240.51, 350.22 114.28, 449.6 -0.05 M130.76 366.74 C205.84 280.36, 280.93 193.99, 449.6 -0.05 M141.39 366.71 C262.91 226.9, 384.44 87.1, 460.23 -0.08 M141.39 366.71 C213.05 284.27, 284.7 201.84, 460.23 -0.08 M152.02 366.67 C225.22 282.46, 298.43 198.25, 470.86 -0.12 M152.02 366.67 C254.65 248.61, 357.27 130.55, 470.86 -0.12 M162.65 366.64 C233.62 284.99, 304.59 203.35, 481.49 -0.15 M162.65 366.64 C261 253.49, 359.36 140.35, 481.49 -0.15 M173.28 366.6 C274.1 250.62, 374.92 134.64, 492.12 -0.19 M173.28 366.6 C237.35 292.89, 301.43 219.17, 492.12 -0.19 M183.91 366.57 C263.25 275.3, 342.59 184.03, 502.75 -0.22 M183.91 366.57 C292.73 241.38, 401.56 116.19, 502.75 -0.22 M194.54 366.53 C258.48 292.97, 322.43 219.41, 513.38 -0.25 M194.54 366.53 C318.1 224.39, 441.67 82.24, 513.38 -0.25 M205.17 366.5 C317.34 237.46, 429.51 108.42, 523.35 0.47 M205.17 366.5 C270.22 291.66, 335.27 216.83, 523.35 0.47 M215.14 367.22 C325.58 240.17, 436.02 113.12, 533.98 0.43 M215.14 367.22 C296.18 273.99, 377.23 180.76, 533.98 0.43 M225.77 367.19 C302.94 278.42, 380.1 189.65, 542.65 2.66 M225.77 367.19 C316.67 262.61, 407.57 158.04, 542.65 2.66 M236.4 367.15 C357.01 228.41, 477.62 89.66, 550 6.4 M236.4 367.15 C340.29 247.64, 444.17 128.14, 550 6.4 M247.03 367.12 C354.59 243.38, 462.15 119.65, 555.38 12.4 M247.03 367.12 C365.86 230.42, 484.69 93.72, 555.38 12.4 M257.66 367.08 C321.91 293.17, 386.15 219.27, 558.79 20.67 M257.66 367.08 C320 295.37, 382.35 223.65, 558.79 20.67 M268.29 367.05 C359.78 261.81, 451.26 156.56, 560.89 30.45 M268.29 367.05 C328.15 298.19, 388.01 229.33, 560.89 30.45 M278.92 367.01 C362.77 270.55, 446.63 174.09, 560.37 43.24 M278.92 367.01 C342.94 293.36, 406.96 219.72, 560.37 43.24 M289.55 366.98 C369.87 274.58, 450.19 182.19, 560.5 55.28 M289.55 366.98 C359.16 286.9, 428.77 206.83, 560.5 55.28 M300.18 366.94 C396.77 255.83, 493.36 144.72, 560.64 67.32 M300.18 366.94 C403.43 248.17, 506.69 129.39, 560.64 67.32 M310.81 366.91 C380.48 286.77, 450.14 206.62, 560.77 79.37 M310.81 366.91 C401.44 262.65, 492.08 158.38, 560.77 79.37 M321.44 366.88 C400.67 275.73, 479.9 184.59, 560.25 92.16 M321.44 366.88 C387.25 291.18, 453.05 215.48, 560.25 92.16 M332.07 366.84 C413.19 273.53, 494.31 180.21, 560.38 104.2 M332.07 366.84 C411.91 274.99, 491.75 183.15, 560.38 104.2 M342.7 366.81 C418.41 279.72, 494.11 192.63, 560.51 116.24 M342.7 366.81 C404.63 295.57, 466.55 224.33, 560.51 116.24 M353.33 366.77 C402.91 309.74, 452.49 252.71, 560.65 128.28 M353.33 366.77 C426.74 282.32, 500.15 197.88, 560.65 128.28 M363.96 366.74 C433.3 286.97, 502.64 207.2, 560.78 140.32 M363.96 366.74 C442.68 276.18, 521.39 185.63, 560.78 140.32 M374.59 366.7 C441.51 289.73, 508.42 212.75, 560.26 153.12 M374.59 366.7 C433.9 298.47, 493.21 230.25, 560.26 153.12 M385.22 366.67 C446.05 296.7, 506.87 226.73, 560.39 165.16 M385.22 366.67 C430.34 314.77, 475.45 262.87, 560.39 165.16 M395.85 366.63 C456.19 297.22, 516.53 227.81, 560.52 177.2 M395.85 366.63 C444.8 310.33, 493.75 254.02, 560.52 177.2 M406.48 366.6 C452.85 313.26, 499.22 259.91, 560.66 189.24 M406.48 366.6 C445.03 322.25, 483.58 277.9, 560.66 189.24 M417.11 366.56 C448.97 329.92, 480.82 293.28, 560.79 201.28 M417.11 366.56 C466.94 309.25, 516.76 251.93, 560.79 201.28 M427.74 366.53 C460.68 328.64, 493.62 290.75, 560.27 214.08 M427.74 366.53 C457.97 331.75, 488.2 296.98, 560.27 214.08 M438.37 366.5 C475.95 323.26, 513.54 280.03, 560.4 226.12 M438.37 366.5 C467.07 333.48, 495.77 300.47, 560.4 226.12 M448.35 367.22 C492.48 316.45, 536.61 265.68, 560.53 238.16 M448.35 367.22 C470.81 341.37, 493.28 315.52, 560.53 238.16 M458.98 367.18 C491.94 329.26, 524.9 291.34, 560.67 250.2 M458.98 367.18 C493.28 327.71, 527.59 288.25, 560.67 250.2 M469.61 367.15 C488.32 345.62, 507.04 324.09, 560.8 262.24 M469.61 367.15 C490.84 342.72, 512.08 318.29, 560.8 262.24 M480.24 367.11 C511.16 331.54, 542.08 295.97, 560.28 275.04 M480.24 367.11 C507.14 336.16, 534.04 305.22, 560.28 275.04 M490.87 367.08 C513.21 341.37, 535.56 315.67, 560.41 287.08 M490.87 367.08 C515.21 339.07, 539.55 311.07, 560.41 287.08 M501.5 367.04 C520.85 344.78, 540.2 322.52, 560.54 299.12 M501.5 367.04 C520.5 345.18, 539.51 323.31, 560.54 299.12 M512.13 367.01 C524.07 353.27, 536.01 339.53, 560.67 311.16 M512.13 367.01 C523.48 353.95, 534.82 340.9, 560.67 311.16 M522.76 366.97 C537.93 349.52, 553.11 332.06, 560.81 323.2 M522.76 366.97 C533.91 354.14, 545.07 341.31, 560.81 323.2 M534.04 366.19 C540.62 358.61, 547.21 351.04, 560.28 336 M534.04 366.19 C542.54 356.41, 551.04 346.64, 560.28 336 M547.95 362.38 C551.33 358.5, 554.7 354.61, 557.14 351.81 M547.95 362.38 C550.3 359.67, 552.66 356.97, 557.14 351.81 M7.89 358.26 C7.89 358.26, 7.89 358.26, 7.89 358.26 M7.89 358.26 C7.89 358.26, 7.89 358.26, 7.89 358.26 M28.24 365.35 C22.31 360.2, 16.38 355.05, 1.07 341.73 M28.24 365.35 C19.42 357.68, 10.6 350.02, 1.07 341.73 M41.03 365.87 C31.94 357.97, 22.85 350.07, 0.28 330.44 M41.03 365.87 C29.99 356.27, 18.95 346.68, 0.28 330.44 M53.83 366.39 C40.27 354.61, 26.71 342.82, 0.24 319.81 M53.83 366.39 C42.02 356.13, 30.2 345.86, 0.24 319.81 M65.87 366.26 C48.17 350.88, 30.47 335.49, 0.21 309.18 M65.87 366.26 C46.39 349.33, 26.92 332.4, 0.21 309.18 M77.91 366.13 C47.48 339.68, 17.05 313.22, 0.17 298.55 M77.91 366.13 C48.89 340.9, 19.86 315.67, 0.17 298.55 M89.95 365.99 C58.13 338.33, 26.31 310.67, 0.14 287.92 M89.95 365.99 C66.08 345.24, 42.21 324.49, 0.14 287.92 M101.99 365.86 C74.51 341.97, 47.03 318.08, 0.1 277.29 M101.99 365.86 C79.5 346.31, 57.01 326.76, 0.1 277.29 M114.79 366.38 C82.11 337.98, 49.44 309.58, 0.07 266.66 M114.79 366.38 C79.53 335.74, 44.27 305.09, 0.07 266.66 M126.83 366.25 C83.54 328.62, 40.24 290.99, 0.04 256.03 M126.83 366.25 C87.8 332.33, 48.77 298.4, 0.04 256.03 M138.87 366.12 C106.13 337.66, 73.4 309.2, 0 245.4 M138.87 366.12 C96.11 328.95, 53.36 291.79, 0 245.4 M150.91 365.99 C93.95 316.47, 36.99 266.95, -0.03 234.77 M150.91 365.99 C92.4 315.13, 33.89 264.27, -0.03 234.77 M162.95 365.85 C122.36 330.57, 81.78 295.29, -0.07 224.14 M162.95 365.85 C128.41 335.83, 93.87 305.8, -0.07 224.14 M175.74 366.37 C111.48 310.51, 47.21 254.64, -0.1 213.51 M175.74 366.37 C119.29 317.3, 62.84 268.23, -0.1 213.51 M187.79 366.24 C125.1 311.75, 62.42 257.26, -0.14 202.88 M187.79 366.24 C127.35 313.71, 66.92 261.17, -0.14 202.88 M199.83 366.11 C157.64 329.44, 115.46 292.77, -0.17 192.25 M199.83 366.11 C124.48 300.61, 49.13 235.11, -0.17 192.25 M211.87 365.98 C134.3 298.55, 56.73 231.12, -0.21 181.62 M211.87 365.98 C127.65 292.77, 43.43 219.56, -0.21 181.62 M223.91 365.84 C171 319.85, 118.09 273.85, -0.24 170.99 M223.91 365.84 C149.66 301.3, 75.42 236.76, -0.24 170.99 M236.7 366.37 C144.52 286.23, 52.34 206.1, -0.27 160.36 M236.7 366.37 C152.26 292.96, 67.82 219.56, -0.27 160.36 M248.74 366.23 C179.13 305.72, 109.51 245.2, 0.45 150.39 M248.74 366.23 C157.17 286.63, 65.6 207.03, 0.45 150.39 M260.79 366.1 C179.06 295.05, 97.33 224.01, 0.41 139.76 M260.79 366.1 C163.16 281.23, 65.53 196.37, 0.41 139.76 M272.83 365.97 C218.17 318.46, 163.52 270.95, 0.38 129.13 M272.83 365.97 C168.87 275.6, 64.92 185.23, 0.38 129.13 M284.87 365.83 C222.77 311.85, 160.67 257.87, 0.34 118.5 M284.87 365.83 C174.9 270.24, 64.93 174.64, 0.34 118.5 M297.66 366.36 C187.45 270.55, 77.23 174.74, 0.31 107.87 M297.66 366.36 C217.55 296.71, 137.43 227.07, 0.31 107.87 M309.7 366.22 C233.25 299.76, 156.8 233.31, 0.27 97.24 M309.7 366.22 C191.4 263.39, 73.1 160.55, 0.27 97.24 M321.74 366.09 C199.06 259.44, 76.37 152.79, 0.24 86.61 M321.74 366.09 C244.53 298.97, 167.32 231.85, 0.24 86.61 M333.79 365.96 C229.53 275.33, 125.27 184.7, 0.2 75.98 M333.79 365.96 C229.86 275.62, 125.94 185.28, 0.2 75.98 M345.83 365.82 C227.7 263.14, 109.58 160.46, 0.17 65.35 M345.83 365.82 C238.92 272.89, 132.01 179.95, 0.17 65.35 M358.62 366.35 C217.37 243.56, 76.12 120.77, 0.13 54.72 M358.62 366.35 C221.99 247.58, 85.37 128.81, 0.13 54.72 M370.66 366.21 C231.14 244.93, 91.62 123.64, 0.1 44.09 M370.66 366.21 C296.47 301.72, 222.29 237.23, 0.1 44.09 M382.7 366.08 C291.61 286.89, 200.52 207.71, 0.07 33.46 M382.7 366.08 C246.55 247.72, 110.39 129.36, 0.07 33.46 M394.74 365.95 C265.3 253.42, 135.85 140.89, 0.79 23.48 M394.74 365.95 C298.59 282.36, 202.44 198.78, 0.79 23.48 M406.79 365.81 C302.44 275.11, 198.09 184.4, 3.02 14.82 M406.79 365.81 C302.5 275.16, 198.22 184.51, 3.02 14.82 M419.58 366.34 C313.35 273.99, 207.12 181.65, 7.51 8.13 M419.58 366.34 C304.26 266.09, 188.93 165.84, 7.51 8.13 M431.62 366.2 C333.11 280.56, 234.59 194.93, 14.27 3.4 M431.62 366.2 C319.42 268.67, 207.23 171.14, 14.27 3.4 M443.66 366.07 C300.25 241.4, 156.83 116.73, 23.29 0.65 M443.66 366.07 C294.68 236.56, 145.7 107.05, 23.29 0.65 M455.7 365.94 C363.3 285.61, 270.89 205.28, 33.82 -0.8 M455.7 365.94 C360.48 283.16, 265.26 200.39, 33.82 -0.8 M468.5 366.46 C311.18 229.7, 153.86 92.95, 46.62 -0.28 M468.5 366.46 C374.71 284.93, 280.93 203.41, 46.62 -0.28 M480.54 366.33 C386.59 284.66, 292.64 202.98, 58.66 -0.41 M480.54 366.33 C343.46 247.17, 206.39 128.01, 58.66 -0.41 M492.58 366.19 C381.03 269.22, 269.47 172.25, 70.7 -0.54 M492.58 366.19 C388.81 275.98, 285.03 185.77, 70.7 -0.54 M504.62 366.06 C365.6 245.21, 226.58 124.36, 82.74 -0.68 M504.62 366.06 C411.68 285.27, 318.74 204.47, 82.74 -0.68 M516.66 365.93 C371.41 239.66, 226.15 113.39, 94.78 -0.81 M516.66 365.93 C391.92 257.49, 267.18 149.05, 94.78 -0.81 M528.7 365.79 C364.79 223.31, 200.88 80.82, 107.58 -0.29 M528.7 365.79 C392.46 247.36, 256.22 128.93, 107.58 -0.29 M539.23 364.35 C430.84 270.12, 322.44 175.89, 119.62 -0.42 M539.23 364.35 C434.56 273.36, 329.89 182.36, 119.62 -0.42 M548.26 361.59 C415.52 246.2, 282.77 130.81, 131.66 -0.55 M548.26 361.59 C421.61 251.5, 294.96 141.41, 131.66 -0.55 M554.26 356.21 C443.63 260.04, 333 163.87, 143.7 -0.69 M554.26 356.21 C433.9 251.58, 313.54 146.95, 143.7 -0.69 M558 348.86 C476.81 278.29, 395.63 207.71, 155.74 -0.82 M558 348.86 C401.5 212.82, 245.01 76.78, 155.74 -0.82 M560.23 340.2 C420.06 218.36, 279.9 96.51, 168.53 -0.3 M560.23 340.2 C473.87 265.12, 387.5 190.05, 168.53 -0.3 M560.19 329.57 C412.12 200.85, 264.05 72.14, 180.58 -0.43 M560.19 329.57 C460.09 242.54, 359.98 155.52, 180.58 -0.43 M560.91 319.59 C442.76 216.88, 324.6 114.17, 192.62 -0.56 M560.91 319.59 C438.3 213.01, 315.69 106.43, 192.62 -0.56 M560.88 308.96 C489.02 246.5, 417.16 184.03, 204.66 -0.7 M560.88 308.96 C428.75 194.11, 296.63 79.25, 204.66 -0.7 M560.85 298.33 C466.92 216.69, 372.99 135.04, 216.7 -0.83 M560.85 298.33 C443.92 196.7, 327 95.06, 216.7 -0.83 M560.81 287.7 C487.09 223.62, 413.38 159.54, 229.49 -0.31 M560.81 287.7 C490.79 226.84, 420.77 165.97, 229.49 -0.31 M560.78 277.07 C450.36 181.09, 339.95 85.11, 241.53 -0.44 M560.78 277.07 C478.38 205.45, 395.99 133.82, 241.53 -0.44 M560.74 266.44 C497.73 211.67, 434.72 156.89, 253.58 -0.57 M560.74 266.44 C485.94 201.42, 411.14 136.39, 253.58 -0.57 M560.71 255.81 C446.05 156.15, 331.4 56.48, 265.62 -0.71 M560.71 255.81 C468.38 175.55, 376.04 95.29, 265.62 -0.71 M560.67 245.18 C456.05 154.23, 351.42 63.29, 277.66 -0.84 M560.67 245.18 C452.05 150.76, 343.43 56.33, 277.66 -0.84 M560.64 234.55 C488.49 171.83, 416.34 109.12, 290.45 -0.32 M560.64 234.55 C496.64 178.92, 432.64 123.28, 290.45 -0.32 M560.6 223.92 C482.33 155.88, 404.05 87.83, 302.49 -0.45 M560.6 223.92 C481.54 155.19, 402.48 86.47, 302.49 -0.45 M560.57 213.29 C470.86 135.31, 381.14 57.32, 314.53 -0.58 M560.57 213.29 C469.39 134.03, 378.21 54.77, 314.53 -0.58 M560.53 202.66 C499.63 149.72, 438.73 96.78, 326.58 -0.72 M560.53 202.66 C480.28 132.9, 400.03 63.14, 326.58 -0.72 M560.5 192.03 C497.97 137.68, 435.44 83.32, 338.62 -0.85 M560.5 192.03 C480.09 122.13, 399.67 52.23, 338.62 -0.85 M560.47 181.4 C505.62 133.73, 450.78 86.05, 351.41 -0.33 M560.47 181.4 C480.25 111.68, 400.04 41.95, 351.41 -0.33 M560.43 170.77 C494.21 113.21, 427.99 55.64, 363.45 -0.46 M560.43 170.77 C507.54 124.8, 454.65 78.82, 363.45 -0.46 M560.4 160.14 C486.79 96.15, 413.18 32.16, 375.49 -0.59 M560.4 160.14 C490.89 99.72, 421.39 39.3, 375.49 -0.59 M560.36 149.51 C514.97 110.06, 469.58 70.6, 387.53 -0.72 M560.36 149.51 C516.66 111.52, 472.95 73.53, 387.53 -0.72 M560.33 138.88 C508.32 93.67, 456.31 48.46, 399.57 -0.86 M560.33 138.88 C524.15 107.43, 487.97 75.98, 399.57 -0.86 M560.29 128.25 C513.97 87.98, 467.65 47.72, 412.37 -0.34 M560.29 128.25 C517.79 91.31, 475.29 54.36, 412.37 -0.34 M560.26 117.62 C511.11 74.9, 461.97 32.18, 424.41 -0.47 M560.26 117.62 C520.27 82.86, 480.28 48.1, 424.41 -0.47 M560.22 106.99 C516.04 68.58, 471.86 30.17, 436.45 -0.6 M560.22 106.99 C529.1 79.94, 497.98 52.89, 436.45 -0.6 M560.19 96.36 C537.5 76.64, 514.82 56.92, 448.49 -0.73 M560.19 96.36 C526.14 66.76, 492.09 37.16, 448.49 -0.73 M560.91 86.39 C522.72 53.19, 484.52 19.99, 460.53 -0.87 M560.91 86.39 C537.56 66.09, 514.2 45.79, 460.53 -0.87 M560.88 75.76 C542.93 60.16, 524.98 44.55, 473.33 -0.34 M560.88 75.76 C540.27 57.85, 519.67 39.94, 473.33 -0.34 M560.84 65.13 C531.61 39.72, 502.38 14.31, 485.37 -0.48 M560.84 65.13 C543.77 50.29, 526.69 35.44, 485.37 -0.48 M560.81 54.5 C542.28 38.39, 523.76 22.29, 497.41 -0.61 M560.81 54.5 C546.7 42.24, 532.6 29.98, 497.41 -0.61 M560.77 43.87 C545.47 30.57, 530.17 17.26, 509.45 -0.74 M560.77 43.87 C548.7 33.37, 536.63 22.88, 509.45 -0.74 M560.74 33.24 C550.67 24.49, 540.6 15.73, 521.49 -0.88 M560.74 33.24 C550.51 24.34, 540.28 15.45, 521.49 -0.88 M559.19 21.3 C553.13 16.02, 547.07 10.75, 535.04 0.3 M559.19 21.3 C550.25 13.52, 541.3 5.74, 535.04 0.3" stroke="#a5d8ff" stroke-width="1" fill="none"></path><path d="M32 0 C196.96 0, 361.92 0, 528.13 0 M32 0 C202.09 0, 372.17 0, 528.13 0 M528.13 0 C549.46 0, 560.13 10.67, 560.13 32 M528.13 0 C549.46 0, 560.13 10.67, 560.13 32 M560.13 32 C560.13 102.05, 560.13 172.1, 560.13 334.36 M560.13 32 C560.13 124.85, 560.13 217.69, 560.13 334.36 M560.13 334.36 C560.13 355.69, 549.46 366.36, 528.13 366.36 M560.13 334.36 C560.13 355.69, 549.46 366.36, 528.13 366.36 M528.13 366.36 C424.83 366.36, 321.52 366.36, 32 366.36 M528.13 366.36 C345.03 366.36, 161.93 366.36, 32 366.36 M32 366.36 C10.67 366.36, 0 355.69, 0 334.36 M32 366.36 C10.67 366.36, 0 355.69, 0 334.36 M0 334.36 C0 222.55, 0 110.75, 0 32 M0 334.36 C0 259.92, 0 185.49, 0 32 M0 32 C0 10.67, 10.67 0, 32 0 M0 32 C0 10.67, 10.67 0, 32 0" stroke="#1e1e1e" stroke-width="2" fill="none"></path></g><g stroke-linecap="round" transform="translate(178.9989686681315 98.78054059665084) rotate(0 114.60264621454098 94.39840932848996)"><path d="M32 0 C75.72 0, 119.44 0, 197.21 0 M32 0 C92.27 0, 152.54 0, 197.21 0 M197.21 0 C218.54 0, 229.21 10.67, 229.21 32 M197.21 0 C218.54 0, 229.21 10.67, 229.21 32 M229.21 32 C229.21 62.97, 229.21 93.93, 229.21 156.8 M229.21 32 C229.21 59.24, 229.21 86.48, 229.21 156.8 M229.21 156.8 C229.21 178.13, 218.54 188.8, 197.21 188.8 M229.21 156.8 C229.21 178.13, 218.54 188.8, 197.21 188.8 M197.21 188.8 C155.98 188.8, 114.75 188.8, 32 188.8 M197.21 188.8 C143.88 188.8, 90.55 188.8, 32 188.8 M32 188.8 C10.67 188.8, 0 178.13, 0 156.8 M32 188.8 C10.67 188.8, 0 178.13, 0 156.8 M0 156.8 C0 111.55, 0 66.3, 0 32 M0 156.8 C0 118.34, 0 79.87, 0 32 M0 32 C0 10.67, 10.67 0, 32 0 M0 32 C0 10.67, 10.67 0, 32 0" stroke="#1e1e1e" stroke-width="2" fill="none"></path></g><g stroke-linecap="round"><g transform="translate(185.78402888592973 243.65011656162608) rotate(0 108.80207557716562 -33.53863231046091)"><path d="M0 0 C13.09 -11.18, 57.36 -63.18, 78.51 -67.08 C99.66 -70.98, 111.33 -26.38, 126.9 -23.39 C142.47 -20.39, 156.8 -50.23, 171.92 -49.12 C187.04 -48.01, 209.99 -22.15, 217.6 -16.76 M0 0 C13.09 -11.18, 57.36 -63.18, 78.51 -67.08 C99.66 -70.98, 111.33 -26.38, 126.9 -23.39 C142.47 -20.39, 156.8 -50.23, 171.92 -49.12 C187.04 -48.01, 209.99 -22.15, 217.6 -16.76" stroke="#1e1e1e" stroke-width="2" fill="none"></path></g></g><mask></mask><g stroke-linecap="round" transform="translate(303.0463909152454 131.35796747791733) rotate(0 20.242098853781272 20.24209885378133)"><path d="M4.97 6.97 C4.97 6.97, 4.97 6.97, 4.97 6.97 M4.97 6.97 C4.97 6.97, 4.97 6.97, 4.97 6.97 M0.51 24.29 C5.72 18.3, 10.92 12.31, 21.5 0.14 M0.51 24.29 C5.09 19.02, 9.67 13.75, 21.5 0.14 M3.92 32.56 C9.55 26.08, 15.19 19.6, 30.16 2.37 M3.92 32.56 C12.29 22.93, 20.66 13.3, 30.16 2.37 M9.96 37.81 C19.51 26.81, 29.07 15.82, 36.2 7.62 M9.96 37.81 C18.83 27.6, 27.7 17.4, 36.2 7.62 M17.96 40.79 C26.21 31.3, 34.46 21.81, 40.27 15.13 M17.96 40.79 C23.45 34.47, 28.95 28.16, 40.27 15.13 M30.56 38.49 C34.18 34.33, 37.79 30.17, 39.75 27.93 M30.56 38.49 C33.63 34.97, 36.69 31.44, 39.75 27.93 M7.3 35.81 C7.3 35.81, 7.3 35.81, 7.3 35.81 M7.3 35.81 C7.3 35.81, 7.3 35.81, 7.3 35.81 M23.87 39.61 C18.16 34.65, 12.46 29.69, 0.47 19.27 M23.87 39.61 C18.07 34.57, 12.28 29.54, 0.47 19.27 M32.13 36.2 C24.15 29.26, 16.16 22.31, 2.7 10.61 M32.13 36.2 C24.3 29.39, 16.47 22.58, 2.7 10.61 M37.38 30.16 C27.42 21.5, 17.46 12.84, 7.95 4.57 M37.38 30.16 C27.68 21.72, 17.98 13.29, 7.95 4.57 M40.37 22.15 C31.89 14.78, 23.4 7.41, 15.46 0.5 M40.37 22.15 C30.81 13.84, 21.25 5.53, 15.46 0.5 M38.07 9.56 C34.71 6.63, 31.34 3.71, 27.5 0.37 M38.07 9.56 C34.5 6.46, 30.94 3.36, 27.5 0.37" stroke="#a5d8ff" stroke-width="1" fill="none"></path><path d="M40.48 20.24 C40.48 21.41, 40.38 22.6, 40.18 23.76 C39.97 24.91, 39.66 26.06, 39.26 27.17 C38.86 28.27, 38.36 29.35, 37.77 30.36 C37.19 31.38, 36.5 32.36, 35.75 33.25 C35 34.15, 34.15 35, 33.25 35.75 C32.36 36.5, 31.38 37.19, 30.36 37.77 C29.35 38.36, 28.27 38.86, 27.17 39.26 C26.06 39.66, 24.91 39.97, 23.76 40.18 C22.6 40.38, 21.41 40.48, 20.24 40.48 C19.07 40.48, 17.88 40.38, 16.73 40.18 C15.57 39.97, 14.42 39.66, 13.32 39.26 C12.22 38.86, 11.14 38.36, 10.12 37.77 C9.11 37.19, 8.13 36.5, 7.23 35.75 C6.33 35, 5.49 34.15, 4.74 33.25 C3.98 32.36, 3.3 31.38, 2.71 30.36 C2.13 29.35, 1.62 28.27, 1.22 27.17 C0.82 26.06, 0.51 24.91, 0.31 23.76 C0.1 22.6, 0 21.41, 0 20.24 C0 19.07, 0.1 17.88, 0.31 16.73 C0.51 15.57, 0.82 14.42, 1.22 13.32 C1.62 12.22, 2.13 11.14, 2.71 10.12 C3.3 9.11, 3.98 8.13, 4.74 7.23 C5.49 6.33, 6.33 5.49, 7.23 4.74 C8.13 3.98, 9.11 3.3, 10.12 2.71 C11.14 2.13, 12.22 1.62, 13.32 1.22 C14.42 0.82, 15.57 0.51, 16.73 0.31 C17.88 0.1, 19.07 0, 20.24 0 C21.41 0, 22.6 0.1, 23.76 0.31 C24.91 0.51, 26.06 0.82, 27.17 1.22 C28.27 1.62, 29.35 2.13, 30.36 2.71 C31.38 3.3, 32.36 3.98, 33.25 4.74 C34.15 5.49, 35 6.33, 35.75 7.23 C36.5 8.13, 37.19 9.11, 37.77 10.12 C38.36 11.14, 38.86 12.22, 39.26 13.32 C39.66 14.42, 39.97 15.57, 40.18 16.73 C40.38 17.88, 40.43 19.66, 40.48 20.24 C40.54 20.83, 40.54 19.66, 40.48 20.24" stroke="#1e1e1e" stroke-width="2" fill="none"></path></g><g stroke-linecap="round" transform="translate(175.46301048064424 521.6062228650694) rotate(0 114.60264621454098 94.39840932848996)"><path d="M32 0 C78.91 0, 125.82 0, 197.21 0 M32 0 C87.8 0, 143.6 0, 197.21 0 M197.21 0 C218.54 0, 229.21 10.67, 229.21 32 M197.21 0 C218.54 0, 229.21 10.67, 229.21 32 M229.21 32 C229.21 67.71, 229.21 103.42, 229.21 156.8 M229.21 32 C229.21 71.25, 229.21 110.49, 229.21 156.8 M229.21 156.8 C229.21 178.13, 218.54 188.8, 197.21 188.8 M229.21 156.8 C229.21 178.13, 218.54 188.8, 197.21 188.8 M197.21 188.8 C137.06 188.8, 76.91 188.8, 32 188.8 M197.21 188.8 C141.37 188.8, 85.53 188.8, 32 188.8 M32 188.8 C10.67 188.8, 0 178.13, 0 156.8 M32 188.8 C10.67 188.8, 0 178.13, 0 156.8 M0 156.8 C0 125.49, 0 94.19, 0 32 M0 156.8 C0 107.62, 0 58.44, 0 32 M0 32 C0 10.67, 10.67 0, 32 0 M0 32 C0 10.67, 10.67 0, 32 0" stroke="#1e1e1e" stroke-width="2" fill="none"></path></g><g stroke-linecap="round"><g transform="translate(182.24807069844246 666.4757988300447) rotate(0 108.80207557716562 -33.5386323104609)"><path d="M0 0 C13.09 -11.18, 57.36 -63.18, 78.51 -67.08 C99.66 -70.98, 111.33 -26.38, 126.9 -23.39 C142.47 -20.39, 156.8 -50.23, 171.92 -49.12 C187.04 -48.01, 209.99 -22.15, 217.6 -16.76 M0 0 C13.09 -11.18, 57.36 -63.18, 78.51 -67.08 C99.66 -70.98, 111.33 -26.38, 126.9 -23.39 C142.47 -20.39, 156.8 -50.23, 171.92 -49.12 C187.04 -48.01, 209.99 -22.15, 217.6 -16.76" stroke="#1e1e1e" stroke-width="2" fill="none"></path></g></g><mask></mask><g stroke-linecap="round" transform="translate(299.5104327277604 554.1836497463365) rotate(0 20.242098853781272 20.24209885378133)"><path d="M4.97 6.97 C4.97 6.97, 4.97 6.97, 4.97 6.97 M4.97 6.97 C4.97 6.97, 4.97 6.97, 4.97 6.97 M0.51 24.29 C6.51 17.38, 12.52 10.47, 21.5 0.14 M0.51 24.29 C7.11 16.7, 13.71 9.1, 21.5 0.14 M3.92 32.56 C9.38 26.27, 14.85 19.99, 30.16 2.37 M3.92 32.56 C13.6 21.42, 23.29 10.27, 30.16 2.37 M9.96 37.81 C19.76 26.53, 29.56 15.26, 36.2 7.62 M9.96 37.81 C17.55 29.07, 25.15 20.33, 36.2 7.62 M17.96 40.79 C25.8 31.78, 33.63 22.76, 40.27 15.13 M17.96 40.79 C25.54 32.07, 33.12 23.36, 40.27 15.13 M30.56 38.49 C34.2 34.3, 37.85 30.11, 39.75 27.93 M30.56 38.49 C33.83 34.73, 37.1 30.97, 39.75 27.93 M7.3 35.81 C7.3 35.81, 7.3 35.81, 7.3 35.81 M7.3 35.81 C7.3 35.81, 7.3 35.81, 7.3 35.81 M23.87 39.61 C14.68 31.63, 5.5 23.64, 0.47 19.27 M23.87 39.61 C15.94 32.72, 8.02 25.84, 0.47 19.27 M32.13 36.2 C25.81 30.7, 19.49 25.21, 2.7 10.61 M32.13 36.2 C21.69 27.12, 11.24 18.04, 2.7 10.61 M37.38 30.16 C29.55 23.35, 21.72 16.55, 7.95 4.57 M37.38 30.16 C28 22, 18.61 13.84, 7.95 4.57 M40.37 22.15 C34.91 17.41, 29.46 12.67, 15.46 0.5 M40.37 22.15 C33.19 15.91, 26 9.67, 15.46 0.5 M38.07 9.56 C35.02 6.91, 31.98 4.26, 27.5 0.37 M38.07 9.56 C34.51 6.46, 30.95 3.37, 27.5 0.37" stroke="#a5d8ff" stroke-width="1" fill="none"></path><path d="M40.48 20.24 C40.48 21.41, 40.38 22.6, 40.18 23.76 C39.97 24.91, 39.66 26.06, 39.26 27.17 C38.86 28.27, 38.36 29.35, 37.77 30.36 C37.19 31.38, 36.5 32.36, 35.75 33.25 C35 34.15, 34.15 35, 33.25 35.75 C32.36 36.5, 31.38 37.19, 30.36 37.77 C29.35 38.36, 28.27 38.86, 27.17 39.26 C26.06 39.66, 24.91 39.97, 23.76 40.18 C22.6 40.38, 21.41 40.48, 20.24 40.48 C19.07 40.48, 17.88 40.38, 16.73 40.18 C15.57 39.97, 14.42 39.66, 13.32 39.26 C12.22 38.86, 11.14 38.36, 10.12 37.77 C9.11 37.19, 8.13 36.5, 7.23 35.75 C6.33 35, 5.49 34.15, 4.74 33.25 C3.98 32.36, 3.3 31.38, 2.71 30.36 C2.13 29.35, 1.62 28.27, 1.22 27.17 C0.82 26.06, 0.51 24.91, 0.31 23.76 C0.1 22.6, 0 21.41, 0 20.24 C0 19.07, 0.1 17.88, 0.31 16.73 C0.51 15.57, 0.82 14.42, 1.22 13.32 C1.62 12.22, 2.13 11.14, 2.71 10.12 C3.3 9.11, 3.98 8.13, 4.74 7.23 C5.49 6.33, 6.33 5.49, 7.23 4.74 C8.13 3.98, 9.11 3.3, 10.12 2.71 C11.14 2.13, 12.22 1.62, 13.32 1.22 C14.42 0.82, 15.57 0.51, 16.73 0.31 C17.88 0.1, 19.07 0, 20.24 0 C21.41 0, 22.6 0.1, 23.76 0.31 C24.91 0.51, 26.06 0.82, 27.17 1.22 C28.27 1.62, 29.35 2.13, 30.36 2.71 C31.38 3.3, 32.36 3.98, 33.25 4.74 C34.15 5.49, 35 6.33, 35.75 7.23 C36.5 8.13, 37.19 9.11, 37.77 10.12 C38.36 11.14, 38.86 12.22, 39.26 13.32 C39.66 14.42, 39.97 15.57, 40.18 16.73 C40.38 17.88, 40.43 19.66, 40.48 20.24 C40.54 20.83, 40.54 19.66, 40.48 20.24" stroke="#1e1e1e" stroke-width="2" fill="none"></path></g></svg>