<svg version="1.1" xmlns="http://www.w3.org/2000/svg" viewBox="0 0 132.8991150231327 154.09414530775393" width="132.8991150231327" height="154.09414530775393" class="excalidraw-svg"><!-- svg-source:excalidraw --><metadata></metadata><defs><style class="style-fonts">
      </style></defs><g stroke-linecap="round" transform="translate(21.424766080976497 19.283026654627065) rotate(0 24.142370013377104 24.142370013377104)"><path d="M19.17 0.3 C23.83 -1.06, 30.22 -0.01, 34.85 2.5 C39.48 5.01, 44.92 10.51, 46.96 15.37 C49 20.23, 48.71 26.77, 47.1 31.65 C45.48 36.53, 41.57 41.84, 37.29 44.66 C33.01 47.47, 26.57 49.18, 21.42 48.55 C16.27 47.92, 9.98 44.8, 6.37 40.9 C2.77 37, -0.02 30.36, -0.23 25.15 C-0.43 19.94, 1.79 13.71, 5.13 9.64 C8.46 5.57, 17.15 2.17, 19.78 0.73 C22.41 -0.71, 20.82 0.61, 20.91 1.01 M22.62 0.66 C27.58 0.21, 34.55 2.44, 38.78 5.38 C43 8.31, 46.9 13.29, 47.97 18.26 C49.04 23.24, 47.46 30.56, 45.19 35.23 C42.93 39.89, 39.08 44.3, 34.37 46.27 C29.65 48.25, 22.03 48.55, 16.92 47.08 C11.82 45.61, 6.46 41.63, 3.74 37.45 C1.01 33.27, -0.09 27.07, 0.56 22 C1.2 16.92, 3.9 10.61, 7.61 7 C11.32 3.38, 20.31 1.48, 22.79 0.3 C25.27 -0.88, 22.43 -0.43, 22.5 -0.08" stroke="#1e1e1e" stroke-width="2" fill="none"></path></g><g stroke-linecap="round" transform="translate(32.21782561636837 38.028866900308) rotate(0 3.4083345901237863 3.4083345901237863)"><path d="M3.41 0.05 C4.1 -0.04, 4.62 -0.12, 5.18 0.33 C5.75 0.79, 6.51 2.07, 6.78 2.77 C7.05 3.48, 7.1 3.97, 6.8 4.59 C6.49 5.21, 5.72 6.09, 4.96 6.49 C4.2 6.88, 2.94 7.19, 2.24 6.96 C1.54 6.73, 1.11 5.75, 0.75 5.11 C0.38 4.47, 0.01 3.79, 0.04 3.14 C0.08 2.48, 0.46 1.71, 0.98 1.17 C1.49 0.62, 2.71 0.08, 3.14 -0.12 C3.56 -0.33, 3.56 -0.13, 3.54 -0.08 M3.93 0.01 C4.57 -0.02, 5.04 0.7, 5.57 1.22 C6.09 1.75, 6.95 2.47, 7.09 3.14 C7.24 3.81, 6.84 4.62, 6.44 5.23 C6.05 5.85, 5.5 6.54, 4.72 6.82 C3.95 7.1, 2.49 7.25, 1.81 6.91 C1.12 6.58, 0.87 5.56, 0.62 4.8 C0.37 4.05, 0.15 3, 0.31 2.37 C0.46 1.75, 1.07 1.51, 1.55 1.06 C2.03 0.61, 2.77 -0.22, 3.18 -0.33 C3.59 -0.44, 3.95 0.25, 4 0.4" stroke="none" stroke-width="0" fill="#1e1e1e"></path><path d="M2.87 -0.15 C3.59 -0.16, 5.11 0.46, 5.75 0.95 C6.38 1.43, 6.53 2.06, 6.68 2.74 C6.82 3.41, 6.87 4.32, 6.6 5 C6.34 5.68, 5.78 6.51, 5.1 6.84 C4.41 7.17, 3.28 7.25, 2.5 7 C1.72 6.74, 0.81 5.93, 0.41 5.3 C0.01 4.67, 0.02 3.88, 0.1 3.19 C0.18 2.51, 0.41 1.69, 0.91 1.2 C1.41 0.7, 2.71 0.37, 3.1 0.23 C3.48 0.08, 3.21 0.33, 3.22 0.33 M3.37 0.45 C4.1 0.27, 5.16 0.12, 5.65 0.51 C6.14 0.91, 6.14 2.08, 6.34 2.81 C6.54 3.54, 7.15 4.31, 6.85 4.91 C6.55 5.5, 5.29 6.09, 4.53 6.38 C3.77 6.67, 2.89 6.77, 2.27 6.65 C1.66 6.54, 1.22 6.25, 0.85 5.68 C0.49 5.12, 0.04 4.04, 0.09 3.28 C0.14 2.52, 0.65 1.74, 1.15 1.13 C1.64 0.51, 2.68 -0.22, 3.06 -0.39 C3.45 -0.57, 3.41 -0.1, 3.45 0.07" stroke="#1e1e1e" stroke-width="2" fill="none"></path></g><g stroke-linecap="round"><g transform="translate(42.73436483512751 67.09905309308306) rotate(0 39.17848234687949 3.7461497064746254)"><path d="M-0.49 0.53 C2.91 5.67, 7.81 25.98, 19.35 30.72 C30.88 35.46, 58.72 35.01, 68.73 28.98 C78.74 22.95, 81.77 3.25, 79.4 -5.46 C77.04 -14.16, 63.18 -20.28, 54.53 -23.24 C45.88 -26.21, 31.86 -23.07, 27.49 -23.24 M1.46 -0.23 C5.34 5.02, 10.7 27.09, 21.73 31.67 C32.76 36.25, 58.53 33.28, 67.66 27.26 C76.8 21.24, 78.93 3.88, 76.54 -4.43 C74.15 -12.74, 61.86 -19.39, 53.34 -22.6 C44.82 -25.81, 29.99 -23.21, 25.41 -23.69" stroke="#1e1e1e" stroke-width="2" fill="none"></path></g></g><mask></mask><g stroke-linecap="round"><g transform="translate(22.086096352991717 47.6819160811724) rotate(0 -2.9915477655947598 8.996865845046614)"><path d="M0 0 C-3.8 1.73, -5.53 4.82, -12.09 8.14 M0 0 C-3.36 2.7, -6.59 4.74, -12.09 8.14 M-12.09 8.14 C-6.27 8.1, -1.1 7.97, 2.23 7.24 M-12.09 8.14 C-8.05 7.83, -4.65 7.53, 2.23 7.24 M2.23 7.24 C0.47 10.78, -2.72 13.16, -5.82 17.99 M2.23 7.24 C-0.69 10.86, -3.42 14.65, -5.82 17.99 M-5.82 17.99 C-1.32 16.37, 2.82 14.35, 6.1 13.05 M-5.82 17.99 C-3.14 17.06, -0.62 15.77, 6.1 13.05" stroke="#1e1e1e" stroke-width="2" fill="none"></path></g></g><mask></mask><g stroke-linecap="round"><g transform="translate(77.38624962001677 64.47385311049948) rotate(0 14.10878387745015 6.93509343553319)"><path d="M-0.58 1.19 C2.2 0.34, 11.45 -6.06, 16.04 -6.26 C20.63 -6.46, 25.96 -2.62, 26.97 0.01 C27.97 2.64, 21.68 8.38, 22.08 9.5 C22.48 10.62, 28.74 5.06, 29.36 6.71 C29.98 8.36, 28.59 17.4, 25.79 19.39 C23 21.38, 14.7 18.88, 12.6 18.63 M1.32 0.77 C4.09 0.21, 11.45 -4.33, 15.64 -4.8 C19.84 -5.28, 25.33 -4.13, 26.48 -2.08 C27.62 -0.02, 22.16 5.99, 22.5 7.53 C22.83 9.07, 28.21 4.81, 28.49 7.17 C28.76 9.53, 26.68 19.99, 24.14 21.7 C21.59 23.41, 15.18 18.17, 13.23 17.43" stroke="#1e1e1e" stroke-width="2" fill="none"></path></g></g><mask></mask><g stroke-linecap="round"><g transform="translate(38.05167770203434 20.896540046563587) rotate(0 9.833642979495608 -4.370507990886836)"><path d="M0.48 -0.07 C1.26 -1.52, 2.7 -6.53, 4.41 -8.15 C6.13 -9.77, 9.48 -10.3, 10.76 -9.79 C12.05 -9.28, 11.14 -5.48, 12.14 -5.09 C13.14 -4.7, 15.5 -8.58, 16.75 -7.45 C18 -6.32, 19.13 0.23, 19.65 1.69 M0.06 -0.58 C0.81 -1.96, 2.37 -7.33, 4.1 -9 C5.84 -10.67, 9.37 -11.34, 10.49 -10.6 C11.62 -9.85, 9.88 -5.09, 10.86 -4.56 C11.83 -4.03, 14.77 -8.39, 16.35 -7.41 C17.92 -6.44, 19.63 -0.33, 20.29 1.29" stroke="#1e1e1e" stroke-width="2" fill="none"></path></g></g><mask></mask><g stroke-linecap="round"><g transform="translate(75.37920335204262 100.96707235828671) rotate(0 -10.472551260558248 16.220461687589022)"><path d="M0 0 C-2.47 12.49, -4.79 25.38, -7.36 31.53 M0 0 C-2.15 9.9, -4.2 19.36, -7.36 31.53 M-7.36 31.53 C-12.56 32.45, -17.7 32.13, -20.95 32.44 M-7.36 31.53 C-10.73 32.12, -14.21 31.96, -20.95 32.44" stroke="#1e1e1e" stroke-width="2" fill="none"></path></g></g><mask></mask><g stroke-linecap="round"><g transform="translate(56.90027613427674 124.74521051420379) rotate(0 6.161758758322094 8.617057418035984)"><path d="M0 0 C4.94 3.45, 8.57 6.21, 12.32 8.05 M0 0 C3.25 1.85, 6.45 3.88, 12.32 8.05 M12.32 8.05 C8.11 11.34, 3.97 14.82, 1.35 17.23 M12.32 8.05 C8.32 11.51, 3.68 15.28, 1.35 17.23" stroke="#1e1e1e" stroke-width="2" fill="none"></path></g></g><mask></mask><g stroke-linecap="round"><g transform="translate(86.03857137105888 100.66680847042699) rotate(0 6.575463682496775 17.25388496620144)"><path d="M0 0 C0.16 11.5, -0.54 21.1, -0.3 32.28 M0 0 C0.35 10.27, 0.21 20.83, -0.3 32.28 M-0.3 32.28 C4.62 33.12, 10.7 34.26, 13.45 34.51 M-0.3 32.28 C4.78 33.32, 10.65 34.03, 13.45 34.51" stroke="#1e1e1e" stroke-width="2" fill="none"></path></g></g><mask></mask><g stroke-linecap="round"><g transform="translate(95.94727967042445 126.48950282635224) rotate(0 -4.331529923660128 8.802321240700849)"><path d="M0 0 C-4.15 2.76, -7.56 5.77, -9.76 6.91 M0 0 C-2.3 1.72, -4.79 3.48, -9.76 6.91 M-9.76 6.91 C-6.09 10.23, -2.99 13.3, 1.1 17.6 M-9.76 6.91 C-6.56 9.79, -4.1 12.59, 1.1 17.6" stroke="#1e1e1e" stroke-width="2" fill="none"></path></g></g><mask></mask></svg>