<svg version="1.1" xmlns="http://www.w3.org/2000/svg" viewBox="0 0 134.0738776412677 154.09414530775393" width="134.0738776412677" height="154.09414530775393" class="excalidraw-svg"><!-- svg-source:excalidraw --><metadata></metadata><defs><style class="style-fonts">
      </style></defs><g stroke-linecap="round" transform="translate(64.364371533537 19.283026654627065) rotate(0 24.142370013377104 24.142370013377104)"><path d="M19.17 0.3 C23.83 -1.06, 30.22 -0.01, 34.85 2.5 C39.48 5.01, 44.92 10.51, 46.96 15.37 C49 20.23, 48.71 26.77, 47.1 31.65 C45.48 36.53, 41.57 41.84, 37.29 44.66 C33.01 47.47, 26.57 49.18, 21.42 48.55 C16.27 47.92, 9.98 44.8, 6.37 40.9 C2.77 37, -0.02 30.36, -0.23 25.15 C-0.43 19.94, 1.79 13.71, 5.13 9.64 C8.46 5.57, 17.15 2.17, 19.78 0.73 C22.41 -0.71, 20.82 0.61, 20.91 1.01 M22.62 0.66 C27.58 0.21, 34.55 2.44, 38.78 5.38 C43 8.31, 46.9 13.29, 47.97 18.26 C49.04 23.24, 47.46 30.56, 45.19 35.23 C42.93 39.89, 39.08 44.3, 34.37 46.27 C29.65 48.25, 22.03 48.55, 16.92 47.08 C11.82 45.61, 6.46 41.63, 3.74 37.45 C1.01 33.27, -0.09 27.07, 0.56 22 C1.2 16.92, 3.9 10.61, 7.61 7 C11.32 3.38, 20.31 1.48, 22.79 0.3 C25.27 -0.88, 22.43 -0.43, 22.5 -0.08" stroke="#1e1e1e" stroke-width="2" fill="none"></path></g><g stroke-linecap="round" transform="translate(95.03938284465175 38.028866900308) rotate(0 3.4083345901237863 3.4083345901237863)"><path d="M3.41 0.05 C4.1 -0.04, 4.62 -0.12, 5.18 0.33 C5.75 0.79, 6.51 2.07, 6.78 2.77 C7.05 3.48, 7.1 3.97, 6.8 4.59 C6.49 5.21, 5.72 6.09, 4.96 6.49 C4.2 6.88, 2.94 7.19, 2.24 6.96 C1.54 6.73, 1.11 5.75, 0.75 5.11 C0.38 4.47, 0.01 3.79, 0.04 3.14 C0.08 2.48, 0.46 1.71, 0.98 1.17 C1.49 0.62, 2.71 0.08, 3.14 -0.12 C3.56 -0.33, 3.56 -0.13, 3.54 -0.08 M3.93 0.01 C4.57 -0.02, 5.04 0.7, 5.57 1.22 C6.09 1.75, 6.95 2.47, 7.09 3.14 C7.24 3.81, 6.84 4.62, 6.44 5.23 C6.05 5.85, 5.5 6.54, 4.72 6.82 C3.95 7.1, 2.49 7.25, 1.81 6.91 C1.12 6.58, 0.87 5.56, 0.62 4.8 C0.37 4.05, 0.15 3, 0.31 2.37 C0.46 1.75, 1.07 1.51, 1.55 1.06 C2.03 0.61, 2.77 -0.22, 3.18 -0.33 C3.59 -0.44, 3.95 0.25, 4 0.4" stroke="none" stroke-width="0" fill="#1e1e1e"></path><path d="M2.87 -0.15 C3.59 -0.16, 5.11 0.46, 5.75 0.95 C6.38 1.43, 6.53 2.06, 6.68 2.74 C6.82 3.41, 6.87 4.32, 6.6 5 C6.34 5.68, 5.78 6.51, 5.1 6.84 C4.41 7.17, 3.28 7.25, 2.5 7 C1.72 6.74, 0.81 5.93, 0.41 5.3 C0.01 4.67, 0.02 3.88, 0.1 3.19 C0.18 2.51, 0.41 1.69, 0.91 1.2 C1.41 0.7, 2.71 0.37, 3.1 0.23 C3.48 0.08, 3.21 0.33, 3.22 0.33 M3.37 0.45 C4.1 0.27, 5.16 0.12, 5.65 0.51 C6.14 0.91, 6.14 2.08, 6.34 2.81 C6.54 3.54, 7.15 4.31, 6.85 4.91 C6.55 5.5, 5.29 6.09, 4.53 6.38 C3.77 6.67, 2.89 6.77, 2.27 6.65 C1.66 6.54, 1.22 6.25, 0.85 5.68 C0.49 5.12, 0.04 4.04, 0.09 3.28 C0.14 2.52, 0.65 1.74, 1.15 1.13 C1.64 0.51, 2.68 -0.22, 3.06 -0.39 C3.45 -0.57, 3.41 -0.1, 3.45 0.07" stroke="#1e1e1e" stroke-width="2" fill="none"></path></g><g stroke-linecap="round"><g transform="translate(91.33951280614019 67.09905309308306) rotate(0 -39.17848234687949 3.7461497064746254)"><path d="M-0.49 0.53 C-3.75 5.67, -9.04 25.98, -20.61 30.72 C-32.18 35.46, -60.43 35.01, -69.88 28.98 C-79.33 22.95, -80.04 3.25, -77.31 -5.46 C-74.58 -14.16, -61.89 -20.28, -53.48 -23.24 C-45.07 -26.21, -31.41 -23.07, -26.83 -23.24 M1.46 -0.23 C-1.32 5.02, -6.16 27.09, -18.23 31.67 C-30.3 36.25, -60.62 33.28, -70.95 27.26 C-81.27 21.24, -82.89 3.88, -80.18 -4.43 C-77.46 -12.74, -63.22 -19.39, -54.68 -22.6 C-46.13 -25.81, -33.28 -23.21, -28.91 -23.69" stroke="#1e1e1e" stroke-width="2" fill="none"></path></g></g><mask></mask><g stroke-linecap="round"><g transform="translate(111.98778128827598 47.6819160811724) rotate(0 2.9915477655947598 8.996865845046614)"><path d="M0 0 C2.47 1.79, 7.01 4.89, 12.09 8.14 M0 0 C3.59 2.65, 7.32 4.69, 12.09 8.14 M12.09 8.14 C6.62 8.1, 0.52 7.96, -2.23 7.24 M12.09 8.14 C8.62 7.8, 4.52 7.51, -2.23 7.24 M-2.23 7.24 C0.81 10.75, 2.43 13.13, 5.82 17.99 M-2.23 7.24 C0.41 10.86, 3.24 14.65, 5.82 17.99 M5.82 17.99 C1.88 16.39, -2.42 14.36, -6.1 13.05 M5.82 17.99 C3.27 17.06, 0.56 15.77, -6.1 13.05" stroke="#1e1e1e" stroke-width="2" fill="none"></path></g></g><mask></mask><g stroke-linecap="round"><g transform="translate(56.68762802125093 64.47385311049948) rotate(0 -14.10878387745015 6.93509343553319)"><path d="M-0.58 1.19 C-2.8 0.34, -9.73 -6.06, -13.95 -6.26 C-18.17 -6.46, -24.67 -2.62, -25.92 0.01 C-27.16 2.64, -21.23 8.38, -21.43 9.5 C-21.62 10.62, -26.72 5.06, -27.08 6.71 C-27.43 8.36, -25.94 17.4, -23.54 19.39 C-21.14 21.38, -14.57 18.88, -12.66 18.63 M1.32 0.77 C-0.91 0.21, -9.73 -4.33, -14.35 -4.8 C-18.97 -5.28, -25.3 -4.13, -26.41 -2.08 C-27.52 -0.02, -20.75 5.99, -21.01 7.53 C-21.26 9.07, -27.25 4.81, -27.95 7.17 C-28.65 9.53, -27.85 19.99, -25.2 21.7 C-22.54 23.41, -14.09 18.17, -12.03 17.43" stroke="#1e1e1e" stroke-width="2" fill="none"></path></g></g><mask></mask><g stroke-linecap="round"><g transform="translate(96.02219993923336 20.896540046563587) rotate(0 -9.833642979495608 -4.370507990886836)"><path d="M0.48 -0.07 C-0.13 -1.52, -2.11 -6.53, -3.93 -8.15 C-5.75 -9.77, -9.27 -10.3, -10.46 -9.79 C-11.66 -9.28, -10.22 -5.48, -11.09 -5.09 C-11.97 -4.7, -14.29 -8.58, -15.72 -7.45 C-17.15 -6.32, -19.06 0.23, -19.68 1.69 M0.06 -0.58 C-0.58 -1.96, -2.44 -7.33, -4.24 -9 C-6.04 -10.67, -9.38 -11.34, -10.74 -10.6 C-12.09 -9.85, -11.48 -5.09, -12.38 -4.56 C-13.28 -4.03, -15.01 -8.39, -16.12 -7.41 C-17.23 -6.44, -18.56 -0.33, -19.05 1.29" stroke="#1e1e1e" stroke-width="2" fill="none"></path></g></g><mask></mask><g stroke-linecap="round"><g transform="translate(58.69467428922508 100.96707235828671) rotate(0 10.472551260558248 16.220461687589022)"><path d="M0 0 C3.23 12.46, 6.6 25.35, 7.36 31.53 M0 0 C2.42 9.93, 4.94 19.4, 7.36 31.53 M7.36 31.53 C12.32 32.36, 17.35 32.04, 20.95 32.44 M7.36 31.53 C11 32.01, 14.54 31.85, 20.95 32.44" stroke="#1e1e1e" stroke-width="2" fill="none"></path></g></g><mask></mask><g stroke-linecap="round"><g transform="translate(77.17360150699096 124.74521051420379) rotate(0 -6.161758758322094 8.617057418035984)"><path d="M0 0 C-3.54 3.48, -8.38 6.24, -12.32 8.05 M0 0 C-2.93 1.88, -5.91 3.91, -12.32 8.05 M-12.32 8.05 C-8.48 11.25, -4.58 14.73, -1.35 17.23 M-12.32 8.05 C-7.94 11.41, -4.19 15.19, -1.35 17.23" stroke="#1e1e1e" stroke-width="2" fill="none"></path></g></g><mask></mask><g stroke-linecap="round"><g transform="translate(48.03530627020882 100.66680847042699) rotate(0 -6.575463682496775 17.25388496620144)"><path d="M0 0 C0.35 11.5, -0.15 21.1, 0.3 32.28 M0 0 C0.54 10.27, 0.6 20.83, 0.3 32.28 M0.3 32.28 C-5.21 33.1, -9.56 34.24, -13.45 34.51 M0.3 32.28 C-5.3 33.28, -10.11 33.99, -13.45 34.51" stroke="#1e1e1e" stroke-width="2" fill="none"></path></g></g><mask></mask><g stroke-linecap="round"><g transform="translate(38.12659797084325 126.48950282635224) rotate(0 4.331529923660128 8.802321240700849)"><path d="M0 0 C3.56 2.67, 7.86 5.67, 9.76 6.91 M0 0 C2.75 1.75, 5.31 3.52, 9.76 6.91 M9.76 6.91 C7.3 10.23, 4.29 13.3, -1.1 17.6 M9.76 6.91 C7.05 9.84, 3.61 12.64, -1.1 17.6" stroke="#1e1e1e" stroke-width="2" fill="none"></path></g></g><mask></mask></svg>