<svg version="1.1" xmlns="http://www.w3.org/2000/svg" viewBox="0 0 185.1967812637522 217.55508970616893" width="185.1967812637522" height="217.55508970616893" class="excalidraw-svg"><!-- svg-source:excalidraw --><metadata></metadata><defs><style class="style-fonts">
      </style></defs><g stroke-linecap="round"><g transform="translate(53.69718982623954 91.09940072428708) rotate(0 28.439856937055538 9.928720024493941)"><path d="M-0.26 0.4 C14.65 -0.36, 72.77 -4.06, 89.22 -3.49 C105.67 -2.93, 102 -6, 98.46 3.8 C94.92 13.6, 78.87 43.65, 67.98 55.31 C57.09 66.97, 47.04 72.12, 33.15 73.77 C19.25 75.42, -3.08 73.83, -15.38 65.21 C-27.67 56.59, -36.33 38.2, -40.62 22.03 C-44.92 5.86, -43.37 -19.12, -41.12 -31.79 C-38.88 -44.46, -33.32 -52.05, -27.14 -53.98 C-20.96 -55.91, -8.67 -52.39, -4.02 -43.39 C0.63 -34.39, 0.17 -7.33, 0.77 0.02 M1.81 -0.44 C16.56 -1, 72.08 -5.54, 88.11 -5.15 C104.14 -4.77, 101.26 -8.37, 97.97 1.87 C94.69 12.11, 79.38 44.27, 68.4 56.29 C57.43 68.32, 45.89 72.66, 32.12 74.02 C18.34 75.39, -2.28 73.27, -14.26 64.48 C-26.24 55.69, -35.1 37.41, -39.75 21.29 C-44.41 5.18, -44.57 -19.45, -42.18 -32.21 C-39.8 -44.97, -31.96 -53.29, -25.44 -55.26 C-18.92 -57.22, -7.55 -53.38, -3.06 -44 C1.43 -34.62, 0.72 -6.42, 1.5 1.01" stroke="#1e1e1e" stroke-width="2" fill="none"></path></g></g><mask></mask><g stroke-linecap="round"><g transform="translate(23.986389593652802 37.909018617202946) rotate(0 -0.4666671541751839 -9.957975144783632)"><path d="M-0.14 0.4 C-1.14 -2.56, -6.15 -14.18, -6.1 -17.59 C-6.05 -20.99, -1.83 -22.6, 0.15 -20.02 C2.13 -17.44, 4.96 -5.15, 5.79 -2.1 M0.79 0.14 C-0.25 -2.99, -6.25 -15.1, -6.41 -18.37 C-6.56 -21.64, -2.2 -22.26, -0.12 -19.47 C1.97 -16.69, 5.08 -4.67, 6.1 -1.66" stroke="#1e1e1e" stroke-width="2" fill="none"></path></g></g><mask></mask><g stroke-linecap="round"><g transform="translate(34.85373364544421 38.011884064893366) rotate(20.75943985200045 -0.949742659955291 -12.900823949401229)"><path d="M0.52 0.78 C-0.98 -3.14, -9.28 -18.12, -9.31 -22.59 C-9.34 -27.07, -2.4 -29.58, 0.35 -26.07 C3.09 -22.56, 5.87 -5.72, 7.17 -1.54 M-0.66 0.14 C-2.26 -3.67, -10.2 -17, -10.08 -21.17 C-9.97 -25.35, -2.85 -27.8, 0.02 -24.9 C2.89 -22, 5.97 -7.33, 7.12 -3.78" stroke="#1e1e1e" stroke-width="2" fill="none"></path></g></g><mask></mask><g stroke-linecap="round"><g transform="translate(45.68068655883826 40.09775953796634) rotate(29.80155545233772 -1.687066516671166 -13.317500194698368)"><path d="M0.15 -0.1 C-1.14 -4.41, -7.45 -21.13, -7.52 -25.5 C-7.59 -29.88, -2.3 -30.38, -0.26 -26.36 C1.78 -22.35, 3.94 -5.45, 4.73 -1.39 M-0.43 -0.63 C-1.79 -4.89, -7.71 -20.42, -7.76 -24.87 C-7.81 -29.31, -2.86 -31.06, -0.74 -27.29 C1.38 -23.53, 4.19 -6.52, 4.95 -2.28" stroke="#1e1e1e" stroke-width="2" fill="none"></path></g></g><mask></mask><g stroke-linecap="round"><g transform="translate(148.74427092877113 84.80747089223814) rotate(333.10740717464574 3.531220264925423 -10.310016412236791)"><path d="M0.38 -0.12 C2.09 -2.91, 9.9 -13.51, 10.36 -16.84 C10.83 -20.16, 5.49 -22.65, 3.17 -20.09 C0.84 -17.53, -2.42 -4.6, -3.59 -1.47 M-0.08 -0.66 C1.51 -3.61, 9.3 -14.3, 9.8 -17.66 C10.3 -21.03, 5.14 -23.66, 2.92 -20.88 C0.71 -18.1, -2.51 -4.3, -3.49 -1" stroke="#1e1e1e" stroke-width="2" fill="none"></path></g></g><mask></mask><g stroke-linecap="round"><g transform="translate(164.35448418171973 95.44843234500968) rotate(61.572351360690114 -1.6580809379813672 -11.998548488307279)"><path d="M-0.26 0.27 C-1.5 -3.06, -7.35 -16.04, -7.05 -20.09 C-6.76 -24.15, -0.27 -27.2, 1.52 -24.07 C3.31 -20.93, 3.25 -5.06, 3.68 -1.3 M0.61 -0.07 C-0.72 -3.52, -7.47 -16.88, -7.38 -20.79 C-7.29 -24.69, -0.68 -26.84, 1.16 -23.5 C3 -20.16, 3.27 -4.43, 3.67 -0.75" stroke="#1e1e1e" stroke-width="2" fill="none"></path></g></g><mask></mask><g stroke-linecap="round"><g transform="translate(164.80212525352408 88.59808484116957) rotate(35.04176829801383 -5.103641832799667 -16.996610881479683)"><path d="M0.2 0.53 C-1.56 -5.19, -10.82 -28.79, -10.8 -34.06 C-10.78 -39.33, -1.52 -36.73, 0.31 -31.08 C2.14 -25.42, 0.16 -5.32, 0.16 -0.14 M-0.36 0.33 C-2.17 -5.33, -11.28 -28.27, -11.24 -33.4 C-11.21 -38.53, -2.1 -36.05, -0.17 -30.43 C1.77 -24.82, 0.35 -4.81, 0.36 0.29" stroke="#1e1e1e" stroke-width="2" fill="none"></path></g></g><mask></mask><g stroke-linecap="round"><g transform="translate(60.77418709439689 182.09995614929448) rotate(202.2089367892055 2.8369574941821156 -7.448506193489493)"><path d="M-0.03 -0.07 C-0.39 -2.63, -3.01 -12.35, -1.99 -14.8 C-0.98 -17.26, 4.45 -17, 6.07 -14.79 C7.7 -12.58, 7.58 -3.8, 7.77 -1.54 M-0.71 -0.58 C-1.18 -3.08, -3.64 -13.44, -2.56 -15.72 C-1.47 -18, 4.04 -16.71, 5.81 -14.26 C7.58 -11.81, 7.68 -3.26, 8.06 -1.03" stroke="#1e1e1e" stroke-width="2" fill="none"></path></g></g><mask></mask><g stroke-linecap="round"><g transform="translate(100.35711162564485 179.25578937728233) rotate(181.7698832440874 3.4227346051636687 -9.053534730327328)"><path d="M-0.55 0.21 C-1.18 -2.56, -4.95 -13.72, -3.82 -16.77 C-2.69 -19.81, 3.84 -19.94, 6.24 -18.09 C8.64 -16.24, 9.72 -7.59, 10.6 -5.68 M1.36 -0.73 C0.61 -3.31, -5.33 -12.72, -4.58 -15.39 C-3.83 -18.06, 3.35 -18.01, 5.88 -16.76 C8.41 -15.51, 9.89 -9.61, 10.62 -7.87" stroke="#1e1e1e" stroke-width="2" fill="none"></path></g></g><mask></mask><g stroke-linecap="round"><g transform="translate(24.48745885600556 60.257730908626854) rotate(0 6.5762693819126525 4.469997622715482)"><path d="M0.16 -0.14 C1.11 1.31, 3.69 7.22, 5.43 8.78 C7.17 10.35, 9.29 10.57, 10.61 9.26 C11.93 7.94, 13.01 2.31, 13.37 0.89 M-0.42 -0.69 C0.51 0.85, 3.41 7.98, 5.18 9.49 C6.94 10.99, 8.76 9.71, 10.16 8.36 C11.57 7, 13.02 2.6, 13.6 1.34" stroke="#1e1e1e" stroke-width="2" fill="none"></path></g></g><mask></mask><g stroke-linecap="round"><g transform="translate(51.499987460897046 58.648239576411925) rotate(0 7.80942998767523 5.417350931426199)"><path d="M0 0 C5.16 0.78, 10.76 2.5, 15.62 3.38 M0 0 C4.33 0.82, 8.47 2.12, 15.62 3.38 M15.62 3.38 C11.09 5.52, 7.05 7.94, 2.39 10.83 M15.62 3.38 C13.2 4.94, 10.3 6.68, 2.39 10.83" stroke="#1e1e1e" stroke-width="2" fill="none"></path></g></g><mask></mask><g stroke-linecap="round"><g transform="translate(65.32478680214217 109.40953718014043) rotate(0 14.915312995171917 14.493182659993636)"><path d="M-0.42 0.69 C4.2 0.49, 23.56 -2.43, 28.48 -1.21 C33.4 0.02, 30.94 6.15, 29.09 8.02 C27.25 9.9, 17.45 8.83, 17.42 10.05 C17.38 11.26, 27.28 12.95, 28.88 15.33 C30.49 17.71, 29.51 23.49, 27.03 24.34 C24.56 25.18, 15.53 19.39, 14.02 20.42 C12.5 21.45, 19.59 30.04, 17.95 30.5 C16.3 30.97, 7.24 28.11, 4.15 23.22 C1.07 18.34, -0.06 5.09, -0.58 1.19 M1.56 0.01 C5.99 -0.01, 22.78 -1.29, 27.79 0.22 C32.8 1.72, 33.3 7.27, 31.6 9.05 C29.9 10.83, 17.75 9.72, 17.57 10.88 C17.4 12.04, 29.34 13.94, 30.58 16.01 C31.82 18.08, 27.76 22.79, 25.02 23.29 C22.27 23.79, 15.5 17.82, 14.11 19.01 C12.72 20.2, 18.05 29.46, 16.66 30.44 C15.28 31.42, 8.61 29.75, 5.81 24.91 C3.01 20.06, 1.15 5.39, -0.11 1.37" stroke="#1e1e1e" stroke-width="2" fill="none"></path></g></g><mask></mask><g stroke-linecap="round"><g transform="translate(60.8220560700006 182.08650759617967) rotate(0 -6.54303898214016 9.427597167138856)"><path d="M0 0 C-1.24 4.28, -2.62 9.56, -4.22 18.29 M0 0 C-0.99 4.72, -2.66 9.39, -4.22 18.29 M-4.22 18.29 C-6.93 18.2, -8.38 18.95, -13.09 18.86 M-4.22 18.29 C-6.71 18.68, -9.11 18.66, -13.09 18.86" stroke="#1e1e1e" stroke-width="2" fill="none"></path></g></g><mask></mask><g stroke-linecap="round"><g transform="translate(108.10868359210554 180.8148105866262) rotate(347.347894601794 -5.38530413092667 9.923485607762586)"><path d="M0 0 C-0.82 5.64, -1.2 10.85, -1.21 16.94 M0 0 C-0.76 5.82, -0.98 11.92, -1.21 16.94 M-1.21 16.94 C-3.09 18.07, -6.02 18.58, -10.77 19.85 M-1.21 16.94 C-4.22 18, -7.47 18.84, -10.77 19.85" stroke="#1e1e1e" stroke-width="2" fill="none"></path></g></g><mask></mask><g stroke-linecap="round"><g transform="translate(48.580238776077294 207.55508970616893) rotate(0 3.9398920744624775 -6.40231992428312)"><path d="M0 0 C1.82 -2.3, 4.38 -3.48, 8.58 -7.74 M0 0 C2.49 -2.18, 5.02 -4.9, 8.58 -7.74 M8.58 -7.74 C6.15 -8.74, 4.09 -10.11, -0.7 -12.8 M8.58 -7.74 C5.16 -9.85, 1.26 -11.65, -0.7 -12.8" stroke="#1e1e1e" stroke-width="2" fill="none"></path></g></g><mask></mask><g stroke-linecap="round"><g transform="translate(98.84856760236062 191.57941266299576) rotate(347.347894601794 5.203775209922924 7.382099179603074)"><path d="M0 0 C3.24 1.95, 5.93 2.91, 10.41 5.93 M0 0 C2.85 1.42, 5.88 3.71, 10.41 5.93 M10.41 5.93 C7.23 9.54, 4.14 13.38, 1.57 14.76 M10.41 5.93 C7.7 8.73, 5.1 11.27, 1.57 14.76" stroke="#1e1e1e" stroke-width="2" fill="none"></path></g></g><mask></mask></svg>