<svg version="1.1" xmlns="http://www.w3.org/2000/svg" viewBox="0 0 185.60767121952904 218.02484879546728" width="185.60767121952904" height="218.02484879546728" class="excalidraw-svg"><!-- svg-source:excalidraw --><metadata></metadata><defs><style class="style-fonts">
      </style></defs><g stroke-linecap="round"><g transform="translate(131.49326371734878 91.56915981358543) rotate(0 -28.439856937055538 9.928720024493941)"><path d="M-0.26 0.4 C-15.19 -0.36, -73.64 -4.06, -89.83 -3.49 C-106.03 -2.93, -101.17 -6, -97.42 3.8 C-93.67 13.6, -78.31 43.65, -67.32 55.31 C-56.33 66.97, -45.07 72.12, -31.47 73.77 C-17.88 75.42, 2.08 73.83, 14.24 65.21 C26.4 56.59, 37.04 38.2, 41.5 22.03 C45.96 5.86, 43.58 -19.12, 41 -31.79 C38.42 -44.46, 32.08 -52.05, 26.04 -53.98 C19.99 -55.91, 8.94 -52.39, 4.73 -43.39 C0.52 -34.39, 1.63 -7.33, 0.77 0.02 M1.81 -0.44 C-13.28 -1, -74.32 -5.54, -90.94 -5.15 C-107.56 -4.77, -101.92 -8.37, -97.91 1.87 C-93.9 12.11, -77.8 44.27, -66.9 56.29 C-56 68.32, -46.21 72.66, -32.5 74.02 C-18.8 75.39, 2.88 73.27, 15.36 64.48 C27.84 55.69, 38.27 37.41, 42.37 21.29 C46.47 5.18, 42.38 -19.45, 39.94 -32.21 C37.5 -44.97, 33.44 -53.29, 27.74 -55.26 C22.03 -57.22, 10.06 -53.38, 5.69 -44 C1.31 -34.62, 2.18 -6.42, 1.5 1.01" stroke="#1e1e1e" stroke-width="2" fill="none"></path></g></g><mask></mask><g stroke-linecap="round"><g transform="translate(161.20406394993552 38.378777706501296) rotate(0 0.4666671541751839 -9.957975144783632)"><path d="M-0.14 0.4 C0.97 -2.56, 6.53 -14.18, 6.58 -17.59 C6.63 -20.99, 2.08 -22.6, 0.15 -20.02 C-1.78 -17.44, -4.05 -5.15, -5.02 -2.1 M0.79 0.14 C1.86 -2.99, 6.42 -15.1, 6.27 -18.37 C6.12 -21.64, 1.71 -22.26, -0.12 -19.47 C-1.95 -16.69, -3.93 -4.67, -4.71 -1.66" stroke="#1e1e1e" stroke-width="2" fill="none"></path></g></g><mask></mask><g stroke-linecap="round"><g transform="translate(150.3367198981441 38.481643154191715) rotate(339.2405601479996 0.949742659955291 -12.900823949401229)"><path d="M0.52 0.78 C2.24 -3.14, 9.84 -18.12, 9.97 -22.59 C10.11 -27.07, 4.37 -29.58, 1.33 -26.07 C-1.72 -22.56, -6.87 -5.72, -8.31 -1.54 M-0.66 0.14 C0.95 -3.67, 8.92 -17, 9.2 -21.17 C9.47 -25.35, 3.93 -27.8, 1 -24.9 C-1.93 -22, -6.77 -7.33, -8.36 -3.78" stroke="#1e1e1e" stroke-width="2" fill="none"></path></g></g><mask></mask><g stroke-linecap="round"><g transform="translate(139.50976698475006 40.56751862726469) rotate(330.1984445476623 1.687066516671166 -13.317500194698368)"><path d="M0.15 -0.1 C1.49 -4.41, 8.36 -21.13, 8.29 -25.5 C8.22 -29.88, 1.84 -30.38, -0.26 -26.36 C-2.36 -22.35, -3.62 -5.45, -4.33 -1.39 M-0.43 -0.63 C0.85 -4.89, 8.11 -20.42, 8.06 -24.87 C8 -29.31, 1.29 -31.06, -0.74 -27.29 C-2.77 -23.53, -3.37 -6.52, -4.12 -2.28" stroke="#1e1e1e" stroke-width="2" fill="none"></path></g></g><mask></mask><g stroke-linecap="round"><g transform="translate(36.44618261481719 85.2772299815365) rotate(26.892592825354217 -3.531220264925423 -10.310016412236791)"><path d="M0.38 -0.12 C-1.46 -2.91, -10.36 -13.51, -10.88 -16.84 C-11.41 -20.16, -5.17 -22.65, -2.77 -20.09 C-0.37 -17.53, 2.52 -4.6, 3.53 -1.47 M-0.08 -0.66 C-2.03 -3.61, -10.96 -14.3, -11.45 -17.66 C-11.93 -21.03, -5.53 -23.66, -3.01 -20.88 C-0.5 -18.1, 2.43 -4.3, 3.63 -1" stroke="#1e1e1e" stroke-width="2" fill="none"></path></g></g><mask></mask><g stroke-linecap="round"><g transform="translate(20.835969361868592 95.91819143430803) rotate(298.4276486393099 1.6580809379813672 -11.998548488307279)"><path d="M-0.26 0.27 C0.92 -3.06, 7.67 -16.04, 7.45 -20.09 C7.23 -24.15, 0.36 -27.2, -1.58 -24.07 C-3.52 -20.93, -3.82 -5.06, -4.19 -1.3 M0.61 -0.07 C1.7 -3.52, 7.55 -16.88, 7.12 -20.79 C6.7 -24.69, -0.05 -26.84, -1.94 -23.5 C-3.83 -20.16, -3.8 -4.43, -4.21 -0.75" stroke="#1e1e1e" stroke-width="2" fill="none"></path></g></g><mask></mask><g stroke-linecap="round"><g transform="translate(20.388328290064237 89.06784393046792) rotate(324.95823170198616 5.103641832799667 -16.996610881479683)"><path d="M0.2 0.53 C2.03 -5.19, 10.91 -28.79, 10.74 -34.06 C10.57 -39.33, 0.95 -36.73, -0.82 -31.08 C-2.58 -25.42, -0.03 -5.32, 0.16 -0.14 M-0.36 0.33 C1.42 -5.33, 10.45 -28.27, 10.3 -33.4 C10.14 -38.53, 0.36 -36.05, -1.29 -30.43 C-2.95 -24.82, 0.17 -4.81, 0.36 0.29" stroke="#1e1e1e" stroke-width="2" fill="none"></path></g></g><mask></mask><g stroke-linecap="round"><g transform="translate(124.41626644919143 182.56971523859283) rotate(157.7910632107945 -2.8369574941821156 -7.448506193489493)"><path d="M-0.03 -0.07 C0.19 -2.63, 2.44 -12.35, 1.49 -14.8 C0.54 -17.26, -4.32 -17, -5.75 -14.79 C-7.17 -12.58, -6.75 -3.8, -7.06 -1.54 M-0.71 -0.58 C-0.6 -3.08, 1.81 -13.44, 0.93 -15.72 C0.04 -18, -4.73 -16.71, -6.01 -14.26 C-7.29 -11.81, -6.65 -3.26, -6.77 -1.03" stroke="#1e1e1e" stroke-width="2" fill="none"></path></g></g><mask></mask><g stroke-linecap="round"><g transform="translate(84.83334191794347 179.72554846658068) rotate(178.23011675591263 -3.4227346051636687 -9.053534730327328)"><path d="M-0.55 0.21 C0.21 -2.56, 5.22 -13.72, 4.53 -16.77 C3.84 -19.81, -2.04 -19.94, -4.7 -18.09 C-7.36 -16.24, -10.47 -7.59, -11.44 -5.68 M1.36 -0.73 C2 -3.31, 4.84 -12.72, 3.77 -15.39 C2.7 -18.06, -2.53 -18.01, -5.06 -16.76 C-7.59 -15.51, -10.3 -9.61, -11.42 -7.87" stroke="#1e1e1e" stroke-width="2" fill="none"></path></g></g><mask></mask><g stroke-linecap="round"><g transform="translate(160.70299468758276 60.727489997925204) rotate(0 -6.5762693819126525 4.469997622715482)"><path d="M0.16 -0.14 C-0.58 1.31, -2.86 7.22, -4.72 8.78 C-6.58 10.35, -9.63 10.57, -11 9.26 C-12.37 7.94, -12.52 2.31, -12.93 0.89 M-0.42 -0.69 C-1.18 0.85, -3.13 7.98, -4.97 9.49 C-6.81 10.99, -10.16 9.71, -11.45 8.36 C-12.73 7, -12.5 2.6, -12.71 1.34" stroke="#1e1e1e" stroke-width="2" fill="none"></path></g></g><mask></mask><g stroke-linecap="round"><g transform="translate(133.69046608269127 59.117998665710275) rotate(0 -7.80942998767523 5.417350931426199)"><path d="M0 0 C-5.14 0.88, -9.84 2.6, -15.62 3.38 M0 0 C-4.47 0.75, -9.12 2.05, -15.62 3.38 M-15.62 3.38 C-11.24 5.64, -6.38 8.06, -2.39 10.83 M-15.62 3.38 C-12.57 4.8, -10.01 6.54, -2.39 10.83" stroke="#1e1e1e" stroke-width="2" fill="none"></path></g></g><mask></mask><g stroke-linecap="round"><g transform="translate(119.86566674144615 109.87929626943878) rotate(0 -14.915312995171917 14.493182659993636)"><path d="M-0.42 0.69 C-5.14 0.49, -22.5 -2.43, -27.52 -1.21 C-32.54 0.02, -32.19 6.15, -30.57 8.02 C-28.94 9.9, -17.72 8.83, -17.76 10.05 C-17.79 11.26, -29.38 12.95, -30.78 15.33 C-32.18 17.71, -28.6 23.49, -26.16 24.34 C-23.71 25.18, -17.3 19.39, -16.1 20.42 C-14.89 21.45, -20.7 30.04, -18.92 30.5 C-17.14 30.97, -8.47 28.11, -5.41 23.22 C-2.36 18.34, -1.65 5.09, -0.58 1.19 M1.56 0.01 C-3.34 -0.01, -23.28 -1.29, -28.22 0.22 C-33.15 1.72, -29.83 7.27, -28.06 9.05 C-26.29 10.83, -17.43 9.72, -17.6 10.88 C-17.77 12.04, -27.32 13.94, -29.08 16.01 C-30.85 18.08, -30.35 22.79, -28.17 23.29 C-25.99 23.79, -17.33 17.82, -16 19.01 C-14.67 20.2, -22.24 29.46, -20.2 30.44 C-18.16 31.42, -7.11 29.75, -3.76 24.91 C-0.41 20.06, -0.45 5.39, -0.11 1.37" stroke="#1e1e1e" stroke-width="2" fill="none"></path></g></g><mask></mask><g stroke-linecap="round"><g transform="translate(124.36839747358772 182.55626668547802) rotate(0 6.54303898214016 9.427597167138856)"><path d="M0 0 C1 4.26, 1.85 9.55, 4.22 18.29 M0 0 C1.19 4.7, 1.7 9.37, 4.22 18.29 M4.22 18.29 C6.11 18.25, 9.26 18.99, 13.09 18.86 M4.22 18.29 C6.83 18.64, 9.53 18.62, 13.09 18.86" stroke="#1e1e1e" stroke-width="2" fill="none"></path></g></g><mask></mask><g stroke-linecap="round"><g transform="translate(77.08176995148278 181.28456967592456) rotate(12.652105398205986 5.38530413092667 9.923485607762586)"><path d="M0 0 C0 5.65, 0.45 10.86, 1.21 16.94 M0 0 C0.08 5.82, 0.7 11.92, 1.21 16.94 M1.21 16.94 C4.06 18.12, 5.87 18.62, 10.77 19.85 M1.21 16.94 C4.7 17.91, 7.95 18.75, 10.77 19.85" stroke="#1e1e1e" stroke-width="2" fill="none"></path></g></g><mask></mask><g stroke-linecap="round"><g transform="translate(136.61021476751102 208.02484879546728) rotate(0 -3.9398920744624775 -6.40231992428312)"><path d="M0 0 C-2.27 -2.31, -3.81 -3.49, -8.58 -7.74 M0 0 C-2.65 -2.19, -5.26 -4.91, -8.58 -7.74 M-8.58 -7.74 C-6.33 -8.82, -3.72 -10.19, 0.7 -12.8 M-8.58 -7.74 C-4.71 -9.86, -1.32 -11.66, 0.7 -12.8" stroke="#1e1e1e" stroke-width="2" fill="none"></path></g></g><mask></mask><g stroke-linecap="round"><g transform="translate(86.3418859412277 192.04917175229411) rotate(12.652105398205986 -5.203775209922924 7.382099179603074)"><path d="M0 0 C-2.71 1.87, -5.96 2.83, -10.41 5.93 M0 0 C-3.19 1.46, -6.19 3.76, -10.41 5.93 M-10.41 5.93 C-6.74 9.5, -2.99 13.34, -1.57 14.76 M-10.41 5.93 C-7.63 8.77, -4.74 11.31, -1.57 14.76" stroke="#1e1e1e" stroke-width="2" fill="none"></path></g></g><mask></mask></svg>