<svg version="1.1" xmlns="http://www.w3.org/2000/svg" viewBox="0 0 144.17523137855233 143.79268995415805" width="144.17523137855233" height="143.79268995415805" class="excalidraw-svg"><!-- svg-source:excalidraw --><metadata></metadata><defs><style class="style-fonts">
      </style></defs><g stroke-linecap="round" transform="translate(10.080962678258402 10.000000000000455) rotate(0 62.04713435014696 61.293187484806595)"><path d="M47.18 2.19 C55.74 -0.93, 67.9 -0.29, 77.41 2.08 C86.91 4.45, 97.07 10.02, 104.2 16.44 C111.34 22.86, 117.05 31.88, 120.21 40.6 C123.36 49.32, 124.29 59.43, 123.13 68.77 C121.98 78.11, 118.75 88.71, 113.29 96.64 C107.83 104.58, 98.99 111.92, 90.37 116.36 C81.75 120.79, 71.13 123.27, 61.56 123.26 C51.98 123.25, 41.42 120.88, 32.94 116.31 C24.46 111.74, 16.16 103.8, 10.67 95.84 C5.18 87.88, 0.98 77.88, 0.02 68.55 C-0.94 59.22, 1.25 48.65, 4.9 39.86 C8.54 31.07, 14.57 22.36, 21.87 15.82 C29.17 9.28, 43.79 2.75, 48.7 0.61 C53.61 -1.52, 51.08 1.96, 51.34 3 M53.83 1.76 C62.87 -0.31, 73.81 1.1, 82.8 4.14 C91.79 7.18, 101.29 13.39, 107.76 20.02 C114.22 26.65, 118.95 34.85, 121.57 43.92 C124.19 52.99, 125.43 64.84, 123.48 74.43 C121.53 84.02, 116.22 94.25, 109.88 101.47 C103.54 108.69, 94.51 114.48, 85.44 117.77 C76.37 121.07, 65.26 121.91, 55.48 121.22 C45.71 120.54, 34.68 118.85, 26.78 113.67 C18.87 108.48, 12.75 98.54, 8.05 90.11 C3.35 81.69, -1.27 72.2, -1.4 63.12 C-1.53 54.05, 3.01 44.09, 7.27 35.65 C11.53 27.2, 16.54 18.47, 24.14 12.46 C31.74 6.46, 47.82 1.26, 52.87 -0.38 C57.92 -2.03, 54.42 1.39, 54.44 2.6" stroke="none" stroke-width="0" fill="#f3d3c4"></path><path d="M85.48 3.69 C94.4 6.02, 102.51 13.84, 108.7 21.22 C114.89 28.6, 120.4 38.75, 122.62 47.96 C124.84 57.16, 124.57 67.4, 122 76.45 C119.42 85.5, 113.72 95.18, 107.16 102.25 C100.61 109.32, 91.67 115.49, 82.65 118.87 C73.64 122.24, 62.44 123.6, 53.08 122.49 C43.72 121.37, 34.1 117.69, 26.49 112.2 C18.87 106.71, 11.81 98.03, 7.4 89.56 C2.99 81.09, -0.05 70.99, 0.02 61.4 C0.1 51.81, 3.2 40.41, 7.83 32.03 C12.46 23.65, 19.87 16.54, 27.83 11.14 C35.78 5.74, 44.96 0.34, 55.57 -0.35 C66.18 -1.04, 84.49 4.98, 91.5 7 C98.51 9.02, 98.11 10.89, 97.63 11.78 M84.76 3.81 C93.67 5.99, 103.59 13.23, 109.74 20.54 C115.89 27.85, 119.49 38.13, 121.66 47.66 C123.83 57.19, 125 68.66, 122.76 77.72 C120.52 86.77, 114.82 95.1, 108.2 101.98 C101.59 108.86, 91.98 115.68, 83.07 118.97 C74.15 122.26, 63.96 122.95, 54.7 121.72 C45.44 120.49, 35.55 116.81, 27.51 111.58 C19.46 106.36, 10.92 98.85, 6.43 90.37 C1.95 81.89, 0.62 70.46, 0.6 60.71 C0.59 50.95, 1.96 40.28, 6.33 31.84 C10.71 23.39, 18.95 15.16, 26.85 10.04 C34.74 4.92, 44.02 2.1, 53.7 1.1 C63.37 0.11, 80.08 3.42, 84.89 4.08 C89.71 4.75, 83.16 4.02, 82.6 5.08" stroke="transparent" stroke-width="2" fill="none"></path></g><g stroke-linecap="round"><g transform="translate(10.864489357512866 78.23582216303885) rotate(0 60.16495985417191 27.44366589839433)" fill-rule="evenodd"><path d="M0 0 C3.97 5.18, 14.32 24.13, 23.82 31.06 C33.32 38, 44.68 42.42, 57 41.62 C69.31 40.81, 87.16 32.52, 97.71 26.24 C108.27 19.95, 116.96 4.93, 120.33 3.92 C123.7 2.92, 122.39 13.57, 117.92 20.21 C113.44 26.84, 102.08 37.95, 93.49 43.73 C84.89 49.51, 74.69 53.53, 66.35 54.89 C58 56.24, 51.52 55.09, 43.43 51.87 C35.33 48.65, 24.93 42.12, 17.79 35.59 C10.66 29.05, 3.57 18.6, 0.6 12.67 C-2.36 6.74, 0.1 2.11, 0 0" stroke="none" stroke-width="0" fill="#98768f" fill-rule="evenodd"></path><path d="M0 0 C3.97 5.18, 14.32 24.13, 23.82 31.06 C33.32 38, 44.68 42.42, 57 41.62 C69.31 40.81, 87.16 32.52, 97.71 26.24 C108.27 19.95, 116.96 4.93, 120.33 3.92 C123.7 2.92, 122.39 13.57, 117.92 20.21 C113.44 26.84, 102.08 37.95, 93.49 43.73 C84.89 49.51, 74.69 53.53, 66.35 54.89 C58 56.24, 51.52 55.09, 43.43 51.87 C35.33 48.65, 24.93 42.12, 17.79 35.59 C10.66 29.05, 3.57 18.6, 0.6 12.67 C-2.36 6.74, 0.1 2.11, 0 0 M0 0 C3.97 5.18, 14.32 24.13, 23.82 31.06 C33.32 38, 44.68 42.42, 57 41.62 C69.31 40.81, 87.16 32.52, 97.71 26.24 C108.27 19.95, 116.96 4.93, 120.33 3.92 C123.7 2.92, 122.39 13.57, 117.92 20.21 C113.44 26.84, 102.08 37.95, 93.49 43.73 C84.89 49.51, 74.69 53.53, 66.35 54.89 C58 56.24, 51.52 55.09, 43.43 51.87 C35.33 48.65, 24.93 42.12, 17.79 35.59 C10.66 29.05, 3.57 18.6, 0.6 12.67 C-2.36 6.74, 0.1 2.11, 0 0" stroke="#98768f" stroke-width="1" fill="none"></path></g></g><mask></mask><g stroke-linecap="round"><g transform="translate(96.38830161736723 71.67986952176898) rotate(0 17.00521845290541 19.279801812847836)" fill-rule="evenodd"><path d="M0 0 C1.3 3.43, 6.64 12.2, 7.8 20.58 C8.95 28.96, 6.43 45.71, 6.93 50.26 C7.44 54.81, 10.25 53.8, 10.83 47.87 C11.41 41.95, 9.89 20.22, 10.4 14.73 C10.9 9.24, 12.93 10.22, 13.86 14.95 C14.8 19.68, 14.44 39.68, 16.03 43.11 C17.62 46.54, 20.36 41.16, 23.4 35.53 C26.43 29.89, 33.5 16.25, 34.23 9.31 C34.95 2.38, 30.04 -2.56, 27.73 -6.07 C25.42 -9.57, 22.13 -12.13, 20.36 -11.7 C18.59 -11.26, 19.39 -5.27, 17.11 -3.47 C14.84 -1.66, 9.6 -1.41, 6.72 -0.87 C3.83 -0.32, 0.94 -0.32, -0.22 -0.22" stroke="none" stroke-width="0" fill="#80c4ff" fill-rule="evenodd"></path><path d="M0 0 C1.3 3.43, 6.64 12.2, 7.8 20.58 C8.95 28.96, 6.43 45.71, 6.93 50.26 C7.44 54.81, 10.25 53.8, 10.83 47.87 C11.41 41.95, 9.89 20.22, 10.4 14.73 C10.9 9.24, 12.93 10.22, 13.86 14.95 C14.8 19.68, 14.44 39.68, 16.03 43.11 C17.62 46.54, 20.36 41.16, 23.4 35.53 C26.43 29.89, 33.5 16.25, 34.23 9.31 C34.95 2.38, 30.04 -2.56, 27.73 -6.07 C25.42 -9.57, 22.13 -12.13, 20.36 -11.7 C18.59 -11.26, 19.39 -5.27, 17.11 -3.47 C14.84 -1.66, 9.6 -1.41, 6.72 -0.87 C3.83 -0.32, 0.94 -0.32, -0.22 -0.22 M0 0 C1.3 3.43, 6.64 12.2, 7.8 20.58 C8.95 28.96, 6.43 45.71, 6.93 50.26 C7.44 54.81, 10.25 53.8, 10.83 47.87 C11.41 41.95, 9.89 20.22, 10.4 14.73 C10.9 9.24, 12.93 10.22, 13.86 14.95 C14.8 19.68, 14.44 39.68, 16.03 43.11 C17.62 46.54, 20.36 41.16, 23.4 35.53 C26.43 29.89, 33.5 16.25, 34.23 9.31 C34.95 2.38, 30.04 -2.56, 27.73 -6.07 C25.42 -9.57, 22.13 -12.13, 20.36 -11.7 C18.59 -11.26, 19.39 -5.27, 17.11 -3.47 C14.84 -1.66, 9.6 -1.41, 6.72 -0.87 C3.83 -0.32, 0.94 -0.32, -0.22 -0.22" stroke="#1864ab" stroke-width="1" fill="none"></path></g></g><mask></mask><g stroke-linecap="round"><g transform="translate(25.33464999248872 68.43046472185097) rotate(0 0.4332539733225076 23.07077407941938)" fill-rule="evenodd"><path d="M0 0 C-1.05 1.99, -4.48 7.65, -6.28 11.91 C-8.09 16.17, -10.54 22.42, -10.83 25.56 C-11.12 28.7, -9.31 32.71, -8.02 30.76 C-6.72 28.81, -4.26 16.14, -3.03 13.86 C-1.81 11.59, -0.51 13.25, -0.65 17.11 C-0.79 20.98, -4.95 32.21, -3.9 37.04 C-2.85 41.88, 3.9 48.74, 5.63 46.14 C7.37 43.54, 5.49 28.45, 6.5 21.45 C7.51 14.44, 12.78 7.69, 11.7 4.12 C10.61 0.54, 1.95 0.69, 0 0" stroke="none" stroke-width="0" fill="#80c4ff" fill-rule="evenodd"></path><path d="M0 0 C-1.05 1.99, -4.48 7.65, -6.28 11.91 C-8.09 16.17, -10.54 22.42, -10.83 25.56 C-11.12 28.7, -9.31 32.71, -8.02 30.76 C-6.72 28.81, -4.26 16.14, -3.03 13.86 C-1.81 11.59, -0.51 13.25, -0.65 17.11 C-0.79 20.98, -4.95 32.21, -3.9 37.04 C-2.85 41.88, 3.9 48.74, 5.63 46.14 C7.37 43.54, 5.49 28.45, 6.5 21.45 C7.51 14.44, 12.78 7.69, 11.7 4.12 C10.61 0.54, 1.95 0.69, 0 0 M0 0 C-1.05 1.99, -4.48 7.65, -6.28 11.91 C-8.09 16.17, -10.54 22.42, -10.83 25.56 C-11.12 28.7, -9.31 32.71, -8.02 30.76 C-6.72 28.81, -4.26 16.14, -3.03 13.86 C-1.81 11.59, -0.51 13.25, -0.65 17.11 C-0.79 20.98, -4.95 32.21, -3.9 37.04 C-2.85 41.88, 3.9 48.74, 5.63 46.14 C7.37 43.54, 5.49 28.45, 6.5 21.45 C7.51 14.44, 12.78 7.69, 11.7 4.12 C10.61 0.54, 1.95 0.69, 0 0" stroke="#1864ab" stroke-width="1" fill="none"></path></g></g><mask></mask><g stroke-linecap="round" transform="translate(24.066904902094848 47.85820197095836) rotate(0 13.183299473953866 13.183299473953866)"><path d="M26.37 13.18 C26.37 13.95, 26.3 14.72, 26.17 15.47 C26.03 16.22, 25.83 16.98, 25.57 17.69 C25.31 18.41, 24.98 19.11, 24.6 19.77 C24.22 20.44, 23.77 21.07, 23.28 21.66 C22.79 22.24, 22.24 22.79, 21.66 23.28 C21.07 23.77, 20.44 24.22, 19.77 24.6 C19.11 24.98, 18.41 25.31, 17.69 25.57 C16.98 25.83, 16.22 26.03, 15.47 26.17 C14.72 26.3, 13.95 26.37, 13.18 26.37 C12.42 26.37, 11.65 26.3, 10.89 26.17 C10.14 26.03, 9.39 25.83, 8.67 25.57 C7.96 25.31, 7.25 24.98, 6.59 24.6 C5.93 24.22, 5.29 23.77, 4.71 23.28 C4.12 22.79, 3.57 22.24, 3.08 21.66 C2.59 21.07, 2.15 20.44, 1.77 19.77 C1.38 19.11, 1.06 18.41, 0.8 17.69 C0.53 16.98, 0.33 16.22, 0.2 15.47 C0.07 14.72, 0 13.95, 0 13.18 C0 12.42, 0.07 11.65, 0.2 10.89 C0.33 10.14, 0.53 9.39, 0.8 8.67 C1.06 7.96, 1.38 7.25, 1.77 6.59 C2.15 5.93, 2.59 5.29, 3.08 4.71 C3.57 4.12, 4.12 3.57, 4.71 3.08 C5.29 2.59, 5.93 2.15, 6.59 1.77 C7.25 1.38, 7.96 1.06, 8.67 0.8 C9.39 0.53, 10.14 0.33, 10.89 0.2 C11.65 0.07, 12.42 0, 13.18 0 C13.95 0, 14.72 0.07, 15.47 0.2 C16.22 0.33, 16.98 0.53, 17.69 0.8 C18.41 1.06, 19.11 1.38, 19.77 1.77 C20.44 2.15, 21.07 2.59, 21.66 3.08 C22.24 3.57, 22.79 4.12, 23.28 4.71 C23.77 5.29, 24.22 5.93, 24.6 6.59 C24.98 7.25, 25.31 7.96, 25.57 8.67 C25.83 9.39, 26.03 10.14, 26.17 10.89 C26.3 11.65, 26.33 12.8, 26.37 13.18 C26.4 13.56, 26.4 12.8, 26.37 13.18" stroke="#4b172d" stroke-width="2" fill="none"></path></g><g stroke-linecap="round" transform="translate(89.14784103759939 44.92600097293598) rotate(0 13.183299473953866 13.183299473953866)"><path d="M26.37 13.18 C26.37 13.95, 26.3 14.72, 26.17 15.47 C26.03 16.22, 25.83 16.98, 25.57 17.69 C25.31 18.41, 24.98 19.11, 24.6 19.77 C24.22 20.44, 23.77 21.07, 23.28 21.66 C22.79 22.24, 22.24 22.79, 21.66 23.28 C21.07 23.77, 20.44 24.22, 19.77 24.6 C19.11 24.98, 18.41 25.31, 17.69 25.57 C16.98 25.83, 16.22 26.03, 15.47 26.17 C14.72 26.3, 13.95 26.37, 13.18 26.37 C12.42 26.37, 11.65 26.3, 10.89 26.17 C10.14 26.03, 9.39 25.83, 8.67 25.57 C7.96 25.31, 7.25 24.98, 6.59 24.6 C5.93 24.22, 5.29 23.77, 4.71 23.28 C4.12 22.79, 3.57 22.24, 3.08 21.66 C2.59 21.07, 2.15 20.44, 1.77 19.77 C1.38 19.11, 1.06 18.41, 0.8 17.69 C0.53 16.98, 0.33 16.22, 0.2 15.47 C0.07 14.72, 0 13.95, 0 13.18 C0 12.42, 0.07 11.65, 0.2 10.89 C0.33 10.14, 0.53 9.39, 0.8 8.67 C1.06 7.96, 1.38 7.25, 1.77 6.59 C2.15 5.93, 2.59 5.29, 3.08 4.71 C3.57 4.12, 4.12 3.57, 4.71 3.08 C5.29 2.59, 5.93 2.15, 6.59 1.77 C7.25 1.38, 7.96 1.06, 8.67 0.8 C9.39 0.53, 10.14 0.33, 10.89 0.2 C11.65 0.07, 12.42 0, 13.18 0 C13.95 0, 14.72 0.07, 15.47 0.2 C16.22 0.33, 16.98 0.53, 17.69 0.8 C18.41 1.06, 19.11 1.38, 19.77 1.77 C20.44 2.15, 21.07 2.59, 21.66 3.08 C22.24 3.57, 22.79 4.12, 23.28 4.71 C23.77 5.29, 24.22 5.93, 24.6 6.59 C24.98 7.25, 25.31 7.96, 25.57 8.67 C25.83 9.39, 26.03 10.14, 26.17 10.89 C26.3 11.65, 26.33 12.8, 26.37 13.18 C26.4 13.56, 26.4 12.8, 26.37 13.18" stroke="#4b172d" stroke-width="2" fill="none"></path></g><g stroke-linecap="round" transform="translate(23.31644712687512 43.873812752009144) rotate(0 13.183299473953866 13.732603618701887)"><path d="M26.37 13.73 C26.37 14.53, 26.3 15.33, 26.17 16.12 C26.03 16.9, 25.83 17.68, 25.57 18.43 C25.31 19.18, 24.98 19.91, 24.6 20.6 C24.22 21.29, 23.77 21.95, 23.28 22.56 C22.79 23.17, 22.24 23.74, 21.66 24.25 C21.07 24.76, 20.44 25.23, 19.77 25.63 C19.11 26.02, 18.41 26.37, 17.69 26.64 C16.98 26.91, 16.22 27.12, 15.47 27.26 C14.72 27.39, 13.95 27.47, 13.18 27.47 C12.42 27.47, 11.65 27.39, 10.89 27.26 C10.14 27.12, 9.39 26.91, 8.67 26.64 C7.96 26.37, 7.25 26.02, 6.59 25.63 C5.93 25.23, 5.29 24.76, 4.71 24.25 C4.12 23.74, 3.57 23.17, 3.08 22.56 C2.59 21.95, 2.15 21.29, 1.77 20.6 C1.38 19.91, 1.06 19.18, 0.8 18.43 C0.53 17.68, 0.33 16.9, 0.2 16.12 C0.07 15.33, 0 14.53, 0 13.73 C0 12.94, 0.07 12.13, 0.2 11.35 C0.33 10.57, 0.53 9.78, 0.8 9.04 C1.06 8.29, 1.38 7.55, 1.77 6.87 C2.15 6.18, 2.59 5.51, 3.08 4.91 C3.57 4.3, 4.12 3.72, 4.71 3.21 C5.29 2.7, 5.93 2.24, 6.59 1.84 C7.25 1.44, 7.96 1.1, 8.67 0.83 C9.39 0.56, 10.14 0.35, 10.89 0.21 C11.65 0.07, 12.42 0, 13.18 0 C13.95 0, 14.72 0.07, 15.47 0.21 C16.22 0.35, 16.98 0.56, 17.69 0.83 C18.41 1.1, 19.11 1.44, 19.77 1.84 C20.44 2.24, 21.07 2.7, 21.66 3.21 C22.24 3.72, 22.79 4.3, 23.28 4.91 C23.77 5.51, 24.22 6.18, 24.6 6.87 C24.98 7.55, 25.31 8.29, 25.57 9.04 C25.83 9.78, 26.03 10.57, 26.17 11.35 C26.3 12.13, 26.33 13.34, 26.37 13.73 C26.4 14.13, 26.4 13.34, 26.37 13.73" stroke="none" stroke-width="0" fill="#fff"></path><path d="M26.37 13.73 C26.37 14.53, 26.3 15.33, 26.17 16.12 C26.03 16.9, 25.83 17.68, 25.57 18.43 C25.31 19.18, 24.98 19.91, 24.6 20.6 C24.22 21.29, 23.77 21.95, 23.28 22.56 C22.79 23.17, 22.24 23.74, 21.66 24.25 C21.07 24.76, 20.44 25.23, 19.77 25.63 C19.11 26.02, 18.41 26.37, 17.69 26.64 C16.98 26.91, 16.22 27.12, 15.47 27.26 C14.72 27.39, 13.95 27.47, 13.18 27.47 C12.42 27.47, 11.65 27.39, 10.89 27.26 C10.14 27.12, 9.39 26.91, 8.67 26.64 C7.96 26.37, 7.25 26.02, 6.59 25.63 C5.93 25.23, 5.29 24.76, 4.71 24.25 C4.12 23.74, 3.57 23.17, 3.08 22.56 C2.59 21.95, 2.15 21.29, 1.77 20.6 C1.38 19.91, 1.06 19.18, 0.8 18.43 C0.53 17.68, 0.33 16.9, 0.2 16.12 C0.07 15.33, 0 14.53, 0 13.73 C0 12.94, 0.07 12.13, 0.2 11.35 C0.33 10.57, 0.53 9.78, 0.8 9.04 C1.06 8.29, 1.38 7.55, 1.77 6.87 C2.15 6.18, 2.59 5.51, 3.08 4.91 C3.57 4.3, 4.12 3.72, 4.71 3.21 C5.29 2.7, 5.93 2.24, 6.59 1.84 C7.25 1.44, 7.96 1.1, 8.67 0.83 C9.39 0.56, 10.14 0.35, 10.89 0.21 C11.65 0.07, 12.42 0, 13.18 0 C13.95 0, 14.72 0.07, 15.47 0.21 C16.22 0.35, 16.98 0.56, 17.69 0.83 C18.41 1.1, 19.11 1.44, 19.77 1.84 C20.44 2.24, 21.07 2.7, 21.66 3.21 C22.24 3.72, 22.79 4.3, 23.28 4.91 C23.77 5.51, 24.22 6.18, 24.6 6.87 C24.98 7.55, 25.31 8.29, 25.57 9.04 C25.83 9.78, 26.03 10.57, 26.17 11.35 C26.3 12.13, 26.33 13.34, 26.37 13.73 C26.4 14.13, 26.4 13.34, 26.37 13.73" stroke="#4b172d" stroke-width="2" fill="none"></path></g><g stroke-linecap="round"><g transform="translate(51.11326140517349 84.67748872144193) rotate(0 18.196666879541908 -12.049876133030011)" fill-rule="evenodd"><path d="M0 0 C0.76 -2.85, 1.34 -13.07, 4.55 -17.11 C7.76 -21.16, 14.88 -24.19, 19.28 -24.26 C23.68 -24.33, 28.13 -21.27, 30.98 -17.55 C33.83 -13.83, 36.61 -4.9, 36.39 -1.95 C36.18 1, 34.08 -0.18, 29.68 0.16 C25.27 0.51, 14.91 0.14, 9.96 0.11 C5.02 0.08, 1.66 0.02, 0 0" stroke="none" stroke-width="0" fill="#4b172d" fill-rule="evenodd"></path><path d="M0 0 C0.76 -2.85, 1.34 -13.07, 4.55 -17.11 C7.76 -21.16, 14.88 -24.19, 19.28 -24.26 C23.68 -24.33, 28.13 -21.27, 30.98 -17.55 C33.83 -13.83, 36.61 -4.9, 36.39 -1.95 C36.18 1, 34.08 -0.18, 29.68 0.16 C25.27 0.51, 14.91 0.14, 9.96 0.11 C5.02 0.08, 1.66 0.02, 0 0 M0 0 C0.76 -2.85, 1.34 -13.07, 4.55 -17.11 C7.76 -21.16, 14.88 -24.19, 19.28 -24.26 C23.68 -24.33, 28.13 -21.27, 30.98 -17.55 C33.83 -13.83, 36.61 -4.9, 36.39 -1.95 C36.18 1, 34.08 -0.18, 29.68 0.16 C25.27 0.51, 14.91 0.14, 9.96 0.11 C5.02 0.08, 1.66 0.02, 0 0" stroke="#4b172d" stroke-width="1" fill="none"></path></g></g><mask></mask><g stroke-linecap="round" transform="translate(90.4708129918522 42.35742384538162) rotate(0 13.183299473953866 13.732603618701887)"><path d="M26.37 13.73 C26.37 14.53, 26.3 15.33, 26.17 16.12 C26.03 16.9, 25.83 17.68, 25.57 18.43 C25.31 19.18, 24.98 19.91, 24.6 20.6 C24.22 21.29, 23.77 21.95, 23.28 22.56 C22.79 23.17, 22.24 23.74, 21.66 24.25 C21.07 24.76, 20.44 25.23, 19.77 25.63 C19.11 26.02, 18.41 26.37, 17.69 26.64 C16.98 26.91, 16.22 27.12, 15.47 27.26 C14.72 27.39, 13.95 27.47, 13.18 27.47 C12.42 27.47, 11.65 27.39, 10.89 27.26 C10.14 27.12, 9.39 26.91, 8.67 26.64 C7.96 26.37, 7.25 26.02, 6.59 25.63 C5.93 25.23, 5.29 24.76, 4.71 24.25 C4.12 23.74, 3.57 23.17, 3.08 22.56 C2.59 21.95, 2.15 21.29, 1.77 20.6 C1.38 19.91, 1.06 19.18, 0.8 18.43 C0.53 17.68, 0.33 16.9, 0.2 16.12 C0.07 15.33, 0 14.53, 0 13.73 C0 12.94, 0.07 12.13, 0.2 11.35 C0.33 10.57, 0.53 9.78, 0.8 9.04 C1.06 8.29, 1.38 7.55, 1.77 6.87 C2.15 6.18, 2.59 5.51, 3.08 4.91 C3.57 4.3, 4.12 3.72, 4.71 3.21 C5.29 2.7, 5.93 2.24, 6.59 1.84 C7.25 1.44, 7.96 1.1, 8.67 0.83 C9.39 0.56, 10.14 0.35, 10.89 0.21 C11.65 0.07, 12.42 0, 13.18 0 C13.95 0, 14.72 0.07, 15.47 0.21 C16.22 0.35, 16.98 0.56, 17.69 0.83 C18.41 1.1, 19.11 1.44, 19.77 1.84 C20.44 2.24, 21.07 2.7, 21.66 3.21 C22.24 3.72, 22.79 4.3, 23.28 4.91 C23.77 5.51, 24.22 6.18, 24.6 6.87 C24.98 7.55, 25.31 8.29, 25.57 9.04 C25.83 9.78, 26.03 10.57, 26.17 11.35 C26.3 12.13, 26.33 13.34, 26.37 13.73 C26.4 14.13, 26.4 13.34, 26.37 13.73" stroke="none" stroke-width="0" fill="#fff"></path><path d="M26.37 13.73 C26.37 14.53, 26.3 15.33, 26.17 16.12 C26.03 16.9, 25.83 17.68, 25.57 18.43 C25.31 19.18, 24.98 19.91, 24.6 20.6 C24.22 21.29, 23.77 21.95, 23.28 22.56 C22.79 23.17, 22.24 23.74, 21.66 24.25 C21.07 24.76, 20.44 25.23, 19.77 25.63 C19.11 26.02, 18.41 26.37, 17.69 26.64 C16.98 26.91, 16.22 27.12, 15.47 27.26 C14.72 27.39, 13.95 27.47, 13.18 27.47 C12.42 27.47, 11.65 27.39, 10.89 27.26 C10.14 27.12, 9.39 26.91, 8.67 26.64 C7.96 26.37, 7.25 26.02, 6.59 25.63 C5.93 25.23, 5.29 24.76, 4.71 24.25 C4.12 23.74, 3.57 23.17, 3.08 22.56 C2.59 21.95, 2.15 21.29, 1.77 20.6 C1.38 19.91, 1.06 19.18, 0.8 18.43 C0.53 17.68, 0.33 16.9, 0.2 16.12 C0.07 15.33, 0 14.53, 0 13.73 C0 12.94, 0.07 12.13, 0.2 11.35 C0.33 10.57, 0.53 9.78, 0.8 9.04 C1.06 8.29, 1.38 7.55, 1.77 6.87 C2.15 6.18, 2.59 5.51, 3.08 4.91 C3.57 4.3, 4.12 3.72, 4.71 3.21 C5.29 2.7, 5.93 2.24, 6.59 1.84 C7.25 1.44, 7.96 1.1, 8.67 0.83 C9.39 0.56, 10.14 0.35, 10.89 0.21 C11.65 0.07, 12.42 0, 13.18 0 C13.95 0, 14.72 0.07, 15.47 0.21 C16.22 0.35, 16.98 0.56, 17.69 0.83 C18.41 1.1, 19.11 1.44, 19.77 1.84 C20.44 2.24, 21.07 2.7, 21.66 3.21 C22.24 3.72, 22.79 4.3, 23.28 4.91 C23.77 5.51, 24.22 6.18, 24.6 6.87 C24.98 7.55, 25.31 8.29, 25.57 9.04 C25.83 9.78, 26.03 10.57, 26.17 11.35 C26.3 12.13, 26.33 13.34, 26.37 13.73 C26.4 14.13, 26.4 13.34, 26.37 13.73" stroke="#4b172d" stroke-width="2" fill="none"></path></g><g transform="translate(123.4666749500193 59.332131282079445) rotate(0 -6.607123093167047 8.340138986456623)" stroke="none"><path fill="#4b172d" d="M 1.58,0.10 Q 1.58,0.10 1.90,2.07 2.23,4.04 1.57,6.11 0.92,8.17 -0.85,10.40 -2.62,12.63 -4.63,14.16 -6.63,15.68 -9.32,16.47 -12.01,17.27 -12.21,17.34 -12.41,17.41 -12.62,17.42 -12.84,17.42 -13.04,17.36 -13.24,17.30 -13.42,17.17 -13.59,17.05 -13.71,16.87 -13.83,16.70 -13.90,16.50 -13.96,16.30 -13.95,16.08 -13.95,15.87 -13.87,15.67 -13.80,15.47 -13.66,15.31 -13.53,15.14 -13.35,15.03 -13.17,14.91 -12.97,14.86 -12.76,14.81 -12.55,14.83 -12.34,14.85 -12.14,14.93 -11.95,15.02 -11.79,15.16 -11.63,15.30 -11.53,15.49 -11.42,15.67 -11.38,15.88 -11.34,16.09 -11.37,16.30 -11.40,16.51 -11.50,16.70 -11.59,16.89 -11.74,17.04 -11.89,17.19 -12.08,17.28 -12.27,17.38 -12.49,17.41 -12.70,17.43 -12.90,17.39 -13.11,17.35 -13.30,17.25 -13.48,17.14 -13.62,16.98 -13.77,16.83 -13.85,16.63 -13.93,16.43 -13.95,16.22 -13.97,16.01 -13.91,15.80 -13.86,15.60 -13.75,15.42 -13.63,15.24 -13.47,15.11 -13.30,14.98 -13.30,14.98 -13.30,14.98 -11.52,13.26 -9.74,11.54 -8.16,10.37 -6.59,9.21 -5.23,7.76 -3.87,6.31 -3.30,4.99 -2.72,3.67 -2.15,1.78 -1.58,-0.10 -1.55,-0.29 -1.51,-0.47 -1.43,-0.65 -1.35,-0.82 -1.24,-0.98 -1.12,-1.13 -0.97,-1.24 -0.81,-1.36 -0.64,-1.44 -0.46,-1.52 -0.27,-1.55 -0.08,-1.59 0.10,-1.57 0.29,-1.56 0.47,-1.50 0.65,-1.44 0.82,-1.34 0.98,-1.24 1.12,-1.11 1.25,-0.97 1.35,-0.81 1.45,-0.64 1.51,-0.46 1.56,-0.28 1.57,-0.08 1.58,0.10 1.58,0.10 L 1.58,0.10 Z"></path></g><g transform="translate(16.019689566056968 61.498401148691755) rotate(6.5819452442388435 6.390496106505907 7.798571519803772)" stroke="none"><path fill="#4b172d" d="M 1.42,-0.41 Q 1.42,-0.41 2.27,1.22 3.12,2.85 3.90,4.48 4.69,6.10 5.92,7.57 7.15,9.04 8.51,10.05 9.87,11.05 11.41,12.51 12.96,13.97 13.13,14.10 13.29,14.23 13.41,14.40 13.53,14.58 13.59,14.78 13.65,14.99 13.63,15.20 13.62,15.41 13.54,15.61 13.46,15.81 13.33,15.97 13.19,16.13 13.01,16.24 12.82,16.35 12.62,16.40 12.41,16.44 12.20,16.42 11.99,16.40 11.79,16.31 11.60,16.22 11.45,16.07 11.29,15.92 11.19,15.74 11.09,15.55 11.06,15.34 11.03,15.13 11.06,14.92 11.10,14.71 11.20,14.52 11.30,14.33 11.45,14.19 11.60,14.04 11.80,13.95 11.99,13.86 12.20,13.84 12.41,13.82 12.62,13.86 12.83,13.91 13.01,14.02 13.19,14.13 13.33,14.29 13.47,14.45 13.54,14.65 13.62,14.85 13.63,15.06 13.65,15.27 13.59,15.48 13.53,15.68 13.41,15.86 13.29,16.03 13.12,16.16 12.95,16.29 12.75,16.36 12.55,16.43 12.34,16.43 12.13,16.43 11.92,16.36 11.72,16.29 11.72,16.29 11.72,16.29 9.32,15.65 6.92,15.02 5.05,13.61 3.19,12.21 1.64,10.13 0.09,8.05 -0.60,6.07 -1.30,4.09 -1.42,2.25 -1.54,0.41 -1.56,0.22 -1.59,0.04 -1.57,-0.13 -1.56,-0.32 -1.50,-0.49 -1.44,-0.67 -1.34,-0.82 -1.24,-0.98 -1.10,-1.11 -0.97,-1.23 -0.80,-1.33 -0.64,-1.42 -0.46,-1.47 -0.29,-1.52 -0.10,-1.52 0.08,-1.53 0.26,-1.49 0.44,-1.45 0.60,-1.37 0.77,-1.29 0.91,-1.17 1.06,-1.05 1.17,-0.90 1.28,-0.75 1.35,-0.58 1.42,-0.41 1.42,-0.41 L 1.42,-0.41 Z"></path></g><g stroke-linecap="round" transform="translate(10.985698916667388 11.20631498454486) rotate(0 61.293187484806595 61.293187484806595)"><path d="M82.02 4.02 C90.83 6.06, 100.05 11.89, 106.49 18.69 C112.93 25.49, 118.06 35.57, 120.65 44.81 C123.24 54.05, 124.04 64.86, 122.03 74.13 C120.02 83.4, 114.71 93.04, 108.59 100.42 C102.47 107.81, 94.04 114.73, 85.31 118.43 C76.58 122.12, 65.81 123.44, 56.2 122.59 C46.6 121.75, 35.77 118.66, 27.67 113.36 C19.56 108.05, 12.11 99.11, 7.59 90.77 C3.06 82.43, 0.57 72.74, 0.51 63.32 C0.46 53.9, 3.16 42.9, 7.24 34.24 C11.32 25.58, 17.46 16.9, 24.99 11.35 C32.53 5.81, 42.03 1.76, 52.43 0.97 C62.83 0.17, 80.64 5.11, 87.37 6.59 C94.11 8.06, 93.15 8.94, 92.85 9.82 M55.45 -0.37 C64.3 -1.87, 74.58 1.6, 83.49 5.33 C92.39 9.05, 102.8 14.83, 108.87 21.98 C114.94 29.12, 118.09 38.8, 119.9 48.19 C121.72 57.58, 122.2 69.39, 119.75 78.33 C117.3 87.28, 111.71 94.78, 105.19 101.84 C98.68 108.9, 89.27 117.38, 80.65 120.7 C72.03 124.01, 62.62 123.28, 53.46 121.71 C44.3 120.15, 33.5 116.67, 25.69 111.31 C17.89 105.96, 10.67 98.2, 6.63 89.59 C2.59 80.99, 1.01 69.53, 1.45 59.69 C1.89 49.84, 4.86 38.76, 9.27 30.52 C13.68 22.27, 20.06 15.37, 27.9 10.23 C35.75 5.08, 51.49 1.19, 56.32 -0.36 C61.15 -1.91, 56.74 -0.17, 56.89 0.91" stroke="#4b172d" stroke-width="2" fill="none"></path></g></svg>