<svg version="1.1" xmlns="http://www.w3.org/2000/svg" viewBox="0 0 41.47066339523599 39.5710356338775" width="41.47066339523599" height="39.5710356338775" class="excalidraw-svg"><!-- svg-source:excalidraw --><metadata></metadata><defs><style class="style-fonts">
      </style></defs><g stroke-linecap="round"><g transform="translate(20.62261573448768 29.43155810949861) rotate(0 -5.162423714826673 -9.643095399381764)"><path d="M0 0 C-0.26 -0.03, -1.18 0.45, -1.56 -0.21 C-1.94 -0.87, -1.51 -3.82, -2.26 -3.96 C-3.01 -4.1, -5.05 -1.18, -6.04 -1.06 C-7.03 -0.94, -8.15 -2.26, -8.17 -3.24 C-8.19 -4.21, -5.87 -6.17, -6.16 -6.9 C-6.45 -7.63, -9.2 -7.01, -9.9 -7.62 C-10.61 -8.23, -10.86 -9.83, -10.37 -10.58 C-9.88 -11.33, -7.3 -11.35, -6.98 -12.14 C-6.66 -12.94, -8.54 -14.42, -8.45 -15.34 C-8.36 -16.25, -7.1 -17.51, -6.42 -17.64 C-5.74 -17.78, -4.98 -16.59, -4.37 -16.16 C-3.76 -15.73, -3.19 -14.58, -2.78 -15.05 C-2.38 -15.53, -2.41 -18.3, -1.94 -19.01 C-1.47 -19.71, -0.29 -19.24, 0.05 -19.29 M0 0 C-0.26 -0.03, -1.18 0.45, -1.56 -0.21 C-1.94 -0.87, -1.51 -3.82, -2.26 -3.96 C-3.01 -4.1, -5.05 -1.18, -6.04 -1.06 C-7.03 -0.94, -8.15 -2.26, -8.17 -3.24 C-8.19 -4.21, -5.87 -6.17, -6.16 -6.9 C-6.45 -7.63, -9.2 -7.01, -9.9 -7.62 C-10.61 -8.23, -10.86 -9.83, -10.37 -10.58 C-9.88 -11.33, -7.3 -11.35, -6.98 -12.14 C-6.66 -12.94, -8.54 -14.42, -8.45 -15.34 C-8.36 -16.25, -7.1 -17.51, -6.42 -17.64 C-5.74 -17.78, -4.98 -16.59, -4.37 -16.16 C-3.76 -15.73, -3.19 -14.58, -2.78 -15.05 C-2.38 -15.53, -2.41 -18.3, -1.94 -19.01 C-1.47 -19.71, -0.29 -19.24, 0.05 -19.29" stroke="#1e1e1e" stroke-width="2" fill="none"></path></g></g><mask></mask><g stroke-linecap="round"><g transform="translate(20.848047660748307 29.399301029420712) rotate(0 5.1624237148269 -9.643095399381764)"><path d="M0 0 C0.26 -0.03, 1.18 0.45, 1.56 -0.21 C1.94 -0.87, 1.51 -3.82, 2.26 -3.96 C3.01 -4.1, 5.05 -1.18, 6.04 -1.06 C7.03 -0.94, 8.15 -2.26, 8.17 -3.24 C8.19 -4.21, 5.87 -6.17, 6.16 -6.9 C6.45 -7.63, 9.2 -7.01, 9.9 -7.62 C10.61 -8.23, 10.86 -9.83, 10.37 -10.58 C9.88 -11.33, 7.3 -11.35, 6.98 -12.14 C6.66 -12.94, 8.54 -14.42, 8.45 -15.34 C8.36 -16.25, 7.1 -17.51, 6.42 -17.64 C5.74 -17.78, 4.98 -16.59, 4.37 -16.16 C3.76 -15.73, 3.19 -14.58, 2.78 -15.05 C2.38 -15.53, 2.41 -18.3, 1.94 -19.01 C1.47 -19.71, 0.29 -19.24, -0.05 -19.29 M0 0 C0.26 -0.03, 1.18 0.45, 1.56 -0.21 C1.94 -0.87, 1.51 -3.82, 2.26 -3.96 C3.01 -4.1, 5.05 -1.18, 6.04 -1.06 C7.03 -0.94, 8.15 -2.26, 8.17 -3.24 C8.19 -4.21, 5.87 -6.17, 6.16 -6.9 C6.45 -7.63, 9.2 -7.01, 9.9 -7.62 C10.61 -8.23, 10.86 -9.83, 10.37 -10.58 C9.88 -11.33, 7.3 -11.35, 6.98 -12.14 C6.66 -12.94, 8.54 -14.42, 8.45 -15.34 C8.36 -16.25, 7.1 -17.51, 6.42 -17.64 C5.74 -17.78, 4.98 -16.59, 4.37 -16.16 C3.76 -15.73, 3.19 -14.58, 2.78 -15.05 C2.38 -15.53, 2.41 -18.3, 1.94 -19.01 C1.47 -19.71, 0.29 -19.24, -0.05 -19.29" stroke="#1e1e1e" stroke-width="2" fill="none"></path></g></g><mask></mask><g stroke-linecap="round" transform="translate(17.904725044247698 17.06912244350974) rotate(0 2.914177836016279 2.914177836016279)"><path d="M5.83 2.91 C5.83 3.08, 5.81 3.25, 5.78 3.42 C5.75 3.59, 5.71 3.75, 5.65 3.91 C5.59 4.07, 5.52 4.23, 5.44 4.37 C5.35 4.52, 5.25 4.66, 5.15 4.79 C5.04 4.92, 4.92 5.04, 4.79 5.15 C4.66 5.25, 4.52 5.35, 4.37 5.44 C4.23 5.52, 4.07 5.59, 3.91 5.65 C3.75 5.71, 3.59 5.75, 3.42 5.78 C3.25 5.81, 3.08 5.83, 2.91 5.83 C2.75 5.83, 2.57 5.81, 2.41 5.78 C2.24 5.75, 2.08 5.71, 1.92 5.65 C1.76 5.59, 1.6 5.52, 1.46 5.44 C1.31 5.35, 1.17 5.25, 1.04 5.15 C0.91 5.04, 0.79 4.92, 0.68 4.79 C0.57 4.66, 0.47 4.52, 0.39 4.37 C0.31 4.23, 0.23 4.07, 0.18 3.91 C0.12 3.75, 0.07 3.59, 0.04 3.42 C0.01 3.25, 0 3.08, 0 2.91 C0 2.75, 0.01 2.57, 0.04 2.41 C0.07 2.24, 0.12 2.08, 0.18 1.92 C0.23 1.76, 0.31 1.6, 0.39 1.46 C0.47 1.31, 0.57 1.17, 0.68 1.04 C0.79 0.91, 0.91 0.79, 1.04 0.68 C1.17 0.57, 1.31 0.47, 1.46 0.39 C1.6 0.31, 1.76 0.23, 1.92 0.18 C2.08 0.12, 2.24 0.07, 2.41 0.04 C2.57 0.01, 2.75 0, 2.91 0 C3.08 0, 3.25 0.01, 3.42 0.04 C3.59 0.07, 3.75 0.12, 3.91 0.18 C4.07 0.23, 4.23 0.31, 4.37 0.39 C4.52 0.47, 4.66 0.57, 4.79 0.68 C4.92 0.79, 5.04 0.91, 5.15 1.04 C5.25 1.17, 5.35 1.31, 5.44 1.46 C5.52 1.6, 5.59 1.76, 5.65 1.92 C5.71 2.08, 5.75 2.24, 5.78 2.41 C5.81 2.57, 5.82 2.83, 5.83 2.91 C5.84 3, 5.84 2.83, 5.83 2.91" stroke="#1e1e1e" stroke-width="2" fill="none"></path></g></svg>