<svg version="1.1" xmlns="http://www.w3.org/2000/svg" viewBox="0 0 145.55232438480243 129.87135134880396" width="145.55232438480243" height="129.87135134880396" class="excalidraw-svg"><!-- svg-source:excalidraw --><metadata></metadata><defs><style class="style-fonts">
      </style></defs><g stroke-linecap="round" transform="translate(10 95.02122569171138) rotate(0 23.666786340088038 12.425062828546174)"><path d="M31.5 1.6 C36.22 2.49, 42.15 4.71, 44.84 6.95 C47.52 9.2, 48.75 12.52, 47.61 15.06 C46.48 17.59, 42.21 20.55, 38.02 22.16 C33.83 23.78, 27.62 24.82, 22.5 24.72 C17.37 24.62, 10.95 23.16, 7.26 21.57 C3.58 19.99, 0.96 17.85, 0.38 15.2 C-0.21 12.55, 1.34 8.26, 3.76 5.68 C6.18 3.09, 9.21 0.19, 14.89 -0.3 C20.57 -0.79, 33.49 2.1, 37.82 2.74 C42.15 3.38, 41.29 3.46, 40.86 3.54 M33.5 1.62 C37.76 2.37, 42.01 4.98, 44.25 7.11 C46.49 9.25, 47.87 11.71, 46.94 14.44 C46 17.17, 42.93 22, 38.63 23.48 C34.33 24.97, 26.58 23.94, 21.13 23.36 C15.69 22.78, 9.5 21.44, 5.95 20.01 C2.4 18.59, 0.42 17.17, -0.15 14.83 C-0.72 12.48, -0.49 8.3, 2.54 5.93 C5.57 3.56, 13.06 1.51, 18.02 0.62 C22.99 -0.27, 29.94 0.64, 32.35 0.59 C34.76 0.53, 32.54 0.21, 32.46 0.27" stroke="none" stroke-width="0" fill="#000000"></path><path d="M20.47 -0.62 C25.29 -1.18, 32.1 0.76, 36.44 2.27 C40.78 3.78, 44.99 6.14, 46.51 8.42 C48.03 10.71, 47.31 13.65, 45.54 15.98 C43.77 18.3, 40.36 20.9, 35.92 22.37 C31.48 23.84, 23.94 25.15, 18.89 24.8 C13.84 24.45, 8.92 22.32, 5.61 20.26 C2.3 18.2, -1.07 15.25, -0.98 12.45 C-0.89 9.65, 1.87 5.46, 6.15 3.47 C10.43 1.48, 20.94 1.05, 24.7 0.5 C28.47 -0.05, 28.96 -0.08, 28.74 0.18 M23.28 -0.56 C28.32 -0.68, 34.85 2.47, 38.93 4.18 C43.01 5.89, 47.05 7.36, 47.77 9.69 C48.5 12.02, 46.17 15.58, 43.28 18.16 C40.4 20.74, 35.32 24.27, 30.47 25.16 C25.63 26.05, 18.73 24.61, 14.23 23.52 C9.74 22.43, 5.93 20.97, 3.52 18.61 C1.11 16.25, -0.83 11.76, -0.24 9.36 C0.36 6.95, 3.12 5.71, 7.11 4.17 C11.1 2.63, 21.02 0.52, 23.71 0.11 C26.4 -0.29, 23.22 1.29, 23.26 1.72" stroke="#000000" stroke-width="4" fill="none"></path></g><g stroke-linecap="round" transform="translate(88.1003949222777 68.98776071761472) rotate(0 23.666786340088038 12.425062828546174)"><path d="M15.48 0.43 C20.2 -0.69, 28.14 -0.33, 33.05 0.59 C37.97 1.5, 42.51 3.41, 44.98 5.92 C47.45 8.44, 48.93 12.97, 47.88 15.69 C46.83 18.4, 42.69 20.81, 38.69 22.21 C34.69 23.62, 28.96 24.28, 23.87 24.14 C18.78 23.99, 12.16 22.88, 8.16 21.36 C4.15 19.84, 0.51 17.54, -0.16 15.01 C-0.84 12.48, 0.89 8.48, 4.09 6.18 C7.28 3.88, 16.11 2.09, 19.01 1.19 C21.91 0.29, 21.29 0.67, 21.47 0.77 M12.12 0.17 C16.46 -0.82, 23.95 -0.2, 29.26 0.79 C34.57 1.78, 40.97 3.86, 43.98 6.13 C46.99 8.41, 47.84 12.11, 47.33 14.44 C46.82 16.78, 44.65 18.29, 40.93 20.15 C37.21 22.01, 29.99 25.18, 25.03 25.61 C20.08 26.03, 15.34 24.37, 11.19 22.72 C7.04 21.07, 1.77 18.4, 0.14 15.73 C-1.49 13.06, -0.62 9.16, 1.41 6.71 C3.43 4.25, 10.31 1.87, 12.28 1 C14.25 0.14, 12.9 1.23, 13.2 1.52" stroke="none" stroke-width="0" fill="#000000"></path><path d="M17.57 1.2 C22.03 0.15, 28.88 -0.38, 33.44 0.43 C38.01 1.24, 42.79 3.73, 44.98 6.06 C47.16 8.38, 47.8 11.67, 46.54 14.41 C45.29 17.14, 41.38 20.69, 37.46 22.5 C33.53 24.3, 28.05 25.6, 22.97 25.25 C17.89 24.91, 10.93 22.22, 6.96 20.43 C2.99 18.65, -0.43 17.04, -0.84 14.53 C-1.26 12.03, 1.25 7.88, 4.49 5.41 C7.74 2.94, 15.7 0.41, 18.6 -0.31 C21.51 -1.03, 21.61 0.72, 21.93 1.1 M27.25 0.37 C31.82 0.81, 36.89 3.24, 40.41 4.99 C43.94 6.74, 48.33 8.62, 48.4 10.89 C48.47 13.17, 44.37 16.41, 40.82 18.64 C37.27 20.87, 31.66 23.72, 27.11 24.28 C22.56 24.84, 17.67 23.03, 13.49 22.01 C9.32 21, 4.09 20.53, 2.06 18.17 C0.02 15.81, -0.17 10.63, 1.27 7.84 C2.72 5.05, 6.6 2.78, 10.72 1.45 C14.85 0.11, 23.52 0.25, 26.02 -0.17 C28.53 -0.59, 25.41 -1.35, 25.73 -1.08" stroke="#000000" stroke-width="4" fill="none"></path></g><g stroke-linecap="round"><g transform="translate(56.15023336317108 109.22129749576447) rotate(0 39.05019746114522 -48.5169119971805)"><path d="M3.15 2.04 C7.51 -23.92, 11.01 -56.02, 17.01 -99.22 M0.14 1.57 C7.41 -28.23, 9.34 -56.99, 18.01 -94.77 M16.71 -92.58 C37.09 -93.24, 52.89 -94.31, 76.54 -96.38 M18.01 -97.35 C34.11 -98.86, 53.63 -97.71, 79.4 -98.86 M76.17 -98.2 C76.32 -80.13, 75.14 -61.21, 69.51 -33.19 M76.79 -98.52 C78.95 -79.5, 75.61 -58.02, 72.86 -35.54" stroke="#000000" stroke-width="4" fill="none"></path></g></g><mask></mask><g stroke-linecap="round"><g transform="translate(64.7294417186672 42.60915755451583) rotate(0 34.31684019312411 -2.366678634008508)"><path d="M2.37 2.79 C17.8 -4.27, 33.69 -6.37, 68.13 -8.49 M0.85 -0.77 C16.83 -4.36, 39.07 -2.59, 68.35 -6.32" stroke="#000000" stroke-width="4" fill="none"></path></g></g><mask></mask></svg>