<svg version="1.1" xmlns="http://www.w3.org/2000/svg" viewBox="0 0 140.42750705449953 124.15491249845923" width="140.42750705449953" height="124.15491249845923" class="excalidraw-svg"><!-- svg-source:excalidraw --><metadata></metadata><defs><style class="style-fonts">
      </style></defs><g stroke-linecap="round" transform="translate(10 89.30478684136665) rotate(0 23.666786340088038 12.425062828546174)"><path d="M22.92 0.69 C27.69 0.31, 32.8 0.05, 36.7 1.48 C40.6 2.91, 44.81 6.46, 46.32 9.27 C47.84 12.08, 47.86 15.99, 45.78 18.34 C43.7 20.7, 38.63 22.45, 33.85 23.37 C29.08 24.3, 21.97 24.42, 17.12 23.9 C12.28 23.38, 7.56 22.52, 4.79 20.25 C2.02 17.98, 0.15 13.17, 0.5 10.27 C0.84 7.38, 3.02 4.45, 6.85 2.88 C10.69 1.31, 20.35 1.36, 23.52 0.83 C26.69 0.3, 25.71 -0.47, 25.9 -0.29 M26.15 0.99 C31.14 0.85, 38.49 0.8, 42.24 2.7 C45.99 4.61, 48.62 9.44, 48.64 12.43 C48.65 15.42, 45.89 18.51, 42.32 20.64 C38.75 22.78, 31.93 24.78, 27.21 25.23 C22.49 25.69, 18.02 24.65, 14 23.36 C9.99 22.07, 5.43 20.02, 3.11 17.5 C0.79 14.98, -1.26 10.99, 0.08 8.24 C1.43 5.49, 6.83 2.33, 11.18 0.98 C15.52 -0.37, 23.34 0.3, 26.15 0.13 C28.96 -0.04, 27.78 -0.08, 28.02 -0.05" stroke="none" stroke-width="0" fill="#000000"></path><path d="M22.71 -0.51 C27.53 -0.74, 33.87 0.76, 37.89 2.5 C41.9 4.25, 45.71 7.28, 46.8 9.95 C47.89 12.63, 46.87 16.21, 44.4 18.57 C41.94 20.93, 36.72 23.24, 32.01 24.1 C27.29 24.96, 20.92 24.76, 16.1 23.75 C11.29 22.74, 5.6 20.09, 3.11 18.05 C0.62 16.02, 0.23 14.19, 1.18 11.55 C2.13 8.91, 4.23 4.06, 8.82 2.23 C13.41 0.41, 24.59 0.63, 28.71 0.59 C32.83 0.55, 33.6 1.82, 33.56 1.99 M30.07 1.75 C35.19 2.5, 41.83 4.47, 44.91 6.38 C47.99 8.29, 49.26 10.77, 48.55 13.23 C47.84 15.69, 44.48 19.34, 40.64 21.14 C36.8 22.94, 30.86 23.61, 25.49 24.03 C20.12 24.45, 12.76 25.26, 8.41 23.66 C4.05 22.05, 0.51 17.38, -0.62 14.39 C-1.76 11.41, -0.75 7.83, 1.61 5.76 C3.97 3.68, 8.78 2.56, 13.52 1.92 C18.27 1.29, 27.31 1.98, 30.1 1.94 C32.89 1.9, 30.34 1.71, 30.25 1.69" stroke="#000000" stroke-width="4" fill="none"></path></g><g stroke-linecap="round" transform="translate(81.00035902025229 68.1464529244056) rotate(0 23.666786340088038 12.425062828546174)"><path d="M15.51 -0.32 C19.81 -1.39, 27.3 -0.49, 32.3 0.74 C37.29 1.97, 42.96 4.76, 45.48 7.08 C48 9.39, 48.63 12.19, 47.42 14.64 C46.21 17.1, 42.19 19.94, 38.21 21.79 C34.23 23.64, 28.54 25.91, 23.53 25.75 C18.51 25.59, 12.07 22.85, 8.12 20.81 C4.16 18.77, 0.56 15.89, -0.21 13.52 C-0.97 11.16, 0.43 8.91, 3.52 6.63 C6.62 4.35, 15.63 0.76, 18.36 -0.16 C21.09 -1.07, 19.89 0.87, 19.92 1.16 M29.13 -1.17 C34.26 -0.92, 40.3 2.65, 43.33 5.04 C46.36 7.43, 47.84 10.5, 47.31 13.19 C46.78 15.88, 43.23 19.3, 40.15 21.21 C37.08 23.12, 33.39 24.26, 28.85 24.65 C24.31 25.03, 17.68 24.91, 12.91 23.49 C8.14 22.08, 2.13 18.87, 0.25 16.14 C-1.63 13.41, -0.22 9.52, 1.64 7.09 C3.49 4.67, 6.76 2.8, 11.37 1.59 C15.97 0.37, 26.34 0.17, 29.28 -0.19 C32.23 -0.55, 29.28 -0.73, 29.02 -0.58" stroke="none" stroke-width="0" fill="#000000"></path><path d="M21.25 -0.17 C26.07 -0.44, 33.11 0.68, 37.32 2.29 C41.54 3.9, 45.29 6.91, 46.53 9.5 C47.76 12.1, 46.91 15.57, 44.74 17.87 C42.56 20.16, 38.11 22.32, 33.48 23.27 C28.86 24.22, 21.74 24.02, 17.01 23.55 C12.28 23.08, 7.78 22.65, 5.1 20.45 C2.42 18.26, 0.51 13.13, 0.92 10.37 C1.33 7.62, 3.65 5.53, 7.53 3.93 C11.42 2.32, 21.13 1.29, 24.23 0.72 C27.34 0.15, 26.16 0.52, 26.16 0.49 M22.79 0.85 C27.85 0.13, 34.31 0.21, 38.38 1.53 C42.44 2.85, 45.95 6.21, 47.17 8.74 C48.39 11.28, 48.07 14.05, 45.67 16.74 C43.27 19.43, 37.65 23.75, 32.79 24.88 C27.94 26.02, 21.43 24.61, 16.56 23.56 C11.68 22.51, 6.42 20.44, 3.55 18.58 C0.67 16.72, -1.16 14.63, -0.69 12.4 C-0.22 10.16, 2.73 7.07, 6.38 5.17 C10.04 3.27, 18.8 1.78, 21.26 0.99 C23.72 0.2, 21.13 0.55, 21.16 0.43" stroke="#000000" stroke-width="4" fill="none"></path></g><g stroke-linecap="round"><g transform="translate(49.05019746114567 108.23821591343744) rotate(0 39.05019746114522 -48.5169119971805)"><path d="M-1.46 -2.07 C3.83 -29.05, 10.6 -56.54, 16.38 -95.03 M-0.91 -0.72 C2.56 -23.98, 10.68 -50.02, 14.81 -94.9 M19.22 -95.04 C39.5 -99.86, 57.01 -98.52, 81.38 -93.09 M17.53 -96.28 C38.82 -96.82, 58.42 -94.48, 76.41 -98.24 M80.51 -97.95 C79.87 -82.74, 77.43 -68.68, 73.69 -37.02 M76.86 -95.37 C78.17 -85.05, 73.92 -69.9, 73 -34.94" stroke="#000000" stroke-width="4" fill="none"></path></g></g><mask></mask></svg>