<svg version="1.1" xmlns="http://www.w3.org/2000/svg" viewBox="0 0 97.40888554968024 132.8839442939061" width="97.40888554968024" height="132.8839442939061" class="excalidraw-svg"><!-- svg-source:excalidraw --><metadata></metadata><defs><style class="style-fonts">
      </style></defs><g stroke-linecap="round" transform="translate(10 98.03381863681352) rotate(0 23.666786340088038 12.425062828546174)"><path d="M31.33 0.83 C35.92 1.62, 40.94 3.74, 43.42 5.99 C45.9 8.23, 46.65 11.73, 46.23 14.3 C45.8 16.88, 44.23 19.63, 40.85 21.43 C37.47 23.23, 31.3 24.97, 25.96 25.09 C20.62 25.21, 13.04 23.88, 8.83 22.15 C4.62 20.41, 1.84 17.23, 0.7 14.68 C-0.44 12.13, -0.39 9.18, 2.01 6.86 C4.4 4.54, 9.86 1.85, 15.07 0.74 C20.28 -0.36, 30.02 0.15, 33.25 0.22 C36.49 0.28, 34.63 0.75, 34.47 1.14 M19.51 -0.31 C24.28 -1.1, 29.85 -0.29, 34.12 0.81 C38.4 1.91, 43.01 3.83, 45.17 6.31 C47.33 8.79, 48.7 12.88, 47.1 15.67 C45.51 18.46, 39.81 21.31, 35.61 23.04 C31.4 24.77, 26.87 26.18, 21.85 26.04 C16.82 25.9, 9.07 24.32, 5.44 22.2 C1.81 20.08, 0.07 16.09, 0.05 13.3 C0.02 10.52, 2.07 7.8, 5.29 5.51 C8.51 3.22, 17.38 0.28, 19.37 -0.42 C21.37 -1.13, 17.51 1.02, 17.24 1.26" stroke="#000000" stroke-width="4" fill="none"></path></g><g stroke-linecap="round"><g transform="translate(55.26272718263317 116.62210951987436) rotate(0 14.200071804051277 -53.2502692651924)"><path d="M3.52 1.24 C8.66 -36.05, 15.1 -73.99, 32.15 -106.62 M-0.49 0.12 C9.32 -42.27, 21.67 -81.35, 27.85 -105.16" stroke="#000000" stroke-width="4" fill="none"></path></g></g><mask></mask></svg>