<svg version="1.1" xmlns="http://www.w3.org/2000/svg" viewBox="0 0 93.67674178250218 131.19572974597395" width="93.67674178250218" height="131.19572974597395" class="excalidraw-svg"><!-- svg-source:excalidraw --><metadata></metadata><defs><style class="style-fonts">
      </style></defs><g stroke-linecap="round" transform="translate(10 96.34560408888137) rotate(0 23.666786340088038 12.425062828546174)"><path d="M12.66 0.46 C16.7 -1.07, 22.94 -1.15, 27.94 -0.57 C32.95 0.01, 39.33 1.54, 42.67 3.93 C46.01 6.31, 48.36 11.07, 47.98 13.72 C47.6 16.37, 43.8 17.84, 40.4 19.84 C36.99 21.83, 32.39 25.3, 27.57 25.68 C22.75 26.06, 15.75 23.78, 11.48 22.15 C7.22 20.51, 3.58 18.19, 1.98 15.85 C0.37 13.5, -0.33 10.67, 1.87 8.08 C4.08 5.49, 12.69 1.6, 15.2 0.31 C17.72 -0.98, 16.78 -0.03, 16.96 0.35 M16.74 1.82 C21.49 0.8, 29.44 0.48, 33.88 1.24 C38.32 1.99, 41.21 4.01, 43.38 6.32 C45.54 8.64, 47.97 12.59, 46.88 15.1 C45.8 17.62, 40.83 19.97, 36.85 21.41 C32.87 22.85, 27.73 23.7, 22.99 23.74 C18.25 23.78, 12.19 23.23, 8.4 21.67 C4.6 20.11, 1.21 16.85, 0.22 14.39 C-0.76 11.92, -0.23 9.24, 2.48 6.87 C5.19 4.5, 14.28 1.44, 16.49 0.18 C18.7 -1.07, 15.39 -0.66, 15.76 -0.65" stroke="none" stroke-width="0" fill="#000000"></path><path d="M28.79 -0.71 C33.81 -0.43, 39.8 2.6, 42.89 4.88 C45.98 7.17, 47.69 10.31, 47.32 12.99 C46.94 15.68, 43.79 19.04, 40.63 20.99 C37.47 22.93, 33.08 24.26, 28.38 24.66 C23.68 25.06, 17.08 24.76, 12.45 23.36 C7.83 21.96, 2.41 18.92, 0.61 16.26 C-1.2 13.6, -0.23 9.84, 1.61 7.4 C3.44 4.95, 6.51 2.75, 11.62 1.58 C16.73 0.42, 28.36 0.53, 32.29 0.43 C36.22 0.32, 35.43 0.8, 35.18 0.96 M30 0.48 C34.76 1.13, 42.28 3.05, 45.1 5.25 C47.92 7.45, 47.91 11.16, 46.92 13.7 C45.94 16.24, 42.82 18.7, 39.19 20.5 C35.56 22.31, 30.36 24.21, 25.15 24.52 C19.94 24.84, 11.9 23.79, 7.94 22.41 C3.99 21.03, 2.44 18.66, 1.42 16.23 C0.4 13.79, -0.44 10.32, 1.81 7.79 C4.06 5.26, 9.93 2.15, 14.91 1.04 C19.89 -0.07, 28.82 1.29, 31.69 1.13 C34.55 0.98, 32.5 -0.12, 32.1 0.1" stroke="#000000" stroke-width="4" fill="none"></path></g><g stroke-linecap="round"><g transform="translate(55.26272718263317 114.93389497194221) rotate(0 14.200071804051277 -53.2502692651924)"><path d="M2.72 -3.71 C14.2 -35.06, 20.21 -70.7, 24.61 -104.74 M0.53 -1.42 C10.75 -42.32, 21.2 -85.38, 28.41 -104.93" stroke="#000000" stroke-width="4" fill="none"></path></g></g><mask></mask></svg>