<svg version="1.1" xmlns="http://www.w3.org/2000/svg" viewBox="0 0 296.52175974615784 395.8094772259758" width="296.52175974615784" height="395.8094772259758" class="excalidraw-svg"><!-- svg-source:excalidraw --><metadata></metadata><defs><style class="style-fonts">
      </style></defs><g transform="translate(61.23558141045851 93.99999237060547) rotate(0 98.00003051757812 -52)" stroke="none"><path fill="#292929" d="M -2.66,-25.31 Q -2.66,-25.31 0.91,-27.33 4.50,-29.35 6.81,-31.00 9.12,-32.64 11.21,-34.23 13.29,-35.81 15.06,-37.22 16.83,-38.63 19.29,-41.19 21.76,-43.76 23.35,-45.50 24.94,-47.24 26.53,-49.02 28.11,-50.79 29.77,-52.53 31.44,-54.26 33.33,-56.05 35.22,-57.84 37.39,-59.87 39.55,-61.89 41.90,-64.09 44.25,-66.29 46.50,-68.23 48.76,-70.18 51.47,-72.08 54.18,-73.99 57.21,-75.90 60.24,-77.82 64.10,-79.64 67.95,-81.46 71.98,-83.01 76.01,-84.55 79.23,-85.58 82.45,-86.60 86.23,-86.89 90.02,-87.18 93.14,-87.00 96.27,-86.82 99.30,-86.01 102.34,-85.21 104.86,-83.89 107.39,-82.57 110.00,-80.78 112.61,-78.99 115.08,-77.21 117.55,-75.43 120.18,-73.43 122.82,-71.43 125.26,-69.27 127.71,-67.10 129.96,-64.73 132.22,-62.36 134.27,-60.22 136.33,-58.08 138.36,-55.98 140.39,-53.88 142.60,-52.16 144.81,-50.44 147.09,-48.55 149.37,-46.67 151.23,-45.29 153.08,-43.92 155.02,-42.51 156.96,-41.09 160.24,-39.35 163.52,-37.60 167.42,-35.84 171.32,-34.07 174.32,-32.76 177.31,-31.46 179.86,-30.33 182.40,-29.19 184.94,-28.32 187.49,-27.45 189.71,-27.02 191.94,-26.58 193.96,-26.43 195.98,-26.27 196.97,-26.06 197.96,-25.85 198.83,-25.33 199.70,-24.81 200.36,-24.04 201.02,-23.27 201.40,-22.33 201.78,-21.39 201.84,-20.37 201.90,-19.36 201.63,-18.38 201.37,-17.40 200.80,-16.56 200.24,-15.72 199.43,-15.10 198.63,-14.49 197.67,-14.16 196.71,-13.83 195.69,-13.82 194.68,-13.82 193.72,-14.14 192.75,-14.46 191.94,-15.07 191.13,-15.68 190.56,-16.52 189.99,-17.35 189.71,-18.33 189.43,-19.31 189.49,-20.32 189.54,-21.33 189.91,-22.28 190.28,-23.22 190.93,-24.00 191.58,-24.77 192.45,-25.30 193.32,-25.83 194.31,-26.05 195.30,-26.27 196.31,-26.16 197.32,-26.06 198.24,-25.64 199.16,-25.22 199.90,-24.52 200.64,-23.83 201.12,-22.93 201.60,-22.04 201.77,-21.04 201.93,-20.04 201.77,-19.04 201.61,-18.04 201.14,-17.14 200.67,-16.24 199.94,-15.54 199.20,-14.84 198.29,-14.41 197.37,-13.98 196.36,-13.86 195.35,-13.75 195.35,-13.75 195.35,-13.75 192.28,-14.08 189.20,-14.41 185.67,-15.45 182.13,-16.49 179.65,-17.53 177.16,-18.58 174.73,-19.91 172.30,-21.24 169.52,-22.74 166.74,-24.24 164.71,-25.23 162.67,-26.22 160.58,-27.30 158.49,-28.38 154.70,-30.79 150.90,-33.20 148.97,-34.76 147.03,-36.32 145.17,-37.90 143.31,-39.48 141.20,-41.30 139.08,-43.12 136.35,-45.26 133.63,-47.41 131.61,-49.55 129.60,-51.69 127.56,-53.86 125.52,-56.03 123.54,-58.14 121.56,-60.24 119.46,-62.15 117.36,-64.05 114.71,-65.95 112.06,-67.86 109.68,-69.60 107.29,-71.34 103.47,-74.05 99.66,-76.77 97.55,-77.56 95.44,-78.35 92.97,-78.69 90.49,-79.03 87.58,-78.92 84.68,-78.80 81.91,-78.08 79.14,-77.35 75.56,-75.59 71.99,-73.82 68.77,-71.91 65.55,-69.99 62.76,-67.96 59.97,-65.93 57.66,-64.22 55.34,-62.51 53.34,-60.80 51.35,-59.10 49.10,-56.75 46.85,-54.41 44.69,-52.22 42.53,-50.04 40.75,-48.39 38.97,-46.74 37.41,-45.23 35.84,-43.72 34.14,-41.92 32.45,-40.12 30.66,-38.29 28.88,-36.47 25.70,-33.67 22.52,-30.87 20.61,-29.58 18.70,-28.29 16.45,-26.76 14.21,-25.23 11.75,-23.60 9.29,-21.97 5.98,-19.52 2.66,-17.07 2.13,-16.81 1.60,-16.55 1.02,-16.43 0.44,-16.30 -0.14,-16.32 -0.73,-16.34 -1.30,-16.49 -1.87,-16.65 -2.39,-16.94 -2.90,-17.23 -3.33,-17.64 -3.76,-18.04 -4.09,-18.54 -4.41,-19.04 -4.60,-19.60 -4.79,-20.16 -4.85,-20.75 -4.90,-21.33 -4.81,-21.92 -4.73,-22.51 -4.50,-23.05 -4.27,-23.60 -3.92,-24.08 -3.57,-24.55 -3.12,-24.93 -2.66,-25.31 -2.66,-25.31 L -2.66,-25.31 Z"></path></g><g stroke-linecap="round"><g transform="translate(152.71074463181776 101.19999694824219) rotate(0 -0.7598808551429101 -7.244806091561912)"><path d="M-0.78 0.42 C-1.31 -2.06, -2.03 -13.02, -2.01 -15.44 M1.01 -0.41 C0.18 -2.71, -2.89 -11.77, -3.21 -14.4" stroke="#000000" stroke-width="4" fill="none"></path></g></g><mask></mask><g stroke-linecap="round" transform="translate(138.31059814744276 76.39997863769531) rotate(0 11.60003662109375 4.800018310546875)"><path d="M-1.91 1.58 L24.23 -1.31 L23.22 9.72 L0.91 9.33" stroke="none" stroke-width="0" fill="#e22237"></path><path d="M-1.58 1.48 C6.14 1.3, 10.99 -1.61, 21.71 -0.31 M-0.51 0.64 C6.85 0.87, 14.98 1.05, 22.33 -0.71 M22.34 -0.8 C23.47 2.33, 23.97 6.45, 23.44 9.01 M23.54 0.47 C23.35 2.93, 23.08 6.14, 23.1 9.71 M24.52 9.84 C14.61 10.54, 10.06 9.95, -0.58 9.64 M23.65 9.75 C14.85 8.82, 6.54 9.57, 0.24 9.4 M-0.19 9.24 C-0.55 7.61, -0.23 3.9, 0.39 -0.38 M0.21 9.9 C0.19 6.05, -0.22 2.03, -0.03 -0.47" stroke="#000000" stroke-width="4" fill="none"></path></g><g stroke-linecap="round" transform="translate(67.16268909169048 350.1794065658719) rotate(114.07033390449179 26.347799192470575 8.220526295455898)"><path d="M0.45 0.15 L52.5 -0.56 L52.35 16.63 L0.24 16.24" stroke="none" stroke-width="0" fill="#e22237"></path><path d="M0 0 C14.02 0.41, 27.39 -1.05, 52.7 0 M0 0 C11.42 -0.5, 23.51 0.26, 52.7 0 M52.7 0 C53.45 3.17, 52.17 7.93, 52.7 16.44 M52.7 0 C52.34 3.62, 52.36 7.31, 52.7 16.44 M52.7 16.44 C35.34 15.68, 16.78 16.99, 0 16.44 M52.7 16.44 C31.69 16.53, 10.71 16.51, 0 16.44 M0 16.44 C0.58 11.77, -0.73 7.26, 0 0 M0 16.44 C-0.01 11.45, -0.03 5.65, 0 0" stroke="#000000" stroke-width="4" fill="none"></path></g><g stroke-linecap="round" transform="translate(196.4272873014197 346.07059265028283) rotate(60.03742484581159 27.715099819023635 7.598411570925634)"><path d="M-0.2 -0.56 L55.08 0.19 L55.67 15 L-0.14 15.66" stroke="none" stroke-width="0" fill="#e22237"></path><path d="M0 0 C20.78 -1.02, 40.73 -0.32, 55.43 0 M0 0 C17.63 0.56, 35.45 0.57, 55.43 0 M55.43 0 C54.96 4.72, 54.82 9.01, 55.43 15.2 M55.43 0 C55.07 3.54, 55.49 6.5, 55.43 15.2 M55.43 15.2 C41.25 15.74, 29.92 15.47, 0 15.2 M55.43 15.2 C39.64 15.39, 24 15.06, 0 15.2 M0 15.2 C-0.75 10.76, 0.08 5.76, 0 0 M0 15.2 C-0.01 10.73, 0.17 7.02, 0 0" stroke="#000000" stroke-width="4" fill="none"></path></g><g stroke-linecap="round" transform="translate(3.41167285253141 70.71942027645537) rotate(148.93295186096938 57.5999755859375 25.112941277263644)"><path d="M2.75 16.96 C2.75 16.96, 2.75 16.96, 2.75 16.96 M2.75 16.96 C2.75 16.96, 2.75 16.96, 2.75 16.96 M5.09 22.23 C9.67 15.64, 9.45 11.88, 13.88 8.89 M1.99 20.86 C7.66 18.88, 9.04 13.86, 15.61 8.47 M5.79 31.34 C11.63 25.35, 9.92 15.48, 22.83 6.19 M3.32 27.5 C9.57 20.84, 16.36 11.98, 22.69 6.86 M6.4 31.49 C9.32 23.56, 16.49 24.38, 31.3 4.56 M3.62 31.16 C12.17 23.4, 18.49 17.38, 29.01 7.39 M10.7 36.93 C14.87 30.09, 18.32 23.25, 39.04 7.82 M9.31 34.67 C11.44 28.04, 19.37 22.8, 36.88 2.64 M13.03 39.37 C17.85 24.32, 32.62 16.95, 40.81 0.22 M9.48 37.31 C22.87 27.4, 29.79 15.27, 43.03 1.37 M12.66 40.18 C24.65 29.95, 32.28 13.41, 50.83 1.4 M15.55 37.77 C26.67 25.34, 40.49 8.55, 48.26 2.21 M19.7 37.4 C32.19 30.92, 43.15 13.04, 53.38 -3.27 M20.42 39.89 C28.58 30.36, 38.28 17.71, 53.31 -1.25 M22.28 42.24 C27.84 32.12, 42.18 21.24, 61.16 -2.05 M22.86 43.93 C34.11 29.72, 49.84 14.22, 58.52 2.97 M22.98 42.57 C41.21 27.45, 49.34 13.99, 61.22 1.74 M25.25 44.8 C35.97 32.49, 45.17 23.01, 62.91 2.52 M33.41 48.71 C42.34 36.61, 48.38 28.98, 66.79 1.94 M29.38 44.6 C43.75 29.29, 58.15 15.12, 69.31 -0.29 M32.67 46.63 C47.42 31.68, 52.14 21.61, 74.41 0.34 M36.15 48.58 C45.72 37.4, 57.53 25.03, 74.8 1.02 M43.84 49.48 C54.9 37.73, 61.04 21.3, 76.46 2.13 M39.33 47.39 C53.87 30.69, 68.38 18.46, 80.36 3.34 M47.86 48.09 C58.15 33.46, 70.64 18.53, 81.64 3.41 M44.68 46.37 C56.66 35.69, 69.02 20.73, 84.73 4.21 M47.95 49.93 C62.37 35.88, 66.97 31.83, 86.83 3.5 M47.65 47.27 C65.31 31.55, 78.72 17.01, 89.44 4.87 M56.84 52.17 C67.56 35.45, 85.37 12.17, 90.88 6.84 M53.79 47.98 C65.6 38.7, 71.86 27.74, 93.87 6.95 M57.3 49.65 C66.64 36.27, 79.17 27.9, 99.14 10.57 M60.59 49.32 C69.52 39.14, 74.3 30.63, 97.05 6.75 M69.2 46.88 C70.2 35.25, 77.98 28.03, 103.29 8.73 M65.77 49.79 C78.69 35.63, 89.27 21.84, 98.68 10.21 M68.78 51.54 C85.87 34.94, 94.59 15.99, 99.85 14.05 M71.82 49.78 C81.3 36.21, 89.88 25, 102.99 9.47 M75.09 51.73 C82.57 38.41, 88.42 28.19, 107.31 8.19 M77.67 47.61 C85.66 35.72, 98.34 23.21, 109.03 11.81 M84.51 49.21 C87.01 38, 93.46 37.46, 108.04 16.73 M82.42 47.5 C89.47 39.29, 100.54 29.2, 109.87 13.46 M89.2 49.18 C97.12 38.95, 106.03 32.52, 109.35 14.88 M89.16 44.07 C97.6 36.03, 103.81 28.04, 110.89 20.01 M94.42 43.51 C102.09 38.66, 108.21 24.3, 118.04 17.83 M95.38 44.4 C103.26 34.54, 110.32 26.81, 117.62 19.51 M4.34 33.11 C4.34 33.11, 4.34 33.11, 4.34 33.11 M4.34 33.11 C4.34 33.11, 4.34 33.11, 4.34 33.11 M20.95 41.49 C14.89 34.93, 5.93 33.84, 6.67 31.05 M20 43.46 C16.2 35.71, 9.91 32.92, 2.34 26.41 M28.35 43.2 C20.97 35.14, 13.98 29.36, 2.65 19.04 M27.39 43.02 C17.32 35.67, 6.5 24.65, 2.7 22.42 M39.8 44.74 C28.92 41.38, 21.6 31.29, 3.56 17.55 M37.4 47.31 C23.87 32.63, 11.77 25.42, 3.53 14.56 M44.03 50.46 C35.04 33.61, 14.82 20.98, 7.41 11.2 M43.89 48.23 C33.78 38.51, 22.17 29.01, 5.43 15.46 M46.65 46.87 C33.32 31.03, 16.63 20.63, 11.15 13.94 M51.91 44.54 C34.48 33.26, 18.8 19.8, 10.91 11.02 M59.53 47.74 C41.35 32, 33.27 26.72, 13.63 8.24 M53.66 44.08 C40.21 33.2, 25.33 19.11, 14.15 8.7 M61.64 49.39 C46.17 30.47, 36.4 24.08, 16.14 2.85 M60.27 44.41 C51.07 36.51, 39.6 29.29, 16.23 8.72 M68.9 45.15 C50.48 34.01, 37.67 19.71, 17.9 5.36 M66.26 44.46 C51.7 33.11, 40.49 21.76, 19.41 5.71 M70.14 49.79 C53.15 30.71, 37.54 15.05, 21.04 4.02 M72.34 46.26 C66.67 37.32, 56.76 28.75, 26.88 3.85 M82.12 44.12 C66.06 30.9, 51.26 19.56, 29.61 0.25 M83.11 48.75 C64.38 29.67, 46.09 13.2, 28.47 2.66 M86.76 41.47 C73.77 37.37, 64.18 23.36, 33.6 1.14 M87.07 43.51 C74.24 33.18, 61.3 22.97, 35.42 2.67 M93.17 45.44 C73.79 28.97, 56.33 15.91, 42.88 -1.4 M89.44 41.79 C71.91 30.15, 53.99 14.81, 41.15 1.87 M92.13 38.45 C80.05 28.82, 69.06 20.41, 42.79 -2.14 M93.31 44.28 C77.39 28.43, 57.43 9.81, 43.48 -2.53 M99.56 42.3 C83.48 31.96, 71.73 13.6, 44.82 -2.68 M97.95 38.95 C82.95 29.94, 67.47 14.05, 50.16 -1.01 M100.61 38.59 C87.17 29.4, 81.15 20.28, 54.63 -2.99 M101.54 38.69 C91.25 29.03, 76.32 18.66, 53.61 -2.08 M106.05 34.58 C91.1 27.59, 79.42 13.4, 58.57 -4.83 M108.41 36.42 C87.69 23.63, 71.56 6.25, 60.14 -2.36 M106.32 34.41 C93.27 21.84, 79.94 6.2, 66.62 -0.65 M109.83 33.6 C98.45 23.35, 89.13 17.45, 67.72 -2.3 M114.59 34.1 C100.1 19.55, 88.71 10.4, 73.73 -3.07 M109.72 32.46 C98.06 19.73, 87.02 8.34, 74.02 -2.39 M113.15 26.27 C106.3 22.89, 98.24 19.37, 81.51 1.57 M113.92 25.9 C105.24 21.11, 102.29 16.5, 84.85 0.56 M117.47 24.49 C113.96 16.29, 103.6 14.76, 97.98 6.47 M116.94 23.23 C111.7 19.63, 106.11 14.27, 92.7 3.89" stroke="#e22237" stroke-width="0.5" fill="none"></path><path d="M47.07 -0.73 C56.83 -1.64, 72.28 -1.12, 82.28 0.89 C92.28 2.9, 101.29 7.63, 107.06 11.34 C112.83 15.04, 117.25 18.53, 116.9 23.12 C116.54 27.71, 111.05 34.8, 104.95 38.87 C98.85 42.94, 89.74 45.93, 80.28 47.51 C70.82 49.09, 58.06 49.13, 48.19 48.33 C38.32 47.53, 28.37 45.25, 21.06 42.71 C13.74 40.17, 7.36 37.35, 4.29 33.07 C1.23 28.8, 0.09 21.72, 2.66 17.06 C5.23 12.4, 11.23 7.7, 19.7 5.1 C28.18 2.49, 46.16 2.04, 53.52 1.43 C60.88 0.82, 63.55 1.31, 63.84 1.45 M72.89 -0.37 C82.77 0.67, 94.12 7.28, 101.12 10.42 C108.11 13.56, 113.12 14.24, 114.87 18.47 C116.63 22.69, 115.81 31.32, 111.63 35.77 C107.45 40.23, 98.67 42.54, 89.78 45.2 C80.9 47.87, 68.81 52.03, 58.33 51.77 C47.86 51.5, 35.51 46.19, 26.93 43.6 C18.34 41.02, 11.33 40.16, 6.83 36.25 C2.32 32.34, -1.06 24.62, -0.1 20.15 C0.86 15.69, 5.65 12.74, 12.58 9.46 C19.5 6.19, 31.42 1.69, 41.45 0.5 C51.48 -0.69, 67.44 2.27, 72.76 2.33 C78.08 2.38, 73.77 0.92, 73.39 0.83" stroke="#000000" stroke-width="1" fill="none"></path></g><g stroke-linecap="round" transform="translate(39.53353121020609 107.16222620256895) rotate(148.93295186096938 32.69935958045744 2.48707251725628)"><path d="M35.02 0.8 C41.69 0.84, 50.51 0.34, 55.62 0.52 C60.73 0.7, 64.9 1.39, 65.68 1.88 C66.47 2.37, 64.55 2.86, 60.32 3.44 C56.09 4.01, 47.12 5.07, 40.32 5.34 C33.52 5.61, 25.67 5.44, 19.5 5.05 C13.34 4.66, 6.48 3.53, 3.34 2.98 C0.2 2.44, -0.92 2.36, 0.69 1.78 C2.29 1.2, 6.07 -0.31, 12.96 -0.51 C19.86 -0.7, 36.58 0.47, 42.05 0.6 C47.52 0.73, 46.03 0.26, 45.76 0.29 M31.22 -0.14 C38.14 -0.33, 47.5 -0.73, 52.95 -0.53 C58.4 -0.32, 62.56 0.33, 63.93 1.1 C65.3 1.87, 64.33 3.67, 61.16 4.1 C57.99 4.52, 51.24 3.66, 44.9 3.64 C38.57 3.63, 29.93 3.82, 23.16 4.02 C16.38 4.21, 8.11 5.17, 4.24 4.82 C0.37 4.47, -0.79 2.7, -0.05 1.93 C0.68 1.16, 3.44 0.68, 8.65 0.21 C13.86 -0.27, 27.7 -0.67, 31.21 -0.91 C34.72 -1.15, 29.66 -1.63, 29.72 -1.24" stroke="none" stroke-width="0" fill="#292929"></path><path d="M18.81 -0.38 C24.85 -0.55, 34.22 -0.01, 41.06 0.08 C47.91 0.16, 55.95 -0.32, 59.88 0.14 C63.8 0.6, 65.36 2.19, 64.62 2.84 C63.89 3.49, 60.34 3.82, 55.48 4.03 C50.61 4.25, 42.19 4.16, 35.44 4.12 C28.68 4.08, 20.49 3.89, 14.96 3.78 C9.42 3.68, 4.22 3.99, 2.22 3.51 C0.23 3.02, -0.47 1.54, 2.99 0.88 C6.44 0.21, 18.98 -0.47, 22.96 -0.49 C26.94 -0.5, 26.57 0.57, 26.87 0.78 M29.64 0.36 C36.24 0.11, 45.57 -0.61, 51.39 -0.2 C57.2 0.21, 62.68 2.44, 64.52 2.84 C66.37 3.23, 65.38 1.79, 62.48 2.15 C59.58 2.51, 53.47 4.61, 47.12 4.99 C40.77 5.38, 31.26 4.5, 24.39 4.45 C17.51 4.4, 9.94 5.28, 5.89 4.68 C1.84 4.08, -0.66 1.49, 0.08 0.87 C0.82 0.24, 5.38 1.23, 10.31 0.94 C15.24 0.66, 26.45 -0.73, 29.64 -0.83 C32.84 -0.93, 29.31 0.21, 29.47 0.34" stroke="#000000" stroke-width="4" fill="none"></path></g><g stroke-linecap="round"><g transform="translate(70.31059814744276 111.60003662109375) rotate(0 4 7.199981689453125)"><path d="M-1.1 -1.06 C0.16 1.43, 6 12.46, 7.39 15.17 M0.52 1 C2.19 3.12, 8.24 11.4, 9.78 13.45" stroke="#000000" stroke-width="4" fill="none"></path></g></g><mask></mask><g stroke-linecap="round" transform="translate(42.054189097159906 61.361199082891744) rotate(326.97618174001525 5.45642125731365 5.038840589959591)"><path d="M1.3 -1.34 L10.22 -1.06 L9.72 10.76 L-1.37 8.58" stroke="none" stroke-width="0" fill="#868e96"></path><path d="M0.7 -0.7 C2.99 0.06, 5.47 -0.89, 10.14 0.22 M-0.46 0.2 C1.88 0.59, 4.78 0.23, 10.58 0.07 M11.89 0.44 C10.65 2.29, 11.09 4.63, 11.15 9.98 M10.97 -0.47 C11.16 2.67, 11.01 5.02, 10.92 10.34 M11.07 9.86 C7.07 9.74, 4.65 10.39, -0.22 9.93 M10.71 9.79 C7.56 9.95, 3.24 10.28, -0.21 10.53 M0.63 10.39 C0.36 6.97, -0.34 4.93, -0.99 -0.96 M0 10.11 C0.18 6.19, -0.35 2.36, 0.25 -0.05" stroke="#000000" stroke-width="4" fill="none"></path></g><g stroke-linecap="round" transform="translate(179.51054931931776 67.2870526192205) rotate(214.82415353254422 57.5999755859375 25.112941277263644)"><path d="M5.34 13.92 C5.34 13.92, 5.34 13.92, 5.34 13.92 M5.34 13.92 C5.34 13.92, 5.34 13.92, 5.34 13.92 M1.57 19.44 C5.53 16.94, 6.31 17.81, 13.75 9.13 M2.79 20.96 C4.64 20.12, 9.45 18.1, 15 8.71 M3.82 32.9 C9.9 23.95, 10.04 19.18, 23.33 6.88 M0.72 29.05 C6.32 25.36, 10.45 18.73, 21.44 6.1 M4.86 30.52 C13.61 20.56, 18.94 11.64, 26.09 3.25 M2.79 33.55 C14.62 24.26, 22.2 13.84, 29.89 4.59 M2.93 38.82 C12.06 26.84, 25.11 9.84, 32.52 5.44 M7.27 38.35 C13.37 28.61, 23.16 17.39, 33.84 5.45 M10.6 37.8 C16.08 24.87, 29.33 19, 42.34 -0.24 M9.57 40.43 C18.37 27.97, 28.6 17.57, 42.03 1.9 M14.75 40.4 C22.53 34.31, 25.22 20.09, 48.04 2.68 M11.83 44.43 C20.48 34.25, 25.58 26.14, 47.64 4.79 M15.74 44.95 C25.41 38.37, 30.38 26.04, 53.46 2.6 M15.26 41.91 C26.19 33.82, 34.61 21.53, 52.08 3.18 M23.33 48.48 C25.67 36.06, 39.87 23.43, 60.27 5.59 M21.38 43.36 C33.1 27.89, 45.08 16.46, 56.72 0.77 M23.7 46.2 C32.94 32.5, 44.38 26.46, 59.81 3.15 M24.26 44.42 C38.04 34.59, 47.65 23.53, 63.98 2.42 M32.75 43.22 C48.14 26.76, 57.22 10.46, 68.24 1.19 M29.07 44.39 C45.88 28.54, 59.89 13.79, 65.73 1.93 M33.83 44.08 C39.58 39.24, 55.42 27.5, 76.35 6.04 M35.05 46.49 C47.74 33.18, 63.22 17.56, 74.36 2.72 M40.97 46.24 C51.15 32.88, 63.54 22.5, 74.8 7.7 M40.03 46.11 C50.86 33.12, 66.53 15.76, 77.26 3.91 M43.37 47.09 C54.33 37.29, 61.75 24.07, 85.23 4.36 M42.11 48.55 C53.32 34.84, 67.02 23.43, 81.18 3.53 M50.51 46.66 C62.97 29.29, 76.25 17.01, 84.11 6.62 M50.09 50.5 C58.99 37.44, 72.4 22.41, 89.34 5.51 M52.08 48.44 C65.07 37.88, 69.62 32.18, 94.58 1.76 M52.58 47.6 C67.69 31.95, 81.1 16.04, 90.5 6.7 M56.44 52.58 C70 40.34, 77.67 31.09, 96.27 3.71 M57.76 50.39 C74.28 35.87, 85.73 15.94, 94.06 5.63 M66.41 47.65 C76.54 39.22, 85.73 28.84, 101.78 8.6 M66.38 50.82 C76.32 33.28, 92.11 21, 99.76 8.73 M70.49 52.15 C79.8 42.75, 87.78 32.87, 103.9 7.72 M68.3 50.51 C81.8 35.43, 96.34 21.04, 102.17 10.07 M76.66 47.97 C79.75 45.33, 87.56 30.75, 105.4 13.5 M73.46 48.99 C82.78 41.65, 91.35 30.46, 105.71 12.17 M80.91 44.46 C96.23 37.15, 102.4 20.7, 112.23 18.87 M81.67 46.45 C90.37 38.26, 101.75 27.74, 111.14 15.97 M89.04 48.37 C101.28 36.31, 104.15 28.23, 110.68 19.36 M89.74 44.5 C96.19 36.86, 103.11 28.99, 113.9 17.79 M95.89 44.9 C98.62 37.58, 106.5 35.43, 111.8 24.69 M95.86 45.92 C98.46 40.76, 102.47 35.41, 113.87 23.63 M101.07 45.38 C108.4 38.87, 109.04 33.46, 118.05 29.02 M100.64 45.15 C104.07 40.83, 109.93 33.22, 115.19 26.17 M11.85 42.77 C11.85 42.77, 11.85 42.77, 11.85 42.77 M11.85 42.77 C11.85 42.77, 11.85 42.77, 11.85 42.77 M23.7 45.95 C17.32 37.42, 10.44 35.62, 3.5 26.31 M18.83 44.68 C16.17 42.37, 11.18 37.76, 3.9 30.16 M29.68 41.41 C18.21 39.67, 15.57 30.27, -0.36 23.26 M27.8 44.68 C19.59 36.49, 10.26 30.64, 2.09 22.99 M35 46.04 C32.09 38.75, 24.15 36.29, 5.33 20.85 M36.23 46.44 C22.17 35.74, 12.48 26.44, 3.01 18.05 M44.85 50.63 C27.11 41.94, 14.78 27.59, 6.08 13.92 M41.11 47.05 C28.8 39.89, 20.32 26.41, 3.15 15.19 M50.62 49.94 C31.12 32.53, 19.05 27.44, 11.59 16.52 M47.61 48.45 C30.97 33.67, 18.21 19.58, 5.91 13.59 M51.62 49.19 C40 30.56, 21.11 21.68, 11.19 10.34 M53.57 49.2 C36.43 34.48, 20.24 17.59, 11.87 9.47 M59.83 46.64 C47.86 35.63, 36.56 26.08, 15.9 11.94 M61 48.27 C42.38 31.15, 27.9 17.15, 15.47 8.54 M62.13 44.02 C50.49 31.4, 37.7 25.49, 19.93 10.51 M65.07 48.71 C48.33 35.24, 34.02 20.94, 17.38 5.02 M74.61 46.39 C59.52 42.54, 56.37 32.19, 22.13 7.07 M71.09 46.83 C61.35 38.66, 48.13 27.82, 24.63 6.09 M76.25 44.68 C67.44 39.18, 48.02 26.3, 24.55 5.63 M79.06 47.88 C63.41 37.94, 51.12 25.03, 27.96 4.32 M85.21 44.77 C65.13 29.84, 41.83 13.46, 36.65 2.36 M82.63 44.5 C61.85 29.16, 41.45 12.88, 32.74 4.06 M90.33 48.04 C69.28 26.74, 54.67 15.92, 41.55 1.46 M87.38 46.43 C74.86 34.64, 65.28 23.36, 40.03 2.58 M93.12 46.53 C85.65 33.06, 66.72 24.73, 47.06 2.24 M91.54 44.97 C77.55 32.94, 66.46 21.01, 44.28 2.38 M96.01 44.12 C80.2 26.31, 63.48 16.19, 51.16 -1.63 M97.01 43.39 C81.41 27.7, 61.81 11.11, 49.61 -0.29 M105.86 45.01 C95.41 35.65, 80.18 20.83, 56.5 1.01 M103.61 42.65 C93.85 31.61, 82.24 23.16, 55.08 0.96 M103.16 40.27 C96.9 33.06, 85.15 22.31, 57.14 2.65 M105.04 37.22 C87.58 26.6, 74.83 10.53, 60.12 -0.3 M108.37 34.22 C93.01 22.99, 89 12.55, 67.59 -1.09 M105.96 34.71 C97.83 27.32, 88.65 18.89, 68.36 -0.21 M106.63 35.05 C94.49 21.39, 79.61 5.26, 72.99 4.46 M109.43 31.74 C96.93 23.55, 86.84 14.46, 72.59 0.5 M109.45 29.28 C99.73 22.84, 90.77 13.12, 80.19 0.09 M113.42 29.6 C108.04 25.83, 99.42 17.96, 80.49 0.88 M118.31 26.26 C109.04 20.97, 103.23 14.12, 93.46 5.9 M117.05 28.09 C107.65 22.37, 103.65 15.88, 89.18 6.15 M112.48 17.35 C108.43 16.73, 107.84 13.45, 102.11 12.13 M111.82 17.64 C108.58 17.28, 107.36 14.1, 102.92 9.76" stroke="#e22237" stroke-width="0.5" fill="none"></path><path d="M56.62 0.4 C65.9 0.31, 78.7 1.62, 87.33 3.75 C95.96 5.88, 103.73 9.25, 108.39 13.18 C113.05 17.11, 116.24 22.47, 115.28 27.33 C114.32 32.19, 109.53 38.89, 102.64 42.34 C95.74 45.79, 84.14 47.1, 73.9 48.04 C63.66 48.97, 51.55 48.82, 41.22 47.95 C30.89 47.08, 18.37 45.92, 11.92 42.83 C5.46 39.73, 3.62 34.14, 2.47 29.38 C1.33 24.62, 0.9 18.57, 5.05 14.26 C9.2 9.94, 13.94 5.38, 27.37 3.48 C40.81 1.59, 72.9 1.47, 85.67 2.88 C98.43 4.29, 104.3 11.49, 103.98 11.93 M12.01 9.16 C17.07 5.68, 27.97 5.01, 37.6 3.11 C47.24 1.22, 59.46 -3, 69.82 -2.21 C80.17 -1.43, 92.47 4.43, 99.72 7.82 C106.97 11.21, 111.51 13.69, 113.31 18.13 C115.1 22.58, 113.91 30.07, 110.49 34.49 C107.07 38.91, 101 41.79, 92.79 44.63 C84.57 47.48, 71.61 51.24, 61.22 51.56 C50.83 51.88, 39.67 49.22, 30.45 46.55 C21.23 43.88, 10.53 39.52, 5.88 35.54 C1.22 31.57, 1.69 26.74, 2.53 22.7 C3.37 18.65, 9.44 12.91, 10.9 11.27 C12.36 9.63, 10.65 13.22, 11.28 12.84" stroke="#000000" stroke-width="1" fill="none"></path></g><g stroke-linecap="round" transform="translate(196.3830073042218 105.79916421305961) rotate(214.82415353254422 32.69935958045744 2.48707251725628)"><path d="M25.5 0.49 C31.91 0.5, 42.74 0.53, 49.07 0.62 C55.4 0.71, 61.1 0.59, 63.46 1.03 C65.82 1.46, 65.69 2.79, 63.23 3.23 C60.76 3.67, 54.45 3.28, 48.66 3.66 C42.88 4.03, 35.36 5.38, 28.49 5.46 C21.62 5.54, 12.18 4.55, 7.44 4.14 C2.7 3.72, 0.13 3.63, 0.07 2.99 C0.01 2.36, 1.82 0.76, 7.08 0.35 C12.34 -0.07, 26.62 0.42, 31.62 0.49 C36.61 0.55, 37.1 0.82, 37.03 0.72 M23.13 -1.03 C29.52 -1.43, 39.68 -1.2, 45.99 -0.63 C52.3 -0.06, 57.98 1.8, 60.99 2.38 C64.01 2.96, 65.87 2.56, 64.07 2.83 C62.26 3.11, 55.71 3.83, 50.14 4.03 C44.57 4.23, 37.53 4.23, 30.65 4.05 C23.76 3.87, 13.76 2.98, 8.82 2.95 C3.87 2.92, 1.25 4.07, 0.98 3.87 C0.7 3.67, 3.47 2.57, 7.17 1.75 C10.87 0.93, 20.26 -0.71, 23.18 -1.04 C26.1 -1.36, 24.27 -0.64, 24.68 -0.21" stroke="none" stroke-width="0" fill="#292929"></path><path d="M18.01 0.06 C23.84 -0.35, 33.32 -0.79, 40.29 -0.75 C47.27 -0.71, 55.55 -0.34, 59.87 0.29 C64.18 0.92, 66.8 2.47, 66.17 3.03 C65.53 3.58, 61.13 3.41, 56.05 3.64 C50.96 3.86, 42.83 4.1, 35.66 4.36 C28.48 4.63, 18.58 5.36, 12.99 5.23 C7.39 5.1, 3.76 4.22, 2.08 3.57 C0.4 2.92, -1.13 1.93, 2.91 1.31 C6.94 0.69, 21.15 0.08, 26.28 -0.15 C31.41 -0.37, 33.68 -0.14, 33.68 -0.05 M43.94 0.38 C50.38 0.67, 57.4 0.22, 60.92 0.76 C64.44 1.31, 66.16 3.27, 65.04 3.64 C63.91 4.01, 59.34 2.7, 54.17 2.96 C49 3.22, 41.07 5.09, 34.03 5.19 C26.98 5.3, 17.55 3.91, 11.89 3.59 C6.24 3.26, 1.34 3.69, 0.09 3.25 C-1.15 2.82, 0.99 1.38, 4.42 0.99 C7.86 0.59, 14.17 1.06, 20.69 0.86 C27.21 0.67, 39.89 0.08, 43.52 -0.16 C47.15 -0.41, 42.51 -0.65, 42.48 -0.61" stroke="#000000" stroke-width="4" fill="none"></path></g><g stroke-linecap="round"><g transform="translate(220.47004121393275 110.24510500589759) rotate(65.8912016715749 0.5634401993374922 6.619708632240304)"><path d="M-1.05 -0.85 C-0.82 1.01, 1.04 10, 1.36 12.17 M0.61 1.32 C0.69 3.81, 0.63 11.22, 0.54 13.15" stroke="#000000" stroke-width="4" fill="none"></path></g></g><mask></mask><g stroke-linecap="round" transform="translate(253.00430962572864 63.01555195123865) rotate(392.86738341159014 5.45642125731365 5.038840589959591)"><path d="M-0.61 -1.15 L9.17 1.26 L10.59 9.69 L-1.84 9.43" stroke="none" stroke-width="0" fill="#868e96"></path><path d="M-0.97 -0.19 C1.35 -0.94, 5.05 -0.87, 11.89 0.35 M-0.33 -0.51 C3.93 0.52, 7.32 -0.11, 10.84 0.15 M10.47 0.15 C11.6 2.94, 10 6.1, 11.08 10.24 M10.9 -0.47 C11.14 2.8, 10.82 5.18, 10.74 10.17 M11.42 10.27 C7.16 9.65, 3.26 10.93, -0.21 9.85 M10.65 9.62 C7.43 10.51, 3.64 10.32, -0.3 9.84 M0.8 10.6 C-0.56 7.13, 0.16 4.61, -0.14 -0.59 M0.33 9.74 C-0.22 6.94, -0.35 4.5, -0.35 -0.38" stroke="#000000" stroke-width="4" fill="none"></path></g><g stroke-linecap="round" transform="translate(30.936339502641204 104.975207805634) rotate(0 119.21212283047771 119.21212283047777)"><path d="M59.22 18.85 C69.75 10.18, 84.38 3.74, 97.21 0.92 C110.04 -1.91, 123 -0.56, 136.2 1.9 C149.39 4.37, 163.99 8.93, 176.4 15.68 C188.81 22.43, 201.68 32.44, 210.65 42.42 C219.63 52.41, 225.58 63.15, 230.23 75.59 C234.87 88.02, 238.11 103.59, 238.52 117.03 C238.92 130.48, 236.93 143.48, 232.63 156.28 C228.34 169.08, 221.64 183.13, 212.75 193.85 C203.86 204.58, 191.1 213.42, 179.28 220.63 C167.46 227.84, 155.04 234.45, 141.81 237.11 C128.58 239.77, 113.57 238.76, 99.9 236.59 C86.24 234.41, 71.28 230.32, 59.81 224.07 C48.34 217.83, 39.84 209.4, 31.08 199.1 C22.33 188.79, 12.67 175.17, 7.28 162.24 C1.88 149.31, -0.98 135.45, -1.28 121.51 C-1.58 107.57, 0.86 91.67, 5.48 78.58 C10.09 65.49, 15.38 54.31, 26.44 42.95 C37.49 31.58, 61.17 16.26, 71.8 10.38 C82.43 4.51, 89.58 5.93, 90.22 7.68 M214.5 48.13 C223.4 57.21, 227.52 71.45, 231.98 84.61 C236.43 97.77, 242.16 113.46, 241.23 127.1 C240.3 140.74, 232.57 154.1, 226.4 166.46 C220.23 178.81, 212.96 191.95, 204.21 201.23 C195.45 210.51, 185.74 215.93, 173.86 222.13 C161.98 228.33, 146.42 235.76, 132.94 238.44 C119.47 241.12, 106.31 241.22, 93 238.2 C79.7 235.19, 64.06 228.3, 53.14 220.34 C42.22 212.38, 35.21 201.1, 27.5 190.45 C19.79 179.81, 11.73 169.53, 6.87 156.49 C2.01 143.44, -2.37 125.86, -1.66 112.2 C-0.95 98.54, 5.75 87.08, 11.15 74.51 C16.55 61.93, 21.77 47.17, 30.75 36.75 C39.73 26.32, 53.36 18.38, 65.04 11.98 C76.72 5.58, 87.59 -0.42, 100.82 -1.66 C114.05 -2.89, 130.5 1.68, 144.41 4.57 C158.33 7.46, 172.73 8.3, 184.33 15.69 C195.93 23.07, 209.83 43.43, 214.02 48.89 C218.22 54.35, 210.99 47.63, 209.5 48.42" stroke="none" stroke-width="0" fill="#e22237"></path><path d="M32.43 40.06 C39.65 29.27, 52.01 19.4, 63.76 12.72 C75.51 6.03, 89.85 1.4, 102.91 -0.05 C115.98 -1.5, 128.58 0.85, 142.16 4.02 C155.73 7.2, 172.58 12.08, 184.36 19.01 C196.14 25.94, 204.7 35.09, 212.83 45.59 C220.96 56.09, 228.81 69.06, 233.15 82 C237.48 94.94, 239.53 109.51, 238.82 123.21 C238.11 136.91, 233.82 151.51, 228.86 164.19 C223.91 176.86, 218.36 189.04, 209.1 199.24 C199.84 209.44, 185.47 219, 173.3 225.39 C161.13 231.78, 149.35 235.84, 136.11 237.58 C122.86 239.33, 106.99 238.74, 93.81 235.85 C80.64 232.96, 68.78 227.29, 57.04 220.22 C45.31 213.16, 31.88 204.24, 23.39 193.47 C14.9 182.71, 10.19 168.82, 6.12 155.63 C2.05 142.44, -1.54 127.76, -1.04 114.32 C-0.55 100.89, 3.07 88.37, 9.07 75.02 C15.07 61.66, 29.32 41.38, 34.95 34.21 C40.58 27.03, 41.44 30.63, 42.84 31.96 M58.73 17.34 C68.37 9.76, 83.82 7.38, 97.06 4.36 C110.31 1.34, 124.4 -2.99, 138.21 -0.77 C152.02 1.45, 167.74 10.37, 179.92 17.7 C192.1 25.02, 203.03 33.33, 211.29 43.19 C219.54 53.06, 224.97 64.76, 229.47 76.9 C233.96 89.03, 238.41 101.8, 238.24 116 C238.07 130.2, 232.79 149.15, 228.46 162.1 C224.13 175.04, 220.48 183.59, 212.26 193.65 C204.03 203.72, 190.87 215.41, 179.09 222.49 C167.3 229.57, 155.22 233.87, 141.55 236.16 C127.87 238.45, 110.41 238.53, 97.03 236.22 C83.66 233.91, 72.48 229.34, 61.31 222.31 C50.14 215.28, 39.19 204.65, 30.01 194.04 C20.84 183.44, 11.55 170.92, 6.25 158.66 C0.95 146.41, -1.59 134.22, -1.79 120.52 C-1.99 106.82, 0.27 89.7, 5.03 76.46 C9.8 63.22, 18.17 50.82, 26.79 41.08 C35.41 31.34, 51.2 21.92, 56.75 18.01 C62.3 14.09, 59.11 16.35, 60.08 17.59" stroke="#000000" stroke-width="4" fill="none"></path></g><g stroke-linecap="round" transform="translate(39.70664656686586 112.77106108962698) rotate(0 111.41623609016278 111.41623609016301)"><path d="M161.21 13.76 C173.77 18.59, 187.41 29.98, 196.7 39.65 C205.99 49.33, 212.86 59.43, 216.96 71.82 C221.06 84.21, 221.8 100.2, 221.31 113.97 C220.83 127.74, 218.64 141.82, 214.07 154.42 C209.51 167.02, 203.09 180.07, 193.91 189.55 C184.73 199.04, 171.34 205.81, 158.98 211.32 C146.61 216.83, 132.96 221.75, 119.72 222.6 C106.49 223.45, 92.29 220.37, 79.57 216.4 C66.85 212.44, 54.31 206.93, 43.4 198.8 C32.5 190.66, 21.16 178.94, 14.13 167.6 C7.1 156.25, 3.33 143.92, 1.22 130.74 C-0.89 117.55, -1 101.7, 1.48 88.49 C3.95 75.29, 8.35 62.46, 16.05 51.51 C23.76 40.56, 36.65 30.75, 47.69 22.81 C58.72 14.86, 69.78 7.53, 82.24 3.85 C94.71 0.17, 107.13 -1.65, 122.48 0.74 C137.83 3.12, 163.92 13.38, 174.35 18.16 C184.78 22.95, 186.14 27.45, 185.07 29.47 M155.71 11.65 C168.06 15.73, 181.33 23.86, 190.97 33.02 C200.6 42.19, 208.39 54.46, 213.52 66.64 C218.65 78.83, 220.59 92.55, 221.74 106.15 C222.9 119.75, 224.88 135.39, 220.43 148.23 C215.99 161.06, 204.5 172.96, 195.08 183.18 C185.67 193.41, 175.16 203.66, 163.94 209.59 C152.73 215.52, 140.86 216.84, 127.77 218.78 C114.69 220.73, 98.51 223.26, 85.4 221.25 C72.3 219.25, 60.35 214.27, 49.16 206.75 C37.96 199.23, 25.4 187.76, 18.22 176.12 C11.05 164.49, 8.77 149.83, 6.1 136.94 C3.43 124.06, 1.27 112.2, 2.19 98.81 C3.1 85.41, 5.09 68.46, 11.59 56.57 C18.1 44.68, 30.8 36.18, 41.22 27.46 C51.64 18.74, 61.64 9.06, 74.11 4.24 C86.59 -0.59, 103.02 -1.82, 116.06 -1.49 C129.1 -1.16, 146.07 3.84, 152.35 6.2 C158.62 8.57, 153.78 11.05, 153.7 12.72" stroke="none" stroke-width="0" fill="#fff"></path><path d="M33.99 30.55 C41.64 20.09, 55.86 12.65, 67.8 7.8 C79.73 2.96, 91.93 1.61, 105.62 1.48 C119.31 1.35, 137 2.92, 149.93 7.05 C162.86 11.17, 173.2 17.76, 183.19 26.23 C193.18 34.7, 203.35 46.07, 209.89 57.87 C216.42 69.67, 220.92 83.62, 222.4 97.04 C223.87 110.46, 221.79 125.3, 218.72 138.4 C215.64 151.5, 211.82 164.54, 203.95 175.63 C196.09 186.71, 182.83 197.45, 171.52 204.93 C160.2 212.4, 148.95 217.68, 136.07 220.46 C123.19 223.25, 107.38 223.69, 94.23 221.63 C81.08 219.56, 69.03 214.6, 57.17 208.08 C45.3 201.57, 31.64 193.01, 23.06 182.54 C14.48 172.07, 9.69 158.3, 5.69 145.27 C1.69 132.24, -1.72 117.6, -0.94 104.35 C-0.16 91.1, 1.2 80.62, 10.37 65.79 C19.55 50.95, 42.45 25.09, 54.1 15.36 C65.76 5.62, 79.36 5.87, 80.31 7.38 M54.85 16.29 C64.41 8.91, 79.78 6.58, 92.9 3.86 C106.02 1.15, 120.04 -2.74, 133.57 -0.01 C147.1 2.72, 162.49 12.32, 174.08 20.26 C185.68 28.2, 195.86 37.24, 203.13 47.65 C210.41 58.06, 214.61 70.33, 217.73 82.71 C220.85 95.09, 223.65 107.99, 221.84 121.92 C220.02 135.84, 212.86 154.28, 206.83 166.27 C200.79 178.26, 195.33 185.5, 185.65 193.88 C175.96 202.27, 161.39 211.84, 148.72 216.59 C136.05 221.34, 123.31 222.87, 109.61 222.38 C95.9 221.9, 78.83 218.86, 66.48 213.68 C54.13 208.5, 44.54 200.88, 35.5 191.3 C26.46 181.72, 18.3 168.6, 12.25 156.21 C6.2 143.82, 0.67 129.83, -0.81 116.95 C-2.29 104.07, -0.49 91.82, 3.38 78.92 C7.24 66.02, 13.86 50.46, 22.39 39.53 C30.92 28.6, 49.3 16.78, 54.56 13.34 C59.83 9.9, 52.98 17.09, 53.98 18.88" stroke="#000000" stroke-width="4" fill="none"></path></g><g stroke-linecap="round"><g transform="translate(151.0817078212267 160.56276136567203) rotate(0 0.12879149840273385 37.831486044470296)"><path d="M3.58 1.28 C1.59 13.92, 1.19 30.32, -3.48 78.48 M-0.25 0.55 C0.37 30.54, 0.68 59.28, 0.55 76.98" stroke="#000000" stroke-width="4" fill="none"></path></g></g><mask></mask><g stroke-linecap="round"><g transform="translate(174.287361995247 224.18659781701217) rotate(113.07234683558902 1.223903100094958 22.081695098016155)"><path d="M0.49 -1.22 C1.2 8.62, -0.38 21.06, 4.4 45.04 M-0.2 0.24 C0.54 12.06, 1.47 25.66, 2.57 43.24" stroke="#000000" stroke-width="4" fill="none"></path></g></g><mask></mask><g stroke-linecap="round"><g transform="translate(157.57478312284456 317.9230677026112) rotate(359.8683043500925 -0.004154822363943822 7.397525051971002)"><path d="M-0.34 0.07 C-0.42 2.43, -0.46 11.74, -0.34 14.28 M0.49 -0.37 C0.57 2.03, 0.77 12.23, 0.72 14.72" stroke="#000000" stroke-width="4" fill="none"></path></g></g><mask></mask><g stroke-linecap="round"><g transform="translate(151.272686842065 113.24088117751444) rotate(179.00284108061678 -0.004154822363943822 7.397525051971002)"><path d="M-0.33 -0.51 C-0.21 2.03, 0.29 12.79, 0.38 15.33 M0.5 0.41 C0.61 2.81, 0.23 12.17, 0.15 14.64" stroke="#000000" stroke-width="4" fill="none"></path></g></g><mask></mask><g stroke-linecap="round"><g transform="translate(210.88026427533623 299.61091975381487) rotate(332.96017645332864 -0.004154822363943822 7.397525051971002)"><path d="M0.39 0.54 C0.48 3.07, 0.31 12.3, 0.23 14.7 M-0.08 0.34 C-0.01 3, -0.01 12.81, -0.07 15.35" stroke="#000000" stroke-width="4" fill="none"></path></g></g><mask></mask><g stroke-linecap="round"><g transform="translate(170.54305378762547 331.95868568165315) rotate(0 -0.19513223826379544 -2.66027461568342)"><path d="M0.16 -0.06 C0.04 -0.99, -0.33 -4.36, -0.44 -5.22 M-0.19 -0.4 C-0.38 -1.29, -0.65 -5.06, -0.74 -5.8" stroke="#000000" stroke-width="4" fill="none"></path></g></g><mask></mask><g stroke-linecap="round"><g transform="translate(181.1872000712101 329.7855681951537) rotate(350.0134734660105 -0.1597952472770885 -2.8153537047768395)"><path d="M-0.04 0.1 C-0.14 -0.82, -0.34 -4.57, -0.39 -5.55 M-0.5 -0.16 C-0.65 -1.18, -0.69 -5.24, -0.71 -6.13" stroke="#000000" stroke-width="4" fill="none"></path></g></g><mask></mask><g stroke-linecap="round"><g transform="translate(192.36565935047201 324.75950925814186) rotate(350.0134734660105 -0.22440507658984643 -2.1127395904193236)"><path d="M-0.07 0.08 C-0.14 -0.66, -0.43 -3.7, -0.48 -4.38 M-0.54 -0.18 C-0.65 -0.89, -0.77 -3.28, -0.78 -4.01" stroke="#000000" stroke-width="4" fill="none"></path></g></g><mask></mask><g stroke-linecap="round"><g transform="translate(201.78097455316038 319.5437487327904) rotate(345.5522046289154 -0.2258918282727791 -1.691590872992606)"><path d="M-0.03 -0.15 C-0.09 -0.69, -0.34 -2.56, -0.4 -3.15 M-0.48 0.53 C-0.57 -0.11, -0.63 -2.98, -0.65 -3.65" stroke="#000000" stroke-width="4" fill="none"></path></g></g><mask></mask><g stroke-linecap="round"><g transform="translate(247.09941975643324 258.3144491243106) rotate(296.85596947415047 -0.004154822363943822 7.397525051971002)"><path d="M0.08 0.36 C0.1 2.78, 0.03 11.86, 0.06 14.29 M-0.54 0.07 C-0.59 2.56, -0.43 12.15, -0.34 14.72" stroke="#000000" stroke-width="4" fill="none"></path></g></g><mask></mask><g stroke-linecap="round"><g transform="translate(221.25452904772192 307.0393291443461) rotate(332.6994962329149 -0.19513223826379544 -2.66027461568342)"><path d="M0.04 -0.33 C0 -1.25, -0.17 -4.41, -0.23 -5.26 M-0.36 0.27 C-0.45 -0.78, -0.4 -4.96, -0.43 -5.85" stroke="#000000" stroke-width="4" fill="none"></path></g></g><mask></mask><g stroke-linecap="round"><g transform="translate(230.44072572521145 300.78404224728683) rotate(322.71296969892546 -0.1597952472770885 -2.8153537047768395)"><path d="M0.16 0.06 C0.11 -0.84, -0.18 -4.82, -0.26 -5.73 M-0.18 -0.22 C-0.28 -1.04, -0.45 -4.37, -0.51 -5.34" stroke="#000000" stroke-width="4" fill="none"></path></g></g><mask></mask><g stroke-linecap="round"><g transform="translate(238.06007817133195 290.3783521438522) rotate(322.71296969892546 -0.22440507658984643 -2.1127395904193236)"><path d="M0.06 -0.1 C-0.04 -0.79, -0.36 -3.3, -0.44 -4.04 M-0.34 -0.46 C-0.5 -1.26, -0.66 -3.93, -0.72 -4.57" stroke="#000000" stroke-width="4" fill="none"></path></g></g><mask></mask><g stroke-linecap="round"><g transform="translate(244.01101233930513 281.76775271060296) rotate(318.2517008618303 -0.2258918282727791 -1.691590872992606)"><path d="M0.01 0.18 C-0.08 -0.42, -0.41 -3.13, -0.46 -3.71 M-0.42 -0.03 C-0.56 -0.59, -0.75 -2.95, -0.75 -3.43" stroke="#000000" stroke-width="4" fill="none"></path></g></g><mask></mask><g stroke-linecap="round"><g transform="translate(255.40939144191088 202.57166248962994) rotate(269.4984037203515 -0.004154822363943822 7.397525051971002)"><path d="M-0.02 -0.51 C0.02 1.92, 0.25 12.38, 0.24 14.88 M-0.69 0.41 C-0.71 2.92, -0.1 13.2, -0.07 15.62" stroke="#000000" stroke-width="4" fill="none"></path></g></g><mask></mask><g stroke-linecap="round"><g transform="translate(253.59377726988805 258.62161856435523) rotate(300.04939096180686 -0.19513223826379544 -2.66027461568342)"><path d="M0.16 0.05 C0.08 -0.81, -0.35 -4.64, -0.46 -5.52 M-0.19 -0.23 C-0.31 -1.02, -0.67 -4.4, -0.77 -5.17" stroke="#000000" stroke-width="4" fill="none"></path></g></g><mask></mask><g stroke-linecap="round"><g transform="translate(257.76798329689154 248.7604509933185) rotate(290.0628644278174 -0.1597952472770885 -2.8153537047768395)"><path d="M-0.07 -0.2 C-0.17 -1.13, -0.42 -4.65, -0.44 -5.56 M-0.53 0.47 C-0.7 -0.59, -0.81 -5.18, -0.79 -6.15" stroke="#000000" stroke-width="4" fill="none"></path></g></g><mask></mask><g stroke-linecap="round"><g transform="translate(259.6822955116004 235.46636690247533) rotate(290.0628644278174 -0.22440507658984643 -2.1127395904193236)"><path d="M-0.12 0.07 C-0.17 -0.62, -0.3 -3.61, -0.36 -4.3 M0.46 -0.2 C0.38 -0.82, -0.4 -3.14, -0.6 -3.88" stroke="#000000" stroke-width="4" fill="none"></path></g></g><mask></mask><g stroke-linecap="round"><g transform="translate(259.92376045242963 224.77063748755336) rotate(285.6015955907222 -0.2258918282727791 -1.691590872992606)"><path d="M0.09 -0.07 C0.02 -0.62, -0.42 -2.65, -0.5 -3.22 M-0.3 -0.41 C-0.4 -1.07, -0.76 -3.31, -0.8 -3.76" stroke="#000000" stroke-width="4" fill="none"></path></g></g><mask></mask><g stroke-linecap="round"><g transform="translate(235.668244931343 155.43166448811598) rotate(239.22532050034954 -0.004154822363943822 7.397525051971002)"><path d="M-0.08 0.26 C-0.08 2.72, 0.11 12.31, 0.09 14.69 M-0.78 -0.09 C-0.86 2.47, -0.31 12.82, -0.29 15.33" stroke="#000000" stroke-width="4" fill="none"></path></g></g><mask></mask><g stroke-linecap="round"><g transform="translate(257.5806378339048 202.50145507631305) rotate(266.55550576689353 -0.19513223826379544 -2.66027461568342)"><path d="M0.06 -0.07 C-0.02 -1.02, -0.5 -4.62, -0.52 -5.51 M-0.33 -0.41 C-0.47 -1.33, -0.89 -4.38, -0.87 -5.15" stroke="#000000" stroke-width="4" fill="none"></path></g></g><mask></mask><g stroke-linecap="round"><g transform="translate(255.2295271926214 191.5565932502791) rotate(256.56897923290404 -0.1597952472770885 -2.8153537047768395)"><path d="M-0.13 -0.19 C-0.15 -1.13, 0.01 -4.82, -0.04 -5.7 M0.44 0.48 C0.4 -0.39, 0.01 -4.19, -0.17 -5.29" stroke="#000000" stroke-width="4" fill="none"></path></g></g><mask></mask><g stroke-linecap="round"><g transform="translate(249.89392221662456 179.54103418186514) rotate(256.56897923290404 -0.22440507658984643 -2.1127395904193236)"><path d="M0.28 -0.07 C0.22 -0.72, -0.38 -3.44, -0.52 -4.08 M0 -0.41 C-0.11 -1.15, -0.69 -3.95, -0.84 -4.63" stroke="#000000" stroke-width="4" fill="none"></path></g></g><mask></mask><g stroke-linecap="round"><g transform="translate(244.46607894602312 169.95281854340874) rotate(252.10771039580888 -0.2258918282727791 -1.691590872992606)"><path d="M-0.08 0.15 C-0.22 -0.36, -0.5 -2.45, -0.59 -3.09 M0.53 -0.09 C0.3 -0.68, -0.7 -3, -0.94 -3.56" stroke="#000000" stroke-width="4" fill="none"></path></g></g><mask></mask><g stroke-linecap="round"><g transform="translate(196.89965309039235 122.9925516835533) rotate(221.53829878627963 -0.004154822363943822 7.397525051971002)"><path d="M-0.22 0.46 C-0.24 2.81, -0.35 11.88, -0.27 14.33 M0.68 0.22 C0.57 2.6, -0.73 12.45, -0.84 14.79" stroke="#000000" stroke-width="4" fill="none"></path></g></g><mask></mask><g stroke-linecap="round"><g transform="translate(232.22425092130652 158.04857086310858) rotate(241.22857179921382 -0.19513223826379544 -2.66027461568342)"><path d="M-0.17 -0.3 C-0.18 -1.2, -0.21 -4.28, -0.23 -5.1 M0.39 0.31 C0.35 -0.53, -0.29 -4.76, -0.43 -5.61" stroke="#000000" stroke-width="4" fill="none"></path></g></g><mask></mask><g stroke-linecap="round"><g transform="translate(226.01789880315482 148.34674303526072) rotate(231.24204526522436 -0.1597952472770885 -2.8153537047768395)"><path d="M0.16 0.22 C0.15 -0.65, -0.1 -4.53, -0.21 -5.53 M-0.19 0.03 C-0.22 -0.93, -0.32 -5.19, -0.43 -6.11" stroke="#000000" stroke-width="4" fill="none"></path></g></g><mask></mask><g stroke-linecap="round"><g transform="translate(216.24587486242854 140.03209542110972) rotate(231.24204526522436 -0.22440507658984643 -2.1127395904193236)"><path d="M0.11 0.1 C-0.02 -0.67, -0.55 -3.6, -0.65 -4.38 M-0.26 -0.16 C-0.29 -0.9, 0.12 -3.3, 0.05 -4" stroke="#000000" stroke-width="4" fill="none"></path></g></g><mask></mask><g stroke-linecap="round"><g transform="translate(207.9946866186483 133.91941207483478) rotate(226.7807764281292 -0.2258918282727791 -1.691590872992606)"><path d="M-0.2 -0.15 C-0.3 -0.79, -0.37 -3.24, -0.47 -3.73 M0.35 -0.54 C0.19 -1.15, -0.69 -2.94, -0.76 -3.46" stroke="#000000" stroke-width="4" fill="none"></path></g></g><mask></mask><g stroke-linecap="round"><g transform="translate(192.79224013947533 126.6153695503458) rotate(213.0882201598896 -0.19513223826379544 -2.66027461568342)"><path d="M-0.02 -0.35 C-0.11 -1.16, -0.7 -4.17, -0.73 -5.04 M-0.46 0.24 C-0.43 -0.65, -0.13 -4.6, -0.11 -5.52" stroke="#000000" stroke-width="4" fill="none"></path></g></g><mask></mask><g stroke-linecap="round"><g transform="translate(182.45315023716648 122.66964020914884) rotate(203.10169362590014 -0.1597952472770885 -2.8153537047768395)"><path d="M-0.34 0.28 C-0.36 -0.64, -0.14 -4.88, -0.14 -5.86 M0.13 0.12 C0.08 -0.73, -0.21 -4.64, -0.32 -5.53" stroke="#000000" stroke-width="4" fill="none"></path></g></g><mask></mask><g stroke-linecap="round"><g transform="translate(170.75233606587335 119.29391945695488) rotate(203.10169362590014 -0.22440507658984643 -2.1127395904193236)"><path d="M0.18 -0.23 C0.17 -0.98, -0.37 -3.53, -0.45 -4.2 M-0.15 0.41 C-0.19 -0.3, -0.68 -3.02, -0.72 -3.74" stroke="#000000" stroke-width="4" fill="none"></path></g></g><mask></mask><g stroke-linecap="round"><g transform="translate(160.0515075482208 118.48660400757899) rotate(198.64042478880495 -0.2258918282727791 -1.6915908729926343)"><path d="M0 0.02 C-0.08 -0.51, -0.18 -2.86, -0.29 -3.43 M-0.42 -0.27 C-0.55 -0.73, -0.57 -2.54, -0.49 -3" stroke="#000000" stroke-width="4" fill="none"></path></g></g><mask></mask><g stroke-linecap="round"><g transform="translate(97.04202365715992 130.59188018935765) rotate(513.9829007720159 -0.004154822363943822 7.397525051971002)"><path d="M0.25 -0.07 C0.19 2.37, -0.33 12.24, -0.33 14.71 M-0.29 -0.59 C-0.16 1.94, 0.68 12.72, 0.74 15.37" stroke="#000000" stroke-width="4" fill="none"></path></g></g><mask></mask><g stroke-linecap="round"><g transform="translate(137.24412559507982 119.65086791249541) rotate(181.02272431868724 -0.19513223826379544 -2.6602746156834485)"><path d="M-0.21 -0.05 C-0.27 -0.94, -0.23 -4.44, -0.22 -5.35 M0.33 -0.39 C0.22 -1.21, -0.31 -4.1, -0.41 -4.92" stroke="#000000" stroke-width="4" fill="none"></path></g></g><mask></mask><g stroke-linecap="round"><g transform="translate(126.12569508340675 120.88417234330473) rotate(531.0361977846977 -0.1597952472770885 -2.815353704776868)"><path d="M0.17 -0.03 C0.19 -1, 0.01 -4.9, -0.09 -5.87 M-0.17 -0.36 C-0.16 -1.28, -0.16 -4.68, -0.25 -5.54" stroke="#000000" stroke-width="4" fill="none"></path></g></g><mask></mask><g stroke-linecap="round"><g transform="translate(115.07433662808762 124.92658158169252) rotate(531.0361977846977 -0.22440507658984643 -2.1127395904193236)"><path d="M0.23 -0.24 C0.11 -0.97, -0.42 -3.77, -0.57 -4.41 M-0.08 0.41 C-0.28 -0.28, -0.94 -3.2, -0.91 -4.06" stroke="#000000" stroke-width="4" fill="none"></path></g></g><mask></mask><g stroke-linecap="round"><g transform="translate(105.7176347810655 129.58302253623833) rotate(526.5749289476025 -0.2258918282727791 -1.691590872992606)"><path d="M-0.12 -0.19 C-0.27 -0.69, -0.57 -2.68, -0.66 -3.26 M0.46 0.48 C0.41 -0.11, 0.1 -3.17, 0.02 -3.82" stroke="#000000" stroke-width="4" fill="none"></path></g></g><mask></mask><g stroke-linecap="round"><g transform="translate(59.2200474983174 170.6879434172538) rotate(477.8786937928377 -0.004154822363943822 7.397525051971002)"><path d="M-0.33 0.19 C-0.36 2.63, -0.41 12, -0.39 14.38 M0.5 -0.19 C0.66 2.34, 0.84 12.36, 0.65 14.87" stroke="#000000" stroke-width="4" fill="none"></path></g></g><mask></mask><g stroke-linecap="round"><g transform="translate(87.277477010447 144.2241121564516) rotate(513.7222205516022 -0.19513223826379544 -2.66027461568342)"><path d="M-0.24 -0.27 C-0.29 -1.21, -0.42 -4.72, -0.5 -5.52 M0.28 0.37 C0.19 -0.54, -0.79 -4.17, -0.83 -5.18" stroke="#000000" stroke-width="4" fill="none"></path></g></g><mask></mask><g stroke-linecap="round"><g transform="translate(77.64632245768189 151.10060341660255) rotate(503.73569401761273 -0.1597952472770885 -2.8153537047768395)"><path d="M-0.11 -0.2 C-0.17 -1.06, -0.59 -4.49, -0.63 -5.41 M0.48 0.46 C0.54 -0.47, 0.19 -4.95, 0.01 -5.91" stroke="#000000" stroke-width="4" fill="none"></path></g></g><mask></mask><g stroke-linecap="round"><g transform="translate(69.21591674476531 158.37925158195685) rotate(503.73569401761273 -0.22440507658984643 -2.1127395904193236)"><path d="M-0.31 0.22 C-0.38 -0.46, -0.43 -3.53, -0.51 -4.29 M0.18 0.03 C0.07 -0.58, -0.77 -3.21, -0.81 -3.88" stroke="#000000" stroke-width="4" fill="none"></path></g></g><mask></mask><g stroke-linecap="round"><g transform="translate(62.21555373053343 167.09515061310822) rotate(499.27442518051754 -0.2258918282727791 -1.691590872992606)"><path d="M-0.06 -0.07 C-0.13 -0.69, -0.74 -2.91, -0.78 -3.5 M-0.51 -0.41 C-0.46 -1, -0.17 -2.62, -0.15 -3.11" stroke="#000000" stroke-width="4" fill="none"></path></g></g><mask></mask><g stroke-linecap="round"><g transform="translate(47.898274775068785 226.19251016831822) rotate(449.79680829518713 -0.004154822363943822 7.397525051971002)"><path d="M-0.51 -0.18 C-0.45 2.25, 0.22 12.04, 0.26 14.46 M0.23 -0.75 C0.25 1.75, 0.13 12.41, -0.04 14.98" stroke="#000000" stroke-width="4" fill="none"></path></g></g><mask></mask><g stroke-linecap="round"><g transform="translate(50.35677658887835 190.48344453456457) rotate(480.3477955366425 -0.19513223826379544 -2.66027461568342)"><path d="M0.17 -0.22 C0.13 -1.14, -0.52 -4.82, -0.58 -5.63 M-0.17 0.44 C-0.07 -0.44, 0.14 -4.33, 0.11 -5.33" stroke="#000000" stroke-width="4" fill="none"></path></g></g><mask></mask><g stroke-linecap="round"><g transform="translate(46.19265444014218 201.41264553743576) rotate(470.36126900265305 -0.1597952472770885 -2.8153537047768395)"><path d="M-0.19 -0.31 C-0.24 -1.16, -0.15 -4.5, -0.12 -5.36 M0.35 0.3 C0.26 -0.63, -0.22 -4.78, -0.3 -5.84" stroke="#000000" stroke-width="4" fill="none"></path></g></g><mask></mask><g stroke-linecap="round"><g transform="translate(44.597301200064976 212.55132625406668) rotate(470.36126900265305 -0.22440507658984643 -2.1127395904193236)"><path d="M0.2 0.28 C0.21 -0.35, 0.01 -3.27, -0.14 -4.06 M-0.13 0.11 C-0.12 -0.6, -0.29 -3.88, -0.26 -4.6" stroke="#000000" stroke-width="4" fill="none"></path></g></g><mask></mask><g stroke-linecap="round"><g transform="translate(44.17401561272072 222.5134293723113) rotate(465.90000016555786 -0.2258918282727791 -1.691590872992606)"><path d="M0.31 0.16 C0.16 -0.49, -0.57 -3.05, -0.68 -3.65 M0.04 -0.06 C-0.01 -0.7, 0.09 -2.82, -0.01 -3.33" stroke="#000000" stroke-width="4" fill="none"></path></g></g><mask></mask><g stroke-linecap="round"><g transform="translate(69.4263965018481 275.6982162017234) rotate(420.24804481903675 -0.004154822363943822 7.397525051971002)"><path d="M-0.36 -0.41 C-0.42 1.99, 0.02 12.06, 0.12 14.67 M0.46 0.57 C0.3 3.03, -0.17 13, -0.25 15.3" stroke="#000000" stroke-width="4" fill="none"></path></g></g><mask></mask><g stroke-linecap="round"><g transform="translate(48.00725479356515 247.56009754513389) rotate(447.5782300855808 -0.19513223826379544 -2.66027461568342)"><path d="M0.08 -0.08 C0.08 -0.88, -0.21 -4.16, -0.25 -5.04 M-0.3 -0.43 C-0.32 -1.3, -0.47 -4.76, -0.45 -5.52" stroke="#000000" stroke-width="4" fill="none"></path></g></g><mask></mask><g stroke-linecap="round"><g transform="translate(50.3270599111429 258.74635883666406) rotate(437.59170355159125 -0.1597952472770885 -2.8153537047768395)"><path d="M0.14 0.28 C0.12 -0.65, 0.05 -4.69, -0.04 -5.67 M-0.21 0.12 C-0.26 -0.75, -0.09 -4.35, -0.18 -5.24" stroke="#000000" stroke-width="4" fill="none"></path></g></g><mask></mask><g stroke-linecap="round"><g transform="translate(55.30872590864328 269.1624614724956) rotate(437.59170355159125 -0.22440507658984643 -2.1127395904193236)"><path d="M0.27 -0.04 C0.15 -0.79, -0.46 -3.53, -0.58 -4.21 M-0.01 -0.37 C-0.2 -1.08, -0.82 -3.02, -0.93 -3.74" stroke="#000000" stroke-width="4" fill="none"></path></g></g><mask></mask><g stroke-linecap="round"><g transform="translate(60.87765839647636 278.1353432294113) rotate(433.1304347144961 -0.2258918282727791 -1.691590872992606)"><path d="M-0.13 0.02 C-0.25 -0.52, -0.34 -2.72, -0.44 -3.27 M0.45 -0.28 C0.26 -0.92, -0.63 -3.23, -0.71 -3.83" stroke="#000000" stroke-width="4" fill="none"></path></g></g><mask></mask><g stroke-linecap="round"><g transform="translate(107.5968362648673 306.7932886548965) rotate(402.56102310496686 -0.004154822363943822 7.397525051971002)"><path d="M0.02 0.18 C-0.02 2.67, -0.43 12.64, -0.44 15.01 M-0.63 -0.21 C-0.49 2.12, 0.54 11.66, 0.57 14.16" stroke="#000000" stroke-width="4" fill="none"></path></g></g><mask></mask><g stroke-linecap="round"><g transform="translate(72.3156544164276 293.6301900304866) rotate(422.25129611790106 -0.19513223826379544 -2.66027461568342)"><path d="M-0.28 0.14 C-0.36 -0.81, -0.4 -4.66, -0.44 -5.58 M0.22 -0.09 C0.09 -1.02, -0.57 -4.44, -0.74 -5.27" stroke="#000000" stroke-width="4" fill="none"></path></g></g><mask></mask><g stroke-linecap="round"><g transform="translate(78.16751312619272 302.7581995948326) rotate(412.2647695839116 -0.1597952472770885 -2.8153537047768395)"><path d="M-0.05 -0.26 C-0.07 -1.23, -0.42 -4.77, -0.44 -5.69 M-0.5 0.37 C-0.56 -0.56, -0.81 -4.29, -0.78 -5.26" stroke="#000000" stroke-width="4" fill="none"></path></g></g><mask></mask><g stroke-linecap="round"><g transform="translate(87.34059010377223 309.7687833726436) rotate(412.2647695839116 -0.22440507658984643 -2.1127395904193236)"><path d="M-0.12 -0.06 C-0.16 -0.74, -0.22 -3.63, -0.29 -4.37 M0.46 -0.39 C0.39 -1.01, -0.28 -3.34, -0.48 -4" stroke="#000000" stroke-width="4" fill="none"></path></g></g><mask></mask><g stroke-linecap="round"><g transform="translate(96.5736367657737 314.54989918534284) rotate(407.80350074681644 -0.2258918282727791 -1.691590872992606)"><path d="M0.16 -0.15 C0.09 -0.75, -0.44 -3.21, -0.52 -3.69 M-0.18 -0.53 C-0.29 -1.1, -0.78 -2.89, -0.84 -3.4" stroke="#000000" stroke-width="4" fill="none"></path></g></g><mask></mask><g stroke-linecap="round"><g transform="translate(111.59246176963279 324.26780164192996) rotate(394.1109444785768 -0.19513223826379544 -2.66027461568342)"><path d="M-0.07 -0.31 C-0.15 -1.12, -0.29 -4.16, -0.3 -5.01 M-0.53 0.3 C-0.66 -0.59, -0.59 -4.58, -0.53 -5.48" stroke="#000000" stroke-width="4" fill="none"></path></g></g><mask></mask><g stroke-linecap="round"><g transform="translate(121.6502812373592 328.41739135178614) rotate(384.1244179445874 -0.1597952472770885 -2.8153537047768395)"><path d="M0.09 0.31 C0.1 -0.6, 0.02 -4.73, -0.04 -5.76 M-0.29 0.16 C-0.3 -0.67, -0.15 -4.41, -0.18 -5.37" stroke="#000000" stroke-width="4" fill="none"></path></g></g><mask></mask><g stroke-linecap="round"><g transform="translate(133.17129851227128 330.3389790501319) rotate(384.1244179445874 -0.22440507658984643 -2.1127395904193236)"><path d="M0.28 -0.12 C0.19 -0.92, -0.3 -3.74, -0.42 -4.46 M-0.01 -0.49 C-0.15 -1.1, -0.58 -3.52, -0.69 -4.12" stroke="#000000" stroke-width="4" fill="none"></path></g></g><mask></mask><g stroke-linecap="round"><g transform="translate(144.60525722061357 332.2333701019402) rotate(379.6631491074922 -0.2258918282727791 -1.691590872992606)"><path d="M0.03 -0.23 C-0.09 -0.8, -0.3 -3.03, -0.44 -3.55 M-0.39 0.42 C-0.58 -0.1, -0.76 -2.62, -0.72 -3.19" stroke="#000000" stroke-width="4" fill="none"></path></g></g><mask></mask></svg>